<svg width="500" height="232" viewBox="0 0 500 232" fill="none" xmlns="http://www.w3.org/2000/svg">
<g clip-path="url(#clip0_22_525)">
<path d="M44.8765 220.162L44.2035 219.91C44.0556 219.854 29.3361 214.215 22.4408 201.427C15.5452 188.639 18.9217 173.242 18.9566 173.089L19.1155 172.388L19.7882 172.64C19.9361 172.696 34.6553 178.335 41.5509 191.123C48.4465 203.911 45.07 219.307 45.0351 219.461L44.8765 220.162ZM23.545 200.832C29.3747 211.644 41.0065 217.186 43.9536 218.451C44.514 215.293 46.2712 202.519 40.4468 191.718C34.6229 180.918 22.9865 175.367 20.0381 174.099C19.4774 177.259 17.7208 190.031 23.545 200.832Z" fill="#3F3D56"/>
<path d="M27.7102 196.942C40.1019 204.397 44.8744 219.205 44.8744 219.205C44.8744 219.205 29.5559 221.926 17.1641 214.471C4.77244 207.016 0 192.207 0 192.207C0 192.207 15.3185 189.486 27.7102 196.942Z" fill="#D0CDE1"/>
<path d="M424.286 2.84804H286.105V0H223.448V2.84804H84.6966C83.4691 2.84804 82.2537 3.08981 81.1196 3.55954C79.9856 4.02927 78.9552 4.71776 78.0873 5.58571C77.2193 6.45365 76.5308 7.48405 76.0611 8.61807C75.5914 9.7521 75.3496 10.9675 75.3496 12.195V201.408C75.3496 203.887 76.3344 206.265 78.0873 208.018C79.8402 209.77 82.2176 210.755 84.6966 210.755H424.286C425.514 210.755 426.729 210.513 427.863 210.044C428.997 209.574 430.028 208.885 430.896 208.018C431.764 207.15 432.452 206.119 432.922 204.985C433.392 203.851 433.633 202.636 433.633 201.408V12.195C433.633 10.9675 433.392 9.75209 432.922 8.61807C432.452 7.48404 431.764 6.45364 430.896 5.5857C430.028 4.71775 428.997 4.02926 427.863 3.55953C426.729 3.08981 425.514 2.84804 424.286 2.84804Z" fill="#3F3D56"/>
<path d="M421.102 19.3667H87.8813V207.338H421.102V19.3667Z" fill="#009BFF"/>
<path d="M254.207 14.2402C256.094 14.2402 257.624 12.7101 257.624 10.8226C257.624 8.93504 256.094 7.40491 254.207 7.40491C252.319 7.40491 250.789 8.93504 250.789 10.8226C250.789 12.7101 252.319 14.2402 254.207 14.2402Z" fill="#009BFF"/>
<path d="M401.973 43.29H386.177V27.4945H401.973V43.29ZM386.864 42.6033H401.286V28.1813H386.864V42.6033Z" fill="#3F3D56"/>
<path d="M442.99 203.92H410.47V201.577C410.47 201.516 410.458 201.455 410.434 201.399C410.411 201.343 410.377 201.291 410.334 201.248C410.291 201.205 410.239 201.171 410.183 201.148C410.127 201.124 410.066 201.112 410.005 201.112H398.855C398.794 201.112 398.734 201.124 398.678 201.148C398.621 201.171 398.57 201.205 398.527 201.248C398.484 201.291 398.45 201.343 398.426 201.399C398.403 201.455 398.391 201.516 398.391 201.577V203.92H391.422V201.577C391.422 201.516 391.41 201.455 391.387 201.399C391.364 201.343 391.329 201.291 391.286 201.248C391.243 201.205 391.192 201.171 391.135 201.148C391.079 201.124 391.019 201.112 390.958 201.112H379.808C379.747 201.112 379.686 201.124 379.63 201.148C379.574 201.171 379.523 201.205 379.479 201.248C379.436 201.291 379.402 201.343 379.379 201.399C379.355 201.455 379.343 201.516 379.343 201.577V203.92H372.375V201.577C372.375 201.516 372.363 201.455 372.339 201.399C372.316 201.343 372.282 201.291 372.239 201.248C372.196 201.205 372.144 201.171 372.088 201.148C372.032 201.124 371.971 201.112 371.91 201.112H360.76C360.699 201.112 360.639 201.124 360.583 201.148C360.526 201.171 360.475 201.205 360.432 201.248C360.389 201.291 360.354 201.343 360.331 201.399C360.308 201.455 360.296 201.516 360.296 201.577V203.92H353.327V201.577C353.327 201.516 353.315 201.455 353.292 201.399C353.268 201.343 353.234 201.291 353.191 201.248C353.148 201.205 353.097 201.171 353.04 201.148C352.984 201.124 352.924 201.112 352.863 201.112H341.713C341.652 201.112 341.591 201.124 341.535 201.148C341.479 201.171 341.427 201.205 341.384 201.248C341.341 201.291 341.307 201.343 341.284 201.399C341.26 201.455 341.248 201.516 341.248 201.577V203.92H334.28V201.577C334.28 201.516 334.268 201.455 334.244 201.399C334.221 201.343 334.187 201.291 334.144 201.248C334.1 201.205 334.049 201.171 333.993 201.148C333.936 201.124 333.876 201.112 333.815 201.112H322.665C322.604 201.112 322.544 201.124 322.487 201.148C322.431 201.171 322.38 201.205 322.337 201.248C322.294 201.291 322.259 201.343 322.236 201.399C322.213 201.455 322.201 201.516 322.201 201.577V203.92H315.232V201.577C315.232 201.516 315.22 201.455 315.197 201.399C315.173 201.343 315.139 201.291 315.096 201.248C315.053 201.205 315.002 201.171 314.945 201.148C314.889 201.124 314.828 201.112 314.767 201.112H303.618C303.557 201.112 303.496 201.124 303.44 201.148C303.384 201.171 303.332 201.205 303.289 201.248C303.246 201.291 303.212 201.343 303.188 201.399C303.165 201.455 303.153 201.516 303.153 201.577V203.92H296.185V201.577C296.185 201.516 296.172 201.455 296.149 201.399C296.126 201.343 296.092 201.291 296.048 201.248C296.005 201.205 295.954 201.171 295.898 201.148C295.841 201.124 295.781 201.112 295.72 201.112H208.38C208.319 201.112 208.259 201.124 208.202 201.148C208.146 201.171 208.095 201.205 208.051 201.248C208.008 201.291 207.974 201.343 207.951 201.399C207.927 201.455 207.915 201.516 207.915 201.577V203.92H200.947V201.577C200.947 201.516 200.935 201.455 200.911 201.399C200.888 201.343 200.854 201.291 200.811 201.248C200.768 201.205 200.716 201.171 200.66 201.148C200.604 201.124 200.543 201.112 200.482 201.112H189.332C189.271 201.112 189.211 201.124 189.155 201.148C189.098 201.171 189.047 201.205 189.004 201.248C188.961 201.291 188.927 201.343 188.903 201.399C188.88 201.455 188.868 201.516 188.868 201.577V203.92H181.899V201.577C181.899 201.516 181.887 201.455 181.864 201.399C181.84 201.343 181.806 201.291 181.763 201.248C181.72 201.205 181.669 201.171 181.612 201.148C181.556 201.124 181.496 201.112 181.435 201.112H170.285C170.224 201.112 170.163 201.124 170.107 201.148C170.051 201.171 169.999 201.205 169.956 201.248C169.913 201.291 169.879 201.343 169.856 201.399C169.832 201.455 169.82 201.516 169.82 201.577V203.92H162.852V201.577C162.852 201.516 162.84 201.455 162.816 201.399C162.793 201.343 162.759 201.291 162.716 201.248C162.672 201.205 162.621 201.171 162.565 201.148C162.508 201.124 162.448 201.112 162.387 201.112H151.237C151.176 201.112 151.116 201.124 151.06 201.148C151.003 201.171 150.952 201.205 150.909 201.248C150.866 201.291 150.831 201.343 150.808 201.399C150.785 201.455 150.773 201.516 150.773 201.577V203.92H143.804V201.577C143.804 201.516 143.792 201.455 143.769 201.399C143.745 201.343 143.711 201.291 143.668 201.248C143.625 201.205 143.574 201.171 143.517 201.148C143.461 201.124 143.401 201.112 143.34 201.112H132.19C132.129 201.112 132.068 201.124 132.012 201.148C131.956 201.171 131.904 201.205 131.861 201.248C131.818 201.291 131.784 201.343 131.761 201.399C131.737 201.455 131.725 201.516 131.725 201.577V203.92H124.757V201.577C124.757 201.516 124.745 201.455 124.721 201.399C124.698 201.343 124.664 201.291 124.62 201.248C124.577 201.205 124.526 201.171 124.47 201.148C124.413 201.124 124.353 201.112 124.292 201.112H113.142C113.081 201.112 113.021 201.124 112.964 201.148C112.908 201.171 112.857 201.205 112.814 201.248C112.771 201.291 112.736 201.343 112.713 201.399C112.69 201.455 112.678 201.516 112.678 201.577V203.92H105.709V201.577C105.709 201.516 105.697 201.455 105.674 201.399C105.65 201.343 105.616 201.291 105.573 201.248C105.53 201.205 105.479 201.171 105.422 201.148C105.366 201.124 105.305 201.112 105.244 201.112H94.0946C94.0336 201.112 93.9732 201.124 93.9169 201.148C93.8605 201.171 93.8093 201.205 93.7661 201.248C93.723 201.291 93.6888 201.343 93.6654 201.399C93.6421 201.455 93.6301 201.516 93.6301 201.577V203.92H72.2596C69.3025 203.92 66.4666 205.095 64.3756 207.186C62.2846 209.277 61.1099 212.113 61.1099 215.07V220.111C61.1099 223.068 62.2846 225.904 64.3756 227.995C66.4666 230.086 69.3025 231.261 72.2596 231.261H442.99C445.947 231.261 448.783 230.086 450.874 227.995C452.965 225.904 454.14 223.068 454.14 220.111V215.07C454.14 212.113 452.965 209.277 450.874 207.186C448.783 205.095 445.947 203.92 442.99 203.92Z" fill="#3F3D56"/>
<path d="M500 219.822H15.249V221.302H500V219.822Z" fill="#3F3D56"/>
<path d="M400.504 124.108H293.217V63.0286H400.504V124.108ZM294.28 123.045H399.442V64.0908H294.28V123.045Z" fill="#3F3D56"/>
<path d="M203.989 136.323H108.387V76.8378H203.989V136.323ZM109.449 135.261H202.926V77.9H109.449V135.261Z" fill="#3F3D56"/>
<path d="M153.051 113.485L152.959 112.297C152.686 109.831 153.508 107.136 155.791 104.396C157.847 101.975 158.989 100.194 158.989 98.1381C158.989 95.8087 157.527 94.2558 154.65 94.2102C153.004 94.2035 151.395 94.6973 150.036 95.6262L148.94 92.7486C150.447 91.6521 153.051 90.9213 155.472 90.9213C160.724 90.9213 163.099 94.1645 163.099 97.6355C163.099 100.742 161.364 102.98 159.171 105.583C157.162 107.958 156.431 109.968 156.568 112.297L156.613 113.485L153.051 113.485ZM152.046 119.88C152.021 119.507 152.074 119.133 152.202 118.782C152.329 118.431 152.527 118.11 152.785 117.84C153.043 117.569 153.353 117.355 153.698 117.211C154.042 117.067 154.413 116.996 154.786 117.002C156.385 117.002 157.481 118.189 157.481 119.88C157.497 120.246 157.437 120.612 157.308 120.955C157.178 121.298 156.98 121.611 156.726 121.875C156.472 122.14 156.168 122.35 155.83 122.494C155.493 122.638 155.13 122.712 154.764 122.712C154.397 122.712 154.034 122.638 153.697 122.494C153.36 122.35 153.055 122.14 152.801 121.875C152.547 121.611 152.35 121.298 152.22 120.955C152.09 120.612 152.031 120.246 152.046 119.88Z" fill="#D0CDE1"/>
<path d="M343.724 100.207L343.632 99.0193C343.358 96.553 344.181 93.858 346.464 91.1178C348.52 88.6966 349.662 86.9155 349.662 84.86C349.662 82.5307 348.2 80.9778 345.322 80.9321C343.677 80.9254 342.068 81.4193 340.709 82.3481L339.613 79.4705C341.12 78.374 343.724 77.6432 346.144 77.6432C351.397 77.6432 353.772 80.8865 353.772 84.3574C353.772 87.4637 352.037 89.7018 349.844 92.305C347.835 94.6801 347.104 96.6899 347.241 99.0193L347.286 100.207L343.724 100.207ZM342.719 106.602C342.694 106.229 342.747 105.855 342.875 105.504C343.002 105.153 343.2 104.832 343.458 104.562C343.715 104.291 344.026 104.077 344.371 103.933C344.715 103.789 345.086 103.718 345.459 103.724C347.058 103.724 348.154 104.911 348.154 106.602C348.169 106.968 348.11 107.334 347.981 107.677C347.851 108.019 347.653 108.333 347.399 108.597C347.145 108.862 346.841 109.072 346.503 109.216C346.166 109.36 345.803 109.434 345.437 109.434C345.07 109.434 344.707 109.36 344.37 109.216C344.033 109.072 343.728 108.862 343.474 108.597C343.22 108.333 343.022 108.019 342.893 107.677C342.763 107.334 342.704 106.968 342.719 106.602Z" fill="#D0CDE1"/>
<path d="M256.369 184.374C281.681 184.374 302.2 163.854 302.2 138.542C302.2 113.23 281.681 92.7107 256.369 92.7107C231.057 92.7107 210.537 113.23 210.537 138.542C210.537 163.854 231.057 184.374 256.369 184.374Z" fill="#2F2E41"/>
<path d="M238.668 201.305L224.966 198.824L229.41 170.216L243.111 172.696L238.668 201.305Z" fill="#2F2E41"/>
<path d="M270.512 177.657L256.812 175.176L252.368 199.724L266.069 202.204L270.512 177.657Z" fill="#2F2E41"/>
<path d="M275.226 203.541C275.702 201.186 270.995 198.248 264.714 196.98C258.432 195.712 252.955 196.594 252.479 198.949C252.004 201.305 256.71 204.242 262.992 205.51C269.273 206.778 274.751 205.897 275.226 203.541Z" fill="#2F2E41"/>
<path d="M246.69 202.801C247.006 200.419 242.112 197.806 235.759 196.964C229.406 196.123 224.001 197.371 223.685 199.754C223.37 202.136 228.264 204.749 234.616 205.591C240.969 206.432 246.374 205.184 246.69 202.801Z" fill="#2F2E41"/>
<path d="M259.577 142.996C268.228 142.996 275.241 135.983 275.241 127.332C275.241 118.681 268.228 111.668 259.577 111.668C250.926 111.668 243.913 118.681 243.913 127.332C243.913 135.983 250.926 142.996 259.577 142.996Z" fill="white"/>
<path d="M266.015 126.938C268.899 126.938 271.237 124.601 271.237 121.717C271.237 118.833 268.899 116.496 266.015 116.496C263.132 116.496 260.794 118.833 260.794 121.717C260.794 124.601 263.132 126.938 266.015 126.938Z" fill="#3F3D56"/>
<path d="M220.214 88.6824C219.525 71.7149 234.148 57.3432 252.877 56.5825C271.605 55.8217 287.346 68.9599 288.035 85.9275C288.724 102.895 275.706 106.75 256.977 107.511C238.249 108.272 220.903 105.65 220.214 88.6824Z" fill="white"/>
<path d="M300.295 137.205C312.631 134.377 321.912 128.945 321.025 125.073C320.137 121.2 309.417 120.353 297.081 123.181C284.745 126.008 275.464 131.44 276.351 135.313C277.239 139.185 287.959 140.032 300.295 137.205Z" fill="#2F2E41"/>
<path d="M210.329 152.166C222.666 149.338 231.946 143.907 231.059 140.034C230.171 136.161 219.451 135.314 207.115 138.142C194.779 140.969 185.498 146.401 186.386 150.274C187.273 154.146 197.993 154.994 210.329 152.166Z" fill="#2F2E41"/>
<path d="M243.781 156.604C243.536 157.953 243.56 159.338 243.851 160.678C244.142 162.018 244.694 163.288 245.475 164.415C246.257 165.542 247.252 166.504 248.406 167.246C249.559 167.988 250.847 168.496 252.196 168.74C253.546 168.984 254.93 168.96 256.27 168.669C257.61 168.379 258.88 167.827 260.007 167.045C261.134 166.264 262.096 165.268 262.838 164.115C263.58 162.962 264.088 161.674 264.332 160.324C265.359 154.649 260.972 152.641 255.297 151.614C249.621 150.586 244.808 150.929 243.781 156.604Z" fill="white"/>
<path d="M157.436 6.96948H82.0767V78.6535H157.436V6.96948Z" fill="#D0CDE1"/>
<path d="M148.872 15.5331H90.6401V60.0635H148.872V15.5331Z" fill="white"/>
<path d="M122.257 65.317H90.5825V66.9841H122.257V65.317Z" fill="#F2F2F2"/>
<path d="M122.257 70.3182H90.5825V71.9853H122.257V70.3182Z" fill="#F2F2F2"/>
<path d="M101.002 44.4787C104.685 44.4787 107.67 41.4932 107.67 37.8104C107.67 34.1276 104.685 31.1421 101.002 31.1421C97.319 31.1421 94.3335 34.1276 94.3335 37.8104C94.3335 41.4932 97.319 44.4787 101.002 44.4787Z" fill="#3F3D56"/>
<path d="M119.756 44.4787C123.439 44.4787 126.424 41.4932 126.424 37.8104C126.424 34.1276 123.439 31.1421 119.756 31.1421C116.073 31.1421 113.088 34.1276 113.088 37.8104C113.088 41.4932 116.073 44.4787 119.756 44.4787Z" fill="#009BFF"/>
<path d="M138.511 44.4787C142.194 44.4787 145.179 41.4932 145.179 37.8104C145.179 34.1276 142.194 31.1421 138.511 31.1421C134.828 31.1421 131.843 34.1276 131.843 37.8104C131.843 41.4932 134.828 44.4787 138.511 44.4787Z" fill="#E6E6E6"/>
<path d="M119.757 14.4714C121.598 14.4714 123.091 12.9786 123.091 11.1372C123.091 9.29585 121.598 7.8031 119.757 7.8031C117.915 7.8031 116.422 9.29585 116.422 11.1372C116.422 12.9786 117.915 14.4714 119.757 14.4714Z" fill="#3F3D56"/>
<path d="M193.28 145.771H117.921V217.455H193.28V145.771Z" fill="#D0CDE1"/>
<path d="M184.717 154.334H126.484V198.865H184.717V154.334Z" fill="white"/>
<path d="M159.713 161.653H139.298V182.067H159.713V161.653Z" fill="#009BFF"/>
<path d="M147.113 166.758V191.547H171.903V166.758H147.113ZM170.827 190.472H148.189V167.833H170.827V190.472Z" fill="#3F3D56"/>
<path d="M158.101 203.285H126.427V204.952H158.101V203.285Z" fill="#F2F2F2"/>
<path d="M155.6 153.273C157.442 153.273 158.934 151.78 158.934 149.939C158.934 148.097 157.442 146.604 155.6 146.604C153.759 146.604 152.266 148.097 152.266 149.939C152.266 151.78 153.759 153.273 155.6 153.273Z" fill="#3F3D56"/>
<path d="M389.484 124.31H314.125V195.994H389.484V124.31Z" fill="#D0CDE1"/>
<path d="M380.92 132.874H322.688V177.404H380.92V132.874Z" fill="white"/>
<path d="M358.068 167.735H345.541V171.447H358.068V167.735Z" fill="#3F3D56"/>
<path d="M373.213 138.831H330.396V140.422H373.213V138.831Z" fill="#3F3D56"/>
<path d="M373.213 143.87H330.396V145.461H373.213V143.87Z" fill="#3F3D56"/>
<path d="M373.213 148.908H330.396V150.499H373.213V148.908Z" fill="#3F3D56"/>
<path d="M373.213 153.946H330.396V155.537H373.213V153.946Z" fill="#3F3D56"/>
<path d="M373.213 158.984H330.396V160.575H373.213V158.984Z" fill="#3F3D56"/>
<path d="M354.305 181.824H322.63V183.492H354.305V181.824Z" fill="#F2F2F2"/>
<path d="M366.808 185.992H322.63V187.659H366.808V185.992Z" fill="#F2F2F2"/>
<path d="M351.804 131.812C353.646 131.812 355.139 130.32 355.139 128.478C355.139 126.637 353.646 125.144 351.804 125.144C349.963 125.144 348.47 126.637 348.47 128.478C348.47 130.32 349.963 131.812 351.804 131.812Z" fill="#3F3D56"/>
</g>
<defs>
<clipPath id="clip0_22_525">
<rect width="500" height="231.261" fill="white"/>
</clipPath>
</defs>
</svg>
