<svg width="407" height="400" viewBox="0 0 407 400" fill="none" xmlns="http://www.w3.org/2000/svg">
<path d="M111.803 9.56958H31.8252V141.966H111.803V9.56958Z" fill="#E0E0E0"/>
<path d="M109.147 9.56946H29.1685V141.966H109.147V9.56946Z" fill="#EBEBEB"/>
<path d="M105.749 12.2532H32.5752V139.273H105.749V12.2532Z" fill="#FAFAFA"/>
<path d="M91.4994 28.762H46.5088V122.773H91.4994V28.762Z" fill="#EBEBEB"/>
<path d="M46.5089 89.5025C46.4005 80.7194 54.298 72.1442 62.9907 70.9243C67.1383 70.337 71.5479 71.1592 75.4244 69.5689C82.3369 66.7316 84.5418 57.5419 91.4995 54.822L91.8158 122.773H46.5089V89.5025Z" fill="#E0E0E0"/>
<path d="M406.325 14.5303H329.618V94.4905H406.325V14.5303Z" fill="#E0E0E0"/>
<path d="M401.13 14.5303H324.422V94.4905H401.13V14.5303Z" fill="#FAFAFA"/>
<path d="M401.147 94.5086H324.395V14.5032H401.147V94.5086ZM324.44 94.4634H401.102V14.5484H324.44V94.4634Z" fill="#E0E0E0"/>
<path d="M390.819 25.2739H334.732V83.7373H390.819V25.2739Z" fill="#FAFAFA"/>
<path d="M334.732 84.126C334.338 84.7157 333.874 85.2558 333.35 85.7344C332.446 86.6832 331.19 87.9573 329.781 89.3488C328.371 90.7404 327.07 91.9783 326.121 92.8548C325.636 93.3711 325.09 93.8263 324.495 94.2102C324.892 93.6226 325.356 93.0829 325.877 92.6018C326.781 91.6982 328.028 90.3789 329.446 88.9874C330.865 87.5958 332.157 86.3488 333.115 85.4723C333.599 84.961 334.142 84.509 334.732 84.126Z" fill="#E0E0E0"/>
<path d="M390.819 83.9816C391.405 84.3816 391.944 84.8453 392.428 85.3641C393.331 86.2677 394.651 87.5237 396.042 88.9785C397.434 90.4333 398.663 91.6893 399.548 92.6472C400.062 93.1286 400.514 93.6719 400.895 94.2646C400.31 93.8708 399.773 93.4098 399.295 92.8911C398.346 91.9875 397.063 90.7315 395.681 89.2767C394.298 87.8219 393.042 86.5659 392.166 85.6081C391.651 85.1237 391.199 84.5774 390.819 83.9816Z" fill="#E0E0E0"/>
<path d="M390.666 25.4368C391.061 24.847 391.525 24.307 392.049 23.8284C392.952 22.9248 394.199 21.5965 395.609 20.2139C397.018 18.8314 398.32 17.5844 399.277 16.6989C399.765 16.194 400.307 15.7454 400.895 15.3616C400.501 15.9465 400.04 16.4832 399.521 16.961C398.618 17.9097 397.362 19.1929 395.907 20.5754C394.452 21.9579 393.196 23.2139 392.238 24.0904C391.762 24.5923 391.235 25.0435 390.666 25.4368Z" fill="#E0E0E0"/>
<path d="M334.57 25.5723C333.98 25.1778 333.44 24.7136 332.961 24.1898C332.012 23.2862 330.738 22.0392 329.347 20.6296C327.955 19.22 326.717 17.9188 325.841 16.961C325.329 16.4754 324.874 15.9327 324.485 15.3435C325.074 15.7354 325.614 16.1965 326.094 16.717C326.997 17.6206 328.317 18.8766 329.708 20.3314C331.1 21.7862 332.347 23.0422 333.223 24.0001C333.732 24.4701 334.183 24.9977 334.57 25.5723Z" fill="#E0E0E0"/>
<path d="M390.666 83.7376C390.658 83.6444 390.658 83.5508 390.666 83.4575C390.666 83.2587 390.666 82.9877 390.666 82.6352C390.666 81.9033 390.666 80.828 390.666 79.4817C390.666 76.7166 390.666 72.6865 390.612 67.5721C390.612 57.3252 390.548 42.741 390.503 25.2742L390.72 25.4911H334.796L335.04 25.2381C335.04 46.6988 335.04 66.804 335.04 83.7015L334.823 83.4937L375.323 83.6021L386.69 83.6563H389.708H390.756C390.672 83.6645 390.587 83.6645 390.503 83.6563H389.69H386.717L375.395 83.7105L334.732 83.819H334.516V83.6021C334.516 66.6775 334.516 46.5994 334.516 25.1387V25.0303H334.778H390.702H390.919V25.3014C390.865 42.8313 390.828 57.4607 390.801 67.7709C390.801 72.8672 390.801 76.8793 390.747 79.6353C390.747 80.9907 390.747 82.0298 390.747 82.7527C390.747 83.0871 390.747 83.3491 390.747 83.5389C390.747 83.7286 390.666 83.7467 390.666 83.7376Z" fill="#E0E0E0"/>
<path d="M372.133 45.1533H353.419V63.867H372.133V45.1533Z" fill="#EBEBEB"/>
<path d="M290.474 389.229C288.883 387.865 285.323 383.536 288.07 378.494C289.073 376.687 291.215 375.729 293.139 374.88C295.064 374.031 297.106 373.362 298.706 371.997C301.724 369.431 302.555 365.175 304.561 361.751C306.856 357.82 311.148 354.874 315.684 355.082C320.871 355.317 325.199 359.555 327.16 364.389C329.121 369.223 329.193 374.591 329.239 379.814C329.239 382.696 329.13 385.949 327.007 387.901C325.055 389.708 322.118 389.708 319.461 389.636L291.097 388.732" fill="#F5F5F5"/>
<path d="M344.735 311.229H270.133L283.57 391.352C283.847 393.023 284.593 394.581 285.721 395.845C286.848 397.109 288.312 398.026 289.94 398.491L290.202 398.563C290.419 398.617 290.636 398.69 290.862 398.735C291.363 398.833 291.87 398.891 292.38 398.907V398.988L292.742 398.925H325.994C326.601 398.923 327.206 398.862 327.802 398.744C329.743 398.443 331.532 397.514 332.895 396.099C334.258 394.684 335.119 392.861 335.347 390.91L341.826 335.699L342.115 333.503L344.672 311.645L344.735 311.229ZM330.657 362.347H323.003L323.78 339.097H332.645L330.657 362.347ZM333.368 339.097H340.705L337.994 362.347H331.407L333.368 339.097ZM311.5 388.126L311.076 367.913H322.109L321.431 388.117L311.5 388.126ZM299.6 367.913H310.308L310.778 388.117H301.136L299.6 367.913ZM300.431 388.117H291.449C290.591 382.696 289.48 375.575 288.278 367.913H298.859L300.431 388.117ZM299.166 362.347L297.359 339.097H309.648L310.172 362.347H299.166ZM310.913 362.347L310.38 339.097H323.03L322.262 362.347H310.913ZM310.253 333.512L309.756 311.98H323.925L323.211 333.512H310.253ZM309.512 333.512H296.925L295.254 311.98H309.025L309.512 333.512ZM296.175 333.512H282.856C282.386 330.54 281.952 327.729 281.537 325.19C280.145 316.488 279.621 313.208 279.332 311.98H294.513L296.175 333.512ZM296.609 339.097L298.425 362.347H287.401C287.031 359.988 286.66 357.603 286.281 355.217C285.422 349.723 284.555 344.238 283.742 339.097H296.609ZM286.678 362.347H279.449L275.546 339.097H282.983C284.13 346.271 285.386 354.268 286.678 362.347ZM287.582 367.922C288.684 374.916 289.76 381.81 290.754 388.126H283.832L280.353 367.913L287.582 367.922ZM322.199 388.126L322.877 367.922H330.241L328.515 388.126H322.199ZM324.006 333.512L324.72 311.98H335.012L333.205 333.512H324.006ZM278.672 311.98C278.971 313.534 280.326 322.01 282.151 333.512H274.66L271.046 311.98H278.672ZM335.012 388.126H329.247L330.955 367.913H337.362L335.012 388.126ZM341.419 333.512H333.91L335.717 311.98H343.913L341.419 333.512Z" fill="#E0E0E0"/>
<path d="M387.196 399.765C387.196 399.901 300.513 400 193.607 400C86.7011 400 0 399.901 0 399.765C0 399.63 86.665 399.53 193.607 399.53C300.549 399.53 387.196 399.639 387.196 399.765Z" fill="#263238"/>
<path d="M283.525 301.877L180.956 301.805C175.033 301.8 169.353 299.444 165.167 295.254C160.98 291.063 158.628 285.382 158.628 279.459V22.3282C158.63 19.3899 159.212 16.4808 160.34 13.7676C161.468 11.0544 163.12 8.59031 165.202 6.51636C167.283 4.44241 169.753 2.79933 172.471 1.68118C175.188 0.563035 178.099 -0.00822863 181.037 8.95491e-05L283.606 0.0633418C289.529 0.0681323 295.209 2.42457 299.395 6.61478C303.582 10.805 305.934 16.4861 305.934 22.4096L305.88 279.531C305.881 282.467 305.303 285.374 304.18 288.086C303.057 290.798 301.41 293.263 299.334 295.338C297.258 297.413 294.793 299.059 292.08 300.181C289.368 301.303 286.46 301.88 283.525 301.877Z" fill="#455A64"/>
<path d="M283.497 9.16274H263.618C262.97 9.17682 262.331 9.31843 261.738 9.57947C261.145 9.84052 260.609 10.2159 260.161 10.6841C259.713 11.1524 259.361 11.7043 259.127 12.3084C258.892 12.9125 258.778 13.5569 258.793 14.2049V17.8193C258.807 18.4672 258.694 19.1117 258.459 19.7158C258.224 20.3199 257.873 20.8718 257.425 21.34C256.977 21.8083 256.441 22.1836 255.848 22.4447C255.254 22.7057 254.616 22.8473 253.968 22.8614H215.203C213.893 22.8306 212.65 22.2814 211.745 21.3343C210.84 20.3872 210.348 19.1197 210.378 17.8103V14.1958C210.407 12.8864 209.915 11.6189 209.01 10.6718C208.105 9.72474 206.862 9.17547 205.552 9.14466H181.155C179.099 9.14229 177.063 9.54511 175.164 10.3301C173.264 11.1151 171.537 12.2669 170.083 13.7195C168.629 15.1722 167.475 16.8973 166.688 18.7962C165.901 20.6951 165.495 22.7305 165.495 24.7861L165.45 275.763C165.45 279.911 167.097 283.889 170.028 286.823C172.959 289.758 176.935 291.409 181.083 291.414L283.443 291.468C285.499 291.47 287.535 291.067 289.435 290.282C291.334 289.497 293.061 288.346 294.515 286.893C295.969 285.44 297.123 283.715 297.91 281.816C298.698 279.917 299.103 277.882 299.103 275.826V24.8494C299.112 20.7002 297.474 16.7169 294.548 13.7754C291.621 10.8338 287.647 9.1747 283.497 9.16274Z" fill="#FAFAFA"/>
<path d="M265.714 17.3041H264.576V18.8944H265.714V17.3041Z" fill="#263238"/>
<path d="M267.567 16.5995H266.429V18.9037H267.567V16.5995Z" fill="#263238"/>
<path d="M269.411 16.066H268.272V18.9034H269.411V16.066Z" fill="#263238"/>
<path d="M271.263 15.036H270.124V18.9034H271.263V15.036Z" fill="#263238"/>
<path d="M288.043 18.9759H282.341C282.233 18.9759 282.128 18.9333 282.051 18.8573C281.973 18.7813 281.928 18.6779 281.926 18.5692V15.7319C281.926 15.6241 281.969 15.5206 282.045 15.4444C282.121 15.3681 282.225 15.3253 282.332 15.3253H288.043C288.066 15.3162 288.092 15.3162 288.115 15.3253C288.123 15.3518 288.123 15.3801 288.115 15.4066V16.3102H288.73C288.759 16.3102 288.786 16.3216 288.807 16.342C288.827 16.3623 288.838 16.3899 288.838 16.4187V17.7831C288.836 17.8103 288.824 17.8356 288.804 17.854C288.784 17.8724 288.757 17.8826 288.73 17.8825H288.115V18.7861C288.141 18.7957 288.161 18.8149 288.172 18.8394C288.183 18.864 288.184 18.892 288.174 18.9171C288.165 18.9423 288.145 18.9626 288.121 18.9736C288.096 18.9846 288.068 18.9854 288.043 18.9759ZM287.935 15.5331H282.332C282.306 15.5331 282.28 15.5383 282.256 15.5482C282.232 15.5582 282.21 15.5729 282.192 15.5913C282.173 15.6098 282.159 15.6317 282.149 15.6558C282.139 15.68 282.134 15.7058 282.134 15.7319V18.5692C282.134 18.5961 282.139 18.6227 282.15 18.6475C282.16 18.6722 282.176 18.6945 282.195 18.7131C282.214 18.7317 282.237 18.7461 282.263 18.7556C282.288 18.765 282.315 18.7693 282.341 18.768H287.935V17.8644C287.935 17.8357 287.946 17.8081 287.967 17.7877C287.987 17.7674 288.014 17.756 288.043 17.756H288.649V16.5723H288.043C288.029 16.5735 288.016 16.5719 288.002 16.5675C287.989 16.563 287.977 16.5559 287.967 16.5466C287.957 16.5372 287.949 16.5258 287.943 16.5131C287.938 16.5004 287.935 16.4867 287.935 16.4729V15.5331Z" fill="#263238"/>
<path d="M282.603 18.307V16.0028H287.473V17.042V17.2679V18.307H282.603Z" fill="#263238"/>
<path d="M276.739 18.7592C276.736 18.6496 276.692 18.5453 276.614 18.4678C276.537 18.3903 276.433 18.3458 276.323 18.3435C276.213 18.3435 276.107 18.3873 276.029 18.4653C275.951 18.5432 275.907 18.6489 275.907 18.7592C275.906 18.8141 275.916 18.8687 275.936 18.9197C275.957 18.9707 275.988 19.017 276.026 19.0558C276.065 19.0947 276.112 19.1252 276.162 19.1457C276.213 19.1662 276.268 19.1761 276.323 19.1748C276.433 19.1748 276.539 19.131 276.617 19.0531C276.695 18.9751 276.739 18.8694 276.739 18.7592Z" fill="#263238"/>
<path d="M274.859 17.7562L275.393 18.2894C275.51 18.168 275.65 18.0715 275.805 18.0056C275.961 17.9397 276.127 17.9057 276.296 17.9057C276.465 17.9057 276.632 17.9397 276.787 18.0056C276.942 18.0715 277.083 18.168 277.2 18.2894L277.733 17.7562C277.543 17.5667 277.318 17.4171 277.069 17.3162C276.821 17.2153 276.555 17.1652 276.287 17.1689C275.752 17.1693 275.24 17.3804 274.859 17.7562Z" fill="#263238"/>
<path d="M276.287 15.9759C275.444 15.9659 274.631 16.2909 274.028 16.8795L274.552 17.4127C275.012 16.9563 275.634 16.7003 276.282 16.7003C276.931 16.7003 277.552 16.9563 278.013 17.4127L278.546 16.8795C277.941 16.2925 277.129 15.9678 276.287 15.9759Z" fill="#263238"/>
<path d="M273.125 16.0482L273.658 16.5813C274.346 15.8938 275.278 15.5076 276.251 15.5076C277.224 15.5076 278.156 15.8938 278.844 16.5813L279.377 16.0482C278.547 15.2205 277.423 14.7557 276.251 14.7557C275.079 14.7557 273.955 15.2205 273.125 16.0482Z" fill="#263238"/>
<path d="M239.13 40.3911H232.245C231.771 40.3911 231.386 40.7754 231.386 41.2495V45.9212C231.386 46.3953 231.771 46.7796 232.245 46.7796H239.13C239.604 46.7796 239.989 46.3953 239.989 45.9212V41.2495C239.989 40.7754 239.604 40.3911 239.13 40.3911Z" fill="#263238"/>
<path d="M233.284 40.807H232.38V39.7588C232.357 39.3106 232.425 38.8622 232.58 38.4411C232.736 38.02 232.975 37.635 233.284 37.3094C233.593 36.9838 233.965 36.7245 234.378 36.5474C234.79 36.3702 235.234 36.2788 235.683 36.2788C236.132 36.2788 236.576 36.3702 236.989 36.5474C237.401 36.7245 237.773 36.9838 238.082 37.3094C238.391 37.635 238.63 38.02 238.786 38.4411C238.941 38.8622 239.009 39.3106 238.986 39.7588V40.4456H238.082V39.7588C238.102 39.4314 238.055 39.1033 237.944 38.7948C237.832 38.4862 237.659 38.2038 237.434 37.9648C237.209 37.7259 236.938 37.5354 236.637 37.4053C236.336 37.2751 236.011 37.2079 235.683 37.2079C235.355 37.2079 235.031 37.2751 234.729 37.4053C234.428 37.5354 234.157 37.7259 233.932 37.9648C233.708 38.2038 233.534 38.4862 233.423 38.7948C233.311 39.1033 233.264 39.4314 233.284 39.7588V40.807Z" fill="#263238"/>
<path d="M166.499 198.694C166.587 190.57 168.822 182.614 172.976 175.631C177.13 168.649 183.057 162.889 190.155 158.936C200.095 153.514 211.679 152.104 222.73 149.565C233.781 147.026 245.239 142.833 252.07 133.788C261.305 121.563 259.543 104.186 266.212 90.4152C269.312 84.1975 274.016 78.9203 279.838 75.1286C285.66 71.3368 292.389 69.168 299.329 68.8461V278.944C299.329 282.33 297.984 285.578 295.589 287.972C293.195 290.367 289.947 291.712 286.561 291.712H179.285C177.607 291.713 175.945 291.384 174.394 290.743C172.844 290.102 171.435 289.161 170.247 287.976C169.06 286.79 168.118 285.382 167.475 283.833C166.831 282.283 166.5 280.622 166.499 278.944V198.694Z" fill="#EBEBEB"/>
<path d="M189.089 89.2676C189.089 81.4785 193.173 76.834 198.839 76.834C204.504 76.834 208.616 81.4785 208.616 89.2676C208.616 97.0567 204.495 101.71 198.839 101.71C193.182 101.71 189.089 97.0567 189.089 89.2676ZM206.032 89.2676C206.032 82.7345 203.095 79.1382 198.803 79.1382C194.511 79.1382 191.574 82.7526 191.574 89.2676C191.574 95.7826 194.511 99.4061 198.803 99.4061C203.095 99.4061 206.05 95.7826 206.05 89.2676H206.032Z" fill="#263238"/>
<path d="M229.877 89.0599C229.877 97.3731 225.359 101.71 218.7 101.71C216.682 101.796 214.678 101.338 212.899 100.382L213.911 98.358C215.351 99.1903 217.002 99.5888 218.664 99.5056C223.941 99.5056 227.329 96.1171 227.329 89.4756C227.329 88.9244 227.329 88.2196 227.221 87.4876C226.001 90.1985 223.137 91.6804 219.748 91.6804C214.887 91.6804 211.498 88.8159 211.498 84.3431C211.498 79.8702 215.112 76.8341 219.847 76.8341C226.344 76.807 229.877 81.325 229.877 89.0599ZM226.417 84.2075C226.417 81.4967 224.185 78.9666 219.956 78.9666C216.423 78.9666 213.983 81.0268 213.983 84.2708C213.983 87.5147 216.359 89.5479 220.128 89.5479C223.896 89.5479 226.417 87.2437 226.417 84.2075Z" fill="#263238"/>
<path d="M233.546 84.8667C233.535 84.6188 233.575 84.3712 233.664 84.1393C233.752 83.9075 233.888 83.6964 234.061 83.5193C234.235 83.3421 234.444 83.2026 234.674 83.1095C234.904 83.0164 235.151 82.9717 235.399 82.9782C235.647 82.9769 235.892 83.025 236.121 83.1196C236.351 83.2142 236.559 83.3534 236.734 83.5292C236.908 83.7049 237.047 83.9136 237.14 84.1432C237.234 84.3729 237.281 84.6188 237.278 84.8667C237.283 85.3708 237.088 85.8563 236.736 86.217C236.384 86.5777 235.903 86.7842 235.399 86.7914C235.15 86.7879 234.905 86.7352 234.677 86.6363C234.449 86.5374 234.243 86.3944 234.071 86.2154C233.899 86.0364 233.764 85.8251 233.674 85.5936C233.584 85.3621 233.54 85.115 233.546 84.8667ZM233.546 99.7491C233.535 99.5012 233.575 99.2536 233.664 99.0218C233.752 98.7899 233.888 98.5789 234.061 98.4017C234.235 98.2245 234.444 98.085 234.674 97.9919C234.904 97.8988 235.151 97.8541 235.399 97.8606C235.647 97.8594 235.892 97.9074 236.121 98.002C236.351 98.0966 236.559 98.2358 236.734 98.4116C236.908 98.5873 237.047 98.796 237.14 99.0257C237.234 99.2553 237.281 99.5012 237.278 99.7491C237.283 100.253 237.088 100.739 236.736 101.099C236.384 101.46 235.903 101.667 235.399 101.674C235.15 101.67 234.905 101.618 234.677 101.519C234.449 101.42 234.243 101.277 234.071 101.098C233.899 100.919 233.764 100.707 233.674 100.476C233.584 100.244 233.54 99.9974 233.546 99.7491Z" fill="#263238"/>
<path d="M257.618 99.2615V101.502H240.449V99.6953L250.615 89.7556C253.38 87.0448 253.904 85.3912 253.904 83.7104C253.904 80.8821 251.907 79.1382 248.175 79.1382C246.93 79.06 245.683 79.2631 244.527 79.7324C243.371 80.2016 242.336 80.9251 241.498 81.849L239.69 80.3038C241.579 78.0719 244.615 76.8159 248.356 76.8159C253.317 76.8159 256.488 79.3279 256.488 83.4122C256.488 85.7616 255.757 87.858 252.467 91.0658L244.154 99.1983L257.618 99.2615Z" fill="#263238"/>
<path d="M260.618 89.2676C260.618 81.4785 264.702 76.834 270.368 76.834C276.034 76.834 280.145 81.4785 280.145 89.2676C280.145 97.0567 276.025 101.71 270.368 101.71C264.712 101.71 260.618 97.0567 260.618 89.2676ZM277.561 89.2676C277.561 82.7345 274.624 79.1382 270.332 79.1382C266.04 79.1382 263.103 82.7526 263.103 89.2676C263.103 95.7826 266.103 99.3971 270.413 99.3971C274.723 99.3971 277.561 95.7826 277.561 89.2676Z" fill="#263238"/>
<path d="M207.805 58.2115C209.854 48.6778 203.786 39.2881 194.252 37.2391C184.719 35.19 175.329 41.2575 173.28 50.7912C171.231 60.3249 177.298 69.7146 186.832 71.7636C196.366 73.8127 205.755 67.7452 207.805 58.2115Z" fill="#E0E0E0"/>
<path d="M94.797 194.962C93.5229 194.059 91.9506 193.679 90.5319 193.011C89.1133 192.342 87.7398 191.203 87.6043 189.613C87.4145 187.3 89.9627 185.556 90.1163 183.288C90.3241 180.026 85.9145 178.246 85.273 175.047C84.7398 172.39 86.9898 169.887 86.8994 167.177C86.8091 164.466 84.4597 162.451 83.3934 159.948C80.8995 154.183 85.4898 146.746 82.0109 141.514C80.9558 140.198 79.7756 138.988 78.4869 137.9C77.2941 136.707 76.255 135.189 76.3995 133.463L69.8755 130.499C67.6888 127.156 62.7279 127.029 59.0322 128.457C55.3364 129.885 52.0292 132.442 48.1889 133.4C46.3094 133.861 46.5805 131.077 44.6829 131.466C42.1799 131.972 39.1167 134.891 38.3577 137.312C37.5986 139.906 37.0655 142.779 36.1438 145.327C35.1227 148.138 32.1137 150.098 31.8246 153.08C31.4993 156.55 35.0866 159.406 35.0956 162.875C35.0956 166.625 30.9571 169.987 32.2764 173.502C33.0354 175.508 35.3486 176.583 36.1619 178.571C37.2733 181.282 35.0595 184.336 35.2583 187.291C35.4571 190.246 37.9149 192.414 40.2372 194.185C49.0798 201.087 58.9739 206.524 69.5411 210.288C74.1224 211.86 78.9477 213.062 83.773 212.628C88.5982 212.194 93.4506 209.917 95.9807 205.742C98.05 202.354 98.0319 197.285 94.797 194.962Z" fill="#263238"/>
<path d="M76.1379 131.827C75.5447 129.455 74.3304 127.283 72.6199 125.535C70.9094 123.788 68.7643 122.527 66.4051 121.883C64.046 121.239 61.5579 121.235 59.1966 121.871C56.8353 122.507 54.6859 123.76 52.9694 125.502C51.5779 126.912 50.4755 128.637 48.8309 129.74C46.9695 130.996 46.6984 130.643 44.6201 131.448C42.5418 132.252 38.7195 138.062 38.7828 140.303L37.7437 150.116C37.825 152.411 40.7798 153.731 42.9484 152.954C45.1171 152.176 46.5629 150.17 47.7195 148.182C48.8761 146.195 49.9333 144.044 51.8309 142.77C54.9483 140.574 59.1772 141.333 62.9091 142.092C66.641 142.851 70.9693 143.402 73.888 140.945C76.4 138.785 76.9421 135.017 76.1379 131.827Z" fill="#263238"/>
<path d="M78.1979 145.833C77.7732 139.444 73.5262 131.619 67.1648 132.279L47.2855 137.348C46.3544 137.45 45.4952 137.897 44.8779 138.601C44.2605 139.306 43.9298 140.216 43.9512 141.152L46.1831 189.043H46.0385C46.0385 189.043 54.171 206.167 67.2552 202.037C69.8576 201.215 67.4901 194.754 68.0142 191.827H68.1407C68.1407 191.483 68.1407 191.158 68.1407 190.824C68.3979 188.64 68.4252 186.435 68.2221 184.245C68.2221 180.378 68.2221 178.824 68.2221 178.824C68.2221 178.824 76.3545 177.45 78.0443 166.806C78.9389 161.61 78.6587 152.926 78.1979 145.833Z" fill="#FFBE9D"/>
<path d="M76.5531 154.038C76.5581 154.395 76.4226 154.74 76.176 154.999C75.9293 155.257 75.591 155.409 75.2339 155.421C75.0603 155.434 74.8858 155.413 74.7205 155.358C74.5552 155.304 74.4024 155.216 74.2712 155.102C74.14 154.988 74.0328 154.848 73.9561 154.692C73.8794 154.536 73.8345 154.366 73.8243 154.192C73.8216 153.835 73.9578 153.491 74.204 153.233C74.4502 152.975 74.7872 152.823 75.1435 152.809C75.3174 152.794 75.4924 152.815 75.6582 152.869C75.824 152.923 75.9773 153.01 76.1088 153.125C76.2403 153.24 76.3474 153.38 76.4237 153.536C76.5001 153.693 76.5441 153.864 76.5531 154.038Z" fill="#263238"/>
<path d="M76.3183 150.351C76.1556 150.532 75.1165 149.773 73.6074 149.773C72.0984 149.773 71.0683 150.523 70.8966 150.342C70.7249 150.162 70.987 149.936 71.4569 149.601C72.0928 149.158 72.8501 148.921 73.6255 148.924C74.3881 148.923 75.1313 149.163 75.749 149.61C76.246 149.999 76.4086 150.27 76.3183 150.351Z" fill="#263238"/>
<path d="M62.6653 154.517C62.6702 154.872 62.5357 155.215 62.2908 155.471C62.0458 155.728 61.7098 155.879 61.3551 155.891C61.1812 155.905 61.0062 155.885 60.8404 155.831C60.6745 155.776 60.5213 155.689 60.3898 155.575C60.2583 155.46 60.1512 155.32 60.0749 155.163C59.9985 155.006 59.9545 154.836 59.9454 154.662C59.9405 154.307 60.075 153.964 60.32 153.707C60.565 153.45 60.9009 153.3 61.2557 153.288C61.4295 153.273 61.6045 153.294 61.7704 153.348C61.9362 153.402 62.0894 153.489 62.2209 153.604C62.3524 153.718 62.4595 153.858 62.5359 154.015C62.6122 154.172 62.6562 154.343 62.6653 154.517Z" fill="#263238"/>
<path d="M61.8788 150.658C61.7162 150.839 60.677 150.071 59.168 150.08C57.659 150.089 56.6289 150.83 56.4572 150.649C56.2855 150.469 56.5475 150.243 57.0174 149.899C57.6557 149.461 58.4121 149.228 59.1861 149.231C59.9476 149.227 60.6908 149.464 61.3095 149.908C61.8065 150.261 61.9601 150.577 61.8788 150.658Z" fill="#263238"/>
<path d="M67.2374 161.547C68.0101 161.297 68.812 161.148 69.6229 161.104C69.9934 161.104 70.3548 160.996 70.4181 160.734C70.4441 160.347 70.3561 159.96 70.1651 159.622C69.8036 158.719 69.4332 157.77 69.0446 156.767C67.4994 152.71 66.3338 149.366 66.5416 149.303C66.7494 149.24 68.0958 152.484 69.641 156.532C70.0115 157.535 70.3729 158.493 70.7072 159.405C70.9449 159.858 71.0153 160.379 70.906 160.878C70.8518 161.011 70.7683 161.129 70.6619 161.224C70.5555 161.32 70.4289 161.39 70.2916 161.43C70.0845 161.482 69.8725 161.512 69.6591 161.52C68.856 161.628 68.0427 161.637 67.2374 161.547Z" fill="#263238"/>
<path d="M68.2948 178.914C63.2819 179.002 58.3429 177.698 54.0269 175.146C54.0269 175.146 57.4967 182.447 68.1502 181.471L68.2948 178.914Z" fill="#EB996E"/>
<path d="M66.6233 165.089C66.3441 164.736 65.9792 164.46 65.5632 164.287C65.1472 164.115 64.694 164.052 64.2468 164.104C63.9229 164.134 63.6086 164.23 63.3228 164.385C63.037 164.541 62.7857 164.752 62.5841 165.007C62.3864 165.252 62.2691 165.552 62.248 165.865C62.227 166.179 62.3034 166.492 62.4667 166.76C62.7066 167.021 63.0178 167.205 63.3616 167.29C63.7054 167.376 64.0666 167.358 64.4004 167.239C65.0922 166.994 65.728 166.613 66.2708 166.119C66.4363 165.999 66.5773 165.849 66.6865 165.676C66.7413 165.596 66.7706 165.502 66.7706 165.405C66.7706 165.308 66.7413 165.214 66.6865 165.134" fill="#EB996E"/>
<path d="M62.9182 162.568C63.1531 162.568 63.1622 164.149 64.5266 165.279C65.8911 166.408 67.5898 166.228 67.6079 166.453C67.626 166.679 67.2284 166.761 66.5145 166.779C65.5768 166.788 64.6653 166.469 63.9393 165.875C63.2466 165.308 62.7999 164.496 62.6923 163.607C62.629 162.956 62.8098 162.559 62.9182 162.568Z" fill="#263238"/>
<path d="M62.5834 148.083C62.4388 148.49 60.9659 148.3 59.249 148.508C57.5322 148.715 56.1316 149.194 55.8967 148.842C55.7973 148.67 56.0412 148.291 56.6015 147.938C57.3424 147.443 58.1916 147.133 59.0774 147.035C59.9599 146.931 60.8545 147.036 61.6888 147.342C62.2761 147.586 62.5834 147.893 62.5834 148.083Z" fill="#263238"/>
<path d="M75.7675 146.104C75.5145 146.438 74.5025 146.104 73.2826 146.104C72.0627 146.104 71.0417 146.339 70.7977 145.987C70.6983 145.815 70.8609 145.481 71.3037 145.164C71.9092 144.785 72.6135 144.594 73.3275 144.615C74.0416 144.636 74.7334 144.868 75.3157 145.282C75.7404 145.598 75.885 145.941 75.7675 146.104Z" fill="#263238"/>
<path d="M66.8127 129.586L65.9091 128.43C59.76 129.137 53.7352 130.675 47.9996 133.002C45.7045 133.905 43.3912 135.044 41.8189 136.96C39.6684 139.589 39.325 143.222 39.1081 146.61C38.2045 159.532 37.4003 172.815 41.4665 185.131C42.4424 183.559 44.3581 182.854 46.1743 182.501C47.9906 182.149 49.8972 182.032 51.596 181.191C52.4886 180.707 53.2709 180.042 53.8931 179.24C54.5153 178.437 54.9639 177.514 55.2104 176.529C55.6925 174.536 55.4591 172.438 54.5508 170.601C53.5658 168.55 51.84 166.571 52.2375 164.339C52.6351 162.107 55.364 160.67 55.9965 158.375C57.0899 154.408 51.4785 150.848 52.6442 146.89C52.9 146.177 53.2989 145.524 53.8163 144.971C54.3338 144.418 54.9589 143.976 55.6532 143.673C57.0086 142.996 58.4995 142.616 59.873 141.975C62.1544 140.863 64.0416 139.081 65.2819 136.867C66.5222 134.652 67.0563 132.112 66.8127 129.586Z" fill="#263238"/>
<path d="M120.559 210.748L108.107 230.122C108.589 230.828 109.244 231.399 110.01 231.779C110.776 232.158 111.627 232.335 112.481 232.29C115.481 232.164 119.601 224.682 120.089 223.173C120.577 221.664 119.918 220.2 120.36 219.188C120.803 218.176 120.631 215.411 120.631 215.411C120.568 215.573 123.324 211.887 120.559 210.748Z" fill="#FFBE9D"/>
<path d="M104.665 230.112L111.152 204.459C111.252 204.081 111.425 203.727 111.662 203.417C111.9 203.106 112.196 202.846 112.535 202.652L121.96 197.275C122.238 197.119 122.563 197.071 122.875 197.139C123.186 197.207 123.462 197.388 123.649 197.646C123.76 197.799 123.836 197.975 123.872 198.16C123.908 198.346 123.903 198.537 123.857 198.721L116.99 225.721L104.665 230.112Z" fill="#263238"/>
<path d="M101.394 249.992L116.457 222.17L110.782 214.823L89.5835 230.908L95.1407 246.197L101.394 249.992Z" fill="#009BFF"/>
<path d="M116.637 228.206C116.769 227.833 116.865 227.449 116.927 227.058C117.026 225.976 116.919 224.884 116.61 223.842V223.778V223.715C116.742 223.505 116.828 223.268 116.86 223.022C116.893 222.776 116.873 222.525 116.8 222.287C116.592 221.751 116.223 221.293 115.743 220.977L115.58 220.869L115.689 220.697L117.396 218.149C117.554 217.945 117.688 217.724 117.794 217.489C117.862 217.268 117.843 217.028 117.74 216.821C117.496 216.341 117.136 215.931 116.692 215.628L116.475 215.474L116.646 215.275C117.107 214.751 117.622 214.227 118.137 213.694C119.019 212.787 119.849 211.83 120.622 210.83C120.972 210.37 121.275 209.877 121.526 209.357C121.644 209.125 121.72 208.874 121.752 208.616C121.752 208.381 121.661 208.254 121.526 208.227H121.472C121.182 208.198 120.889 208.244 120.622 208.363C120.315 208.476 120.013 208.606 119.719 208.751C119.168 209.05 118.652 209.357 118.183 209.655C117.279 210.269 116.421 210.848 115.761 211.327L114.216 212.447C114.044 212.599 113.852 212.726 113.646 212.827C113.787 212.646 113.951 212.485 114.134 212.348C114.469 212.05 114.966 211.634 115.607 211.119C116.249 210.604 117.044 210.007 117.984 209.366C118.463 209.041 118.969 208.715 119.538 208.399C119.83 208.238 120.131 208.096 120.442 207.974C120.792 207.803 121.188 207.749 121.571 207.821H121.517C121.711 207.848 121.886 207.95 122.005 208.106C122.123 208.262 122.175 208.458 122.149 208.652C122.12 208.966 122.034 209.272 121.896 209.556C121.633 210.109 121.312 210.633 120.939 211.119C120.163 212.143 119.324 213.118 118.427 214.037C117.912 214.571 117.396 215.095 116.936 215.61V215.257C117.455 215.614 117.873 216.1 118.146 216.667C118.286 216.977 118.305 217.328 118.201 217.652C118.083 217.92 117.931 218.172 117.749 218.402C117.134 219.305 116.547 220.155 115.996 220.95V220.661C116.54 221.036 116.951 221.574 117.171 222.197C117.254 222.483 117.275 222.783 117.233 223.077C117.191 223.372 117.087 223.654 116.927 223.905V223.778C117.215 224.863 117.274 225.995 117.098 227.104C117.045 227.401 116.951 227.69 116.818 227.962C116.71 228.125 116.656 228.215 116.637 228.206Z" fill="#EB996E"/>
<path d="M123.65 197.637C123.414 197.849 123.153 198.032 122.873 198.179C122.357 198.505 121.607 198.966 120.668 199.526L117.37 201.505L115.418 202.634C114.708 202.977 114.045 203.411 113.448 203.926C112.929 204.495 112.584 205.201 112.454 205.959C112.255 206.718 112.065 207.441 111.885 208.146L110.9 211.842C110.611 212.89 110.367 213.739 110.186 214.318C110.12 214.631 110.014 214.935 109.87 215.221C109.875 214.915 109.924 214.611 110.014 214.318C110.132 213.721 110.33 212.863 110.574 211.806C110.818 210.749 111.135 209.456 111.478 208.083C111.647 207.378 111.827 206.646 112.02 205.887C112.167 205.045 112.549 204.262 113.123 203.628C113.757 203.092 114.455 202.637 115.201 202.273L117.171 201.17L120.514 199.363C121.472 198.839 122.249 198.459 122.791 198.152C123.052 197.941 123.341 197.767 123.65 197.637Z" fill="#455A64"/>
<path d="M117.406 206.402C117.171 206.962 117.143 207.486 117.342 207.567C117.541 207.649 117.893 207.269 118.128 206.709C118.363 206.149 118.39 205.634 118.192 205.543C117.993 205.453 117.64 205.851 117.406 206.402Z" fill="white"/>
<path d="M70.4902 190.851C73.7296 192.017 76.7072 193.811 79.2531 196.129C81.7989 198.447 83.8631 201.244 85.3275 204.36L105.55 247.389L122.972 254.456L107.61 258.874L93.966 248.853L70.4902 190.851Z" fill="#009BFF"/>
<path d="M107.629 258.874L100.291 264.531L63.6771 226.869L42.7495 189.062L45.1712 182.031L61.3548 188.772L67.1469 197.339L68.4391 186.495L69.4782 187.95L71.168 192.531C71.168 192.531 87.0534 205.751 90.4871 216.224C93.3063 224.998 92.4479 243.07 94.2099 247.95L107.629 258.874Z" fill="#FAFAFA"/>
<path d="M38.8282 188.574C38.5842 189.306 23.1777 195.496 22.4458 200.89C21.7139 206.285 33.515 247.995 33.515 247.995L52.2287 264.531H100.292L85.0477 235.986C81.7619 229.831 77.6046 224.182 72.7044 219.215C68.1864 214.643 62.7647 208.986 59.9274 205.616C56.8823 201.956 43.9697 184.833 43.9697 184.833L38.8282 188.574Z" fill="#009BFF"/>
<path d="M48.4692 190.281C49.4032 190.617 50.3096 191.025 51.1801 191.501C52.8337 192.315 55.1017 193.453 57.5957 194.745L60.433 196.227L60.1077 196.444C59.9992 194.758 60.0993 193.064 60.4059 191.402C60.4914 190.744 60.671 190.102 60.939 189.495C60.8874 190.15 60.8029 190.801 60.686 191.447C60.4744 193.092 60.429 194.754 60.5505 196.408V196.806L60.1981 196.625L57.3969 195.179C54.9029 193.887 52.662 192.694 51.0716 191.809C50.1665 191.367 49.2965 190.856 48.4692 190.281Z" fill="#263238"/>
<path d="M85.5169 228.324C85.2291 227.938 84.9722 227.53 84.7489 227.104L82.7881 223.697C81.1435 220.815 78.8483 216.848 76.264 212.501C73.6797 208.155 71.2671 204.261 69.5231 201.441L67.4538 198.098C67.1847 197.699 66.9489 197.279 66.749 196.842C67.0866 197.198 67.3892 197.585 67.6526 197.999C68.1858 198.758 68.9358 199.869 69.8484 201.261C71.6556 204.035 74.1134 207.911 76.7158 212.267C79.3182 216.622 81.5501 220.616 83.1224 223.534C83.9176 224.998 84.5411 226.182 84.9296 227.013C85.1607 227.433 85.3572 227.872 85.5169 228.324Z" fill="#263238"/>
<g opacity="0.3">
<path d="M78.1168 257.402C80.9089 257.871 83.7734 258.305 86.5565 257.817C89.3396 257.329 92.0595 255.531 92.936 252.838C93.0742 251.96 93.4316 251.13 93.9751 250.426C95.0504 249.432 96.7673 250.046 98.2221 249.911C99.0318 249.787 99.8021 249.478 100.473 249.008C101.144 248.537 101.697 247.919 102.09 247.2C102.865 245.761 103.411 244.209 103.707 242.6C103.942 241.825 104.039 241.015 103.996 240.206C103.968 239.803 103.839 239.415 103.621 239.075C103.403 238.735 103.103 238.456 102.749 238.263C101.647 237.766 100.4 238.489 99.4239 239.167C91.4992 244.878 84.2704 251.51 77.0415 258.106" fill="black"/>
</g>
<path d="M96.0714 225.559C96.0714 225.559 98.8274 219.233 100.291 218.33C101.755 217.426 109.065 213.188 109.065 213.188L108.162 216.667L115.309 211.706C116.213 211.119 121.282 206.483 122.186 208.291C122.845 209.592 118.68 213.026 118.119 213.794C116.728 215.7 117.216 215.529 117.216 215.529C117.216 215.529 118.725 216.432 117.966 217.788C117.346 218.827 116.664 219.829 115.924 220.788C115.924 220.788 117.912 221.492 116.755 224.077C117.089 225.15 117.157 226.288 116.954 227.393C116.629 229.327 113.141 232.986 113.141 232.986L95.701 241.263L88.689 229.372L96.0714 225.559Z" fill="#FFBE9D"/>
<path d="M55.5803 213.667L66.7308 237.468L91.4987 226.733C91.4987 226.733 101.755 232.715 100.336 239.257L78.0168 257.528C75.9308 259.242 73.5184 260.514 70.926 261.267C68.3336 262.021 65.6152 262.239 62.9356 261.911C60.0607 261.559 57.2967 260.585 54.836 259.058C52.3752 257.53 50.2765 255.485 48.6857 253.064L32.5654 228.558L23.5293 213.821C22.0818 211.526 21.3454 208.854 21.413 206.141C21.4805 203.429 22.3489 200.797 23.9088 198.577C24.7607 197.379 25.8418 196.363 27.0895 195.586C31.1287 193.137 43.0924 192.071 55.5803 213.667Z" fill="#009BFF"/>
<path d="M110.412 215.058C109.298 216.018 108.087 216.857 106.797 217.561C105.583 218.397 104.287 219.109 102.93 219.685C104.052 218.737 105.262 217.899 106.544 217.182C107.762 216.351 109.057 215.64 110.412 215.058Z" fill="#EB996E"/>
<path d="M117.378 214.823C116.412 216.094 115.326 217.268 114.134 218.329C113.048 219.496 111.859 220.564 110.583 221.519C111.554 220.253 112.64 219.08 113.827 218.013C114.913 216.846 116.101 215.778 117.378 214.823Z" fill="#EB996E"/>
<path d="M116.448 220.191C116.065 220.979 115.552 221.697 114.93 222.315C114.026 223.408 113.123 224.239 113.068 224.122C113.455 223.331 113.972 222.61 114.595 221.989C115.109 221.291 115.735 220.684 116.448 220.191Z" fill="#EB996E"/>
<path d="M116.8 223.806C116.899 223.887 116.511 224.465 116.023 225.17C115.535 225.875 115.119 226.435 115.002 226.372C114.884 226.309 115.155 225.64 115.661 224.917C116.167 224.194 116.683 223.724 116.8 223.806Z" fill="#EB996E"/>
<path d="M74.2219 259.914C74.2219 259.914 74.2219 259.868 74.3303 259.805L74.6827 259.507L76.0833 258.378L81.4327 254.149L100.535 239.203L100.454 239.357C100.463 238.118 100.227 236.889 99.7578 235.742C99.2222 234.541 98.5327 233.414 97.7066 232.39C95.9008 230.257 93.7654 228.427 91.3814 226.968H91.5892L78.7851 232.534L66.8213 237.649L66.6225 237.73L66.5231 237.54C63.2431 231.08 60.1979 225.007 57.1437 219.73C55.6166 217.083 54.1076 214.634 52.6799 212.348C51.2522 210.062 49.9691 207.947 48.6227 206.122C46.6412 203.181 44.0063 200.737 40.9239 198.983C40.3908 198.667 39.8938 198.423 39.4601 198.215C39.0264 198.008 38.674 197.836 38.3667 197.709L37.6981 197.411C37.619 197.383 37.5433 197.347 37.4722 197.303C40.153 198.222 42.6319 199.648 44.7733 201.505C46.3089 202.846 47.6826 204.362 48.8667 206.023C50.2221 207.83 51.5775 209.962 52.9781 212.239C54.3787 214.516 55.9509 216.956 57.4961 219.604C60.6045 224.881 63.6497 230.953 66.9478 237.405L66.6497 237.296L78.5682 232.11L91.3724 226.553L91.4808 226.507L91.5802 226.571C94.0081 228.063 96.1804 229.937 98.0139 232.119C98.8584 233.179 99.5658 234.342 100.119 235.58C100.603 236.798 100.845 238.1 100.833 239.411V239.501L100.752 239.564L81.5592 254.338L76.1375 258.477L74.7008 259.561L74.3213 259.832L74.2219 259.914Z" fill="#263238"/>
<path d="M65.2313 244.95C65.0958 244.895 65.7825 243.197 66.1349 241.001C66.4873 238.805 66.4964 236.971 66.641 236.962C66.9479 238.318 66.9479 239.726 66.641 241.082C66.4693 242.461 65.9873 243.783 65.2313 244.95Z" fill="#263238"/>
<path d="M201.251 314.862L214.2 331.081C214.2 331.081 235.037 323.374 237.694 326.139L207.161 352.407L185.953 328.009L201.251 314.862Z" fill="#009BFF"/>
<g opacity="0.6">
<path d="M203.619 337.877C203.401 338.218 203.318 338.627 203.385 339.026C203.451 339.425 203.664 339.785 203.98 340.036C204.313 340.267 204.722 340.36 205.122 340.298C205.522 340.236 205.883 340.023 206.131 339.702C206.359 339.338 206.445 338.902 206.371 338.478C206.298 338.055 206.071 337.673 205.733 337.407C205.36 337.205 204.923 337.155 204.514 337.268C204.104 337.381 203.755 337.647 203.537 338.012" fill="white"/>
</g>
<g opacity="0.6">
<path d="M207.161 352.407L205.119 349.859L235.173 325.624C235.173 325.624 237.043 325.046 237.712 326.139L207.161 352.407Z" fill="white"/>
</g>
<path d="M214.561 330.504C214.688 330.657 214.001 331.407 213.658 332.474C213.314 333.54 213.486 334.552 213.296 334.606C213.106 334.66 212.591 333.612 213.007 332.275C213.423 330.937 214.48 330.341 214.561 330.504Z" fill="#263238"/>
<path d="M218.908 329.076C219.061 329.193 218.637 329.979 218.673 331.073C218.709 332.166 219.134 332.925 218.98 333.052C218.826 333.178 218.004 332.41 217.986 331.082C217.968 329.754 218.781 328.913 218.908 329.076Z" fill="#263238"/>
<path d="M224.022 331.353C223.914 331.497 223.064 330.928 222.739 329.79C222.414 328.651 222.847 327.72 223.01 327.784C223.173 327.847 223.128 328.687 223.399 329.591C223.67 330.494 224.158 331.208 224.022 331.353Z" fill="#263238"/>
<path d="M211.2 327.106C211.254 327.295 210.395 327.684 209.6 328.461C208.805 329.238 208.38 330.069 208.191 330.015C208.001 329.961 208.191 328.877 209.094 327.973C209.998 327.07 211.173 326.952 211.2 327.106Z" fill="#263238"/>
<g opacity="0.3">
<path d="M203.818 318.079L206.122 320.971L190.995 333.729L188.809 331.217L203.818 318.079Z" fill="black"/>
</g>
<path d="M208.525 323.916C208.589 323.97 208.074 324.566 206.989 325.217C206.357 325.6 205.681 325.904 204.974 326.121C204.553 326.243 204.124 326.34 203.691 326.41C203.437 326.448 203.178 326.448 202.923 326.41C202.736 326.38 202.563 326.293 202.429 326.16C202.294 326.027 202.205 325.855 202.173 325.669C202.157 325.5 202.182 325.33 202.245 325.173C202.308 325.016 202.407 324.876 202.535 324.765C202.723 324.591 202.94 324.451 203.176 324.35C204.239 323.81 205.419 323.543 206.61 323.572C207.299 323.522 207.987 323.686 208.58 324.042C208.58 324.151 207.803 323.979 206.619 324.042C205.93 324.095 205.251 324.232 204.595 324.449C204.212 324.581 203.84 324.744 203.483 324.937C203.086 325.127 202.806 325.362 202.851 325.578C202.851 325.66 202.851 325.678 203.032 325.714C203.22 325.74 203.412 325.74 203.601 325.714C204.005 325.659 204.406 325.584 204.803 325.488C205.476 325.312 206.132 325.077 206.763 324.783C207.328 324.45 207.917 324.16 208.525 323.916Z" fill="#263238"/>
<path d="M208.516 324.296C208.516 324.359 207.73 324.079 206.845 323.157C206.023 322.289 205.457 321.21 205.209 320.04C205.118 319.767 205.1 319.476 205.155 319.194C205.211 318.912 205.338 318.649 205.525 318.431C205.662 318.314 205.83 318.24 206.009 318.219C206.188 318.198 206.369 318.231 206.528 318.314C206.761 318.424 206.977 318.567 207.17 318.739C207.631 319.136 208.008 319.621 208.279 320.166C208.551 320.71 208.711 321.303 208.751 321.91C208.842 323.211 208.372 323.925 208.309 323.889C208.351 323.248 208.351 322.605 208.309 321.964C208.2 321.299 207.944 320.666 207.559 320.112C207.341 319.788 207.076 319.499 206.772 319.254C206.447 318.973 206.104 318.811 206.004 318.946C205.919 319.091 205.866 319.252 205.849 319.419C205.832 319.586 205.851 319.754 205.905 319.913C205.975 320.307 206.088 320.691 206.239 321.061C206.488 321.709 206.829 322.317 207.251 322.868C207.938 323.781 208.58 324.196 208.516 324.296Z" fill="#263238"/>
<path d="M187.182 364.867L186.378 386.084C186.378 386.084 207.676 394.027 207.911 397.967L166.706 397.885L166.607 364.768L187.182 364.867Z" fill="#009BFF"/>
<g opacity="0.6">
<path d="M173.637 384.277C173.241 384.397 172.903 384.659 172.688 385.012C172.473 385.366 172.396 385.786 172.471 386.193C172.58 386.593 172.836 386.936 173.188 387.154C173.541 387.372 173.962 387.449 174.369 387.368C174.785 387.233 175.138 386.951 175.362 386.576C175.586 386.2 175.667 385.756 175.589 385.326C175.436 384.921 175.132 384.59 174.742 384.403C174.351 384.217 173.904 384.188 173.492 384.323" fill="white"/>
</g>
<g opacity="0.6">
<path d="M166.706 397.885L166.833 394.542L206.257 395.87C206.257 395.87 208.064 396.674 207.883 397.966L166.706 397.885Z" fill="white"/>
</g>
<path d="M187.046 385.84C187.046 386.039 186.034 386.129 185.04 386.744C184.046 387.358 183.522 388.226 183.333 388.144C183.143 388.063 183.45 386.907 184.67 386.147C185.89 385.388 187.092 385.696 187.046 385.84Z" fill="#263238"/>
<path d="M191.366 387.648C191.366 387.837 190.535 388.181 189.848 389.03C189.161 389.879 188.944 390.783 188.763 390.774C188.583 390.765 188.438 389.626 189.315 388.587C190.191 387.548 191.357 387.485 191.366 387.648Z" fill="#263238"/>
<path d="M193.805 392.852C193.625 392.852 193.345 391.885 193.869 390.783C194.393 389.68 195.324 389.247 195.414 389.418C195.504 389.59 194.908 390.168 194.51 391.081C194.113 391.994 194.004 392.834 193.805 392.852Z" fill="#263238"/>
<path d="M186.694 381.024C186.604 381.205 185.682 380.925 184.543 381.024C183.405 381.124 182.519 381.458 182.42 381.286C182.321 381.115 183.17 380.383 184.507 380.328C185.845 380.274 186.793 380.862 186.694 381.024Z" fill="#263238"/>
<g opacity="0.3">
<path d="M187.019 369.069L186.884 372.846L166.634 372.63L166.616 369.214L187.019 369.069Z" fill="black"/>
</g>
<path d="M186.776 376.732C186.102 376.923 185.389 376.923 184.715 376.732C183.528 376.515 182.393 376.074 181.372 375.431C181.138 375.305 180.927 375.14 180.749 374.943C180.622 374.798 180.545 374.616 180.529 374.425C180.512 374.233 180.558 374.041 180.658 373.877C180.762 373.735 180.899 373.619 181.055 373.539C181.212 373.459 181.386 373.417 181.562 373.416C181.822 373.415 182.08 373.452 182.33 373.524C183.519 373.814 184.616 374.399 185.52 375.223C186.468 376.127 186.794 376.859 186.721 376.895C186.649 376.931 186.17 376.335 185.203 375.603C184.646 375.184 184.039 374.835 183.396 374.563C183.013 374.405 182.617 374.281 182.212 374.193C181.779 374.076 181.408 374.076 181.309 374.265C181.209 374.455 181.264 374.374 181.354 374.5C181.49 374.639 181.645 374.758 181.815 374.853C182.161 375.085 182.524 375.294 182.899 375.476C183.539 375.796 184.207 376.053 184.896 376.244C185.532 376.367 186.16 376.53 186.776 376.732Z" fill="#263238"/>
<path d="M186.513 377.021C186.121 376.435 185.93 375.737 185.971 375.033C185.921 373.81 186.202 372.596 186.784 371.518C186.897 371.247 187.077 371.008 187.308 370.826C187.539 370.644 187.813 370.525 188.103 370.479C188.294 370.475 188.482 370.528 188.643 370.631C188.804 370.734 188.93 370.883 189.007 371.057C189.112 371.3 189.185 371.555 189.224 371.816C189.313 372.433 189.28 373.061 189.124 373.664C188.969 374.268 188.696 374.834 188.32 375.331C187.507 376.398 186.667 376.642 186.649 376.569C186.631 376.497 187.29 376.081 187.905 375.06C188.264 374.469 188.489 373.806 188.564 373.118C188.618 372.722 188.618 372.321 188.564 371.925C188.501 371.491 188.338 371.139 188.176 371.184C188.013 371.229 187.616 371.509 187.444 371.853C187.242 372.21 187.072 372.585 186.938 372.973C186.703 373.636 186.566 374.33 186.531 375.033C186.378 376.244 186.622 376.994 186.513 377.021Z" fill="#263238"/>
<path d="M166.291 264.531L207.061 318.711L187.986 335.094L168.36 309.422L166.291 264.531Z" fill="#263238"/>
<path d="M79.96 267.125C79.96 267.125 145.562 247.137 151.571 247.39C157.58 247.643 168.983 269.338 168.983 269.338L150.568 268.67C145.842 280.263 137.113 292.164 127.282 304.218L89.6286 302.465L79.96 267.125Z" fill="#263238"/>
<path d="M133.58 251.329C133.58 251.456 126.876 253.57 118.526 256.055C110.177 258.54 103.373 260.447 103.337 260.32C103.3 260.194 110.032 258.079 118.391 255.603C126.749 253.128 133.544 251.203 133.58 251.329Z" fill="#263238"/>
<path d="M148.824 268.317H167.239C171.721 268.32 176.092 269.712 179.751 272.301C183.409 274.89 186.176 278.549 187.67 282.775C189.105 286.85 189.738 291.164 189.531 295.479L188.095 370.479H163.309L162.857 346.533L159.721 301.019L138.261 301.922L126.098 301.163L148.824 268.317Z" fill="#263238"/>
<path d="M149.375 267.946C149.293 268.481 149.175 269.009 149.022 269.528C148.668 270.961 148.234 272.372 147.721 273.757C146.972 275.811 146.066 277.805 145.01 279.72C143.696 282.07 142.184 284.304 140.492 286.398C137.37 290.123 134.027 293.656 130.48 296.979L127.3 300.043C126.926 300.433 126.521 300.793 126.089 301.118C126.42 300.691 126.779 300.286 127.164 299.907C127.878 299.148 128.971 298.1 130.245 296.744C133.715 293.365 137.011 289.812 140.122 286.1C143.157 282.332 145.612 278.132 147.405 273.639C148.056 271.904 148.553 270.477 148.842 269.483C148.978 268.957 149.156 268.443 149.375 267.946Z" fill="#455A64"/>
<path d="M171.92 268.823C170.8 268.826 169.681 268.772 168.567 268.661C166.507 268.543 163.652 268.462 160.507 268.525C157.363 268.588 154.507 268.778 152.438 268.914C151.328 269.041 150.212 269.099 149.095 269.085C149.387 268.984 149.69 268.92 149.998 268.896C150.568 268.805 151.399 268.697 152.429 268.579C154.489 268.362 157.345 268.118 160.561 268.055C163.275 267.991 165.991 268.085 168.694 268.335C169.724 268.426 170.555 268.543 171.134 268.634C171.402 268.668 171.665 268.732 171.92 268.823Z" fill="#455A64"/>
<path d="M163.2 356.744C163.157 356.539 163.133 356.33 163.128 356.121C163.128 355.66 163.074 355.072 163.028 354.313C162.956 352.696 162.857 350.455 162.739 347.717C162.495 342.151 162.161 334.461 161.628 325.976C161.095 317.491 160.462 309.811 160.001 304.29C159.775 301.579 159.595 299.32 159.468 297.711C159.414 296.97 159.378 296.374 159.342 295.904C159.316 295.694 159.316 295.482 159.342 295.272C159.388 295.477 159.422 295.685 159.441 295.895L159.658 297.702C159.83 299.302 160.056 301.534 160.345 304.263C160.887 309.811 161.565 317.491 162.107 325.949C162.649 334.407 162.92 342.142 163.083 347.717C163.137 350.428 163.191 352.696 163.227 354.313C163.227 355.054 163.227 355.651 163.227 356.121C163.242 356.329 163.232 356.538 163.2 356.744Z" fill="#263238"/>
<path d="M189.568 292.624C189.703 292.624 189.613 309.793 189.378 330.964C189.143 352.136 188.836 369.304 188.709 369.304C188.583 369.304 188.664 352.136 188.908 330.955C189.152 309.775 189.441 292.624 189.568 292.624Z" fill="#455A64"/>
<path d="M169.345 289.823C167.526 290.534 165.757 291.367 164.05 292.317C162.432 293.417 160.889 294.625 159.433 295.931C159.711 295.416 160.078 294.954 160.517 294.567C162.495 292.548 164.941 291.049 167.637 290.203C168.181 289.979 168.758 289.85 169.345 289.823Z" fill="#263238"/>
<g opacity="0.3">
<path d="M126.098 301.127C131.104 302.031 136.589 300.522 140.872 297.847C145.149 295.174 148.25 290.975 149.547 286.1C150.098 283.941 150.261 281.7 150.812 279.54C151.246 277.323 152.43 275.323 154.164 273.875C156.261 272.311 161.393 271.317 162.965 269.221C162.965 268.914 156.839 269.619 154.788 269.736C152.547 269.853 148.797 270.423 148.878 270.161C148.285 272.332 147.561 274.465 146.709 276.549C142.246 284.221 132.441 295.525 126.098 301.163" fill="black"/>
</g>
<path d="M23.8735 354.16L30.8494 399.765H37.762L34.3554 354.34L23.8735 354.16Z" fill="#263238"/>
<path d="M146.574 354.34V399.765H153.875L156.595 354.16L146.574 354.34Z" fill="#263238"/>
<path d="M22.6352 213.251C22.6352 213.251 12.8672 213.64 9.87627 217.769C4.60824 224.998 7.57207 231.251 7.27388 233.384C6.97569 235.516 23.8731 354.16 23.8731 354.16H30.8309L156.559 355.326L162.631 340.66L159.721 300.983L126.098 301.127C126.098 301.127 112.327 261.603 100.291 258.965C92.1588 257.158 72.9932 257.808 61.4361 258.405C58.6126 258.551 55.8004 257.951 53.2828 256.664C50.7652 255.378 48.6312 253.45 47.0959 251.076L22.6352 213.251Z" fill="#455A64"/>
<path d="M134.104 349.497C134.104 349.497 133.408 349.588 132.071 349.651C130.734 349.714 128.764 349.759 126.216 349.777C121.11 349.85 113.71 349.868 104.529 349.859C86.0864 349.859 60.3787 349.705 31.3368 349.452H31.147V349.271C30.623 346.786 30.0898 344.229 29.5477 341.636C29.0055 339.043 28.4904 336.386 27.9573 333.72C21.6321 301.534 17.9453 272.04 15.9574 250.652C14.9544 239.962 14.358 231.287 13.9785 225.287C13.8159 222.305 13.6803 219.983 13.599 218.384C13.599 217.607 13.5357 217.01 13.5086 216.577C13.4815 216.143 13.5086 215.962 13.5086 215.962C13.5086 215.962 13.5086 216.17 13.5719 216.577C13.6351 216.983 13.6442 217.598 13.6984 218.384C13.8068 219.974 13.9695 222.296 14.1683 225.278C14.602 231.269 15.2526 239.935 16.2917 250.625C18.3068 271.986 22.0206 301.452 28.3278 333.621C28.8579 336.29 29.388 338.925 29.9181 341.527C30.4483 344.13 30.9814 346.675 31.5175 349.163L31.2916 348.982L104.484 349.551L126.17 349.606H132.026C132.694 349.606 133.191 349.551 133.535 349.551L134.104 349.497Z" fill="#263238"/>
<path d="M132.776 355.117C132.77 354.926 132.788 354.735 132.83 354.548C132.894 354.132 132.966 353.599 133.065 352.949C133.165 352.298 133.318 351.404 133.427 350.41C133.535 349.416 133.716 348.295 133.797 347.039C133.879 345.783 134.041 344.428 134.095 342.946C134.15 341.464 134.195 339.901 134.222 338.238C134.204 334.639 133.993 331.043 133.589 327.467C133.154 323.895 132.532 320.348 131.728 316.841C130.969 313.606 130.156 310.732 129.37 308.338C129.017 307.136 128.61 306.079 128.285 305.13C127.96 304.181 127.662 303.377 127.382 302.726L126.821 301.208C126.744 301.035 126.689 300.853 126.659 300.666C126.76 300.826 126.844 300.995 126.912 301.172L127.553 302.654C127.833 303.305 128.168 304.1 128.457 305.039C128.746 305.979 129.234 307.036 129.613 308.238C130.436 310.615 131.294 313.497 132.08 316.741C132.91 320.261 133.547 323.823 133.987 327.413C134.389 331.013 134.588 334.633 134.583 338.256C134.583 339.928 134.529 341.509 134.412 342.991C134.294 344.473 134.195 345.846 134.059 347.093C133.924 348.34 133.752 349.479 133.607 350.464C133.463 351.449 133.318 352.271 133.174 352.994C133.029 353.717 132.93 354.169 132.848 354.584C132.842 354.764 132.818 354.943 132.776 355.117Z" fill="#263238"/>
<path d="M40.6167 270.061C40.7711 269.903 40.9406 269.761 41.1227 269.637C41.5113 269.338 42.0263 268.959 42.6408 268.471L43.7522 267.649C44.1679 267.368 44.6558 267.097 45.1528 266.79C46.2753 266.065 47.4433 265.413 48.6498 264.838L50.7461 263.853C51.469 263.492 52.2732 263.23 53.0774 262.896C53.8817 262.561 54.722 262.218 55.6075 261.938L58.3184 261.034C62.4126 259.829 66.5981 258.959 70.8333 258.432C75.0538 257.875 79.3082 257.615 83.5652 257.655C85.526 257.655 87.3874 257.781 89.1314 257.844C90.8753 257.908 92.4838 258.116 93.9566 258.323C96.2793 258.622 98.5839 259.048 100.86 259.597L102.667 260.103C102.883 260.156 103.095 260.226 103.3 260.311C103.077 260.294 102.856 260.255 102.64 260.194L100.779 259.769C99.1705 259.435 96.812 258.992 93.8753 258.658C92.4115 258.468 90.794 258.378 89.0681 258.233C87.3422 258.088 85.4537 258.043 83.52 258.088C79.29 258.078 75.064 258.346 70.8695 258.893C66.6681 259.419 62.5141 260.271 58.4449 261.441L55.734 262.281C54.8304 262.552 54.0262 262.914 53.213 263.185C52.3997 263.456 51.6046 263.763 50.8817 264.088C50.1588 264.414 49.454 264.757 48.7853 265.073C47.5811 265.631 46.4104 266.259 45.2793 266.953C44.7733 267.242 44.2944 267.504 43.8606 267.766L42.7402 268.561L41.1769 269.646C41.0031 269.801 40.8156 269.94 40.6167 270.061Z" fill="#263238"/>
<path d="M115.364 276.504C115.364 276.504 115.364 276.603 115.273 276.802C115.183 277.001 115.12 277.281 114.966 277.661C114.498 278.732 113.874 279.727 113.114 280.615C111.885 282.009 110.412 283.167 108.767 284.031C107.738 284.558 106.668 285.002 105.568 285.359C104.323 285.73 103.047 285.99 101.755 286.136C98.7944 286.389 95.8126 286.219 92.8998 285.63C89.7463 285.07 86.4662 284.157 82.9602 283.326C79.356 282.374 75.6458 281.882 71.9181 281.862C69.9575 281.891 68.0108 282.195 66.135 282.766C64.2059 283.361 62.3911 284.277 60.7676 285.477C57.6072 287.928 54.9449 290.962 52.9242 294.413C50.855 297.694 49.2195 301.082 47.5026 304.218C45.9137 307.216 44.0181 310.041 41.846 312.648C39.9468 314.95 37.5777 316.821 34.8973 318.133C32.6719 319.206 30.2462 319.8 27.7769 319.877C25.9188 319.922 24.0719 319.577 22.3552 318.865C21.7233 318.601 21.1181 318.277 20.548 317.898C20.0781 317.546 19.6444 317.239 19.3914 316.995L18.7679 316.335C18.6233 316.181 18.5601 316.1 18.5601 316.1C18.5601 316.1 18.6504 316.163 18.795 316.299L19.4546 316.922C19.7528 317.175 20.1594 317.464 20.6203 317.826C21.1942 318.181 21.7991 318.483 22.4275 318.729C24.1263 319.396 25.9445 319.703 27.7678 319.633C30.1891 319.545 32.5665 318.961 34.7527 317.916C37.3779 316.609 39.6967 314.762 41.5569 312.495C43.6965 309.886 45.5618 307.064 47.1231 304.073C48.849 300.946 50.4845 297.549 52.5447 294.233C54.5967 290.74 57.299 287.672 60.5055 285.197C62.1699 283.971 64.0266 283.03 65.9994 282.414C67.9209 281.839 69.9128 281.535 71.9181 281.51C75.6865 281.534 79.4366 282.038 83.0776 283.01C86.5565 283.859 89.8276 284.817 92.945 285.359C95.8271 285.948 98.7769 286.133 101.71 285.91C102.979 285.778 104.234 285.533 105.46 285.179C106.55 284.84 107.61 284.414 108.632 283.904C110.259 283.071 111.725 281.955 112.96 280.606C113.999 279.393 114.813 278.003 115.364 276.504Z" fill="white"/>
<path d="M161.321 334.335L160.924 334.434L159.758 334.669C159.144 334.82 158.54 335.01 157.951 335.238C157.564 335.377 157.187 335.54 156.821 335.726C156.392 335.913 155.976 336.127 155.574 336.368C153.485 337.571 151.542 339.011 149.782 340.66C147.686 342.557 145.445 344.88 142.698 347.166C141.27 348.383 139.712 349.441 138.053 350.319C137.167 350.788 136.246 351.187 135.297 351.512L133.806 351.919C133.296 352.034 132.781 352.121 132.261 352.181C130.087 352.445 127.883 352.335 125.746 351.855C123.491 351.327 121.311 350.517 119.258 349.443C114.901 347.096 110.87 344.189 107.267 340.795C103.472 337.353 99.5958 333.711 95.0778 330.729C92.8644 329.243 90.468 328.049 87.9483 327.178C85.502 326.347 82.9201 325.988 80.3399 326.121C77.8505 326.293 75.4073 326.879 73.1111 327.856C70.9016 328.794 68.7712 329.909 66.7406 331.19C62.7467 333.657 59.1142 336.295 55.4184 338.31C46.9552 342.863 37.2891 344.682 27.75 343.515C25.6951 343.28 23.6638 342.872 21.6777 342.295C21.8145 342.308 21.9503 342.329 22.0844 342.359L23.25 342.612C24.2711 342.828 25.7982 343.109 27.768 343.334C33.3551 343.952 39.0077 343.563 44.4577 342.187C48.2119 341.233 51.8307 339.809 55.2287 337.949C58.8431 335.934 62.5117 333.295 66.5147 330.801C68.5619 329.504 70.7104 328.374 72.9394 327.422C75.2796 326.414 77.7716 325.803 80.3128 325.615C82.951 325.474 85.5917 325.839 88.0929 326.69C90.6517 327.57 93.0825 328.785 95.3217 330.304C99.894 333.313 103.78 336.973 107.566 340.416C111.136 343.788 115.13 346.679 119.448 349.018C121.463 350.116 123.61 350.951 125.837 351.503C127.924 351.983 130.08 352.1 132.207 351.846C132.717 351.79 133.224 351.706 133.725 351.593L135.189 351.214C136.12 350.893 137.026 350.503 137.9 350.048C139.544 349.193 141.086 348.157 142.499 346.958C145.21 344.708 147.505 342.44 149.62 340.524C151.392 338.86 153.354 337.41 155.466 336.205C155.876 335.968 156.301 335.76 156.74 335.582C157.109 335.392 157.493 335.232 157.888 335.103C158.501 334.891 159.125 334.713 159.758 334.569L160.933 334.38L161.321 334.335Z" fill="white"/>
<path d="M35.5655 235.588C35.5355 235.977 35.4534 236.36 35.3215 236.727C35.0204 237.751 34.6146 238.741 34.1107 239.682C32.4688 242.833 29.9003 245.405 26.7513 247.052C23.6023 248.698 20.0242 249.339 16.4994 248.889C15.4418 248.766 14.4 248.533 13.391 248.194C13.0116 248.09 12.6472 247.938 12.3066 247.742C13.695 248.116 15.1082 248.39 16.5355 248.564C19.9878 248.918 23.4679 248.25 26.5441 246.644C29.6203 245.037 32.157 242.563 33.8396 239.528C34.5036 238.255 35.0803 236.939 35.5655 235.588Z" fill="white"/>
<path d="M318.35 116.855H147.514C144.05 116.855 141.243 119.662 141.243 123.126V169.372C141.243 172.836 144.05 175.643 147.514 175.643H318.35C321.813 175.643 324.621 172.836 324.621 169.372V123.126C324.621 119.662 321.813 116.855 318.35 116.855Z" fill="white"/>
<path d="M318.305 175.643C318.711 175.616 319.115 175.568 319.516 175.499C320.69 175.26 321.77 174.686 322.624 173.845C323.259 173.24 323.753 172.503 324.07 171.685C324.439 170.693 324.59 169.633 324.513 168.577C324.513 166.273 324.513 163.607 324.513 160.616C324.513 154.616 324.513 147.288 324.513 138.785C324.513 134.529 324.513 129.975 324.513 125.15C324.592 123.94 324.519 122.726 324.296 121.535C323.976 120.323 323.289 119.238 322.331 118.43C321.372 117.621 320.187 117.128 318.938 117.017C317.664 116.963 316.317 117.017 314.98 117.017L147.523 117.089C146.537 117.09 145.566 117.332 144.695 117.794C143.827 118.255 143.083 118.918 142.526 119.728C141.98 120.539 141.633 121.468 141.514 122.439C141.433 123.397 141.514 124.445 141.514 125.439V137.466C141.514 145.43 141.514 153.261 141.514 160.96V166.716C141.514 167.673 141.514 168.631 141.514 169.571C141.552 170.486 141.792 171.381 142.219 172.191C142.647 172.991 143.248 173.685 143.978 174.223C144.708 174.761 145.549 175.129 146.439 175.3C147.339 175.4 148.245 175.433 149.15 175.399H173.728L248.989 175.453L299.727 175.526L313.525 175.571H317.139H318.359C318.359 175.571 317.953 175.571 317.139 175.571H313.525H299.727L248.989 175.643L173.728 175.697H149.186C148.242 175.737 147.296 175.701 146.358 175.589C144.899 175.327 143.575 174.574 142.605 173.454C141.635 172.335 141.077 170.916 141.026 169.435C141.026 168.469 141.026 167.529 141.026 166.571V125.276C141.026 124.255 141.026 123.288 141.072 122.222C141.189 121.17 141.563 120.163 142.16 119.288C142.757 118.414 143.559 117.699 144.496 117.207C145.434 116.709 146.48 116.448 147.541 116.448L314.953 116.52C316.299 116.52 317.609 116.52 318.938 116.52C320.249 116.64 321.491 117.159 322.498 118.007C323.505 118.856 324.227 119.992 324.567 121.264C324.729 121.874 324.802 122.504 324.784 123.135V124.942C324.784 129.767 324.784 134.321 324.784 138.577C324.784 147.08 324.784 154.408 324.784 160.408C324.784 163.399 324.784 166.065 324.784 168.369C324.86 169.442 324.699 170.518 324.314 171.523C323.916 172.495 323.282 173.352 322.47 174.018C321.657 174.684 320.692 175.137 319.661 175.336C319.362 175.39 319.06 175.423 318.757 175.435L318.305 175.643Z" fill="#263238"/>
<path d="M311.41 128.918C311.35 128.918 311.292 128.896 311.248 128.854C311.206 128.811 311.182 128.752 311.182 128.692C311.182 128.631 311.206 128.573 311.248 128.529L315.766 124.201C315.809 124.159 315.868 124.135 315.928 124.135C315.989 124.135 316.047 124.159 316.091 124.201C316.132 124.243 316.155 124.3 316.155 124.359C316.155 124.418 316.132 124.475 316.091 124.517L311.573 128.845C311.552 128.868 311.527 128.886 311.499 128.899C311.471 128.911 311.441 128.918 311.41 128.918Z" fill="#263238"/>
<path d="M315.911 128.936C315.882 128.937 315.854 128.932 315.827 128.921C315.8 128.91 315.777 128.894 315.757 128.873L311.284 124.508C311.263 124.488 311.245 124.464 311.234 124.436C311.222 124.409 311.216 124.38 311.216 124.35C311.216 124.321 311.222 124.291 311.234 124.264C311.245 124.237 311.263 124.212 311.284 124.192C311.327 124.151 311.383 124.127 311.442 124.127C311.502 124.127 311.558 124.151 311.601 124.192L316.119 128.565C316.16 128.608 316.183 128.664 316.183 128.724C316.183 128.783 316.16 128.84 316.119 128.882C316.092 128.908 316.058 128.927 316.022 128.936C315.985 128.946 315.947 128.946 315.911 128.936Z" fill="#263238"/>
<path d="M180.757 157.67L178.95 155.059C177.839 153.486 177.242 151.608 177.242 149.683V143.809C177.242 141.52 176.422 139.307 174.93 137.571C173.438 135.835 171.373 134.692 169.11 134.348V131.547C169.11 131.204 168.974 130.876 168.731 130.633C168.489 130.391 168.16 130.255 167.818 130.255C167.648 130.255 167.481 130.288 167.325 130.354C167.168 130.419 167.026 130.514 166.907 130.634C166.788 130.754 166.694 130.897 166.63 131.053C166.566 131.21 166.533 131.378 166.535 131.547V134.258C164.205 134.534 162.057 135.656 160.498 137.409C158.94 139.163 158.078 141.427 158.077 143.773V149.854C158.075 151.945 157.372 153.975 156.08 155.619L154.499 157.634L180.757 157.67Z" fill="#009BFF"/>
<path d="M166.237 161.935C166.952 162.225 167.733 162.309 168.493 162.178C169.253 162.047 169.961 161.706 170.538 161.195C171.032 160.739 171.405 160.168 171.622 159.532L163.969 159.478C164.155 160.022 164.454 160.522 164.844 160.945C165.235 161.368 165.709 161.706 166.237 161.935Z" fill="#009BFF"/>
<path d="M283.968 136.716C283.968 136.842 263.429 136.951 238.092 136.951C212.755 136.951 192.216 136.842 192.216 136.716C192.216 136.589 212.755 136.481 238.092 136.481C263.429 136.481 283.968 136.589 283.968 136.716Z" fill="#263238"/>
<path d="M305.546 147.821C305.546 147.947 280.164 148.056 248.863 148.056C217.562 148.056 192.17 147.947 192.17 147.821C192.17 147.694 217.544 147.586 248.863 147.586C280.182 147.586 305.546 147.685 305.546 147.821Z" fill="#E0E0E0"/>
<path d="M305.546 154.517C305.546 154.643 280.164 154.752 248.863 154.752C217.562 154.752 192.17 154.643 192.17 154.517C192.17 154.39 217.544 154.282 248.863 154.282C280.182 154.282 305.546 154.336 305.546 154.517Z" fill="#E0E0E0"/>
<path d="M289.01 184.824H175.562C172.099 184.824 169.291 187.631 169.291 191.095V218.944C169.291 222.407 172.099 225.215 175.562 225.215H289.01C292.473 225.215 295.281 222.407 295.281 218.944V191.095C295.281 187.631 292.473 184.824 289.01 184.824Z" fill="#FAFAFA"/>
<path d="M289.01 225.215C289.01 225.215 289.29 225.215 289.832 225.125C290.637 225.019 291.412 224.752 292.11 224.339C293.039 223.796 293.812 223.021 294.352 222.089C294.892 221.158 295.181 220.102 295.191 219.026V216.143C295.191 212.059 295.191 207.107 295.146 201.297C295.146 198.405 295.146 195.306 295.146 192.026C295.189 191.207 295.122 190.387 294.947 189.586C294.743 188.774 294.37 188.013 293.854 187.354C293.324 186.667 292.653 186.101 291.886 185.696C291.119 185.291 290.274 185.055 289.408 185.005L175.553 185.059C174.215 185.058 172.914 185.5 171.854 186.318C170.794 187.136 170.036 188.282 169.698 189.577C169.539 190.224 169.475 190.891 169.508 191.556V193.607C169.508 194.971 169.508 196.318 169.508 197.682V217.562C169.508 218.212 169.508 218.872 169.508 219.486C169.575 220.108 169.73 220.716 169.969 221.294C170.461 222.43 171.288 223.39 172.338 224.045C173.389 224.7 174.614 225.02 175.851 224.962H190.643L241.815 225.007L276.324 225.089L285.703 225.134H288.143H288.974C288.974 225.134 288.685 225.134 288.143 225.134H285.703H276.324L241.815 225.206L190.643 225.26H175.888C174.558 225.322 173.242 224.978 172.112 224.274C170.983 223.571 170.094 222.541 169.562 221.321C169.311 220.702 169.147 220.051 169.074 219.387C169.02 218.7 169.074 218.068 169.074 217.417V191.565C169.041 190.86 169.111 190.153 169.282 189.469C169.642 188.066 170.46 186.824 171.605 185.938C172.751 185.053 174.159 184.575 175.607 184.58L289.462 184.661C290.82 184.748 292.115 185.264 293.161 186.135C294.207 187.005 294.949 188.185 295.281 189.505C295.463 190.329 295.529 191.174 295.48 192.017C295.48 195.297 295.48 198.396 295.48 201.288C295.48 207.071 295.48 212.05 295.48 216.134C295.48 217.146 295.48 218.113 295.48 219.016C295.469 219.874 295.281 220.72 294.929 221.501C294.374 222.726 293.448 223.744 292.281 224.411C291.57 224.819 290.783 225.077 289.968 225.17C289.651 225.212 289.33 225.227 289.01 225.215Z" fill="#263238"/>
<path d="M286.209 193.182C286.179 193.182 286.148 193.175 286.12 193.163C286.092 193.151 286.067 193.133 286.046 193.11C286.025 193.09 286.008 193.065 285.996 193.038C285.984 193.011 285.978 192.982 285.978 192.952C285.978 192.922 285.984 192.893 285.996 192.866C286.008 192.839 286.025 192.814 286.046 192.794L289.146 189.821C289.167 189.799 289.192 189.782 289.22 189.77C289.248 189.758 289.278 189.752 289.309 189.752C289.339 189.752 289.369 189.758 289.397 189.77C289.425 189.782 289.45 189.799 289.471 189.821C289.513 189.863 289.536 189.92 289.536 189.979C289.536 190.038 289.513 190.095 289.471 190.137L286.363 193.11C286.344 193.132 286.32 193.15 286.294 193.163C286.267 193.175 286.238 193.182 286.209 193.182Z" fill="#263238"/>
<path d="M289.3 193.192C289.239 193.192 289.181 193.169 289.137 193.128L286.065 190.128C286.032 190.085 286.016 190.031 286.02 189.977C286.024 189.922 286.047 189.871 286.086 189.833C286.124 189.795 286.175 189.771 286.229 189.767C286.284 189.764 286.337 189.779 286.381 189.812L289.453 192.812C289.495 192.854 289.518 192.911 289.518 192.97C289.518 193.029 289.495 193.086 289.453 193.128C289.411 193.167 289.357 193.19 289.3 193.192Z" fill="#263238"/>
<path d="M196.435 212.863L195.17 211.056C194.41 209.973 194 208.683 193.996 207.36V203.312C193.995 201.742 193.432 200.224 192.41 199.032C191.387 197.841 189.972 197.054 188.42 196.815V194.89C188.42 194.65 188.325 194.421 188.156 194.251C187.986 194.082 187.756 193.986 187.517 193.986C187.277 193.986 187.047 194.082 186.878 194.251C186.708 194.421 186.613 194.65 186.613 194.89V196.788C185.013 196.976 183.537 197.745 182.466 198.949C181.395 200.154 180.803 201.709 180.803 203.321V207.495C180.804 208.93 180.324 210.324 179.439 211.453L178.345 212.845L196.435 212.863Z" fill="#455A64"/>
<path d="M186.46 215.8C186.951 215.997 187.487 216.053 188.009 215.964C188.53 215.875 189.017 215.643 189.415 215.294C189.755 214.981 190.01 214.586 190.155 214.146H184.896C185.031 214.513 185.239 214.849 185.508 215.134C185.777 215.418 186.101 215.645 186.46 215.8Z" fill="#455A64"/>
<path d="M267.323 198.469C267.323 198.595 253.209 198.704 235.797 198.704C218.384 198.704 204.279 198.595 204.279 198.469C204.279 198.342 218.393 198.234 235.797 198.234C253.2 198.234 267.323 198.333 267.323 198.469Z" fill="#263238"/>
<path d="M282.161 206.095C282.161 206.23 264.721 206.33 243.215 206.33C221.709 206.33 204.261 206.23 204.261 206.095C204.261 205.959 221.691 205.86 243.215 205.86C264.739 205.86 282.161 205.968 282.161 206.095Z" fill="#E0E0E0"/>
<path d="M282.161 210.667C282.161 210.793 264.721 210.902 243.215 210.902C221.709 210.902 204.261 210.793 204.261 210.667C204.261 210.54 221.691 210.432 243.215 210.432C264.739 210.432 282.161 210.54 282.161 210.667Z" fill="#E0E0E0"/>
<path d="M288.531 231.495H176.032C172.568 231.495 169.761 234.303 169.761 237.766V265.308C169.761 268.772 172.568 271.579 176.032 271.579H288.531C291.994 271.579 294.802 268.772 294.802 265.308V237.766C294.802 234.303 291.994 231.495 288.531 231.495Z" fill="#FAFAFA"/>
<path d="M288.531 271.588C288.531 271.588 288.811 271.588 289.344 271.507C290.142 271.398 290.91 271.131 291.603 270.721C292.74 270.067 293.641 269.071 294.179 267.874C294.512 267.116 294.693 266.299 294.712 265.471V262.615C294.712 258.567 294.712 253.624 294.712 247.887C294.712 245.013 294.712 241.941 294.712 238.688C294.759 237.875 294.692 237.06 294.513 236.266C294.313 235.461 293.947 234.707 293.438 234.052C292.915 233.367 292.252 232.802 291.493 232.393C290.734 231.985 289.897 231.744 289.037 231.685L176.086 231.73C174.752 231.739 173.459 232.186 172.404 233.002C171.349 233.818 170.592 234.959 170.249 236.248C170.084 236.888 170.014 237.549 170.041 238.209V244.281C170.041 249.661 170.041 254.95 170.041 260.148V264.025C170.041 264.667 170.041 265.326 170.041 265.932C170.103 266.553 170.255 267.162 170.493 267.739C170.978 268.868 171.793 269.824 172.832 270.48C173.871 271.137 175.084 271.463 176.312 271.416H190.987L241.76 271.462L275.998 271.543L285.305 271.588H287.727H288.549C288.549 271.588 288.269 271.588 287.727 271.588H285.305L275.998 271.633L241.76 271.706L190.987 271.76H176.294C174.977 271.804 173.678 271.451 172.564 270.746C171.451 270.042 170.575 269.019 170.05 267.811C169.798 267.196 169.634 266.548 169.562 265.886C169.562 265.218 169.562 264.585 169.562 263.935C169.562 262.651 169.562 261.359 169.562 260.058V238.173C169.534 237.473 169.611 236.772 169.788 236.094C170.164 234.705 170.987 233.478 172.131 232.604C173.274 231.73 174.674 231.258 176.113 231.26L289.064 231.36C289.969 231.423 290.85 231.68 291.648 232.111C292.446 232.543 293.142 233.14 293.691 233.863C294.218 234.557 294.602 235.349 294.82 236.194C294.993 237.013 295.06 237.851 295.019 238.688C295.019 241.941 295.019 245.013 295.019 247.887C295.019 253.624 295.019 258.567 294.974 262.615C294.974 263.618 294.974 264.576 294.974 265.471C294.943 266.561 294.631 267.625 294.067 268.56C293.503 269.494 292.708 270.266 291.757 270.802C291.048 271.207 290.264 271.463 289.453 271.552C289.147 271.589 288.839 271.601 288.531 271.588Z" fill="#263238"/>
<path d="M285.775 239.8C285.744 239.799 285.714 239.793 285.686 239.78C285.658 239.768 285.633 239.75 285.612 239.727C285.591 239.707 285.574 239.682 285.562 239.655C285.55 239.628 285.544 239.599 285.544 239.569C285.544 239.539 285.55 239.51 285.562 239.483C285.574 239.456 285.591 239.431 285.612 239.411L288.694 236.456C288.737 236.414 288.796 236.391 288.856 236.391C288.917 236.391 288.975 236.414 289.019 236.456C289.06 236.498 289.084 236.555 289.084 236.614C289.084 236.673 289.06 236.73 289.019 236.772L285.938 239.727C285.918 239.751 285.893 239.769 285.865 239.782C285.836 239.794 285.806 239.8 285.775 239.8Z" fill="#263238"/>
<path d="M288.865 239.808C288.805 239.809 288.747 239.786 288.703 239.745L285.658 236.745C285.614 236.703 285.59 236.646 285.589 236.586C285.588 236.526 285.611 236.468 285.653 236.424C285.695 236.381 285.752 236.357 285.813 236.356C285.873 236.355 285.931 236.378 285.974 236.42L289.019 239.402C289.06 239.444 289.084 239.501 289.084 239.56C289.084 239.619 289.06 239.676 289.019 239.718C288.982 239.767 288.926 239.8 288.865 239.808Z" fill="#263238"/>
<path d="M196.706 259.335L195.414 257.528C194.654 256.456 194.246 255.174 194.248 253.859V249.865C194.247 248.305 193.689 246.796 192.673 245.611C191.657 244.426 190.251 243.644 188.709 243.405V241.498C188.709 241.258 188.614 241.028 188.445 240.859C188.275 240.69 188.045 240.594 187.806 240.594C187.566 240.594 187.336 240.69 187.167 240.859C186.997 241.028 186.902 241.258 186.902 241.498V243.377C185.315 243.568 183.853 244.333 182.792 245.528C181.731 246.724 181.146 248.267 181.146 249.865V254.013C181.146 255.438 180.669 256.822 179.791 257.944L178.788 259.335H196.706Z" fill="#E0E0E0"/>
<path d="M186.803 262.245C187.292 262.439 187.824 262.495 188.343 262.406C188.861 262.316 189.344 262.086 189.74 261.739C190.076 261.428 190.328 261.036 190.472 260.601H185.258C185.389 260.966 185.594 261.3 185.86 261.583C186.126 261.866 186.447 262.091 186.803 262.245Z" fill="#E0E0E0"/>
<path d="M267.052 245.04C267.052 245.176 253.046 245.275 235.769 245.275C218.492 245.275 204.486 245.176 204.486 245.04C204.486 244.905 218.492 244.805 235.769 244.805C253.046 244.805 267.052 244.878 267.052 245.04Z" fill="#263238"/>
<path d="M281.799 252.613C281.799 252.748 264.486 252.847 243.143 252.847C221.799 252.847 204.486 252.748 204.486 252.613C204.486 252.477 221.79 252.378 243.143 252.378C264.495 252.378 281.799 252.486 281.799 252.613Z" fill="#E0E0E0"/>
<path d="M281.799 257.148C281.799 257.275 264.486 257.383 243.143 257.383C221.799 257.383 204.486 257.275 204.486 257.148C204.486 257.022 221.79 256.914 243.143 256.914C264.495 256.914 281.799 257.022 281.799 257.148Z" fill="#E0E0E0"/>
<path d="M381.069 220.236C371.716 225.089 364.542 233.429 359.382 242.61C354.223 251.79 350.897 261.883 347.635 271.886L344.726 323.491C355.614 304.967 364.352 283.2 366.71 261.856L359.482 261.206C364.343 260.465 368.418 256.95 371.012 252.775C373.605 248.6 374.942 243.793 376.243 239.058L367.388 240.36C374.365 235.659 379.264 228.453 381.069 220.236Z" fill="#455A64"/>
<path d="M381.069 220.236C371.716 225.089 364.542 233.429 359.382 242.61C354.223 251.79 350.897 261.883 347.635 271.886L344.726 323.491C355.614 304.967 364.352 283.2 366.71 261.856L359.482 261.206C364.343 260.465 368.418 256.95 371.012 252.775C373.605 248.6 374.942 243.793 376.243 239.058L367.388 240.36C374.365 235.659 379.264 228.453 381.069 220.236Z" fill="#009BFF"/>
<g opacity="0.3">
<path d="M381.069 220.236C371.716 225.089 364.542 233.429 359.382 242.61C354.223 251.79 350.897 261.883 347.635 271.886L344.726 323.491C355.614 304.967 364.352 283.2 366.71 261.856L359.482 261.206C364.343 260.465 368.418 256.95 371.012 252.775C373.605 248.6 374.942 243.793 376.243 239.058L367.388 240.36C374.365 235.659 379.264 228.453 381.069 220.236Z" fill="black"/>
</g>
<path d="M343.118 335.591C343.118 335.591 319.489 307.317 319.76 280.317H329.311C329.311 280.317 318.938 273.504 319.76 269.682C320.582 265.859 320.853 251.411 320.853 251.411L329.582 253.597C329.582 253.597 323.04 250.326 322.218 245.14C321.395 239.953 324.124 215.962 324.124 215.962C324.124 215.962 334.76 227.149 338.031 238.597C341.302 250.046 349.895 263.41 347.374 298.317C344.853 333.223 343.118 335.591 343.118 335.591Z" fill="#009BFF"/>
<path d="M355.091 338.257C355.091 338.257 380.69 321.205 386.374 299.447L378.702 297.359C378.702 297.359 388.533 294.142 388.705 290.898C388.877 287.654 391.822 275.971 391.822 275.971L384.332 275.817C384.332 275.817 390.304 274.615 392.103 270.631C393.901 266.646 396.919 246.757 396.919 246.757C396.919 246.757 385.922 253.417 380.789 261.911C375.657 270.405 365.826 279.26 360.214 307.877C354.603 336.494 355.091 338.257 355.091 338.257Z" fill="#009BFF"/>
<path d="M330.576 240.622C330.619 240.713 330.65 240.811 330.666 240.911C330.72 241.137 330.793 241.426 330.874 241.814C331.055 242.609 331.308 243.739 331.633 245.167C331.958 246.594 332.347 248.411 332.762 250.489C333.178 252.567 333.666 254.935 334.154 257.555C335.166 262.796 336.241 269.067 337.335 276.043C338.428 283.019 339.467 290.709 340.416 298.805C341.365 306.901 342.061 314.636 342.612 321.675C343.163 328.714 343.515 335.067 343.732 340.398C343.859 343.064 343.922 345.476 343.985 347.627C344.048 349.777 344.094 351.576 344.103 353.048C344.112 354.521 344.103 355.669 344.103 356.482V357.386C344.111 357.488 344.111 357.591 344.103 357.693C344.087 357.591 344.087 357.488 344.103 357.386C344.103 357.16 344.103 356.871 344.103 356.482C344.103 355.66 344.03 354.512 343.976 353.039C343.922 351.567 343.868 349.723 343.777 347.618C343.687 345.512 343.597 343.1 343.443 340.389C343.19 335.058 342.765 328.714 342.223 321.684C341.681 314.654 340.913 306.928 339.982 298.832C339.052 290.736 337.994 283.064 336.946 276.088C335.898 269.112 334.841 262.841 333.874 257.591C333.413 254.971 332.97 252.594 332.555 250.516C332.139 248.438 331.814 246.64 331.515 245.176C331.217 243.712 331.009 242.61 330.847 241.805C330.784 241.444 330.729 241.155 330.693 240.902C330.645 240.812 330.606 240.719 330.576 240.622Z" fill="#263238"/>
<path d="M339.838 352.904C339.838 352.904 318.214 328.38 311.51 313.551L316.57 311.392C312.901 311.997 309.133 310.416 306.287 308.021C303.44 305.627 301.344 302.473 299.293 299.365L305.97 298.235C299.838 296.48 294.615 292.433 291.386 286.931C299.266 288.232 306.395 292.561 312.269 297.964C316.929 302.449 321.164 307.355 324.919 312.621C326.805 315.153 328.448 317.858 329.826 320.699C333.458 328.208 339.847 343.895 339.838 352.904Z" fill="#009BFF"/>
<path d="M386.717 261.034C386.694 261.122 386.661 261.207 386.618 261.287L386.292 262.001C385.976 262.651 385.533 263.564 384.982 264.712C383.825 267.07 382.181 270.495 380.202 274.751C376.226 283.254 370.994 295.118 365.826 308.473C360.657 321.829 356.555 334.136 353.771 343.1C352.38 347.618 351.287 351.232 350.555 353.744C350.193 354.973 349.904 355.94 349.696 356.636L349.452 357.386C349.432 357.473 349.401 357.558 349.362 357.639C349.367 357.55 349.382 357.462 349.407 357.377C349.452 357.178 349.515 356.925 349.597 356.608C349.777 355.904 350.04 354.928 350.365 353.69C351.043 351.151 352.082 347.491 353.428 343C356.139 333.964 360.187 321.666 365.347 308.293C370.506 294.919 375.819 283.064 379.877 274.597C381.901 270.359 383.59 266.953 384.801 264.657C385.398 263.519 385.859 262.615 386.202 261.947L386.572 261.251C386.663 261.142 386.708 261.025 386.717 261.034Z" fill="#263238"/>
<path d="M341.672 363.421C341.614 363.277 341.578 363.125 341.563 362.97C341.5 362.608 341.428 362.183 341.346 361.668C341.175 360.539 340.895 358.903 340.497 356.897C340.099 354.891 339.548 352.524 338.834 349.912C338.121 347.301 337.208 344.491 336.124 341.563C335.039 338.635 333.81 335.925 332.645 333.494C331.479 331.063 330.304 328.922 329.274 327.169C328.244 325.416 327.386 323.988 326.762 323.021L326.066 321.901C325.974 321.777 325.9 321.64 325.85 321.494C325.85 321.494 325.967 321.602 326.148 321.846L326.925 322.913C327.603 323.816 328.515 325.235 329.582 326.979C330.648 328.723 331.841 330.873 333.06 333.304C334.28 335.735 335.482 338.473 336.593 341.437C337.705 344.4 338.581 347.229 339.304 349.849C340.027 352.47 340.515 354.864 340.868 356.888C341.22 358.912 341.455 360.557 341.554 361.696C341.609 362.22 341.645 362.653 341.681 363.015C341.697 363.15 341.694 363.287 341.672 363.421Z" fill="#263238"/>
<path d="M370.208 357.648H322.886V367.298H370.208V357.648Z" fill="#455A64"/>
<path d="M327.395 367.298L332.509 399.765H361.099L365.87 367.298H327.395Z" fill="#455A64"/>
<path d="M367.298 367.298C367.298 367.443 358.343 367.551 347.31 367.551C336.277 367.551 327.313 367.443 327.313 367.298C327.313 367.153 336.268 367.045 347.31 367.045C358.352 367.045 367.298 367.162 367.298 367.298Z" fill="#263238"/>
<path d="M89.3489 127.49L90.3339 115.815C84.6563 112.042 80.5956 106.281 78.9501 99.6651C77.3045 93.0493 78.1931 86.0573 81.4412 80.0635C84.6892 74.0697 90.0619 69.5076 96.5029 67.274C102.944 65.0404 109.987 65.2968 116.249 67.9929C122.511 70.6891 127.537 75.6298 130.341 81.844C133.144 88.0582 133.522 95.0963 131.4 101.575C129.277 108.053 124.808 113.504 118.871 116.855C112.934 120.205 105.959 121.214 99.3157 119.683L89.3489 127.49Z" fill="white"/>
<path d="M89.3487 127.49L99.3878 119.755L99.4872 119.674L99.3697 119.62L99.3065 119.773C101.439 120.268 103.623 120.51 105.812 120.496C108.419 120.464 111.008 120.063 113.502 119.303C114.884 118.887 116.227 118.348 117.514 117.695C118.165 117.342 118.852 117.008 119.511 116.638L121.463 115.355C127.112 111.246 130.988 105.145 132.306 98.2854C133.09 94.4736 133.041 90.5374 132.162 86.7463C131.173 82.7775 129.322 79.0753 126.74 75.903C124.068 72.5635 120.639 69.9089 116.737 68.1591L115.21 67.5176C114.704 67.2917 114.162 67.1652 113.647 66.9935C113.132 66.8218 112.608 66.632 112.074 66.5326L110.475 66.1893C109.946 66.067 109.408 65.9854 108.867 65.9453L107.258 65.7555H105.65C105.117 65.7239 104.583 65.7239 104.05 65.7555C99.8841 65.9918 95.8238 67.159 92.168 69.1712C88.7035 71.0624 85.6985 73.6941 83.3668 76.8789C79.1933 82.612 77.373 89.7252 78.2795 96.7583C78.7191 99.7253 79.6089 102.608 80.9181 105.306C82.0747 107.638 83.563 109.79 85.3367 111.695C86.8124 113.281 88.4717 114.685 90.2794 115.879V115.806C89.7011 123.27 89.3758 126.921 89.3758 127.49C89.43 126.921 89.7644 123.279 90.4421 115.824V115.779C88.6563 114.578 87.0158 113.174 85.5536 111.596C83.8054 109.691 82.3388 107.545 81.1982 105.225C79.9138 102.546 79.0425 99.6888 78.6139 96.7493C77.7326 89.7855 79.546 82.7483 83.6831 77.0777C85.9968 73.9365 88.97 71.3396 92.3939 69.4694C96.0094 67.4858 100.023 66.3372 104.141 66.1079C104.667 66.0763 105.195 66.0763 105.722 66.1079H107.312L108.903 66.2977C109.435 66.3392 109.964 66.4208 110.484 66.5417L112.065 66.876C112.599 66.9754 113.096 67.1832 113.62 67.3278C114.144 67.4724 114.668 67.626 115.165 67.8519L116.665 68.4844C120.52 70.2121 123.908 72.8325 126.55 76.129C129.09 79.276 130.904 82.9444 131.863 86.8728C132.755 90.5981 132.838 94.4711 132.107 98.2312C130.784 105.028 126.928 111.068 121.318 115.129L119.394 116.403C118.734 116.782 118.056 117.108 117.415 117.46C116.138 118.109 114.808 118.647 113.439 119.068C110.97 119.833 108.405 120.241 105.821 120.279C103.646 120.307 101.474 120.079 99.3517 119.602L99.2974 119.755V119.611C92.9632 124.635 89.8186 127.12 89.3487 127.49Z" fill="#263238"/>
<path d="M101.584 79.2281L102.424 95.0955C102.46 95.7214 102.723 96.3128 103.164 96.7586C103.605 97.2045 104.193 97.4741 104.819 97.5171C105.472 97.5588 106.117 97.3491 106.621 96.9308C107.125 96.5125 107.45 95.9173 107.529 95.2671L109.454 79.3456C109.487 79.0615 109.46 78.7736 109.374 78.5008C109.288 78.2281 109.145 77.9767 108.954 77.7633C108.764 77.5498 108.53 77.3792 108.269 77.2625C108.008 77.1459 107.725 77.0859 107.439 77.0866H103.572C103.298 77.0884 103.027 77.1462 102.777 77.2565C102.526 77.3668 102.301 77.5272 102.115 77.7278C101.929 77.9284 101.785 78.165 101.694 78.423C101.603 78.681 101.565 78.955 101.584 79.2281Z" fill="#009BFF"/>
<path d="M108.966 105.496C108.725 106.222 108.274 106.861 107.67 107.33C107.066 107.8 106.336 108.08 105.573 108.135C104.81 108.19 104.048 108.017 103.383 107.639C102.718 107.261 102.18 106.693 101.838 106.009C101.495 105.325 101.363 104.555 101.458 103.796C101.553 103.037 101.872 102.323 102.373 101.745C102.873 101.167 103.535 100.75 104.272 100.548C105.01 100.345 105.791 100.366 106.517 100.608C107.49 100.932 108.294 101.629 108.754 102.545C109.213 103.462 109.289 104.523 108.966 105.496Z" fill="#009BFF"/>
</svg>
