<svg width="500" height="335" viewBox="0 0 500 335" fill="none" xmlns="http://www.w3.org/2000/svg">
<g clip-path="url(#clip0_22_412)">
<path d="M398.316 148.236L399.8 136.34C400.328 132.112 402.513 128.266 405.876 125.65C409.239 123.033 413.503 121.859 417.731 122.387C421.959 122.914 425.804 125.1 428.421 128.462C431.037 131.825 432.211 136.089 431.684 140.317L430.199 152.214C430.128 152.782 429.834 153.298 429.383 153.649C428.931 154.001 428.359 154.159 427.791 154.088L400.19 150.645C399.623 150.574 399.107 150.28 398.755 149.828C398.404 149.377 398.246 148.804 398.316 148.236Z" fill="#2F2E41"/>
<path d="M411.537 151.786C418.042 151.786 423.316 146.512 423.316 140.007C423.316 133.502 418.042 128.229 411.537 128.229C405.032 128.229 399.759 133.502 399.759 140.007C399.759 146.512 405.032 151.786 411.537 151.786Z" fill="#FFB8B8"/>
<path d="M395.911 136.821C396.331 133.478 398.061 130.439 400.72 128.369C403.379 126.3 406.751 125.37 410.094 125.784L412.474 126.081C415.817 126.501 418.856 128.231 420.925 130.89C422.994 133.549 423.924 136.921 423.511 140.264L423.481 140.502L418.453 139.875L417.337 134.859L416.395 139.618L413.796 139.294L413.233 136.763L412.758 139.164L395.881 137.059L395.911 136.821Z" fill="#2F2E41"/>
<path d="M353.929 182.023C354.289 182.73 354.8 183.349 355.425 183.837C356.05 184.326 356.775 184.671 357.548 184.848C358.321 185.026 359.123 185.032 359.899 184.866C360.675 184.7 361.405 184.366 362.037 183.888L372.735 190.155L378.129 184.582L362.897 175.945C362.023 174.935 360.809 174.281 359.485 174.108C358.16 173.934 356.819 174.251 355.713 175.001C354.608 175.75 353.816 176.879 353.487 178.173C353.158 179.467 353.315 180.837 353.929 182.023Z" fill="#FFB8B8"/>
<path d="M388.992 193.284C381.1 193.284 367.214 189.752 366.445 189.554L366.203 189.492L368.388 178.427L389.598 182.616L401.12 166.39L414.349 165.046L413.979 165.532C413.807 165.758 396.755 188.206 394.101 191.972C393.431 192.922 391.519 193.284 388.992 193.284Z" fill="#3F3D56"/>
<path d="M391.107 234.814L390.791 234.664C390.724 234.631 384.02 231.37 380.547 225.004C377.091 218.668 393.27 191.79 394.401 189.925L394.418 181.389L400.238 165.676L407.66 161.48L401.287 176.35L391.107 234.814Z" fill="#3F3D56"/>
<path d="M383.672 326.557L376.578 326.557L373.203 299.195L383.673 299.196L383.672 326.557Z" fill="#FFB8B8"/>
<path d="M385.48 333.433L362.607 333.432V333.143C362.608 330.782 363.546 328.517 365.215 326.848C366.885 325.178 369.149 324.24 371.51 324.24H371.511L385.481 324.241L385.48 333.433Z" fill="#2F2E41"/>
<path d="M459.866 320.34L453.125 322.549L441.398 297.599L451.347 294.339L459.866 320.34Z" fill="#FFB8B8"/>
<path d="M463.727 326.312L441.991 333.433L441.9 333.158C441.165 330.914 441.352 328.471 442.418 326.364C443.485 324.258 445.345 322.661 447.588 321.926L447.589 321.926L460.865 317.576L463.727 326.312Z" fill="#2F2E41"/>
<path d="M446.131 315.867L425.909 282.107L408.838 246.038L393.477 277.899L387.374 319.164L365.973 319.461L366.057 319.127L398.808 188.995L424.457 192.827L423.29 209.758L423.985 210.746C429.779 218.978 435.77 227.488 432.334 236.662L442.075 265.585L463.637 313.745L446.131 315.867Z" fill="#2F2E41"/>
<path d="M399.98 217.198C396.263 217.198 392.023 212.954 394.223 205.709L394.08 205.606L399.364 182.261C394.753 175.666 400.833 170.224 401.402 169.737L404.305 164.514L417.109 156.393L423.588 210.223L423.492 210.314C418.813 214.791 403.098 217.198 399.98 217.198Z" fill="#009BFF"/>
<path d="M426.203 229.345C425.694 229.353 425.186 229.299 424.691 229.185C424.193 229.06 423.386 228.426 422.141 224.369C417.188 208.244 411.341 159.725 415.589 154.977L415.686 154.869L422.661 156.031C423.241 155.603 426.284 153.479 429.091 153.849C429.669 153.921 430.226 154.112 430.728 154.408C431.229 154.705 431.665 155.101 432.007 155.572L432.055 155.635L434.277 187.248L442.418 224.451L442.223 224.54C441.749 224.755 431.584 229.345 426.203 229.345Z" fill="#3F3D56"/>
<path d="M421.512 216.989C422.305 216.962 423.082 216.762 423.789 216.403C424.496 216.044 425.116 215.534 425.605 214.909C426.093 214.284 426.439 213.56 426.618 212.787C426.796 212.014 426.803 211.211 426.638 210.436L436.849 203.403L434.088 196.155L419.808 206.29C418.523 206.654 417.416 207.476 416.698 208.602C415.979 209.727 415.698 211.077 415.908 212.396C416.118 213.715 416.804 214.911 417.837 215.757C418.87 216.604 420.178 217.042 421.512 216.989Z" fill="#FFB8B8"/>
<path d="M433.48 209.038L424.384 202.368L437.169 184.934L427.358 167.621L431.747 155.069L432.031 155.609C432.163 155.861 445.266 180.821 447.551 184.821C449.929 188.982 434.305 208.035 433.639 208.844L433.48 209.038Z" fill="#3F3D56"/>
<path d="M228.89 287.505L221.149 284.246L215.839 245.441H145.124L139.368 284.087L132.443 287.55C132.111 287.716 131.846 287.988 131.689 288.324C131.532 288.659 131.493 289.038 131.578 289.399C131.663 289.759 131.867 290.081 132.158 290.31C132.448 290.54 132.808 290.665 133.178 290.665H228.252C228.632 290.665 229 290.534 229.294 290.294C229.588 290.053 229.789 289.719 229.864 289.346C229.94 288.974 229.884 288.588 229.706 288.252C229.528 287.916 229.24 287.652 228.89 287.505Z" fill="#E6E6E6"/>
<path d="M354.556 250.603H7.18356C5.361 250.599 3.61448 249.872 2.32717 248.582C1.03987 247.292 0.316907 245.544 0.316895 243.721V194.737H361.422V243.721C361.422 245.544 360.699 247.292 359.412 248.582C358.125 249.872 356.378 250.599 354.556 250.603Z" fill="#CCCCCC"/>
<path d="M361.786 217.888H0V8.29618C0.00254134 6.09663 0.877454 3.98789 2.4328 2.4326C3.98815 0.877305 6.09691 0.0024668 8.29646 0H353.489C355.689 0.00246114 357.797 0.877299 359.353 2.43259C360.908 3.98788 361.783 6.09661 361.786 8.29618V217.888Z" fill="#3F3D56"/>
<path d="M340.177 202.676H21.6079C19.9122 202.674 18.2864 202 17.0874 200.801C15.8883 199.602 15.2138 197.976 15.2119 196.281V21.6081C15.2138 19.9123 15.8883 18.2866 17.0873 17.0875C18.2864 15.8884 19.9121 15.2139 21.6079 15.2119H340.177C341.873 15.2139 343.499 15.8884 344.698 17.0875C345.897 18.2866 346.571 19.9123 346.573 21.6081V196.281C346.571 197.976 345.897 199.602 344.698 200.801C343.499 202 341.873 202.674 340.177 202.676Z" fill="white"/>
<path d="M270.236 291.07H91.227C91.0437 291.074 90.8642 291.017 90.7165 290.909C90.5688 290.8 90.4613 290.645 90.4106 290.469C90.379 290.349 90.3753 290.223 90.3998 290.102C90.4244 289.98 90.4765 289.866 90.5522 289.767C90.6279 289.669 90.7251 289.589 90.8364 289.534C90.9478 289.48 91.0702 289.451 91.1942 289.451H270.169C270.363 289.444 270.553 289.503 270.708 289.618C270.864 289.733 270.976 289.897 271.027 290.084C271.053 290.203 271.052 290.325 271.025 290.444C270.997 290.562 270.944 290.672 270.868 290.767C270.792 290.862 270.696 290.938 270.586 290.99C270.477 291.043 270.357 291.07 270.236 291.07Z" fill="#CCCCCC"/>
<path d="M336.776 43.4512H259.859V102.214H336.776V43.4512Z" fill="#F2F2F2"/>
<path d="M332.955 46.3711H263.682V99.294H332.955V46.3711Z" fill="white"/>
<path d="M299.534 85.6266C299.544 85.6267 299.553 85.6265 299.562 85.6261C304.251 85.3808 308.671 83.3586 311.922 79.9709C315.174 76.5831 317.013 72.0841 317.065 67.3888C317.118 62.6935 315.38 58.1544 312.206 54.6946C309.031 51.2348 304.658 49.1141 299.975 48.7637C299.917 48.7592 299.859 48.7667 299.804 48.7857C299.749 48.8047 299.699 48.8349 299.656 48.8743C299.614 48.913 299.58 48.9601 299.556 49.0127C299.533 49.0652 299.52 49.122 299.52 49.1796L299.116 85.2001C299.115 85.312 299.159 85.4198 299.237 85.4998C299.315 85.5798 299.422 85.6254 299.534 85.6266Z" fill="#3F3D56"/>
<path d="M285.05 54.72C285.194 54.7217 285.331 54.7804 285.432 54.8831L297.832 67.5646C297.882 67.6153 297.921 67.6754 297.948 67.7414C297.974 67.8075 297.987 67.8781 297.986 67.9492L297.793 85.1852C297.792 85.2592 297.777 85.3322 297.746 85.3998C297.716 85.4673 297.673 85.5279 297.618 85.5777C297.563 85.6281 297.498 85.6667 297.428 85.6912C297.358 85.7156 297.283 85.7253 297.209 85.7198C293.761 85.4617 290.453 84.2473 287.658 82.213C284.862 80.1786 282.689 77.405 281.383 74.2037C280.077 71.0025 279.69 67.5004 280.265 64.091C280.839 60.6817 282.353 57.5002 284.637 54.904C284.686 54.848 284.746 54.8028 284.814 54.7712C284.882 54.7396 284.955 54.7222 285.03 54.7201C285.036 54.72 285.043 54.7199 285.05 54.72Z" fill="#E6E6E6"/>
<path d="M297.659 48.6165C297.798 48.6182 297.93 48.6724 298.03 48.7681C298.084 48.8192 298.126 48.8808 298.155 48.949C298.184 49.0173 298.198 49.0908 298.197 49.1648L298.022 64.7162C298.021 64.8233 297.988 64.9276 297.928 65.0159C297.867 65.1043 297.782 65.1727 297.683 65.2126C297.583 65.2525 297.474 65.262 297.369 65.2399C297.265 65.2179 297.169 65.1653 297.094 65.0887L286.273 54.0225C286.222 53.9699 286.182 53.9074 286.155 53.8387C286.129 53.7701 286.116 53.6968 286.119 53.6233C286.122 53.5498 286.139 53.4776 286.171 53.4111C286.202 53.3446 286.247 53.2852 286.302 53.2365C289.449 50.4664 293.439 48.8389 297.626 48.6171C297.637 48.6166 297.648 48.6164 297.659 48.6165Z" fill="#009BFF"/>
<path d="M292.085 93.0962C292.077 93.7522 291.875 94.3914 291.505 94.9328C291.134 95.4742 290.611 95.8936 290.003 96.1378C289.394 96.3821 288.726 96.4403 288.084 96.3051C287.442 96.1699 286.854 95.8474 286.396 95.3782C285.937 94.9091 285.628 94.3145 285.507 93.6697C285.386 93.0248 285.459 92.3585 285.717 91.7552C285.975 91.1519 286.406 90.6386 286.956 90.2803C287.505 89.9219 288.149 89.7346 288.805 89.7419C289.684 89.7528 290.523 90.112 291.138 90.7408C291.753 91.3697 292.093 92.2167 292.085 93.0962Z" fill="#009BFF"/>
<path d="M301.562 93.2024C301.555 93.8585 301.353 94.4976 300.982 95.039C300.612 95.5804 300.089 95.9998 299.48 96.244C298.871 96.4883 298.203 96.5465 297.561 96.4113C296.919 96.2761 296.332 95.9536 295.873 95.4845C295.414 95.0154 295.105 94.4208 294.984 93.7759C294.864 93.131 294.937 92.4648 295.195 91.8615C295.453 91.2582 295.883 90.7449 296.433 90.3865C296.983 90.0281 297.626 89.8408 298.282 89.8481C299.162 89.859 300.001 90.2182 300.616 90.8471C301.231 91.4759 301.571 92.323 301.562 93.2024Z" fill="#3F3D56"/>
<path d="M311.04 93.3086C311.032 93.9646 310.831 94.6038 310.46 95.1452C310.089 95.6866 309.567 96.1059 308.958 96.3502C308.349 96.5945 307.681 96.6527 307.039 96.5175C306.397 96.3823 305.809 96.0597 305.351 95.5906C304.892 95.1215 304.583 94.5269 304.462 93.882C304.341 93.2372 304.414 92.5709 304.672 91.9676C304.93 91.3643 305.361 90.851 305.911 90.4927C306.46 90.1343 307.104 89.947 307.76 89.9543C308.639 89.9652 309.478 90.3244 310.093 90.9532C310.708 91.5821 311.049 92.4291 311.04 93.3086Z" fill="#E6E6E6"/>
<path d="M335.967 111.462H259.05V170.225H335.967V111.462Z" fill="#F2F2F2"/>
<path d="M332.145 114.382H262.872V167.305H332.145V114.382Z" fill="white"/>
<path d="M274.625 131.776C276.214 131.776 277.502 130.488 277.502 128.9C277.502 127.311 276.214 126.023 274.625 126.023C273.037 126.023 271.749 127.311 271.749 128.9C271.749 130.488 273.037 131.776 274.625 131.776Z" fill="#3F3D56"/>
<path d="M320.84 126.661C321.096 126.661 321.35 126.711 321.587 126.809C321.824 126.907 322.039 127.05 322.221 127.232C322.402 127.413 322.546 127.628 322.645 127.865C322.743 128.102 322.793 128.356 322.793 128.612C322.793 128.868 322.743 129.122 322.645 129.359C322.546 129.596 322.402 129.811 322.221 129.992C322.039 130.174 321.824 130.317 321.587 130.415C321.35 130.513 321.096 130.563 320.84 130.563H290.589C290.071 130.563 289.575 130.357 289.209 129.991C288.844 129.625 288.638 129.129 288.638 128.612C288.638 128.095 288.844 127.598 289.209 127.233C289.575 126.867 290.071 126.661 290.589 126.661H320.84ZM320.84 126.184H290.589C290.27 126.183 289.953 126.246 289.658 126.367C289.363 126.489 289.095 126.668 288.869 126.894C288.643 127.119 288.464 127.387 288.342 127.682C288.22 127.977 288.157 128.293 288.157 128.612C288.157 128.931 288.22 129.247 288.342 129.542C288.464 129.837 288.643 130.105 288.869 130.33C289.095 130.556 289.363 130.735 289.658 130.857C289.953 130.978 290.27 131.041 290.589 131.04H320.84C321.159 131.041 321.475 130.978 321.77 130.857C322.065 130.735 322.333 130.556 322.559 130.33C322.785 130.105 322.964 129.837 323.086 129.542C323.209 129.247 323.272 128.931 323.272 128.612C323.272 128.293 323.209 127.977 323.086 127.682C322.964 127.387 322.785 127.119 322.559 126.894C322.333 126.668 322.065 126.489 321.77 126.367C321.475 126.246 321.159 126.183 320.84 126.184Z" fill="#3F3D56"/>
<path d="M308.903 131.04H286.131C285.487 131.04 284.869 130.784 284.413 130.329C283.958 129.874 283.702 129.256 283.702 128.612C283.702 127.968 283.958 127.35 284.413 126.895C284.869 126.439 285.487 126.184 286.131 126.184H308.903C309.547 126.184 310.165 126.439 310.62 126.895C311.076 127.35 311.331 127.968 311.331 128.612C311.331 129.256 311.076 129.874 310.62 130.329C310.165 130.784 309.547 131.04 308.903 131.04Z" fill="#009BFF"/>
<path d="M274.625 143.72C276.214 143.72 277.502 142.432 277.502 140.843C277.502 139.255 276.214 137.967 274.625 137.967C273.037 137.967 271.749 139.255 271.749 140.843C271.749 142.432 273.037 143.72 274.625 143.72Z" fill="#3F3D56"/>
<path d="M320.839 138.605C321.096 138.605 321.35 138.655 321.587 138.753C321.824 138.851 322.039 138.994 322.221 139.175C322.402 139.357 322.546 139.572 322.644 139.809C322.743 140.045 322.793 140.299 322.793 140.556C322.793 140.812 322.743 141.066 322.644 141.303C322.546 141.54 322.402 141.755 322.221 141.936C322.039 142.117 321.824 142.261 321.587 142.359C321.35 142.457 321.096 142.507 320.839 142.506H290.589C290.071 142.506 289.575 142.301 289.209 141.935C288.843 141.569 288.638 141.073 288.638 140.556C288.638 140.038 288.843 139.542 289.209 139.177C289.575 138.811 290.071 138.605 290.589 138.605H320.839ZM320.839 138.127H290.589C289.945 138.127 289.327 138.383 288.871 138.839C288.416 139.294 288.16 139.912 288.16 140.556C288.16 141.2 288.416 141.818 288.871 142.273C289.327 142.728 289.945 142.984 290.589 142.984H320.839C321.483 142.984 322.101 142.728 322.556 142.273C323.012 141.818 323.268 141.2 323.268 140.556C323.268 139.912 323.012 139.294 322.556 138.839C322.101 138.383 321.483 138.127 320.839 138.127Z" fill="#3F3D56"/>
<path d="M317.502 142.984H286.131C285.486 142.984 284.869 142.728 284.413 142.273C283.958 141.818 283.702 141.2 283.702 140.556C283.702 139.912 283.958 139.294 284.413 138.839C284.869 138.383 285.486 138.127 286.131 138.127H317.502C318.146 138.127 318.764 138.383 319.22 138.839C319.675 139.294 319.931 139.912 319.931 140.556C319.931 141.2 319.675 141.818 319.22 142.273C318.764 142.728 318.146 142.984 317.502 142.984Z" fill="#009BFF"/>
<path d="M274.625 155.663C276.214 155.663 277.502 154.375 277.502 152.787C277.502 151.198 276.214 149.911 274.625 149.911C273.037 149.911 271.749 151.198 271.749 152.787C271.749 154.375 273.037 155.663 274.625 155.663Z" fill="#3F3D56"/>
<path d="M320.839 150.549C321.096 150.548 321.35 150.599 321.587 150.696C321.824 150.794 322.039 150.938 322.221 151.119C322.402 151.3 322.546 151.515 322.644 151.752C322.743 151.989 322.793 152.243 322.793 152.499C322.793 152.756 322.743 153.01 322.644 153.247C322.546 153.484 322.402 153.699 322.221 153.88C322.039 154.061 321.824 154.205 321.587 154.302C321.35 154.4 321.096 154.45 320.839 154.45H290.589C290.071 154.45 289.575 154.245 289.209 153.879C288.843 153.513 288.638 153.017 288.638 152.499C288.638 151.982 288.843 151.486 289.209 151.12C289.575 150.754 290.071 150.549 290.589 150.549H320.839ZM320.839 150.071H290.589C289.945 150.071 289.327 150.327 288.871 150.782C288.416 151.238 288.16 151.855 288.16 152.499C288.16 153.143 288.416 153.761 288.871 154.217C289.327 154.672 289.945 154.928 290.589 154.928H320.839C321.483 154.928 322.101 154.672 322.556 154.217C323.012 153.761 323.268 153.143 323.268 152.499C323.268 151.855 323.012 151.238 322.556 150.782C322.101 150.327 321.483 150.071 320.839 150.071Z" fill="#3F3D56"/>
<path d="M298.87 154.928H286.13C285.811 154.928 285.495 154.866 285.2 154.744C284.905 154.622 284.637 154.443 284.411 154.218C284.185 153.992 284.006 153.724 283.883 153.43C283.761 153.135 283.698 152.819 283.698 152.499C283.698 152.18 283.761 151.864 283.883 151.569C284.006 151.274 284.185 151.007 284.411 150.781C284.637 150.555 284.905 150.377 285.2 150.255C285.495 150.133 285.811 150.071 286.13 150.071H298.87C299.513 150.072 300.13 150.328 300.585 150.784C301.039 151.239 301.295 151.856 301.295 152.499C301.295 153.143 301.039 153.76 300.585 154.215C300.13 154.671 299.513 154.927 298.87 154.928Z" fill="#009BFF"/>
<path d="M242.047 53.8477H27.1543V163.98H242.047V53.8477Z" fill="#F2F2F2"/>
<path d="M234.884 59.3201H34.3174V158.508H234.884V59.3201Z" fill="white"/>
<path d="M210.01 143.376H63.8003C63.679 143.376 63.5626 143.328 63.4768 143.242C63.391 143.156 63.3428 143.04 63.3428 142.918V72.8401C63.3428 72.7188 63.391 72.6024 63.4768 72.5166C63.5626 72.4308 63.679 72.3826 63.8003 72.3826C63.9217 72.3826 64.0381 72.4308 64.1239 72.5166C64.2097 72.6024 64.2579 72.7188 64.2579 72.8401V142.461H210.01C210.131 142.461 210.247 142.509 210.333 142.595C210.419 142.68 210.467 142.797 210.467 142.918C210.467 143.04 210.419 143.156 210.333 143.242C210.247 143.328 210.131 143.376 210.01 143.376Z" fill="#3F3D56"/>
<path d="M95.0389 138.343H81.7406C81.3805 138.342 81.0353 138.199 80.7806 137.944C80.526 137.69 80.3828 137.344 80.3823 136.984V118.653C80.3828 118.293 80.526 117.947 80.7806 117.693C81.0353 117.438 81.3805 117.295 81.7406 117.294H95.0389C95.399 117.295 95.7443 117.438 95.9989 117.693C96.2535 117.947 96.3968 118.293 96.3972 118.653V136.984C96.3968 137.344 96.2535 137.69 95.9989 137.944C95.7443 138.199 95.399 138.342 95.0389 138.343Z" fill="#009BFF"/>
<path d="M119.29 138.342H105.992C105.631 138.342 105.286 138.199 105.032 137.944C104.777 137.69 104.634 137.344 104.633 136.984V101.265C104.634 100.905 104.777 100.56 105.032 100.305C105.286 100.05 105.631 99.9071 105.992 99.9067H119.29C119.65 99.9071 119.995 100.05 120.25 100.305C120.504 100.56 120.648 100.905 120.648 101.265V136.984C120.648 137.344 120.504 137.69 120.25 137.944C119.995 138.199 119.65 138.342 119.29 138.342Z" fill="#009BFF"/>
<path d="M143.541 138.343H130.243C129.882 138.342 129.537 138.199 129.283 137.944C129.028 137.69 128.885 137.344 128.884 136.984V118.653C128.885 118.293 129.028 117.947 129.283 117.693C129.537 117.438 129.882 117.295 130.243 117.294H143.541C143.901 117.295 144.246 117.438 144.501 117.693C144.755 117.947 144.899 118.293 144.899 118.653V136.984C144.899 137.344 144.755 137.69 144.501 137.944C144.246 138.199 143.901 138.342 143.541 138.343Z" fill="#009BFF"/>
<path d="M167.792 138.343H154.494C154.142 138.35 153.802 138.218 153.547 137.975C153.292 137.732 153.145 137.398 153.136 137.046V94.3399C153.145 93.9881 153.292 93.654 153.547 93.411C153.802 93.1679 154.142 93.0357 154.494 93.0433H167.792C168.144 93.0357 168.485 93.1679 168.739 93.411C168.994 93.654 169.142 93.9881 169.151 94.3399V137.046C169.142 137.398 168.994 137.732 168.739 137.975C168.485 138.218 168.144 138.35 167.792 138.343Z" fill="#009BFF"/>
<path d="M192.043 138.343H178.745C178.385 138.342 178.04 138.199 177.785 137.944C177.53 137.69 177.387 137.344 177.387 136.984V82.0471C177.387 81.687 177.53 81.3418 177.785 81.0872C178.04 80.8326 178.385 80.6894 178.745 80.689H192.043C192.403 80.6894 192.749 80.8326 193.003 81.0872C193.258 81.3418 193.401 81.687 193.402 82.0471V136.984C193.401 137.344 193.258 137.69 193.003 137.944C192.749 138.199 192.403 138.342 192.043 138.343Z" fill="#009BFF"/>
<path d="M88.3899 111.804C89.9062 111.804 91.1354 110.574 91.1354 109.058C91.1354 107.542 89.9062 106.313 88.3899 106.313C86.8737 106.313 85.6445 107.542 85.6445 109.058C85.6445 110.574 86.8737 111.804 88.3899 111.804Z" fill="#3F3D56"/>
<path d="M112.641 93.9584C114.157 93.9584 115.386 92.7292 115.386 91.2129C115.386 89.6967 114.157 88.4675 112.641 88.4675C111.125 88.4675 109.896 89.6967 109.896 91.2129C109.896 92.7292 111.125 93.9584 112.641 93.9584Z" fill="#3F3D56"/>
<path d="M136.892 111.804C138.408 111.804 139.637 110.574 139.637 109.058C139.637 107.542 138.408 106.313 136.892 106.313C135.376 106.313 134.146 107.542 134.146 109.058C134.146 110.574 135.376 111.804 136.892 111.804Z" fill="#3F3D56"/>
<path d="M161.143 85.2645C162.659 85.2645 163.888 84.0353 163.888 82.5191C163.888 81.0028 162.659 79.7737 161.143 79.7737C159.627 79.7737 158.397 81.0028 158.397 82.5191C158.397 84.0353 159.627 85.2645 161.143 85.2645Z" fill="#3F3D56"/>
<path d="M185.394 75.1981C186.911 75.1981 188.14 73.9689 188.14 72.4527C188.14 70.9364 186.911 69.7073 185.394 69.7073C183.878 69.7073 182.649 70.9364 182.649 72.4527C182.649 73.9689 183.878 75.1981 185.394 75.1981Z" fill="#3F3D56"/>
<path d="M136.95 109.673L112.641 91.4655L88.6642 109.424L88.1157 108.692L112.641 90.3218L136.834 108.443L160.876 82.1338L160.972 82.0946L185.223 72.3237L185.565 73.1725L161.411 82.9046L136.95 109.673Z" fill="#3F3D56"/>
<path d="M499.469 334.964H297.358C297.217 334.964 297.082 334.908 296.983 334.809C296.883 334.709 296.827 334.574 296.827 334.434C296.827 334.293 296.883 334.158 296.983 334.059C297.082 333.959 297.217 333.903 297.358 333.903H499.469C499.61 333.903 499.745 333.959 499.845 334.059C499.944 334.158 500 334.293 500 334.434C500 334.574 499.944 334.709 499.845 334.809C499.745 334.908 499.61 334.964 499.469 334.964Z" fill="#CCCCCC"/>
</g>
<defs>
<clipPath id="clip0_22_412">
<rect width="500" height="334.964" fill="white"/>
</clipPath>
</defs>
</svg>
