<svg width="121" height="121" viewBox="0 0 121 121" fill="none" xmlns="http://www.w3.org/2000/svg">
<circle cx="60.1729" cy="60.1729" r="60.1729" fill="#009BFF"/>
<g clip-path="url(#clip0_3002_699)">
<path d="M116.585 90.0488H3.76074V90.1052H116.585V90.0488Z" fill="#EBEBEB"/>
<path d="M23.0716 92.1973H15.5981V92.2537H23.0716V92.1973Z" fill="#EBEBEB"/>
<path d="M44.3386 91.5854H36.5537V91.6419H44.3386V91.5854Z" fill="#EBEBEB"/>
<path d="M33.4337 93.2866H20.9282V93.343H33.4337V93.2866Z" fill="#EBEBEB"/>
<path d="M105.039 93.4941H95.293V93.5506H105.039V93.4941Z" fill="#EBEBEB"/>
<path d="M92.515 92.084H87.3477V92.1404H92.515V92.084Z" fill="#EBEBEB"/>
<path d="M69.0435 92.9888H47.9048V93.0452H69.0435V92.9888Z" fill="#EBEBEB"/>
<path d="M57.2395 79.9848H13.669C13.3277 79.9842 13.0005 79.8482 12.7594 79.6066C12.5182 79.365 12.3828 79.0376 12.3828 78.6963V17.4486C12.3858 17.1092 12.5225 16.7847 12.7634 16.5456C13.0042 16.3064 13.3296 16.172 13.669 16.1714H57.2395C57.5812 16.1714 57.9089 16.3071 58.1505 16.5488C58.3922 16.7904 58.5279 17.1181 58.5279 17.4598V78.6963C58.5279 79.038 58.3922 79.3658 58.1505 79.6074C57.9089 79.849 57.5812 79.9848 57.2395 79.9848ZM13.669 16.2165C13.3426 16.2171 13.0298 16.3472 12.7993 16.5782C12.5687 16.8092 12.4392 17.1222 12.4392 17.4486V78.6963C12.4392 79.0227 12.5687 79.3357 12.7993 79.5667C13.0298 79.7977 13.3426 79.9277 13.669 79.9283H57.2395C57.566 79.9277 57.8791 79.7978 58.11 79.5668C58.3409 79.3359 58.4709 79.0229 58.4715 78.6963V17.4486C58.4709 17.122 58.3409 16.809 58.11 16.578C57.8791 16.3471 57.566 16.2171 57.2395 16.2165H13.669Z" fill="#EBEBEB"/>
<path d="M106.049 79.9848H62.4764C62.1349 79.9842 61.8075 79.8482 61.566 79.6067C61.3245 79.3652 61.1886 79.0378 61.188 78.6963V17.4486C61.1915 17.109 61.3288 16.7845 61.57 16.5454C61.8112 16.3063 62.1368 16.172 62.4764 16.1714H106.049C106.388 16.1726 106.713 16.3073 106.953 16.5464C107.194 16.7854 107.33 17.1096 107.333 17.4486V78.6963C107.333 79.0372 107.198 79.3643 106.957 79.6058C106.717 79.8473 106.39 79.9836 106.049 79.9848ZM62.4764 16.2165C62.1499 16.2171 61.8368 16.3471 61.6059 16.578C61.375 16.809 61.245 17.122 61.2444 17.4486V78.6963C61.245 79.0229 61.375 79.3359 61.6059 79.5668C61.8368 79.7978 62.1499 79.9277 62.4764 79.9283H106.049C106.376 79.9277 106.689 79.7978 106.92 79.5668C107.151 79.3359 107.281 79.0229 107.281 78.6963V17.4486C107.281 17.122 107.151 16.809 106.92 16.578C106.689 16.3471 106.376 16.2171 106.049 16.2165H62.4764Z" fill="#EBEBEB"/>
<path d="M74.1092 60.5317H67.7144V88.2639H74.1092V60.5317Z" fill="#F0F0F0"/>
<path d="M100.476 88.2642H68.9414V90.022H100.476V88.2642Z" fill="#F0F0F0"/>
<path d="M74.1086 88.2642H101.703V60.532H74.1086V88.2642Z" fill="#F5F5F5"/>
<path d="M76.6224 73.0396H99.1895V63.9437H76.6224V73.0396Z" fill="#F0F0F0"/>
<path d="M76.6224 84.8521H99.1895V75.7562H76.6224V84.8521Z" fill="#F0F0F0"/>
<path d="M90.4389 64.7127H85.3731C85.2075 64.7121 85.0489 64.646 84.9318 64.529C84.8147 64.4119 84.7486 64.2532 84.748 64.0876C84.7486 63.9223 84.8148 63.7638 84.9319 63.6471C85.0491 63.5304 85.2077 63.4648 85.3731 63.4648H90.4389C90.6043 63.4648 90.7629 63.5304 90.8801 63.6471C90.9972 63.7638 91.0633 63.9223 91.0639 64.0876C91.0633 64.2532 90.9973 64.4119 90.8802 64.529C90.7631 64.646 90.6045 64.7121 90.4389 64.7127Z" fill="#F5F5F5"/>
<path d="M90.4389 76.521H85.3731C85.2077 76.521 85.0491 76.4554 84.9319 76.3387C84.8148 76.222 84.7486 76.0636 84.748 75.8982C84.7486 75.7328 84.8148 75.5744 84.9319 75.4577C85.0491 75.3409 85.2077 75.2754 85.3731 75.2754H90.4389C90.6043 75.2754 90.7629 75.3409 90.8801 75.4577C90.9972 75.5744 91.0633 75.7328 91.0639 75.8982C91.0633 76.0636 90.9972 76.222 90.8801 76.3387C90.7629 76.4554 90.6043 76.521 90.4389 76.521Z" fill="#F5F5F5"/>
<path d="M87.77 22.2822H76.271V34.8238H87.77V22.2822Z" fill="#E0E0E0"/>
<path d="M88.4578 22.2822H76.6587V34.8238H88.4578V22.2822Z" fill="#F5F5F5"/>
<path d="M87.4673 33.8354V23.2705H77.6471V33.8354H87.4673Z" fill="white"/>
<path d="M83.7598 30.4369L84.9242 28.4196C85.0462 28.2088 85.1105 27.9695 85.1107 27.7258C85.1109 27.4822 85.047 27.2428 84.9253 27.0317C84.8036 26.8206 84.6285 26.6452 84.4176 26.5233C84.2067 26.4013 83.9673 26.337 83.7237 26.3369H81.3837C81.1402 26.3373 80.901 26.4017 80.6901 26.5237C80.4793 26.6457 80.3042 26.8209 80.1824 27.0318C80.0606 27.2427 79.9963 27.482 79.9961 27.7255C79.9959 27.9691 80.0596 28.2085 80.181 28.4196L81.3476 30.4369C81.4688 30.6499 81.6443 30.827 81.8561 30.9502C82.068 31.0734 82.3087 31.1383 82.5537 31.1383C82.7988 31.1383 83.0395 31.0734 83.2513 30.9502C83.4631 30.827 83.6386 30.6499 83.7598 30.4369Z" fill="#F5F5F5"/>
<path d="M32.2559 44.1226H25.1548V90.0488H32.2559V44.1226Z" fill="#E0E0E0"/>
<path d="M50.3521 90.0487H26.5756L24.0776 33.5215H47.8542L50.3521 90.0487Z" fill="#E6E6E6"/>
<path d="M53.8202 90.0487H27.5209L25.0229 33.5215H51.3223L53.8202 90.0487Z" fill="#F0F0F0"/>
<path d="M30.096 87.2777L27.9907 36.2925H48.7481L50.8534 87.2777H30.096Z" fill="white"/>
<path d="M39.014 87.2777L31.958 36.2925H34.1716L41.2276 87.2777H39.014Z" fill="#FAFAFA"/>
<path d="M42.1659 87.2777L35.1099 36.2925H38.885L45.941 87.2777H42.1659Z" fill="#FAFAFA"/>
<path d="M89.2137 59.3875H89.7327C89.7327 58.3179 89.7327 55.6033 89.7868 49.3822C89.8794 38.0998 90.0599 37.4229 90.0599 37.4229L88.8301 42.6263C88.0381 48.3894 89.0558 54.1818 89.2137 59.3875Z" fill="#E6E6E6"/>
<path d="M88.1866 41.8504C86.4062 39.7294 82.6018 39.1111 78.7093 38.5831C77.1817 38.3755 82.7281 41.8685 85.4382 44.3506C87.5457 46.2777 88.8906 46.8102 89.4682 48.7305C89.7684 46.3363 89.7187 43.6782 88.1866 41.8504Z" fill="#E6E6E6"/>
<path d="M90.5474 45.6413C92.3278 43.5202 96.13 42.9019 100.025 42.3739C101.555 42.1685 96.0081 45.6616 93.2958 48.1415C91.1905 50.0708 89.8434 50.6033 89.2658 52.5236C88.9656 50.1272 89.013 47.469 90.5474 45.6413Z" fill="#E6E6E6"/>
<path d="M89.7845 36.9309C91.1204 34.3946 94.478 32.0073 98.2464 31.1024C99.7266 30.7459 94.8188 35.7846 92.9549 39.034C91.5062 41.5477 89.5837 44.5127 89.2813 46.6338C88.83 42.4232 88.451 39.4582 89.7845 36.9309Z" fill="#E6E6E6"/>
<path d="M89.6265 60.6038C88.047 60.6038 86.7224 59.8073 86.6322 58.7986L86.3682 57.0566H92.8917L92.6276 58.7986C92.5306 59.8073 91.2173 60.6038 89.6265 60.6038Z" fill="#F0F0F0"/>
<path d="M93.3094 57.7155H85.9442L85.7344 55.7749H93.5215L93.3094 57.7155Z" fill="#F0F0F0"/>
<path d="M60.1728 100.239C84.3358 100.239 103.924 99.0954 103.924 97.6847C103.924 96.274 84.3358 95.1304 60.1728 95.1304C36.0099 95.1304 16.4219 96.274 16.4219 97.6847C16.4219 99.0954 36.0099 100.239 60.1728 100.239Z" fill="#F5F5F5"/>
<path d="M67.1498 38.6237C67.1498 32.34 64.6536 26.3135 60.2103 21.8702C55.767 17.4269 49.7406 14.9307 43.4568 14.9307C37.173 14.9307 31.1465 17.4269 26.7032 21.8702C22.2599 26.3135 19.7637 32.34 19.7637 38.6237C19.7637 48.8975 26.1089 57.2962 35.444 60.9268L51.7245 67.245L48.6354 61.7527C53.8896 60.5737 58.5859 57.6409 61.9511 53.437C65.3162 49.2331 67.1498 44.0087 67.1498 38.6237Z" fill="#009BFF"/>
<path d="M42.9268 60.173C38.5604 60.1725 34.2921 58.8773 30.6618 56.4511C27.0315 54.025 24.2021 50.5768 22.5315 46.5426C20.8608 42.5085 20.4239 38.0695 21.2761 33.787C22.1282 29.5046 24.231 25.571 27.3187 22.4836C30.4064 19.3963 34.3402 17.2938 38.6228 16.4421C42.9053 15.5904 47.3442 16.0278 51.3782 17.6988C55.4122 19.3699 58.8601 22.1996 61.2859 25.8302C63.7117 29.4607 65.0065 33.7291 65.0065 38.0955C64.9999 43.9492 62.6715 49.5612 58.5321 53.7002C54.3927 57.8391 48.7804 60.167 42.9268 60.173ZM42.9268 16.2437C38.605 16.2442 34.3804 17.5261 30.7872 19.9275C27.194 22.3289 24.3935 25.7418 22.7399 29.7348C21.0864 33.7277 20.654 38.1213 21.4974 42.36C22.3408 46.5987 24.4221 50.4921 27.4783 53.5479C30.5344 56.6037 34.428 58.6846 38.6668 59.5276C42.9055 60.3706 47.2991 59.9377 51.2919 58.2837C55.2846 56.6297 58.6973 53.8289 61.0983 50.2355C63.4993 46.642 64.7808 42.4173 64.7808 38.0955C64.7713 32.3026 62.4656 26.7497 58.3692 22.6537C54.2728 18.5577 48.7197 16.2527 42.9268 16.2437Z" fill="white"/>
<path d="M27.436 39.6998C27.436 36.64 28.0581 34.1903 29.3021 32.3505C29.8741 31.4685 30.64 30.7288 31.5415 30.188C32.4429 29.6471 33.456 29.3194 34.5033 29.2298C36.7794 28.983 38.5342 29.6307 39.7677 31.1726C41.0013 32.7145 41.6173 34.9936 41.6158 38.0097C41.6158 40.2015 41.3465 42.027 40.808 43.4862C40.3417 44.84 39.5388 46.0529 38.4748 47.0108C37.4035 47.923 36.0727 48.4756 34.6703 48.5904C33.1269 48.7574 31.8482 48.5588 30.8343 47.9947C29.8204 47.4306 29.0005 46.4527 28.3747 45.0612C27.7489 43.6773 27.436 41.8901 27.436 39.6998ZM31.6647 39.2666C31.6647 41.1605 31.9212 42.4926 32.4341 43.2628C32.6447 43.6196 32.9561 43.9061 33.3291 44.0864C33.7021 44.2666 34.12 44.3326 34.5304 44.276C34.9744 44.2296 35.3999 44.0733 35.7682 43.8211C36.1366 43.569 36.4363 43.229 36.6402 42.8318C37.1352 41.9669 37.3826 40.4866 37.3826 38.3911C37.3826 36.6265 37.1231 35.3659 36.6041 34.6092C36.3866 34.2554 36.0703 33.9729 35.6942 33.7965C35.3182 33.6201 34.8987 33.5575 34.4875 33.6164C33.6361 33.7096 32.9516 34.197 32.4341 35.0786C31.9167 35.9601 31.6602 37.3561 31.6647 39.2666Z" fill="white"/>
<path d="M43.9131 28.5304L48.1417 28.0791V35.1622L52.5712 27.6008L58.1966 26.9893L53.203 34.6049L58.42 45.709L53.2121 46.2732L50.326 38.8787L48.1417 42.2499V46.8147L43.9131 47.266V28.5304Z" fill="white"/>
<path d="M23.0809 20.5625C22.7403 20.563 22.4072 20.4624 22.1238 20.2735C21.8403 20.0846 21.6193 19.8158 21.4886 19.5013C21.358 19.1867 21.3236 18.8405 21.3897 18.5063C21.4559 18.1722 21.6197 17.8652 21.8604 17.6242C22.1011 17.3832 22.4079 17.219 22.7419 17.1524C23.076 17.0858 23.4222 17.1197 23.737 17.25C24.0517 17.3802 24.3207 17.6009 24.51 17.8841C24.6993 18.1673 24.8003 18.5002 24.8003 18.8408C24.7997 19.2969 24.6185 19.7341 24.2962 20.0568C23.9739 20.3795 23.5369 20.5613 23.0809 20.5625ZM23.0809 17.347C22.7848 17.3466 22.4952 17.434 22.2489 17.5982C22.0025 17.7625 21.8104 17.9961 21.6969 18.2695C21.5834 18.543 21.5536 18.844 21.6112 19.1344C21.6689 19.4248 21.8114 19.6916 22.0208 19.901C22.2301 20.1103 22.4969 20.2529 22.7873 20.3105C23.0777 20.3682 23.3787 20.3383 23.6522 20.2248C23.9256 20.1113 24.1593 19.9192 24.3235 19.6728C24.4877 19.4265 24.5751 19.1369 24.5747 18.8408C24.5741 18.4448 24.4165 18.0652 24.1365 17.7852C23.8565 17.5052 23.4769 17.3476 23.0809 17.347Z" fill="#009BFF"/>
<path d="M39.8173 66.4007C39.5896 66.4007 39.367 66.3332 39.1777 66.2066C38.9884 66.0801 38.8409 65.9002 38.7539 65.6898C38.6669 65.4794 38.6442 65.2479 38.6888 65.0246C38.7334 64.8013 38.8432 64.5962 39.0044 64.4354C39.1655 64.2745 39.3708 64.1651 39.5942 64.121C39.8176 64.0768 40.049 64.0999 40.2593 64.1874C40.4695 64.2748 40.6491 64.4227 40.7753 64.6122C40.9014 64.8018 40.9686 65.0245 40.9681 65.2522C40.9675 65.557 40.846 65.8491 40.6303 66.0645C40.4145 66.2798 40.1221 66.4007 39.8173 66.4007ZM39.8173 64.327C39.6343 64.327 39.4555 64.3813 39.3033 64.4829C39.1512 64.5846 39.0326 64.7291 38.9626 64.8981C38.8925 65.0672 38.8742 65.2532 38.9099 65.4327C38.9456 65.6121 39.0337 65.777 39.1631 65.9064C39.2925 66.0358 39.4574 66.1239 39.6368 66.1596C39.8163 66.1953 40.0023 66.1769 40.1714 66.1069C40.3404 66.0369 40.4849 65.9183 40.5865 65.7662C40.6882 65.614 40.7425 65.4352 40.7425 65.2522C40.7425 65.0068 40.645 64.7715 40.4715 64.598C40.298 64.4245 40.0627 64.327 39.8173 64.327Z" fill="#009BFF"/>
<path d="M61.2611 20.0344C61.261 20.1167 61.2366 20.1971 61.1908 20.2655C61.1449 20.3339 61.0798 20.3871 61.0037 20.4184C60.9276 20.4496 60.8438 20.4576 60.7632 20.4412C60.6825 20.4248 60.6086 20.3848 60.5507 20.3263C60.4928 20.2678 60.4536 20.1934 60.4381 20.1126C60.4226 20.0317 60.4315 19.9481 60.4636 19.8723C60.4957 19.7965 60.5496 19.732 60.6185 19.6869C60.6874 19.6419 60.7681 19.6183 60.8504 19.6192C60.9597 19.6204 61.0642 19.6646 61.141 19.7424C61.2179 19.8201 61.2611 19.925 61.2611 20.0344Z" fill="#009BFF"/>
<path d="M35.6273 64.8371C35.6273 64.9193 35.6029 64.9996 35.5571 65.068C35.5114 65.1363 35.4464 65.1895 35.3704 65.2209C35.2944 65.2522 35.2108 65.2603 35.1302 65.2441C35.0496 65.2279 34.9757 65.1881 34.9177 65.1299C34.8597 65.0716 34.8203 64.9974 34.8046 64.9167C34.7888 64.836 34.7974 64.7524 34.8291 64.6766C34.8609 64.6008 34.9145 64.5361 34.983 64.4908C35.0516 64.4454 35.1321 64.4214 35.2143 64.4219C35.324 64.4225 35.4291 64.4665 35.5065 64.5443C35.5838 64.6221 35.6273 64.7274 35.6273 64.8371Z" fill="#009BFF"/>
<path d="M77.8677 90.9242L79.2261 96.2405L81.7736 95.6154L80.413 90.2969L77.8677 90.9242Z" fill="#FF8B7B"/>
<path d="M81.835 94.5299L78.949 95.1482C78.9041 95.157 78.8642 95.1822 78.837 95.219C78.8099 95.2558 78.7975 95.3013 78.8023 95.3468L79.0009 97.4589C79.0072 97.512 79.0245 97.5631 79.0518 97.6091C79.0791 97.6551 79.1157 97.6949 79.1592 97.726C79.2028 97.757 79.2524 97.7785 79.3047 97.7893C79.3571 97.8 79.4112 97.7997 79.4634 97.7883C80.366 97.5627 80.6391 97.4408 81.7808 97.1926C83.1167 96.8992 83.586 96.9782 85.1656 96.6352C86.1133 96.4276 86.0682 95.4348 85.6462 95.4325C84.5232 95.4341 83.4197 95.1399 82.4465 94.5796C82.2566 94.4851 82.0376 94.4674 81.835 94.5299Z" fill="#263238"/>
<path opacity="0.2" d="M77.8652 90.9261L78.567 93.6655L81.1146 93.0405L80.4128 90.2988L77.8652 90.9261Z" fill="black"/>
<path d="M73.328 70.4442C70.2952 61.5198 67.8921 50.9933 67.8921 50.9933L76.5457 50.4473C76.5457 50.4473 77.8206 64.1125 78.4863 70.4126C79.1768 76.9564 81.3272 91.7477 81.3272 91.7477L77.4235 92.5397C77.4235 92.5397 73.7612 78.6104 73.328 70.4442Z" fill="#009BFF"/>
<path opacity="0.2" d="M71.8835 55.9536L69.7827 58.5508C70.3175 60.5546 70.9448 62.8066 71.6308 65.1104C72.0252 62.0746 72.1099 59.0066 71.8835 55.9536Z" fill="black"/>
<path d="M81.2683 92.2959L77.6895 93.0811C77.6182 93.0962 77.5439 93.0848 77.4803 93.0491C77.4168 93.0134 77.3684 92.9558 77.3443 92.8871L76.9494 91.7317C76.9363 91.6927 76.9316 91.6513 76.9353 91.6103C76.9391 91.5693 76.9513 91.5295 76.9713 91.4934C76.9912 91.4574 77.0184 91.4258 77.0511 91.4008C77.0839 91.3758 77.1215 91.3579 77.1615 91.3482L81.0471 90.4343C81.089 90.4243 81.1325 90.4236 81.1747 90.4323C81.2168 90.4409 81.2566 90.4586 81.2912 90.4842C81.3257 90.5097 81.3543 90.5425 81.3749 90.5803C81.3955 90.6181 81.4077 90.6599 81.4104 90.7028L81.5007 91.9867C81.506 92.0577 81.4854 92.1282 81.4427 92.185C81.3999 92.2419 81.3379 92.2813 81.2683 92.2959Z" fill="#263238"/>
<path opacity="0.1" d="M81.2683 92.2959L77.6895 93.0811C77.6182 93.0962 77.5439 93.0848 77.4803 93.0491C77.4168 93.0134 77.3684 92.9558 77.3443 92.8871L76.9494 91.7317C76.9363 91.6927 76.9316 91.6513 76.9353 91.6103C76.9391 91.5693 76.9513 91.5295 76.9713 91.4934C76.9912 91.4574 77.0184 91.4258 77.0511 91.4008C77.0839 91.3758 77.1215 91.3579 77.1615 91.3482L81.0471 90.4343C81.089 90.4243 81.1325 90.4236 81.1747 90.4323C81.2168 90.4409 81.2566 90.4586 81.2912 90.4842C81.3257 90.5097 81.3543 90.5425 81.3749 90.5803C81.3955 90.6181 81.4077 90.6599 81.4104 90.7028L81.5007 91.9867C81.506 92.0577 81.4854 92.1282 81.4427 92.185C81.3999 92.2419 81.3379 92.2813 81.2683 92.2959Z" fill="white"/>
<path d="M63.5933 90.7392L63.4331 96.2247L66.0574 96.1886L66.2176 90.7031L63.5933 90.7392Z" fill="#FF8B7B"/>
<path d="M66.1204 95.0623L63.3314 95.1029C63.2859 95.1027 63.242 95.1194 63.2082 95.1499C63.1744 95.1804 63.1531 95.2223 63.1486 95.2676L62.923 97.3774C62.9189 97.4307 62.926 97.4842 62.9437 97.5346C62.9614 97.5851 62.9894 97.6312 63.0259 97.6703C63.0623 97.7093 63.1065 97.7403 63.1556 97.7614C63.2047 97.7825 63.2577 97.7931 63.3111 97.7926C64.2385 97.7633 64.5319 97.6866 65.7007 97.6685C67.0682 97.646 67.3638 97.8174 68.9659 97.7926C69.9361 97.7768 70.0941 96.7953 69.6766 96.7095C68.5781 96.4865 67.5573 95.9792 66.7161 95.2383C66.5476 95.1052 66.3342 95.0421 66.1204 95.0623Z" fill="#263238"/>
<path opacity="0.2" d="M63.5933 90.7415L63.5098 93.5689L66.1363 93.5305L66.2175 90.7031L63.5933 90.7415Z" fill="black"/>
<path d="M64.2476 70.264C64.9877 60.8748 64.3627 55.8112 65.4526 51.1471L73.3277 50.6597C73.3277 50.6597 70.8839 64.4603 69.5323 70.7018C68.1807 76.9432 66.732 92.1045 66.732 92.1045L62.8621 92.1519C62.8621 92.1519 62.3883 77.5886 64.2476 70.264Z" fill="#009BFF"/>
<path d="M66.7167 92.7994L63.0567 92.8558C62.9805 92.8566 62.9068 92.8284 62.8507 92.7768C62.7945 92.7253 62.7601 92.6543 62.7543 92.5783L62.6754 91.3688C62.6729 91.3292 62.6785 91.2894 62.6916 91.2519C62.7048 91.2144 62.7253 91.1799 62.752 91.1505C62.7788 91.121 62.8111 91.0972 62.8471 91.0805C62.8832 91.0637 62.9222 91.0544 62.9619 91.0529L66.9491 90.9288C66.9937 90.9277 67.0379 90.9365 67.0786 90.9547C67.1192 90.9729 67.1553 91.0001 67.1841 91.034C67.2129 91.068 67.2337 91.1081 67.245 91.1512C67.2562 91.1943 67.2577 91.2393 67.2493 91.2831L67.0033 92.558C66.9908 92.6252 66.9554 92.6859 66.9032 92.7299C66.8509 92.7739 66.785 92.7985 66.7167 92.7994Z" fill="#263238"/>
<path opacity="0.1" d="M66.7167 92.7994L63.0567 92.8558C62.9805 92.8566 62.9068 92.8284 62.8507 92.7768C62.7945 92.7253 62.7601 92.6543 62.7543 92.5783L62.6754 91.3688C62.6729 91.3292 62.6785 91.2894 62.6916 91.2519C62.7048 91.2144 62.7253 91.1799 62.752 91.1505C62.7788 91.121 62.8111 91.0972 62.8471 91.0805C62.8832 91.0637 62.9222 91.0544 62.9619 91.0529L66.9491 90.9288C66.9937 90.9277 67.0379 90.9365 67.0786 90.9547C67.1192 90.9729 67.1553 91.0001 67.1841 91.034C67.2129 91.068 67.2337 91.1081 67.245 91.1512C67.2562 91.1943 67.2577 91.2393 67.2493 91.2831L67.0033 92.558C66.9908 92.6252 66.9554 92.6859 66.9032 92.7299C66.8509 92.7739 66.785 92.7985 66.7167 92.7994Z" fill="white"/>
<path d="M76.3722 34.7536L76.8235 35.4937L77.3222 36.2541C77.6448 36.7528 77.9811 37.2402 78.3173 37.7163C78.6535 38.1924 79.01 38.6437 79.3688 39.0702C79.6875 39.4502 80.0444 39.7965 80.4339 40.1037L79.3304 39.939C79.7782 39.8469 80.2159 39.7108 80.6369 39.5328C81.0995 39.3354 81.5514 39.1139 81.9908 38.8694C82.4421 38.6234 82.8934 38.3504 83.3447 38.0661C83.796 37.7818 84.2473 37.4726 84.6738 37.1838L84.7099 37.1612C84.8643 37.0527 85.0525 37.0033 85.2403 37.0219C85.4281 37.0405 85.603 37.1259 85.7331 37.2626C85.8632 37.3992 85.9399 37.5781 85.9492 37.7666C85.9586 37.955 85.8999 38.1406 85.784 38.2895C85.4296 38.7655 85.0444 39.2177 84.6309 39.6434C84.2204 40.069 83.7857 40.4705 83.3289 40.8461C82.8569 41.2338 82.3569 41.586 81.8329 41.8998C81.2705 42.2403 80.6699 42.5129 80.0435 42.7122C79.8751 42.764 79.6978 42.7805 79.5227 42.7607C79.3476 42.7409 79.1784 42.6852 79.0258 42.5971L78.9401 42.5475C78.293 42.1616 77.6996 41.6919 77.1755 41.1507C76.9303 40.904 76.6949 40.6543 76.4692 40.4015C76.2436 40.1488 76.0292 39.8908 75.8261 39.6276C75.4109 39.1086 75.0296 38.576 74.6663 38.0322C74.4858 37.7615 74.3075 37.4884 74.1383 37.2086C73.969 36.9288 73.8066 36.658 73.6351 36.3466C73.4717 35.9912 73.446 35.5878 73.563 35.2145C73.6801 34.8412 73.9314 34.5246 74.2685 34.3261C74.6055 34.1275 75.0042 34.061 75.3875 34.1396C75.7707 34.2182 76.1111 34.4361 76.3429 34.7513L76.3722 34.7536Z" fill="#FF8B7B"/>
<path d="M72.9511 31.7414C76.0086 32.0889 78.3215 36.823 78.3215 36.823L75.1624 40.1784C75.1624 40.1784 73.7589 38.5041 72.2493 36.3852C70.6089 34.0836 70.5321 31.4684 72.9511 31.7414Z" fill="#263238"/>
<path d="M72.7098 32.4567C71.5341 32.0392 67.8516 32.6643 67.8516 32.6643C68.8828 33.9843 69.5687 44.9192 69.6567 51.208C70.7737 51.3615 73.4273 51.3412 74.4224 51.111C74.2983 48.6424 73.486 36.8455 72.7098 32.4567Z" fill="white"/>
<path d="M76.7261 35.7691C76.5874 34.6318 76.0361 33.5849 75.1768 32.8271C74.3175 32.0693 73.21 31.6532 72.0643 31.6578C69.8642 31.6761 67.6716 31.9181 65.5204 32.3798C65.1866 32.4522 64.8705 32.5904 64.5908 32.7865C64.3111 32.9826 64.0734 33.2326 63.8916 33.5218C63.7098 33.811 63.5876 34.1336 63.5321 34.4707C63.4766 34.8078 63.489 35.1525 63.5686 35.4847C65.1887 42.2835 64.7623 48.7326 65.1955 51.7314C66.961 52.1712 68.7761 52.3798 70.5953 52.352C70.5953 52.352 70.5298 51.5171 70.4486 50.1654C70.4193 49.6374 69.7401 33.8104 68.6818 32.4498C68.6818 32.4498 70.9518 32.2241 72.1274 32.6348C73.0007 37.563 73.8175 52.3587 73.8175 52.361C75.6746 52.2279 76.9766 51.1447 76.9518 50.8356C77.3219 44.786 77.1413 39.3095 76.7261 35.7691Z" fill="#263238"/>
<path d="M67.4727 26.8853C67.8179 28.2143 68.2218 30.552 67.5877 31.8292C67.5228 31.9537 67.5031 32.0969 67.5319 32.2343C67.5607 32.3717 67.6363 32.4949 67.7457 32.5829C68.5603 33.2124 69.6073 33.7969 71.1304 33.7111C72.7303 33.6141 72.6107 32.6573 72.2045 32.0188C72.1631 31.9511 72.1083 31.8926 72.0435 31.8469C71.9787 31.8011 71.9053 31.769 71.8277 31.7525C70.3158 31.4411 70.2978 30.2384 70.5144 29.0831L67.4727 26.8853Z" fill="#FF8B7B"/>
<path opacity="0.2" d="M68.7107 27.7788L70.5159 29.074C70.4593 29.3535 70.4276 29.6374 70.4212 29.9225C69.769 29.8931 68.8416 29.2703 68.7288 28.6002C68.6734 28.3297 68.6673 28.0514 68.7107 27.7788Z" fill="black"/>
<path d="M72.4638 25.1973C72.8722 24.9265 73.0888 23.0604 72.4638 22.4556C73.1091 21.887 72.7368 20.6211 71.8522 20.4067C70.9677 20.1924 70.3178 20.7746 69.1783 20.0435C68.982 20.3097 69.0948 20.6505 69.4355 20.849C69.9275 21.1356 72.4638 25.1973 72.4638 25.1973Z" fill="#263238"/>
<path d="M66.917 24.6289C67.2239 26.6597 67.2983 27.8759 68.4266 28.8282C70.1257 30.2611 72.574 29.0764 72.8831 26.9824C73.1629 25.0982 72.6146 22.0813 70.5364 21.4585C70.0758 21.3207 69.5877 21.3021 69.1179 21.4044C68.6482 21.5066 68.212 21.7265 67.8504 22.0433C67.4887 22.36 67.2134 22.7634 67.0501 23.2157C66.8869 23.6679 66.8411 24.1541 66.917 24.6289Z" fill="#FF8B7B"/>
<path d="M67.5396 26.3529C68.0834 26.0979 67.7855 23.9182 67.6524 23.4895C69.0808 23.688 73.0973 22.6162 71.775 21.0547C70.8092 19.9265 67.9909 21.2172 66.7904 20.2446C66.4339 20.626 66.9303 21.0773 66.9303 21.0773C66.9303 21.0773 65.0236 21.5286 65.8021 22.8825C64.2541 22.8125 65.3147 26.5786 67.5396 26.3529Z" fill="#263238"/>
<path d="M66.1615 22.0204C65.4101 22.6094 65.1145 22.3454 64.679 21.9482C64.5752 23.1058 65.4958 23.2547 65.9223 23.1352C66.2021 22.7741 66.1615 22.0204 66.1615 22.0204Z" fill="#263238"/>
<path d="M66.2498 26.5015C66.501 26.9256 66.9045 27.2379 67.378 27.3747C67.976 27.5304 68.2017 26.9234 67.9738 26.3255C67.7684 25.7771 67.2088 25.037 66.6379 25.1521C66.067 25.2672 65.9249 25.9644 66.2498 26.5015Z" fill="#FF8B7B"/>
<path d="M69.7194 24.8094C69.7352 24.9764 69.8345 25.1027 69.945 25.0915C70.0556 25.0802 70.1301 24.938 70.1143 24.771C70.0985 24.6041 69.9992 24.4777 69.8886 24.489C69.7781 24.5003 69.7059 24.6424 69.7194 24.8094Z" fill="#263238"/>
<path d="M71.5993 24.4866C71.6151 24.6536 71.7144 24.78 71.8249 24.771C71.9355 24.7619 72.01 24.6153 71.9942 24.4483C71.9784 24.2813 71.8791 24.1549 71.7685 24.1662C71.658 24.1775 71.5857 24.3197 71.5993 24.4866Z" fill="#263238"/>
<path d="M70.9292 24.6831C70.9292 24.6831 71.394 25.6105 71.8521 26.037C71.5813 26.3416 71.0668 26.2626 71.0668 26.2626L70.9292 24.6831Z" fill="#FF5652"/>
<path d="M70.5527 27.0747C70.3656 27.0903 70.1774 27.0669 69.9998 27.0059C69.8223 26.9449 69.6594 26.8477 69.5215 26.7204C69.5154 26.7162 69.5104 26.7108 69.5067 26.7044C69.503 26.698 69.5008 26.6909 69.5002 26.6836C69.4996 26.6763 69.5006 26.6689 69.5032 26.6621C69.5058 26.6552 69.5098 26.649 69.5151 26.6439C69.5204 26.6387 69.5268 26.6349 69.5337 26.6325C69.5407 26.6302 69.5481 26.6294 69.5554 26.6302C69.5627 26.6311 69.5697 26.6335 69.5759 26.6374C69.5822 26.6413 69.5874 26.6465 69.5914 26.6527C69.7478 26.7899 69.9342 26.8884 70.1357 26.9402C70.3373 26.9919 70.5481 26.9955 70.7512 26.9506C70.7641 26.9479 70.7775 26.9504 70.7885 26.9576C70.7995 26.9648 70.8072 26.9761 70.8099 26.9889C70.8119 27.002 70.8088 27.0154 70.8013 27.0263C70.7937 27.0372 70.7823 27.0449 70.7693 27.0476C70.6977 27.0608 70.6253 27.0698 70.5527 27.0747Z" fill="#263238"/>
<path d="M69.0154 24.534C68.9991 24.5385 68.982 24.5385 68.9657 24.534C68.9418 24.5231 68.9231 24.5034 68.9134 24.479C68.9037 24.4546 68.9039 24.4274 68.9138 24.4031C68.9739 24.2578 69.0676 24.1288 69.1873 24.0269C69.3069 23.9249 69.4491 23.8527 69.602 23.8164C69.6148 23.8142 69.6279 23.8145 69.6405 23.8174C69.6532 23.8203 69.6651 23.8257 69.6756 23.8332C69.6861 23.8408 69.695 23.8504 69.7018 23.8615C69.7085 23.8725 69.713 23.8848 69.7149 23.8977C69.7188 23.9236 69.7126 23.9501 69.6974 23.9716C69.6823 23.993 69.6594 24.0078 69.6336 24.0127C69.513 24.0427 69.4012 24.1009 69.3075 24.1825C69.2137 24.2641 69.1407 24.3668 69.0943 24.4821C69.0867 24.4967 69.0754 24.5092 69.0616 24.5183C69.0478 24.5274 69.0319 24.5328 69.0154 24.534Z" fill="#263238"/>
<path d="M72.315 23.5908C72.2995 23.5946 72.2832 23.5948 72.2675 23.5912C72.2519 23.5877 72.2372 23.5806 72.2248 23.5705C72.1349 23.4878 72.0266 23.4277 71.9089 23.3951C71.7912 23.3625 71.6674 23.3584 71.5478 23.3832C71.5227 23.3902 71.4958 23.387 71.473 23.3743C71.4502 23.3617 71.4333 23.3405 71.426 23.3155C71.4196 23.2904 71.423 23.2638 71.4356 23.2411C71.4482 23.2185 71.469 23.2015 71.4937 23.1936C71.6456 23.1591 71.8036 23.1616 71.9544 23.2008C72.1052 23.2401 72.2444 23.315 72.3602 23.4193C72.3781 23.4382 72.3881 23.4632 72.3881 23.4892C72.3881 23.5153 72.3781 23.5403 72.3602 23.5592C72.3479 23.5732 72.3324 23.584 72.315 23.5908Z" fill="#263238"/>
<path d="M65.2586 32.4519C61.8491 33.3116 60.9014 37.6712 60.9014 37.6712L65.1368 40.7084C65.1368 40.7084 66.1861 39.6095 66.502 37.0303C66.6531 35.8028 65.9491 32.4181 65.2586 32.4519Z" fill="#263238"/>
<path d="M64.7327 48.9736L66.7027 49.7092L65.1953 51.7401C65.1953 51.7401 63.4917 50.8578 63.8121 49.8762L64.7327 48.9736Z" fill="#FF8B7B"/>
<path d="M67.6192 51.6886L66.9716 52.3092C66.8468 52.4285 66.6838 52.4997 66.5115 52.51C66.3391 52.5203 66.1687 52.4691 66.0306 52.3656L65.189 51.7315L66.6963 49.7007L67.6327 50.6394C67.7026 50.7081 67.7579 50.7903 67.7952 50.8809C67.8326 50.9716 67.8512 51.0689 67.8499 51.1669C67.8486 51.2649 67.8275 51.3617 67.7879 51.4514C67.7482 51.541 67.6909 51.6217 67.6192 51.6886Z" fill="#FF8B7B"/>
<path d="M87.1218 37.9057L86.8803 36.8045C86.8551 36.6909 86.7895 36.5904 86.6957 36.5215C86.6019 36.4526 86.4863 36.4201 86.3704 36.43C86.0206 36.4595 85.682 36.5675 85.3798 36.7459L84.0259 37.5492L84.1455 38.8263C84.7073 39.6928 86.4629 38.9166 86.4629 38.9166L86.6073 38.8602C86.7929 38.7888 86.9468 38.6532 87.0412 38.4782C87.1356 38.3031 87.1642 38.1 87.1218 37.9057Z" fill="#FF8B7B"/>
<path d="M83.8523 38.0412C83.7688 37.6102 83.9561 37.2627 83.9132 36.8565C83.8771 36.5023 83.9719 36.1051 83.859 35.6222C83.9944 35.3966 84.4841 35.5816 84.4909 36.1796C84.642 36.7934 85.3167 36.7053 85.5853 36.6309C85.5853 36.6377 84.6736 38.224 83.8523 38.0412Z" fill="#FF8B7B"/>
</g>
<defs>
<clipPath id="clip0_3002_699">
<rect width="112.824" height="112.824" fill="white" transform="translate(3.76074 3.76074)"/>
</clipPath>
</defs>
</svg>
