<svg width="122" height="121" viewBox="0 0 122 121" fill="none" xmlns="http://www.w3.org/2000/svg">
<g opacity="0.6">
<circle cx="61.0001" cy="60.1729" r="60.1729" fill="#FF6E06"/>
</g>
<path d="M103.775 25.9761H81.4604V41.0137H103.775V25.9761Z" fill="white" stroke="#EBEBEB" stroke-miterlimit="10"/>
<path d="M83.6184 27.1131C83.6184 27.2149 83.5882 27.3144 83.5317 27.399C83.4751 27.4836 83.3948 27.5496 83.3008 27.5885C83.2068 27.6274 83.1033 27.6376 83.0035 27.6178C82.9037 27.5979 82.812 27.5489 82.7401 27.477C82.6681 27.405 82.6191 27.3133 82.5992 27.2135C82.5794 27.1137 82.5896 27.0103 82.6285 26.9163C82.6675 26.8222 82.7334 26.7419 82.818 26.6853C82.9026 26.6288 83.0021 26.5986 83.1039 26.5986C83.2403 26.5986 83.3712 26.6528 83.4677 26.7493C83.5642 26.8458 83.6184 26.9767 83.6184 27.1131V27.1131Z" fill="#37474F"/>
<path d="M85.7156 27.1131C85.7156 27.2149 85.6854 27.3144 85.6288 27.399C85.5723 27.4836 85.492 27.5496 85.3979 27.5885C85.3039 27.6274 85.2005 27.6376 85.1007 27.6178C85.0009 27.5979 84.9092 27.5489 84.8372 27.477C84.7653 27.405 84.7163 27.3133 84.6964 27.2135C84.6766 27.1137 84.6867 27.0103 84.7257 26.9163C84.7646 26.8222 84.8306 26.7419 84.9152 26.6853C84.9998 26.6288 85.0993 26.5986 85.201 26.5986C85.3375 26.5986 85.4684 26.6528 85.5649 26.7493C85.6613 26.8458 85.7156 26.9767 85.7156 27.1131V27.1131Z" fill="#EBEBEB"/>
<path d="M87.8147 27.1131C87.8147 27.2149 87.7845 27.3144 87.728 27.399C87.6714 27.4836 87.5911 27.5496 87.4971 27.5885C87.403 27.6274 87.2996 27.6376 87.1998 27.6178C87.1 27.5979 87.0083 27.5489 86.9363 27.477C86.8644 27.405 86.8154 27.3133 86.7955 27.2135C86.7757 27.1137 86.7859 27.0103 86.8248 26.9163C86.8638 26.8222 86.9297 26.7419 87.0143 26.6853C87.0989 26.6288 87.1984 26.5986 87.3002 26.5986C87.4366 26.5986 87.5675 26.6528 87.664 26.7493C87.7605 26.8458 87.8147 26.9767 87.8147 27.1131V27.1131Z" fill="#FF6E06"/>
<path d="M81.4604 28.2412H103.777" stroke="#EBEBEB" stroke-miterlimit="10"/>
<path d="M7.76318 26.1025V58.2221H32.3399V26.1025H7.76318ZM31.6916 57.5738H8.41147V26.7508H31.6916V57.5738Z" fill="#EBEBEB"/>
<path d="M31.6913 26.751V57.574H20.6275V26.9191H19.9809V57.574H8.41113V26.751H31.6913Z" fill="white"/>
<path d="M20.6275 26.9189H19.981V57.898H20.6275V26.9189Z" fill="#EBEBEB"/>
<path d="M7.17618 28.3149L32.9277 28.3149V27.4128L7.17618 27.4128V28.3149Z" fill="#EBEBEB"/>
<path d="M7.17618 29.3306L32.9277 29.3306V28.4284L7.17618 28.4284V29.3306Z" fill="#EBEBEB"/>
<path d="M7.17618 30.3457L32.9277 30.3457V29.4436L7.17618 29.4436V30.3457Z" fill="#EBEBEB"/>
<path d="M7.17618 31.3613L32.9277 31.3613V30.4592L7.17618 30.4592V31.3613Z" fill="#EBEBEB"/>
<path d="M7.17618 32.3745H32.9277V31.4724L7.17618 31.4724V32.3745Z" fill="#EBEBEB"/>
<path d="M7.17618 33.3901H32.9277V32.488H7.17618V33.3901Z" fill="#EBEBEB"/>
<path d="M7.17618 34.4053H32.9277V33.5032H7.17618V34.4053Z" fill="#EBEBEB"/>
<path d="M7.17618 35.4204H32.9277V34.5183H7.17618V35.4204Z" fill="#EBEBEB"/>
<path d="M7.17618 36.436H32.9277V35.5339H7.17618V36.436Z" fill="#EBEBEB"/>
<path d="M9.2618 27.2295H9.10059V48.0297H9.2618V27.2295Z" fill="#263238"/>
<path d="M8.89502 48.7842H9.46956L9.3255 47.9575H9.03908L8.89502 48.7842Z" fill="#263238"/>
<path d="M8.67879 27.2295H8.51758V57.3201H8.67879V27.2295Z" fill="#263238"/>
<path d="M8.31201 57.9272H8.88656L8.74249 57.1006H8.45436L8.31201 57.9272Z" fill="#263238"/>
<path d="M6.1715 27.8623L33.9331 27.8623V25.974L6.1715 25.974V27.8623Z" fill="#DBDBDB"/>
<path d="M115.22 70.3888H85.0813L84.4536 58.0215H115.848L115.22 70.3888Z" fill="#EBEBEB"/>
<path d="M86.2334 59.3901H99.345L99.11 63.6778H86.513L86.2334 59.3901ZM99.1855 59.5411H86.3946L86.6519 63.5303H98.966L99.1855 59.5411Z" fill="#DBDBDB"/>
<path d="M86.4995 64.7466H98.8085L98.6164 68.6226H86.7413L86.4995 64.7466ZM98.649 64.8992H86.6607L86.8854 68.47H98.4706L98.649 64.8992Z" fill="#DBDBDB"/>
<path d="M91.4629 60.9663H93.8468L93.713 61.9953H91.5967L91.4629 60.9663ZM93.6736 61.119H91.6361L91.7304 61.8496H93.5793L93.6736 61.119Z" fill="#DBDBDB"/>
<path d="M91.4629 66.1665H93.8468L93.713 67.1955H91.5967L91.4629 66.1665ZM93.6736 66.3191H91.6361L91.7304 67.0498H93.5793L93.6736 66.3191Z" fill="#DBDBDB"/>
<path d="M101.055 59.3901H114.167L113.93 63.6778H101.331L101.055 59.3901ZM114.007 59.5411H101.216L101.474 63.5303H113.783L114.007 59.5411Z" fill="#DBDBDB"/>
<path d="M101.321 64.7466H113.63L113.439 68.6226H101.563L101.321 64.7466ZM113.47 64.8992H101.482L101.705 68.47H113.292L113.47 64.8992Z" fill="#DBDBDB"/>
<path d="M106.284 60.9663H108.668L108.534 61.9953H106.418L106.284 60.9663ZM108.495 61.119H106.457L106.552 61.8496H108.401L108.495 61.119Z" fill="#DBDBDB"/>
<path d="M106.284 66.1665H108.668L108.534 67.1955H106.418L106.284 66.1665ZM108.495 66.3191H106.457L106.552 67.0498H108.401L108.495 66.3191Z" fill="#DBDBDB"/>
<path d="M112.517 70.3892L112.707 71.7372L113.088 74.4436H113.83V70.3892H112.517Z" fill="#EBEBEB"/>
<path d="M112.517 70.3892L112.707 71.7372H113.83V70.3892H112.517Z" fill="#DBDBDB"/>
<path d="M87.7842 70.3892L87.5938 71.7372L87.2131 74.4436H86.4688V70.3892H87.7842Z" fill="#EBEBEB"/>
<path d="M87.7842 70.3892L87.5938 71.7372H86.4688V70.3892H87.7842Z" fill="#DBDBDB"/>
<path d="M112.05 58.0184V52.2129H110.589V58.0184H112.05Z" fill="#C7C7C7"/>
<path d="M112.049 52.5403V51.9023H110.588V52.5403H112.049Z" fill="#DBDBDB"/>
<path d="M112.05 53.5936V53.3569H110.589V53.5936H112.05Z" fill="#DBDBDB"/>
<path d="M112.049 57.2566V56.6187H110.588V57.2566H112.049Z" fill="#DBDBDB"/>
<path d="M110.587 58.0198V51.2471H109.565V58.0198H110.587Z" fill="#DBDBDB"/>
<path d="M110.389 54.487V51.8818H109.775V54.487H110.389Z" fill="#EBEBEB"/>
<path d="M103.008 58.0182L107.825 53.2568L107.106 52.5299L102.29 57.2913L103.008 58.0182Z" fill="#C7C7C7"/>
<path d="M103.994 56.7539L105.847 54.9224L105.416 54.4857L103.563 56.3172L103.994 56.7539Z" fill="#DBDBDB"/>
<path d="M109.567 58.0185V52.875H107.831V58.0185H109.567Z" fill="#A6A6A6"/>
<path d="M109.567 57.4744V56.9941H107.831V57.4744H109.567Z" fill="#C7C7C7"/>
<path d="M109.565 56.6803V56.4951H107.83V56.6803H109.565Z" fill="#C7C7C7"/>
<path d="M115.04 57.5512L113.133 53.1084L112.032 53.5812L113.939 58.024L115.04 57.5512Z" fill="#A6A6A6"/>
<path d="M114.838 57.0786L114.66 56.6641L113.559 57.1369L113.736 57.5514L114.838 57.0786Z" fill="#C7C7C7"/>
<path d="M113.705 54.437L113.527 54.0225L112.426 54.4953L112.604 54.9098L113.705 54.437Z" fill="#C7C7C7"/>
<path d="M113.896 54.8815L113.827 54.7207L112.726 55.1935L112.795 55.3543L113.896 54.8815Z" fill="#C7C7C7"/>
<path d="M96.8601 95.3633C107.983 95.3633 117 94.0349 117 92.3962C117 90.7576 107.983 89.4292 96.8601 89.4292C85.7372 89.4292 76.7202 90.7576 76.7202 92.3962C76.7202 94.0349 85.7372 95.3633 96.8601 95.3633Z" fill="#EBEBEB"/>
<path d="M13.9097 64.3998C13.9097 64.3998 15.4121 59.0042 16.6126 57.1708C17.8131 55.3374 20.0427 53.3257 20.0427 53.3257C20.0427 53.3257 19.9998 61.6454 13.9097 64.3998Z" fill="#FF6E06"/>
<path d="M14.0158 64.3089C14.5224 63.4638 14.9805 62.5906 15.3878 61.6934C15.5597 60.7287 15.8091 59.7795 16.1339 58.855C16.1352 58.8516 16.1379 58.8489 16.1413 58.8474C16.1447 58.846 16.1485 58.8459 16.1519 58.8473C16.1553 58.8487 16.158 58.8513 16.1595 58.8547C16.1609 58.8581 16.161 58.8619 16.1596 58.8653C15.9607 59.7228 15.7291 60.5632 15.5182 61.4122C16.1253 60.1001 16.7016 58.7693 17.4253 57.5276C17.5918 56.9275 17.8254 56.3482 18.1216 55.8005C18.1216 55.7851 18.1559 55.8005 18.1474 55.8108C17.9647 56.2323 17.8083 56.6648 17.6791 57.1056C18.02 56.5519 18.4018 56.0245 18.8214 55.5278C18.8471 55.4969 18.9003 55.5278 18.8745 55.5638C17.9072 56.7987 17.2401 58.2016 16.6055 59.6216C17.2884 58.8804 17.9188 58.0924 18.4921 57.2634C18.4921 57.2549 18.5109 57.2634 18.5058 57.2737C17.907 58.2018 17.2312 59.0779 16.4855 59.8926C16.0224 60.9337 15.5679 61.9781 15.0157 62.9677C16.1184 62.0364 16.9657 60.8308 17.8061 59.6679C17.8097 59.6625 17.8154 59.6587 17.8218 59.6574C17.8282 59.6561 17.8349 59.6574 17.8404 59.6611C17.8458 59.6647 17.8496 59.6704 17.8509 59.6768C17.8522 59.6832 17.8509 59.6899 17.8472 59.6954C17.0068 60.9731 16.1322 62.1754 14.9316 63.1255C14.6864 63.5606 14.4167 63.9815 14.1238 64.3861C14.1136 64.4004 14.0981 64.4101 14.0807 64.413C14.0634 64.4159 14.0455 64.4117 14.0312 64.4015C14.0169 64.3913 14.0072 64.3758 14.0043 64.3584C14.0014 64.341 14.0056 64.3232 14.0158 64.3089V64.3089Z" fill="#263238"/>
<path d="M13.4515 64.8867C13.4515 64.8867 16.1544 59.913 15.3689 55.0869C14.5834 50.2607 13.7431 48.5439 13.7431 48.5439C13.7431 48.5439 9.48629 56.0473 13.4515 64.8867Z" fill="#FF6E06"/>
<path d="M12.3334 57.0643C12.5622 58.4312 12.9112 59.7753 13.3761 61.081C13.3841 59.311 13.4138 57.5388 13.4653 55.7643C13.1597 54.6901 12.9869 53.5825 12.9508 52.4662C12.9508 52.4336 12.9971 52.4354 13.0005 52.4662C13.0858 53.4225 13.244 54.3708 13.4739 55.3029C13.515 53.8417 13.5625 52.3816 13.6162 50.9227C13.6162 50.9177 13.6182 50.9129 13.6217 50.9093C13.6253 50.9058 13.6301 50.9038 13.6351 50.9038C13.6401 50.9038 13.6449 50.9058 13.6484 50.9093C13.652 50.9129 13.6539 50.9177 13.6539 50.9227C13.6539 53.2037 13.6539 55.4864 13.6385 57.7675C13.968 56.885 14.2289 55.9785 14.4189 55.056C14.4189 55.0474 14.4343 55.056 14.4343 55.056C14.326 56.1194 14.0571 57.1602 13.6368 58.1431C13.6265 59.602 13.6071 61.0604 13.5785 62.5182C14.0347 60.9746 14.5235 59.4671 14.6555 57.8275C14.6555 57.8229 14.6573 57.8186 14.6606 57.8154C14.6638 57.8121 14.6681 57.8103 14.6727 57.8103C14.6772 57.8103 14.6816 57.8121 14.6848 57.8154C14.688 57.8186 14.6898 57.8229 14.6898 57.8275C14.6538 59.6334 14.1873 61.4686 13.5922 63.1665C13.5865 63.1835 13.5757 63.1985 13.5613 63.2093C13.5476 63.7427 13.5339 64.2761 13.515 64.8078C13.5126 64.8217 13.5054 64.8344 13.4946 64.8435C13.4837 64.8527 13.47 64.8577 13.4559 64.8577C13.4417 64.8577 13.428 64.8527 13.4172 64.8435C13.4063 64.8344 13.3991 64.8217 13.3967 64.8078C13.3761 63.717 13.3675 62.6268 13.371 61.5372C12.7817 60.1094 12.4216 58.5975 12.3042 57.0574C12.3051 57.0536 12.3075 57.0502 12.3109 57.0481C12.3143 57.046 12.3183 57.0454 12.3222 57.0463C12.3261 57.0472 12.3294 57.0496 12.3315 57.053C12.3336 57.0564 12.3343 57.0604 12.3334 57.0643V57.0643Z" fill="#263238"/>
<path d="M12.5186 56.2942C12.6131 56.7269 12.6761 57.166 12.7073 57.6079C12.7073 57.6233 12.685 57.625 12.6815 57.6079C12.576 57.1771 12.5021 56.7392 12.4603 56.2976C12.4551 56.2667 12.5117 56.2616 12.5186 56.2942Z" fill="#263238"/>
<path d="M14.0984 52.6567C14.0984 52.6413 14.1241 52.6464 14.1241 52.6567C14.1213 52.964 14.0757 53.2693 13.9886 53.564C13.9886 53.588 13.9474 53.5777 13.9526 53.5537C14.0109 53.257 14.0486 52.9603 14.0984 52.6567Z" fill="#263238"/>
<path d="M12.4569 65.2674C12.4569 65.2674 12.5683 60.0725 11.0848 57.4913C9.6013 54.9102 7.12305 53.5947 7.12305 53.5947C7.12305 53.5947 8.11263 62.7497 12.4569 65.2674Z" fill="#FF6E06"/>
<path d="M9.74197 60.8254C10.3404 61.733 11.0152 62.5879 11.7589 63.3809C11.4605 62.3198 11.1174 61.2759 10.7298 60.2492C9.89461 59.5168 9.06624 58.7571 8.55344 57.7555C8.5524 57.7522 8.55251 57.7486 8.55375 57.7454C8.55498 57.7421 8.55726 57.7394 8.56023 57.7376C8.5632 57.7359 8.56668 57.7351 8.57011 57.7356C8.57354 57.736 8.57673 57.7376 8.57916 57.74C9.12969 58.6284 9.86717 59.3385 10.6372 60.0211C10.0394 58.4744 9.34637 56.9662 8.56201 55.5053C8.55746 55.4978 8.55608 55.4888 8.55817 55.4803C8.56026 55.4718 8.56565 55.4644 8.57316 55.4599C8.58066 55.4553 8.58967 55.4539 8.59819 55.456C8.60671 55.4581 8.61406 55.4635 8.61861 55.471C9.09556 56.2373 9.53013 57.0291 9.92033 57.8429C9.7797 57.2873 9.66822 56.7196 9.52587 56.1673C9.52587 56.1519 9.54302 56.1467 9.54988 56.1673C9.84244 56.8737 10.0475 57.6133 10.1604 58.3695C10.6822 59.5217 11.1207 60.7098 11.4725 61.9248C11.4347 61.1461 11.385 60.3692 11.301 59.594C11.3019 59.5914 11.3037 59.5891 11.306 59.5875C11.3083 59.5859 11.311 59.5851 11.3138 59.5851C11.3166 59.5851 11.3194 59.5859 11.3217 59.5875C11.324 59.5891 11.3257 59.5914 11.3267 59.594C11.4963 60.4524 11.5762 61.326 11.5651 62.2009C11.7795 62.9761 11.9613 63.7582 12.1053 64.5471C12.1053 64.5694 12.0779 64.578 12.0727 64.5574C11.9921 64.2264 11.9012 63.8971 11.8155 63.5712C11.8155 63.5712 11.8035 63.5712 11.7983 63.5712C10.9991 62.7703 10.2393 61.8562 9.74025 60.8374C9.73168 60.8237 9.73854 60.8203 9.74197 60.8254Z" fill="#263238"/>
<path d="M8.01496 56.5997C8.18646 56.7712 8.33396 56.9667 8.49346 57.152C8.64971 57.3075 8.79364 57.4749 8.92394 57.6528C8.92518 57.6544 8.92578 57.6565 8.92563 57.6585C8.92548 57.6606 8.9246 57.6625 8.92314 57.664C8.92168 57.6654 8.91974 57.6663 8.91769 57.6665C8.91563 57.6666 8.91358 57.666 8.91193 57.6648C8.72494 57.5255 8.55813 57.361 8.41628 57.176C8.25961 57.0019 8.1179 56.8148 7.99266 56.6169C7.99039 56.6139 7.98938 56.6102 7.98986 56.6065C7.99035 56.6028 7.99228 56.5994 7.99523 56.5972C7.99819 56.5949 8.00193 56.5939 8.00563 56.5944C8.00933 56.5948 8.01268 56.5968 8.01496 56.5997V56.5997Z" fill="#263238"/>
<path d="M16.8817 64.6328L16.6947 67.0939L16.1288 74.5304H11.1946L10.6286 67.0939L10.4399 64.6328H16.8817Z" fill="#455A64"/>
<path d="M16.8817 64.6328L16.6947 67.0939H10.6286L10.4399 64.6328H16.8817Z" fill="#37474F"/>
<path d="M10.0007 65.312H17.3223V63.4255H10.0007V65.312Z" fill="#455A64"/>
<path d="M5 74.45L18.904 74.4071L32.8079 74.3917L60.6158 74.3643L88.4237 74.3917L102.328 74.4071L116.232 74.45L102.328 74.4912L88.4237 74.5066L60.6158 74.5358L32.8079 74.5066L18.904 74.4912L5 74.45Z" fill="#263238"/>
<path d="M96.1741 33.5254H25.0576V81.0976H96.1741V33.5254Z" fill="#DBDBDB"/>
<path d="M95.6578 34.1069H25.5737V80.5181H95.6578V34.1069Z" fill="#37474F"/>
<path d="M105.437 84.665H15.7944V87.9305H105.437V84.665Z" fill="#C7C7C7"/>
<path d="M15.7944 84.665L25.0574 81.0977H96.174L105.437 84.665H15.7944Z" fill="#DBDBDB"/>
<path d="M25.8843 83.401L31.8612 81.0977H89.3705L95.3475 83.401H25.8843Z" fill="#263238"/>
<path d="M91.6959 37.6328H29.5337V76.9916H91.6959V37.6328Z" fill="white"/>
<path d="M91.6959 37.6328H29.5337V39.1472H91.6959V37.6328Z" fill="#263238"/>
<path d="M30.6863 38.3824C30.6863 38.4567 30.6642 38.5293 30.623 38.5911C30.5817 38.6529 30.523 38.701 30.4544 38.7294C30.3858 38.7579 30.3102 38.7653 30.2374 38.7508C30.1645 38.7363 30.0976 38.7005 30.0451 38.648C29.9925 38.5955 29.9568 38.5286 29.9423 38.4557C29.9278 38.3828 29.9352 38.3073 29.9636 38.2387C29.9921 38.1701 30.0402 38.1114 30.102 38.0701C30.1638 38.0289 30.2364 38.0068 30.3107 38.0068C30.4103 38.0068 30.5058 38.0464 30.5762 38.1168C30.6467 38.1873 30.6863 38.2828 30.6863 38.3824Z" fill="#C7C7C7"/>
<path d="M32.2195 38.3824C32.2195 38.4567 32.1974 38.5293 32.1562 38.5911C32.1149 38.6529 32.0562 38.701 31.9876 38.7294C31.919 38.7579 31.8434 38.7653 31.7706 38.7508C31.6977 38.7363 31.6308 38.7005 31.5783 38.648C31.5257 38.5955 31.49 38.5286 31.4755 38.4557C31.461 38.3828 31.4684 38.3073 31.4969 38.2387C31.5253 38.1701 31.5734 38.1114 31.6352 38.0701C31.697 38.0289 31.7696 38.0068 31.8439 38.0068C31.9435 38.0068 32.039 38.0464 32.1094 38.1168C32.1799 38.1873 32.2195 38.2828 32.2195 38.3824Z" fill="white"/>
<path d="M33.7527 38.3824C33.7527 38.4567 33.7306 38.5293 33.6894 38.5911C33.6481 38.6529 33.5894 38.701 33.5208 38.7294C33.4522 38.7579 33.3766 38.7653 33.3038 38.7508C33.2309 38.7363 33.164 38.7005 33.1115 38.648C33.0589 38.5955 33.0232 38.5286 33.0087 38.4557C32.9942 38.3828 33.0016 38.3073 33.0301 38.2387C33.0585 38.1701 33.1066 38.1114 33.1684 38.0701C33.2302 38.0289 33.3028 38.0068 33.3771 38.0068C33.4767 38.0068 33.5722 38.0464 33.6426 38.1168C33.7131 38.1873 33.7527 38.2828 33.7527 38.3824Z" fill="#FF6E06"/>
<path d="M82.3145 66.9844H38.915V69.9H82.3145V66.9844Z" fill="#EBEBEB"/>
<path d="M62.9859 67.5332H39.3901V69.4129H62.9859V67.5332Z" fill="#FF6E06"/>
<path d="M53.2188 62.8735H53.5841L53.1605 64.8647H54.3233L54.2547 65.1871H52.7266L53.2188 62.8735Z" fill="#263238"/>
<path d="M55.2715 65.2028C55.148 65.2055 55.0257 65.1784 54.9148 65.1239C54.8139 65.0721 54.7251 64.9996 54.6541 64.9112C54.5824 64.8206 54.5278 64.7178 54.4929 64.6076C54.4556 64.4907 54.4371 64.3685 54.438 64.2458C54.4385 64.0683 54.4765 63.893 54.5495 63.7312C54.6234 63.5675 54.7243 63.4174 54.8479 63.287C54.9698 63.1576 55.1146 63.0517 55.275 62.9749C55.4311 62.8971 55.6031 62.8566 55.7775 62.8566C55.9013 62.8543 56.0239 62.8826 56.1342 62.9389C56.235 62.9908 56.3233 63.064 56.3932 63.1533C56.4638 63.2459 56.5173 63.3505 56.551 63.462C56.5869 63.5786 56.6048 63.7001 56.6041 63.8221C56.6046 63.9995 56.5672 64.1749 56.4944 64.3367C56.4221 64.5 56.3223 64.6496 56.1994 64.7791C56.0773 64.9077 55.9333 65.0134 55.774 65.0913C55.6171 65.1659 55.4453 65.204 55.2715 65.2028V65.2028ZM55.3436 64.8735C55.4669 64.8741 55.5882 64.8422 55.6952 64.7809C55.8031 64.7191 55.8985 64.6377 55.9764 64.5408C56.0567 64.4416 56.1199 64.3297 56.1634 64.2097C56.2068 64.094 56.2294 63.9715 56.2302 63.8479C56.2303 63.7627 56.2187 63.6779 56.196 63.5958C56.1744 63.5208 56.1401 63.45 56.0948 63.3865C56.0489 63.3265 55.9903 63.2773 55.9233 63.2425C55.853 63.2056 55.7745 63.1873 55.6952 63.1893C55.5712 63.1877 55.4491 63.2197 55.3419 63.2819C55.2338 63.3441 55.1379 63.4255 55.0589 63.522C54.9779 63.6207 54.9146 63.7327 54.8719 63.853C54.8285 63.9688 54.8059 64.0913 54.805 64.2149C54.8049 64.3007 54.8164 64.3861 54.8393 64.4687C54.8602 64.5431 54.8939 64.6134 54.9388 64.6762C54.9837 64.7372 55.0425 64.7866 55.1103 64.8203C55.1824 64.8574 55.2626 64.8756 55.3436 64.8735V64.8735Z" fill="#263238"/>
<path d="M57.7687 62.8735H58.0911L58.4616 65.1871H58.0774L57.9865 64.5577H57.1547L56.7997 65.1871H56.4155L57.7687 62.8735ZM57.9728 64.2867L57.8424 63.2937L57.2765 64.2867H57.9728Z" fill="#263238"/>
<path d="M59.2332 62.8733H60.0187C60.1506 62.8702 60.2818 62.8935 60.4046 62.9419C60.5073 62.983 60.5989 63.0476 60.6721 63.1306C60.7437 63.213 60.7975 63.3093 60.8299 63.4136C60.8664 63.5272 60.8843 63.6459 60.8831 63.7652C60.885 63.9592 60.8501 64.1518 60.7802 64.3328C60.716 64.4996 60.6199 64.6523 60.4972 64.7822C60.3752 64.9091 60.2287 65.01 60.0667 65.0789C59.896 65.1518 59.7121 65.1886 59.5265 65.1869H58.7427L59.2332 62.8733ZM59.5951 64.8645C59.7258 64.8662 59.8552 64.8368 59.9724 64.7788C60.0833 64.7237 60.181 64.6453 60.2588 64.5489C60.3399 64.4499 60.4016 64.3364 60.4406 64.2145C60.4834 64.088 60.5049 63.9553 60.504 63.8218C60.5047 63.7365 60.4931 63.6516 60.4697 63.5696C60.4471 63.4981 60.4117 63.4313 60.3651 63.3724C60.3183 63.3168 60.2597 63.2723 60.1936 63.2421C60.1172 63.2098 60.0348 63.194 59.9518 63.1958H59.535L59.18 64.8645H59.5951Z" fill="#263238"/>
<path d="M61.4888 62.877H61.8575L61.3653 65.1871H60.9966L61.4888 62.877Z" fill="#263238"/>
<path d="M62.3719 62.8735H62.6583L63.5347 64.5406L63.888 62.877H64.255L63.7628 65.1871H63.4643L62.5931 63.5578L62.2501 65.1871H61.8813L62.3719 62.8735Z" fill="#263238"/>
<path d="M65.8758 64.9022C65.6899 65.0856 65.4421 65.1926 65.1812 65.2023C65.0625 65.2044 64.945 65.1785 64.8382 65.1269C64.7383 65.0765 64.6501 65.0059 64.5792 64.9194C64.5026 64.8291 64.4444 64.7249 64.4077 64.6124C64.3695 64.4926 64.3504 64.3676 64.3511 64.2419C64.3521 64.0645 64.3901 63.8893 64.4626 63.7274C64.5337 63.5626 64.6343 63.4121 64.7593 63.2832C64.8813 63.1564 65.0254 63.0529 65.1846 62.9779C65.3388 62.9022 65.5084 62.8628 65.6803 62.863C65.8579 62.8534 66.0338 62.9022 66.1811 63.0019C66.3023 63.0934 66.3897 63.2225 66.4297 63.369L66.1107 63.5713C66.0841 63.4573 66.0179 63.3564 65.9238 63.2866C65.8283 63.222 65.7149 63.189 65.5997 63.1923C65.4796 63.1909 65.3614 63.2211 65.2566 63.2798C65.1503 63.3395 65.0561 63.4186 64.9788 63.513C64.8982 63.612 64.834 63.7231 64.7884 63.8423C64.7429 63.9629 64.7196 64.0907 64.7198 64.2196C64.7193 64.3067 64.7314 64.3933 64.7558 64.4769C64.7792 64.5524 64.8158 64.6233 64.8639 64.6861C64.91 64.7455 64.9685 64.7941 65.0354 64.8285C65.1051 64.8633 65.1821 64.881 65.2601 64.8799C65.3902 64.8712 65.5173 64.8363 65.6337 64.7774C65.7501 64.7185 65.8534 64.6367 65.9375 64.5369L65.9907 64.2917H65.5345L65.5928 64.0224H66.3508L66.1039 65.1921H65.7969L65.8758 64.9022Z" fill="#263238"/>
<path d="M66.4707 65.187L66.5599 64.7686H66.8583L66.7674 65.187H66.4707Z" fill="#263238"/>
<path d="M67.1621 65.187L67.2496 64.7686H67.5497L67.4588 65.187H67.1621Z" fill="#263238"/>
<path d="M67.853 65.187L67.9405 64.7686H68.2406L68.1497 65.187H67.853Z" fill="#263238"/>
<path d="M60.6088 54.6018C60.8948 54.6018 61.1267 54.3699 61.1267 54.0839C61.1267 53.7978 60.8948 53.5659 60.6088 53.5659C60.3227 53.5659 60.0908 53.7978 60.0908 54.0839C60.0908 54.3699 60.3227 54.6018 60.6088 54.6018Z" fill="#FF6E06"/>
<path d="M58.4787 55.3753C58.7306 55.3753 58.9349 55.1711 58.9349 54.9191C58.9349 54.6671 58.7306 54.4629 58.4787 54.4629C58.2267 54.4629 58.0225 54.6671 58.0225 54.9191C58.0225 55.1711 58.2267 55.3753 58.4787 55.3753Z" fill="#FF6E06"/>
<path d="M57.563 56.6069C57.6441 56.6066 57.7235 56.6303 57.7912 56.6752C57.8588 56.72 57.9116 56.7839 57.9429 56.8588C57.9742 56.9337 57.9825 57.0161 57.9669 57.0957C57.9513 57.1754 57.9124 57.2486 57.8551 57.3061C57.7979 57.3636 57.7248 57.4028 57.6453 57.4187C57.5657 57.4347 57.4832 57.4267 57.4082 57.3957C57.3332 57.3647 57.2691 57.3122 57.224 57.2447C57.1789 57.1773 57.1548 57.098 57.1548 57.0168C57.1546 56.9631 57.165 56.9098 57.1854 56.8601C57.2058 56.8104 57.2358 56.7652 57.2737 56.7271C57.3117 56.689 57.3567 56.6588 57.4064 56.6382C57.456 56.6176 57.5092 56.6069 57.563 56.6069V56.6069Z" fill="#FF6E06"/>
<path d="M58.1546 58.9013C58.2028 58.8539 58.2639 58.8218 58.3303 58.8089C58.3967 58.7961 58.4654 58.8032 58.5277 58.8293C58.5901 58.8555 58.6434 58.8994 58.6808 58.9557C58.7183 59.012 58.7383 59.0781 58.7383 59.1457C58.7383 59.2134 58.7183 59.2795 58.6808 59.3358C58.6434 59.3921 58.5901 59.436 58.5277 59.4621C58.4654 59.4883 58.3967 59.4954 58.3303 59.4825C58.2639 59.4697 58.2028 59.4376 58.1546 59.3901C58.1222 59.3582 58.0964 59.3202 58.0789 59.2782C58.0613 59.2363 58.0522 59.1912 58.0522 59.1457C58.0522 59.1003 58.0613 59.0552 58.0789 59.0133C58.0964 58.9713 58.1222 58.9333 58.1546 58.9013Z" fill="#FF6E06"/>
<path d="M60.4953 60.3335C60.646 60.3335 60.768 60.2114 60.768 60.0608C60.768 59.9102 60.646 59.7881 60.4953 59.7881C60.3447 59.7881 60.2227 59.9102 60.2227 60.0608C60.2227 60.2114 60.3447 60.3335 60.4953 60.3335Z" fill="#FF6E06"/>
<path d="M62.4851 59.3663C62.4481 59.3292 62.4272 59.2789 62.4272 59.2265C62.4272 59.1741 62.4481 59.1238 62.4851 59.0867C62.5222 59.0496 62.5725 59.0288 62.6249 59.0288C62.6773 59.0288 62.7276 59.0496 62.7647 59.0867C62.7833 59.1049 62.7981 59.1267 62.8082 59.1507C62.8183 59.1747 62.8235 59.2004 62.8235 59.2265C62.8235 59.2525 62.8183 59.2783 62.8082 59.3023C62.7981 59.3263 62.7833 59.3481 62.7647 59.3663C62.7464 59.3847 62.7246 59.3993 62.7006 59.4092C62.6766 59.4192 62.6509 59.4243 62.6249 59.4243C62.5989 59.4243 62.5732 59.4192 62.5492 59.4092C62.5253 59.3993 62.5035 59.3847 62.4851 59.3663Z" fill="#FF6E06"/>
<path d="M63.5396 57.274C63.5111 57.274 63.4832 57.2655 63.4595 57.2497C63.4358 57.2339 63.4174 57.2114 63.4065 57.185C63.3956 57.1587 63.3927 57.1297 63.3983 57.1018C63.4038 57.0739 63.4176 57.0482 63.4377 57.028C63.4579 57.0079 63.4835 56.9942 63.5115 56.9886C63.5394 56.983 63.5684 56.9859 63.5947 56.9968C63.621 57.0077 63.6435 57.0262 63.6594 57.0499C63.6752 57.0736 63.6836 57.1014 63.6836 57.1299C63.6836 57.1681 63.6685 57.2048 63.6414 57.2318C63.6144 57.2588 63.5778 57.274 63.5396 57.274V57.274Z" fill="#FF6E06"/>
<path d="M62.7784 55.0719C62.7641 55.0865 62.7458 55.0965 62.7258 55.1006C62.7058 55.1048 62.685 55.1029 62.6661 55.0951C62.6471 55.0874 62.6309 55.0742 62.6195 55.0573C62.6081 55.0403 62.6021 55.0203 62.6021 54.9999C62.6021 54.9794 62.6081 54.9595 62.6195 54.9425C62.6309 54.9255 62.6471 54.9123 62.6661 54.9046C62.685 54.8969 62.7058 54.895 62.7258 54.8991C62.7458 54.9032 62.7641 54.9132 62.7784 54.9278C62.788 54.9373 62.7956 54.9485 62.8007 54.9608C62.8059 54.9732 62.8086 54.9865 62.8086 54.9999C62.8086 55.0133 62.8059 55.0265 62.8007 55.0389C62.7956 55.0513 62.788 55.0625 62.7784 55.0719V55.0719Z" fill="#FF6E06"/>
<path d="M41.3446 67.4791C47.8963 60.9274 47.8963 50.305 41.3446 43.7533C34.7929 37.2016 24.1705 37.2016 17.6188 43.7533C11.0671 50.305 11.0671 60.9274 17.6188 67.4791C24.1705 74.0308 34.7929 74.0308 41.3446 67.4791Z" fill="white"/>
<path d="M46.2573 55.6167C46.2456 59.7729 44.6887 63.7763 41.8893 66.8484C39.0899 69.9206 35.2481 71.8419 31.1108 72.2388C26.9735 72.6357 22.8365 71.4799 19.504 68.9961C16.1716 66.5123 13.8819 62.8779 13.0802 58.7997C12.2785 54.7215 13.022 50.4909 15.1662 46.9304C17.3105 43.3699 20.7021 40.7341 24.6818 39.5354C28.6614 38.3366 32.9446 38.6607 36.6986 40.4445C40.4526 42.2283 43.4091 45.3444 44.9933 49.1869C45.8324 51.2265 46.2619 53.4113 46.2573 55.6167V55.6167ZM46.2573 55.6167C46.2613 51.46 44.7192 47.4504 41.9309 44.3676C39.1427 41.2848 35.3075 39.3492 31.1713 38.9372C27.0351 38.5252 22.8935 39.6662 19.5519 42.1384C16.2103 44.6106 13.9076 48.2373 13.0915 52.3131C12.2755 56.3888 13.0045 60.6225 15.1367 64.1906C17.269 67.7587 20.652 70.4063 24.6281 71.6185C28.6041 72.8307 32.8888 72.5208 36.649 70.7491C40.4092 68.9774 43.3761 65.8705 44.9727 62.0327C45.8181 59.9991 46.2546 57.819 46.2573 55.6167V55.6167Z" fill="#263238"/>
<path d="M41.6422 55.6169H29.3247L38.0012 46.9404C39.1557 48.071 40.0725 49.421 40.6978 50.911C41.3231 52.401 41.6442 54.001 41.6422 55.6169V55.6169Z" fill="#FF6E06"/>
<path opacity="0.3" d="M41.6422 55.6169H29.3247L38.0012 46.9404C39.1557 48.071 40.0725 49.421 40.6978 50.911C41.3231 52.401 41.6442 54.001 41.6422 55.6169V55.6169Z" fill="white"/>
<path d="M38.0012 46.9406L29.3247 55.617V43.459H29.4825C32.6693 43.4546 35.7296 44.7054 38.0012 46.9406V46.9406Z" fill="#FF6E06"/>
<path opacity="0.5" d="M38.0012 46.9406L29.3247 55.617V43.459H29.4825C32.6693 43.4546 35.7296 44.7054 38.0012 46.9406V46.9406Z" fill="white"/>
<path d="M29.3248 43.459V55.617L20.8062 47.0966C23.0517 44.8034 26.1155 43.4951 29.3248 43.459V43.459Z" fill="#FF6E06"/>
<path opacity="0.7" d="M29.3248 43.459V55.617L20.8062 47.0966C23.0517 44.8034 26.1155 43.4951 29.3248 43.459V43.459Z" fill="white"/>
<path d="M29.3247 55.6171H17.3193C17.3159 52.4296 18.5672 49.3689 20.8026 47.0967L29.3247 55.6171Z" fill="#FF6E06"/>
<path opacity="0.8" d="M29.3247 55.6171H17.3193C17.3159 52.4296 18.5672 49.3689 20.8026 47.0967L29.3247 55.6171Z" fill="white"/>
<path d="M29.3247 55.6167L20.806 64.1371C18.5706 61.8649 17.3193 58.8042 17.3228 55.6167H29.3247Z" fill="#FF6E06"/>
<path opacity="0.9" d="M29.3247 55.6167L20.806 64.1371C18.5706 61.8649 17.3193 58.8042 17.3228 55.6167H29.3247Z" fill="white"/>
<path d="M41.6422 55.6167C41.6442 57.2326 41.3231 58.8326 40.6978 60.3226C40.0725 61.8126 39.1557 63.1626 38.0012 64.2932L29.3247 55.6167H41.6422Z" fill="#FF6E06"/>
<path d="M36.8746 56.7978C37.5279 52.7142 34.7472 48.8742 30.6637 48.2209C26.5801 47.5675 22.7401 50.3483 22.0868 54.4318C21.4334 58.5153 24.2142 62.3553 28.2977 63.0087C32.3812 63.662 36.2212 60.8813 36.8746 56.7978Z" fill="white"/>
<path d="M30.4617 56.3388C30.3851 56.4699 30.283 56.5844 30.1615 56.6757C30.04 56.7669 29.9015 56.8329 29.7542 56.87C29.6069 56.907 29.4537 56.9143 29.3035 56.8914C29.1533 56.8685 29.0092 56.8158 28.8796 56.7365C28.75 56.6573 28.6376 56.5529 28.5488 56.4297C28.46 56.3064 28.3967 56.1666 28.3626 56.0186C28.3285 55.8706 28.3243 55.7172 28.3502 55.5675C28.3761 55.4178 28.4316 55.2748 28.5134 55.1468C28.5632 55.0662 35.0564 46.707 35.0564 46.707C35.0564 46.707 30.5098 56.2599 30.4617 56.3388Z" fill="#263238"/>
<path d="M30.7235 56.858C31.4094 56.1722 31.4094 55.0602 30.7235 54.3744C30.0377 53.6885 28.9257 53.6885 28.2399 54.3744C27.554 55.0602 27.554 56.1722 28.2399 56.858C28.9257 57.5439 30.0377 57.5439 30.7235 56.858Z" fill="#263238"/>
<path d="M20.2358 66V65.5568L21.2713 64.598C21.3594 64.5128 21.4332 64.4361 21.4929 64.3679C21.5535 64.2997 21.5994 64.233 21.6307 64.1676C21.6619 64.1013 21.6776 64.0298 21.6776 63.9531C21.6776 63.8679 21.6581 63.7945 21.6193 63.733C21.5805 63.6705 21.5275 63.6226 21.4602 63.5895C21.393 63.5554 21.3168 63.5384 21.2315 63.5384C21.1425 63.5384 21.0649 63.5563 20.9986 63.5923C20.9323 63.6283 20.8812 63.6799 20.8452 63.7472C20.8092 63.8144 20.7912 63.8944 20.7912 63.9872H20.2074C20.2074 63.7969 20.2505 63.6316 20.3366 63.4915C20.4228 63.3513 20.5436 63.2429 20.6989 63.1662C20.8542 63.0895 21.0331 63.0511 21.2358 63.0511C21.4441 63.0511 21.6255 63.0881 21.7798 63.1619C21.9351 63.2348 22.0559 63.3362 22.142 63.4659C22.2282 63.5956 22.2713 63.7443 22.2713 63.9119C22.2713 64.0218 22.2495 64.1302 22.206 64.2372C22.1634 64.3442 22.0871 64.4631 21.9773 64.5938C21.8674 64.7235 21.7126 64.8793 21.5128 65.0611L21.0881 65.4773V65.4972H22.3097V66H20.2358ZM23.896 66.0639C23.6516 66.063 23.4414 66.0028 23.2653 65.8835C23.0901 65.7642 22.9551 65.5914 22.8604 65.3651C22.7667 65.1387 22.7203 64.8665 22.7212 64.5483C22.7212 64.2311 22.7681 63.9607 22.8619 63.7372C22.9566 63.5137 23.0915 63.3437 23.2667 63.2273C23.4428 63.1098 23.6526 63.0511 23.896 63.0511C24.1393 63.0511 24.3486 63.1098 24.5238 63.2273C24.6999 63.3447 24.8353 63.5152 24.93 63.7386C25.0247 63.9612 25.0716 64.2311 25.0707 64.5483C25.0707 64.8674 25.0233 65.1402 24.9286 65.3665C24.8349 65.5928 24.7004 65.7656 24.5252 65.8849C24.35 66.0043 24.1403 66.0639 23.896 66.0639ZM23.896 65.554C24.0626 65.554 24.1957 65.4702 24.2951 65.3026C24.3945 65.1349 24.4438 64.8835 24.4428 64.5483C24.4428 64.3277 24.4201 64.1439 24.3746 63.9972C24.3301 63.8504 24.2667 63.7401 24.1843 63.6662C24.1029 63.5923 24.0067 63.5554 23.896 63.5554C23.7302 63.5554 23.5977 63.6383 23.4982 63.804C23.3988 63.9697 23.3486 64.2178 23.3477 64.5483C23.3477 64.7718 23.3699 64.9583 23.4144 65.108C23.4599 65.2566 23.5238 65.3684 23.6062 65.4432C23.6886 65.517 23.7852 65.554 23.896 65.554ZM26.6499 66.0639C26.4055 66.063 26.1953 66.0028 26.0192 65.8835C25.844 65.7642 25.709 65.5914 25.6143 65.3651C25.5206 65.1387 25.4742 64.8665 25.4751 64.5483C25.4751 64.2311 25.522 63.9607 25.6158 63.7372C25.7105 63.5137 25.8454 63.3437 26.0206 63.2273C26.1967 63.1098 26.4065 63.0511 26.6499 63.0511C26.8932 63.0511 27.1025 63.1098 27.2777 63.2273C27.4538 63.3447 27.5893 63.5152 27.6839 63.7386C27.7786 63.9612 27.8255 64.2311 27.8246 64.5483C27.8246 64.8674 27.7772 65.1402 27.6825 65.3665C27.5888 65.5928 27.4543 65.7656 27.2791 65.8849C27.1039 66.0043 26.8942 66.0639 26.6499 66.0639ZM26.6499 65.554C26.8165 65.554 26.9496 65.4702 27.049 65.3026C27.1484 65.1349 27.1977 64.8835 27.1967 64.5483C27.1967 64.3277 27.174 64.1439 27.1286 63.9972C27.084 63.8504 27.0206 63.7401 26.9382 63.6662C26.8568 63.5923 26.7607 63.5554 26.6499 63.5554C26.4841 63.5554 26.3516 63.6383 26.2521 63.804C26.1527 63.9697 26.1025 64.2178 26.1016 64.5483C26.1016 64.7718 26.1238 64.9583 26.1683 65.108C26.2138 65.2566 26.2777 65.3684 26.3601 65.4432C26.4425 65.517 26.5391 65.554 26.6499 65.554ZM28.2802 63.0909H29.0387L29.8398 65.0455H29.8739L30.6751 63.0909H31.4336V66H30.837V64.1065H30.8129L30.06 65.9858H29.6538L28.9009 64.0994H28.8768V66H28.2802V63.0909ZM31.9403 66V63.0909H32.5455V64.1847H32.5639C32.5904 64.1259 32.6288 64.0663 32.679 64.0057C32.7301 63.9441 32.7964 63.893 32.8778 63.8523C32.9602 63.8106 33.0625 63.7898 33.1847 63.7898C33.3438 63.7898 33.4905 63.8314 33.625 63.9148C33.7595 63.9972 33.867 64.1217 33.9474 64.2884C34.0279 64.4541 34.0682 64.6619 34.0682 64.9119C34.0682 65.1553 34.0289 65.3608 33.9503 65.5284C33.8726 65.6951 33.7666 65.8215 33.6321 65.9077C33.4986 65.9929 33.349 66.0355 33.1832 66.0355C33.0658 66.0355 32.9659 66.0161 32.8835 65.9773C32.8021 65.9384 32.7353 65.8897 32.6832 65.831C32.6312 65.7713 32.5914 65.7112 32.5639 65.6506H32.5369V66H31.9403ZM32.5327 64.9091C32.5327 65.0388 32.5507 65.152 32.5866 65.2486C32.6226 65.3452 32.6747 65.4205 32.7429 65.4744C32.8111 65.5275 32.8939 65.554 32.9915 65.554C33.09 65.554 33.1733 65.527 33.2415 65.473C33.3097 65.4181 33.3613 65.3423 33.3963 65.2457C33.4323 65.1482 33.4503 65.036 33.4503 64.9091C33.4503 64.7831 33.4328 64.6723 33.3977 64.5767C33.3627 64.4811 33.3111 64.4062 33.2429 64.3523C33.1747 64.2983 33.0909 64.2713 32.9915 64.2713C32.893 64.2713 32.8097 64.2973 32.7415 64.3494C32.6742 64.4015 32.6226 64.4754 32.5866 64.571C32.5507 64.6667 32.5327 64.7794 32.5327 64.9091ZM34.4719 66.8182V63.8182H35.0685V64.1847H35.0955C35.122 64.1259 35.1604 64.0663 35.2106 64.0057C35.2617 63.9441 35.328 63.893 35.4094 63.8523C35.4918 63.8106 35.5941 63.7898 35.7163 63.7898C35.8754 63.7898 36.0221 63.8314 36.1566 63.9148C36.2911 63.9972 36.3986 64.1217 36.479 64.2884C36.5595 64.4541 36.5998 64.6619 36.5998 64.9119C36.5998 65.1553 36.5605 65.3608 36.4819 65.5284C36.4042 65.6951 36.2982 65.8215 36.1637 65.9077C36.0302 65.9929 35.8806 66.0355 35.7148 66.0355C35.5974 66.0355 35.4975 66.0161 35.4151 65.9773C35.3337 65.9384 35.2669 65.8897 35.2148 65.831C35.1628 65.7713 35.123 65.7112 35.0955 65.6506H35.0771V66.8182H34.4719ZM35.0643 64.9091C35.0643 65.0388 35.0823 65.152 35.1183 65.2486C35.1542 65.3452 35.2063 65.4205 35.2745 65.4744C35.3427 65.5275 35.4255 65.554 35.5231 65.554C35.6216 65.554 35.7049 65.527 35.7731 65.473C35.8413 65.4181 35.8929 65.3423 35.9279 65.2457C35.9639 65.1482 35.9819 65.036 35.9819 64.9091C35.9819 64.7831 35.9644 64.6723 35.9293 64.5767C35.8943 64.4811 35.8427 64.4062 35.7745 64.3523C35.7063 64.2983 35.6225 64.2713 35.5231 64.2713C35.4246 64.2713 35.3413 64.2973 35.2731 64.3494C35.2058 64.4015 35.1542 64.4754 35.1183 64.571C35.0823 64.6667 35.0643 64.7794 35.0643 64.9091ZM38.8185 64.4403L38.2646 64.4744C38.2551 64.4271 38.2347 64.3845 38.2035 64.3466C38.1722 64.3078 38.131 64.277 38.0799 64.2543C38.0297 64.2306 37.9696 64.2188 37.8995 64.2188C37.8058 64.2188 37.7267 64.2386 37.6623 64.2784C37.5979 64.3172 37.5657 64.3693 37.5657 64.4347C37.5657 64.4867 37.5865 64.5308 37.6282 64.5668C37.6699 64.6027 37.7414 64.6316 37.8427 64.6534L38.2376 64.733C38.4497 64.7765 38.6078 64.8466 38.712 64.9432C38.8162 65.0398 38.8683 65.1667 38.8683 65.3239C38.8683 65.4669 38.8261 65.5923 38.7418 65.7003C38.6585 65.8082 38.5439 65.8925 38.3981 65.9531C38.2532 66.0128 38.0861 66.0426 37.8967 66.0426C37.6078 66.0426 37.3777 65.9825 37.2063 65.8622C37.0359 65.741 36.936 65.5762 36.9066 65.3679L37.5018 65.3366C37.5198 65.4247 37.5633 65.492 37.6325 65.5384C37.7016 65.5838 37.7901 65.6065 37.8981 65.6065C38.0041 65.6065 38.0894 65.5862 38.1538 65.5455C38.2191 65.5038 38.2522 65.4503 38.2532 65.3849C38.2522 65.33 38.229 65.285 38.1836 65.25C38.1381 65.214 38.0681 65.1866 37.9734 65.1676L37.5955 65.0923C37.3825 65.0497 37.2238 64.9759 37.1197 64.8707C37.0165 64.7656 36.9648 64.6316 36.9648 64.4688C36.9648 64.3286 37.0027 64.2079 37.0785 64.1065C37.1552 64.0052 37.2627 63.9271 37.4009 63.8722C37.5401 63.8172 37.703 63.7898 37.8896 63.7898C38.1651 63.7898 38.382 63.848 38.5401 63.9645C38.6992 64.081 38.792 64.2396 38.8185 64.4403Z" fill="#263238"/>
<path d="M21.5605 49.1871C22.2541 48.1778 23.1574 47.3301 24.2086 46.7019C25.2574 46.0648 26.4114 45.62 27.6164 45.3882C28.8215 45.1594 30.0573 45.1437 31.2678 45.3419C32.4755 45.5269 33.6384 45.9339 34.6979 46.5424C34.1609 46.2605 33.5981 46.0307 33.0171 45.8564C32.4394 45.6767 31.8481 45.5442 31.2489 45.4602C30.6511 45.3783 30.048 45.3416 29.4447 45.3505C28.8416 45.3655 28.2409 45.4314 27.649 45.5477C26.4608 45.7703 25.32 46.1968 24.2772 46.8083C23.7545 47.1113 23.2618 47.4633 22.8057 47.8596C22.3408 48.2526 21.923 48.698 21.5605 49.1871V49.1871Z" fill="#263238"/>
<path d="M23.7681 48.7669C24.2646 48.26 24.8375 47.834 25.466 47.5046C26.0889 47.159 26.7551 46.8978 27.4469 46.7277C28.138 46.557 28.848 46.4746 29.5598 46.4824C30.268 46.4976 30.9719 46.5954 31.6573 46.774C30.9642 46.6589 30.2624 46.6049 29.5598 46.6128C28.8607 46.6257 28.1655 46.7195 27.488 46.8923C27.1484 46.9735 26.8139 47.0748 26.4864 47.1959C26.1606 47.3194 25.8433 47.4703 25.5294 47.6247C25.2157 47.7797 24.9106 47.9514 24.6153 48.1392C24.3144 48.3223 24.0309 48.5324 23.7681 48.7669V48.7669Z" fill="#263238"/>
<path d="M34.3755 48.215V48.0435C36.3101 48.0435 81.7693 48.0281 82.1226 48.035V48.2065C81.7728 48.1996 34.854 48.215 34.3755 48.215Z" fill="#A6A6A6"/>
<path d="M85.1977 93.5953C85.563 93.7137 95.9648 93.6228 96.3593 93.3672C96.5085 93.2729 96.5839 91.7568 96.6234 89.9217C96.6234 89.5272 96.6371 89.1173 96.6422 88.7023L97.4174 83.1455L90.4629 83.1867L89.8746 88.7435L89.9158 89.9646C89.9158 89.9646 85.9489 91.7808 85.5458 92.105C85.1428 92.4291 84.8341 93.477 85.1977 93.5953Z" fill="#AD6359"/>
<path d="M85.1977 93.5957C85.563 93.714 95.9648 93.6231 96.3593 93.3676C96.541 93.251 96.6148 91.0385 96.6422 88.7026L89.8746 88.7421L89.9158 89.9632C89.9158 89.9632 85.9489 91.7794 85.5458 92.1036C85.1428 92.4277 84.8341 93.4774 85.1977 93.5957Z" fill="white"/>
<path d="M85.1977 93.5955C85.563 93.7139 95.9648 93.623 96.3593 93.3674C96.5085 93.2731 96.5839 91.757 96.6234 89.9219L89.9158 89.963C89.9158 89.963 85.9489 91.7793 85.5458 92.1034C85.1428 92.4276 84.8341 93.4772 85.1977 93.5955Z" fill="#FF6E06"/>
<path d="M85.3435 93.1788C87.086 93.1205 94.1246 93.0502 95.8516 93.1256C95.8653 93.1256 95.8653 93.1342 95.8516 93.1359C94.1246 93.232 87.0877 93.244 85.3435 93.2062C85.3126 93.2062 85.3126 93.1788 85.3435 93.1788Z" fill="#263238"/>
<path d="M86.2131 91.7211C86.4069 91.7141 86.6 91.7476 86.7801 91.8193C86.9602 91.8911 87.1234 91.9996 87.2593 92.1379C87.5057 92.3842 87.6481 92.7157 87.6572 93.064C87.6572 93.0743 87.6383 93.076 87.6366 93.064C87.5742 92.7192 87.4017 92.4039 87.1452 92.1652C86.8886 91.9265 86.5616 91.7773 86.2131 91.74C86.2116 91.7407 86.2099 91.741 86.2082 91.7408C86.2064 91.7407 86.2048 91.7401 86.2034 91.7392C86.202 91.7382 86.2008 91.737 86.2 91.7354C86.1992 91.7339 86.1987 91.7323 86.1987 91.7306C86.1987 91.7288 86.1992 91.7272 86.2 91.7257C86.2008 91.7242 86.202 91.7229 86.2034 91.7219C86.2048 91.721 86.2064 91.7204 86.2082 91.7203C86.2099 91.7202 86.2116 91.7204 86.2131 91.7211Z" fill="#263238"/>
<path d="M89.2417 90.1413C89.9397 90.1259 90.7509 90.3643 91.1883 90.932C91.2054 90.9543 91.1746 90.9783 91.154 90.968C90.5408 90.6531 89.8957 90.4047 89.2297 90.2271C89.2204 90.2234 89.2127 90.2167 89.2077 90.208C89.2027 90.1994 89.2007 90.1894 89.2021 90.1795C89.2035 90.1696 89.2081 90.1605 89.2153 90.1536C89.2225 90.1467 89.2318 90.1423 89.2417 90.1413Z" fill="#263238"/>
<path d="M88.705 90.3488C89.403 90.3334 90.2142 90.5735 90.6516 91.1395C90.6687 91.1618 90.6379 91.1858 90.6173 91.1755C90.0044 90.8604 89.3592 90.6126 88.693 90.4363C88.6827 90.4334 88.6738 90.4268 88.6679 90.4178C88.662 90.4088 88.6596 90.398 88.6611 90.3874C88.6625 90.3767 88.6678 90.367 88.6758 90.3599C88.6839 90.3528 88.6943 90.3489 88.705 90.3488V90.3488Z" fill="#263238"/>
<path d="M88.168 90.5717C88.8643 90.5545 89.6772 90.7946 90.1145 91.3606C90.1317 91.3829 90.1008 91.4069 90.0802 91.3966C89.467 91.0822 88.8219 90.8344 88.1559 90.6574C88.1446 90.6558 88.1343 90.6498 88.1274 90.6406C88.1205 90.6314 88.1175 90.6199 88.1191 90.6085C88.1207 90.5972 88.1267 90.5869 88.1359 90.58C88.145 90.5731 88.1566 90.5701 88.168 90.5717Z" fill="#263238"/>
<path d="M87.6299 90.7863C88.3279 90.7709 89.1391 91.0093 89.5782 91.577C89.5953 91.5993 89.5645 91.6216 89.5439 91.6113C88.9303 91.2976 88.2853 91.0499 87.6196 90.8721C87.6082 90.8707 87.5978 90.8649 87.5908 90.8559C87.5837 90.8469 87.5805 90.8354 87.5819 90.8241C87.5832 90.8127 87.589 90.8023 87.5981 90.7953C87.6071 90.7882 87.6185 90.785 87.6299 90.7863V90.7863Z" fill="#263238"/>
<path d="M95.3922 91.4722C96.1759 91.4722 96.1845 92.6847 95.4007 92.6899C94.617 92.695 94.6084 91.4773 95.3922 91.4722Z" fill="#263238"/>
<path d="M88.5352 89.3077C88.9159 89.7914 89.4922 90.0915 89.993 90.4311C90.0047 90.4375 90.0177 90.4412 90.031 90.4417C90.0444 90.4422 90.0576 90.4397 90.0698 90.4342C90.0819 90.4287 90.0926 90.4204 90.101 90.4101C90.1094 90.3997 90.1153 90.3875 90.1182 90.3745C90.121 90.3748 90.1238 90.3744 90.1264 90.3735C90.129 90.3725 90.1314 90.371 90.1333 90.369C90.1353 90.3671 90.1368 90.3647 90.1378 90.3621C90.1387 90.3595 90.139 90.3567 90.1388 90.3539C90.0831 89.7135 89.8589 89.0993 89.4888 88.5737C89.2692 88.2718 88.8216 87.9906 88.47 88.2855C88.1184 88.5805 88.3122 89.0265 88.5352 89.3077ZM88.4975 88.7297C88.5609 87.97 89.2504 88.548 89.4047 88.7778C89.5017 88.9277 89.5883 89.0841 89.6637 89.246C89.8151 89.5821 89.9496 89.9255 90.0667 90.275C89.8301 90.0932 89.5814 89.932 89.3396 89.7605C89.0514 89.5547 88.4632 89.1482 88.4975 88.7297V88.7297Z" fill="#263238"/>
<path d="M92.6135 89.8875C92.5552 89.4313 92.0339 89.337 91.6668 89.4107C91.0395 89.5495 90.4597 89.8512 89.9861 90.2854C89.9839 90.2872 89.9822 90.2894 89.981 90.2919C89.9798 90.2944 89.9792 90.2972 89.9792 90.3C89.9792 90.3028 89.9798 90.3055 89.981 90.308C89.9822 90.3106 89.9839 90.3128 89.9861 90.3146C89.9793 90.3261 89.9752 90.339 89.9743 90.3523C89.9734 90.3657 89.9756 90.379 89.9808 90.3914C89.9859 90.4037 89.9939 90.4146 90.0041 90.4233C90.0142 90.432 90.0263 90.4383 90.0392 90.4415C90.6378 90.5289 91.2655 90.6953 91.8726 90.5975C92.2294 90.5392 92.6701 90.318 92.6135 89.8875ZM90.9722 90.3883C90.6772 90.3523 90.3857 90.3025 90.089 90.2768C90.4183 90.1053 90.7373 89.9252 91.082 89.788C91.2495 89.7196 91.4214 89.6623 91.5965 89.6165C91.8658 89.5514 92.7645 89.5908 92.2963 90.1945C92.0356 90.5289 91.3273 90.4312 90.9722 90.3883Z" fill="#263238"/>
<path d="M107.318 57.3735C107.318 57.3735 99.4119 71.2106 99.2044 72.1693C98.8905 73.6563 97.3178 88.3149 97.3178 88.3149L89.5366 88.2668C89.5366 88.2668 90.8263 75.3439 92.1452 71.0751C92.8655 68.7461 96.6524 62.4278 98.4292 59.3115C98.587 59.032 98.5407 57.7577 98.5407 57.7577L107.318 57.3735Z" fill="#263238"/>
<path d="M90.2863 86.9752C91.4869 86.9512 95.1468 86.8517 96.7538 86.9752C96.7658 86.9752 96.7658 86.9957 96.7538 86.9975C96.2033 87.0832 91.4937 87.0266 90.2863 86.9975C90.2837 86.9944 90.2822 86.9904 90.2822 86.9863C90.2822 86.9822 90.2837 86.9783 90.2863 86.9752V86.9752Z" fill="#455A64"/>
<path d="M105.957 58.6512C105.442 59.4865 104.888 60.3063 104.358 61.1364C103.828 61.9664 103.298 62.7965 102.775 63.6318C101.733 65.3022 100.714 66.9864 99.7191 68.6843C99.2359 69.4672 98.8243 70.292 98.4894 71.1489C98.1842 72.0086 97.958 72.8944 97.8137 73.7952C97.6593 74.699 97.5633 75.6097 97.4707 76.5221C97.3735 77.4929 97.2769 78.4647 97.1808 79.4377C96.9842 81.4238 96.7875 83.4092 96.5908 85.3941C96.5668 85.6376 96.5428 85.8812 96.5205 86.1264C96.5205 86.1607 96.5823 86.1676 96.5857 86.1264C96.8086 84.1524 96.9904 82.1818 97.1894 80.1975C97.29 79.2142 97.39 78.2309 97.4895 77.2476C97.5821 76.3318 97.6696 75.4159 97.7999 74.5035C97.9201 73.6064 98.107 72.7196 98.3591 71.8503C98.6392 70.9492 99.0182 70.0818 99.4893 69.264C100.443 67.573 101.453 65.9094 102.463 64.2509C103.473 62.5924 104.511 60.9083 105.578 59.2635C105.71 59.0611 105.842 58.8588 105.979 58.6598C105.993 58.6495 105.965 58.6341 105.957 58.6512Z" fill="#455A64"/>
<path d="M104.19 94.1599C104.572 94.1324 114.415 90.0026 114.686 89.6201C114.697 89.5971 114.702 89.5717 114.7 89.5464C114.7 89.2034 113.995 88.0234 113.403 86.4696C113.366 86.3701 113.105 85.9087 112.743 85.2879C111.747 83.5831 109.987 80.6572 109.987 80.6572L103.554 83.3173L106.706 87.9119L107.202 89.0267C107.202 89.0267 104.205 92.1996 103.955 92.6523C103.705 93.1051 103.808 94.1873 104.19 94.1599Z" fill="#AD6359"/>
<path d="M104.19 94.1596C104.573 94.1321 114.416 90.0023 114.687 89.6198C114.697 89.5969 114.702 89.5714 114.7 89.5461C114.7 89.2031 113.995 88.0231 113.404 86.4693C113.366 86.3698 113.105 85.9084 112.743 85.2876L106.706 87.9065L107.202 89.0213C107.202 89.0213 104.206 92.1941 103.955 92.6469C103.705 93.0997 103.808 94.187 104.19 94.1596Z" fill="white"/>
<path d="M104.19 94.1595C104.573 94.1321 114.416 90.0023 114.687 89.6198C114.789 89.474 114.33 88.1294 113.404 86.4692L107.202 89.0212C107.202 89.0212 104.206 92.1941 103.954 92.6469C103.702 93.0996 103.808 94.187 104.19 94.1595Z" fill="#FF6E06"/>
<path d="M104.178 93.7187C105.771 93.0104 112.268 90.3058 113.899 89.7261C113.911 89.7261 113.915 89.7261 113.899 89.7364C112.335 90.4721 105.816 93.1253 104.185 93.7444C104.146 93.7582 104.135 93.7324 104.178 93.7187Z" fill="#263238"/>
<path d="M104.429 92.0448C104.606 91.9663 104.798 91.9258 104.992 91.9258C105.186 91.9258 105.378 91.9663 105.555 92.0448C105.877 92.1804 106.134 92.4347 106.272 92.7549C106.272 92.7652 106.259 92.772 106.253 92.7634C106.065 92.4681 105.787 92.2417 105.46 92.118C105.132 91.9943 104.773 91.9801 104.437 92.0774C104.433 92.0786 104.428 92.0779 104.424 92.0757C104.421 92.0734 104.418 92.0697 104.417 92.0654C104.415 92.0611 104.416 92.0565 104.418 92.0526C104.421 92.0488 104.424 92.046 104.429 92.0448V92.0448Z" fill="#263238"/>
<path d="M106.643 89.4418C107.284 89.1657 108.126 89.0816 108.746 89.4418C108.77 89.4555 108.746 89.4898 108.727 89.4881C108.041 89.4266 107.351 89.4387 106.669 89.5241C106.659 89.5246 106.649 89.5217 106.641 89.5161C106.633 89.5104 106.627 89.5023 106.624 89.4929C106.621 89.4835 106.621 89.4734 106.625 89.4641C106.628 89.4549 106.635 89.447 106.643 89.4418V89.4418Z" fill="#263238"/>
<path d="M106.226 89.8342C106.867 89.558 107.709 89.4757 108.329 89.8342C108.353 89.8496 108.329 89.8822 108.308 89.8805C107.623 89.8197 106.933 89.8318 106.25 89.9165C106.24 89.9166 106.231 89.9134 106.223 89.9077C106.215 89.9019 106.21 89.8937 106.207 89.8844C106.204 89.8751 106.205 89.8652 106.208 89.8561C106.211 89.847 106.218 89.8393 106.226 89.8342V89.8342Z" fill="#263238"/>
<path d="M105.809 90.2424C106.451 89.9663 107.291 89.8839 107.912 90.2424C107.936 90.2561 107.912 90.2904 107.891 90.2887C107.206 90.227 106.516 90.2391 105.833 90.3247C105.824 90.3247 105.814 90.3216 105.807 90.3159C105.799 90.3101 105.793 90.3019 105.79 90.2926C105.788 90.2833 105.788 90.2734 105.791 90.2643C105.795 90.2552 105.801 90.2475 105.809 90.2424V90.2424Z" fill="#263238"/>
<path d="M105.392 90.6423C106.032 90.3662 106.874 90.2838 107.493 90.6423C107.517 90.656 107.493 90.6886 107.475 90.6869C106.789 90.6262 106.099 90.6383 105.416 90.7229C105.407 90.7238 105.397 90.7213 105.389 90.7157C105.38 90.7102 105.374 90.7019 105.371 90.6924C105.369 90.6829 105.369 90.6727 105.373 90.6636C105.377 90.6544 105.384 90.6469 105.392 90.6423Z" fill="#263238"/>
<path d="M112.844 88.3678C113.568 88.0694 114.033 89.1944 113.307 89.4928C112.582 89.7913 112.119 88.6662 112.844 88.3678Z" fill="#263238"/>
<path d="M105.675 88.934C106.211 89.2376 106.857 89.3011 107.449 89.428C107.509 89.4417 107.548 89.3799 107.543 89.3285C107.553 89.3285 107.562 89.3148 107.555 89.3011C107.263 88.7294 106.825 88.2449 106.286 87.8964C105.967 87.6975 105.447 87.6049 105.233 88.0096C105.019 88.4144 105.365 88.7557 105.675 88.934ZM105.425 88.4195C105.199 87.6906 106.054 87.9667 106.283 88.1228C106.429 88.2274 106.568 88.3421 106.699 88.4658C106.974 88.7145 107.214 88.9975 107.457 89.2702C107.171 89.1896 106.881 89.1347 106.6 89.0661C106.248 88.9769 105.55 88.814 105.425 88.4126V88.4195Z" fill="#263238"/>
<path d="M109.667 87.9477C109.442 87.5481 108.924 87.6562 108.612 87.862C108.082 88.2263 107.658 88.723 107.38 89.3026C107.379 89.3052 107.379 89.308 107.379 89.3108C107.379 89.3135 107.38 89.3163 107.381 89.3187C107.382 89.3212 107.384 89.3233 107.387 89.325C107.389 89.3266 107.391 89.3278 107.394 89.3283C107.394 89.3815 107.43 89.4415 107.492 89.4261C108.078 89.2837 108.723 89.2031 109.25 88.8841C109.564 88.6886 109.886 88.3182 109.667 87.9477ZM108.337 89.0282C108.049 89.1054 107.761 89.1671 107.48 89.2563C107.711 88.969 107.958 88.6936 108.217 88.4314C108.345 88.308 108.481 88.1934 108.624 88.0884C108.848 87.9289 109.696 87.6287 109.481 88.3628C109.378 88.7521 108.685 88.927 108.344 89.0196L108.337 89.0282Z" fill="#263238"/>
<path d="M106.204 87.6526L113.407 84.641C113.407 84.641 104.271 71.5585 104.192 70.5775C104.123 69.708 107.965 62.0897 108.099 59.8824C108.238 57.5002 107.07 55.6702 105.795 54.5435L98.5355 57.7626C98.5355 57.7626 99.1701 59.0575 100.422 59.7435C100.422 59.7435 96.7021 68.54 96.9525 71.2344C97.2029 73.9287 106.204 87.6526 106.204 87.6526Z" fill="#263238"/>
<path d="M105.866 86.2806C106.907 85.8176 106.602 85.9376 107.648 85.4849C108.162 85.2636 111.524 83.8161 112.038 83.6943C112.04 83.6954 112.042 83.6969 112.043 83.6987C112.044 83.7005 112.044 83.7026 112.044 83.7046C112.044 83.7067 112.044 83.7087 112.043 83.7105C112.042 83.7123 112.04 83.7138 112.038 83.7149C111.593 83.9962 108.202 85.3854 107.686 85.6015C106.631 86.032 106.929 85.8965 105.869 86.3167C105.867 86.3169 105.865 86.3166 105.862 86.3159C105.86 86.3152 105.858 86.3141 105.856 86.3126C105.854 86.3111 105.853 86.3092 105.852 86.3071C105.851 86.305 105.85 86.3027 105.85 86.3004C105.849 86.298 105.85 86.2956 105.85 86.2933C105.851 86.2911 105.852 86.289 105.854 86.2871C105.855 86.2853 105.857 86.2838 105.859 86.2827C105.861 86.2816 105.864 86.2809 105.866 86.2806Z" fill="#455A64"/>
<path d="M99.1891 59.6013C99.9687 59.7725 100.732 60.0095 101.472 60.3096C101.478 60.3117 101.483 60.3161 101.486 60.3219C101.489 60.3277 101.489 60.3344 101.487 60.3405C101.485 60.3466 101.481 60.3517 101.475 60.3546C101.469 60.3575 101.463 60.358 101.456 60.3559C100.69 60.1416 99.9129 59.9443 99.16 59.6888C99.0999 59.6699 99.1291 59.5893 99.1891 59.6013Z" fill="#455A64"/>
<path d="M100.071 59.2826C100.145 59.4108 100.211 59.5437 100.268 59.6805C100.322 59.7846 100.357 59.8981 100.369 60.0149C100.369 60.0372 100.34 60.0424 100.324 60.0286C100.245 59.9349 100.18 59.8289 100.134 59.7148C100.069 59.593 100 59.4712 99.9385 59.3478C99.9311 59.3304 99.9307 59.3109 99.9372 59.2932C99.9438 59.2756 99.9568 59.2611 99.9737 59.2527C99.9906 59.2444 100.01 59.2428 100.028 59.2484C100.046 59.2539 100.061 59.2662 100.071 59.2826V59.2826Z" fill="#455A64"/>
<path d="M99.9712 58.5827C99.9232 58.4678 99.8769 58.3529 99.8271 58.2397C99.7774 58.1265 99.7156 58.0081 99.6745 57.8864C99.6745 57.8675 99.6367 57.8864 99.6453 57.9001C99.6916 58.015 99.7225 58.1368 99.7619 58.2551C99.8014 58.3734 99.8391 58.4901 99.8803 58.6084C99.9578 58.8283 100.047 59.0441 100.146 59.255C100.023 59.2635 99.8999 59.2436 99.786 59.1967C99.6711 59.1258 99.5811 59.0209 99.5287 58.8965C99.4618 58.7679 99.4001 58.6376 99.3297 58.5106C99.2465 58.3739 99.1759 58.2298 99.1188 58.0802C99.1188 58.0613 99.0811 58.0802 99.0896 58.0939C99.1941 58.4123 99.3309 58.7192 99.4978 59.0097C99.5681 59.1229 99.6247 59.2413 99.7534 59.2841C99.8921 59.3204 100.037 59.3286 100.179 59.3081C100.196 59.3081 100.22 59.3081 100.213 59.279C100.143 59.0457 100.062 58.8074 99.9712 58.5827Z" fill="#455A64"/>
<path d="M100.307 60.032C100.048 60.5979 99.822 61.1622 99.5802 61.7247C99.3384 62.2873 99.1257 62.8327 98.9113 63.3918C98.4809 64.522 98.095 65.6728 97.7588 66.8356C97.5942 67.4073 97.4427 67.9864 97.3043 68.5729C97.1671 69.1578 96.8516 70.3789 96.8516 70.974C96.8516 71.9945 98.3402 74.6322 98.6129 75.1793C98.7844 75.5223 98.8342 75.4692 98.7536 75.2994C98.5237 74.8209 97.1208 71.7767 97.0539 71.0118C97.0025 70.4201 97.2975 69.5317 97.4244 68.9537C97.5513 68.3757 97.7005 67.7789 97.8617 67.1975C98.179 66.0501 98.5598 64.9267 98.9508 63.8034C99.1703 63.1739 99.407 62.5514 99.6368 61.9168C99.8666 61.2822 100.095 60.7163 100.343 60.0302C100.342 60.0251 100.314 60.0148 100.307 60.032Z" fill="#455A64"/>
<path d="M105.778 58.1058C105.648 58.0595 105.47 58.1418 105.338 58.1658C105.167 58.1964 104.996 58.2159 104.823 58.2242C104.651 58.2307 104.48 58.2267 104.309 58.2121C104.138 58.2102 103.971 58.1685 103.82 58.0904C103.571 57.9147 103.357 57.6936 103.19 57.4387C102.989 57.1793 102.823 56.8951 102.695 56.5931C102.695 56.576 102.662 56.5931 102.669 56.6069C102.726 56.7784 102.767 56.9499 102.84 57.1214C102.91 57.2797 102.992 57.4323 103.086 57.5776C103.24 57.869 103.464 58.1172 103.739 58.2996C104.041 58.4711 104.425 58.4523 104.768 58.43C104.961 58.4157 105.153 58.3876 105.343 58.3459C105.48 58.315 105.71 58.2893 105.795 58.1744C105.8 58.1692 105.803 58.1629 105.805 58.1562C105.807 58.1494 105.807 58.1423 105.805 58.1356C105.803 58.1288 105.8 58.1226 105.795 58.1174C105.791 58.1122 105.785 58.1082 105.778 58.1058Z" fill="#455A64"/>
<path d="M111.321 83.2881C110.11 81.5033 108.92 79.7031 107.751 77.8874C106.581 76.0717 105.428 74.2424 104.293 72.3992C104.022 71.9585 103.708 71.5177 103.532 71.0272C103.338 70.4955 103.437 69.9759 103.6 69.4511C103.906 68.4906 104.265 67.5481 104.677 66.6281C105.082 65.7037 105.521 64.793 105.951 63.884C106.404 62.9854 106.805 62.0618 107.152 61.1176C107.485 60.2278 107.541 59.2581 107.313 58.3358C107.059 57.4079 106.526 56.5796 105.97 55.8061C105.823 55.6037 105.674 55.4013 105.526 55.1972C105.516 55.1818 105.492 55.1972 105.504 55.2161C106.116 56.0222 106.704 56.8746 107.078 57.8247C107.264 58.2933 107.371 58.7893 107.396 59.2928C107.405 59.8038 107.331 60.3129 107.178 60.8003C106.896 61.7505 106.445 62.6526 106.027 63.5444C105.608 64.4362 105.156 65.3675 104.742 66.2885C104.32 67.2134 103.946 68.1596 103.622 69.1235C103.482 69.554 103.324 70.0033 103.339 70.4629C103.357 70.9655 103.602 71.4148 103.854 71.835C104.958 73.6684 106.104 75.4778 107.265 77.2751C108.426 79.0725 109.615 80.8768 110.82 82.6484C110.971 82.8771 111.123 83.1012 111.277 83.3207C111.301 83.3482 111.34 83.3173 111.321 83.2881Z" fill="#455A64"/>
<path d="M98.7344 49.1876C97.1909 52.0346 94.9973 55.24 93.2977 55.3618C91.7627 55.4681 89.1953 54.3636 86.3997 53.1837C85.8458 52.9487 87.8953 48.7245 88.4578 49.0367C89.5743 49.6455 91.9857 51.3228 92.7214 51.3743C93.0353 51.3966 95.7759 48.8875 97.6419 47.4897C99.9109 45.7884 99.3484 48.0539 98.7344 49.1876Z" fill="#AD6359"/>
<path d="M84.4414 53.0446C85.3692 53.3259 86.827 53.6312 87.405 53.5266C87.947 53.4254 88.9657 49.3538 88.4907 49.0469C87.014 48.0933 84.6472 47.8463 83.7279 48.2219C82.8087 48.5975 83.4793 52.7514 84.4414 53.0446Z" fill="#AD6359"/>
<path d="M107.929 75.5292C107.027 75.5292 106.14 75.121 105.288 74.3167C103.513 72.6376 102.801 64.3488 102.372 59.3957C102.234 57.7767 102.113 56.3772 102.029 56.24C101.592 55.9467 82.603 48.277 82.1211 48.2067L82.1297 48.0352C82.4727 48.0352 101.728 55.8164 102.139 56.1114C102.263 56.1988 102.326 56.8094 102.547 59.382C102.944 63.9869 103.679 72.557 105.408 74.1932C106.266 74.9993 107.144 75.3937 108.039 75.356C109.097 75.3148 110.19 74.6803 111.287 73.4694L111.414 73.5843C110.284 74.8312 109.15 75.4846 108.046 75.5275L107.929 75.5292Z" fill="#A6A6A6"/>
<path d="M85.256 47.9422C85.599 48.3246 84.9507 48.5099 84.9507 48.5099C84.9507 48.5099 85.9472 48.467 86.1513 48.9987C86.3554 49.5303 85.5544 49.7087 85.4978 49.7224C85.551 49.7224 86.4668 49.7053 86.6143 50.2609C86.7618 50.8166 85.9403 50.8989 85.8871 50.9024C85.9369 50.9161 86.5989 51.1116 86.616 51.5592C86.6435 52.3259 84.9353 51.8731 84.4122 52.2075C84.4122 52.2075 84.5048 53.0359 84.5117 53.0651C84.5117 53.0651 83.2528 52.7924 82.8395 52.06C82.7784 51.9544 82.7551 51.8311 82.7735 51.7104C82.7919 51.5897 82.8509 51.479 82.9407 51.3963C82.9407 51.3963 82.3987 51.326 82.2701 50.8921C82.2032 50.6691 82.4999 50.3656 82.4999 50.3656C82.3797 50.3422 82.2683 50.2863 82.1776 50.2041C82.0869 50.1219 82.0204 50.0164 81.9854 49.8991C81.9117 49.5869 82.2204 49.3314 82.2204 49.3314C82.2204 49.3314 81.8396 49.0673 81.8688 48.7225C81.9151 48.0296 84.5185 47.1292 85.256 47.9422Z" fill="#AD6359"/>
<path d="M82.4846 50.3676C82.4743 50.3676 82.4675 50.3556 82.4761 50.3487C83.378 49.7733 84.4558 49.5392 85.5151 49.6884C85.5529 49.6884 85.5803 49.7382 85.5357 49.733C84.8137 49.6661 83.2976 50.004 82.4846 50.3676Z" fill="#263238"/>
<path d="M85.9559 50.9401C84.9269 50.8046 83.9424 51.0139 82.97 51.374C82.958 51.374 82.9529 51.3603 82.97 51.3535C83.3988 51.0482 84.0419 50.8835 84.553 50.7978C85.0264 50.709 85.5148 50.7457 85.9696 50.9041C85.9782 50.911 85.9782 50.9436 85.9559 50.9401Z" fill="#263238"/>
<path d="M84.9506 48.51C85.1425 48.5194 85.3331 48.5464 85.52 48.5906C85.7033 48.6257 85.8738 48.7092 86.014 48.8325C86.0754 48.8924 86.1121 48.9732 86.1169 49.0588C86.1218 49.1448 86.104 49.2306 86.0654 49.3075C86.0206 49.3814 85.9609 49.4451 85.89 49.4944C85.8191 49.5437 85.7386 49.5776 85.6538 49.5939L85.2439 49.69L85.6624 49.7431C85.849 49.7642 86.031 49.8158 86.2009 49.8958C86.2802 49.9292 86.3517 49.9788 86.4107 50.0414C86.4698 50.104 86.5151 50.1783 86.5439 50.2594C86.5721 50.3355 86.5724 50.4191 86.5448 50.4954C86.5172 50.5717 86.4634 50.6358 86.393 50.6761C86.2364 50.7667 86.0593 50.8157 85.8785 50.8185L85.3811 50.8442L85.8579 50.9831C85.991 51.0241 86.1183 51.0817 86.2369 51.1546C86.3528 51.213 86.4488 51.3043 86.513 51.417C86.5386 51.4703 86.5488 51.5297 86.5425 51.5885C86.5361 51.6473 86.5134 51.7032 86.477 51.7498C86.381 51.8379 86.2621 51.8973 86.134 51.9213C85.8515 51.98 85.5647 52.0162 85.2765 52.0293C85.1307 52.0413 84.9849 52.0533 84.8391 52.0739C84.692 52.0844 84.5488 52.1259 84.4189 52.1957C84.5536 52.1416 84.6974 52.1136 84.8426 52.1134C84.9883 52.1134 85.1341 52.1134 85.2799 52.1031C85.5757 52.1094 85.8715 52.0875 86.1632 52.0379C86.3215 52.014 86.4694 51.9442 86.5885 51.8372C86.647 51.7718 86.6852 51.6907 86.6983 51.6038C86.7114 51.517 86.6989 51.4283 86.6622 51.3484C86.5897 51.204 86.4757 51.0845 86.3347 51.0054C86.204 50.9246 86.0633 50.8612 85.9162 50.8168L85.8939 50.9883C86.1088 50.9848 86.3192 50.9258 86.5045 50.8168C86.6054 50.7546 86.6817 50.6595 86.7206 50.5475C86.7553 50.4358 86.7553 50.3162 86.7206 50.2045C86.6838 50.1006 86.6254 50.0056 86.5491 49.9261C86.4728 49.8465 86.3804 49.7842 86.2781 49.7431C86.0901 49.6586 85.8897 49.6047 85.6847 49.5836V49.7329C85.7878 49.7093 85.8845 49.6637 85.9683 49.5991C86.0521 49.5346 86.1209 49.4526 86.17 49.359C86.2136 49.2611 86.2308 49.1534 86.2198 49.0468C86.2068 48.9389 86.1557 48.8392 86.0757 48.7656C85.9174 48.6404 85.7273 48.562 85.5269 48.5392C85.3364 48.5083 85.1432 48.4985 84.9506 48.51V48.51Z" fill="#263238"/>
<path d="M88.1097 48.8271C88.1097 48.8271 84.635 46.0213 84.2029 47.7604C84.0742 48.2749 84.1617 50.5525 84.6179 50.5422C85.2096 50.5319 85.3502 49.5749 85.3434 48.9609C85.3434 48.9609 86.2866 50.014 87.2162 49.5749C87.5709 49.4028 87.8778 49.146 88.1097 48.8271V48.8271Z" fill="#AD6359"/>
<path d="M84.2475 47.6182C84.1729 47.8145 84.1278 48.0209 84.1137 48.2304C84.0929 48.4396 84.0866 48.6499 84.0948 48.8599C84.1036 49.2816 84.1501 49.7018 84.2338 50.1153C84.2555 50.2253 84.293 50.3316 84.3452 50.4309C84.376 50.4879 84.4187 50.5376 84.4704 50.5766C84.4984 50.5978 84.5297 50.614 84.563 50.6247C84.5969 50.635 84.6323 50.6396 84.6677 50.6384C84.7955 50.6358 84.9178 50.5856 85.0107 50.4977C85.0931 50.4165 85.1605 50.3212 85.2096 50.2165C85.302 50.0191 85.36 49.8074 85.3811 49.5905C85.4062 49.3799 85.4159 49.1679 85.4103 48.9559L85.2817 49.0039C85.3941 49.1196 85.517 49.2246 85.6487 49.3178C85.7792 49.4111 85.9188 49.4909 86.0654 49.5562C86.2122 49.6202 86.3677 49.6618 86.5268 49.6797C86.6842 49.6985 86.8437 49.6868 86.9967 49.6454C86.8426 49.666 86.6861 49.6608 86.5336 49.6299C86.3843 49.5967 86.2401 49.5436 86.1049 49.4721C85.9681 49.4029 85.8393 49.3189 85.7207 49.2217C85.6017 49.1278 85.492 49.0227 85.3931 48.9079L85.2714 48.7655V48.9559C85.2693 49.1603 85.2532 49.3643 85.2233 49.5665C85.1972 49.7648 85.1393 49.9576 85.0518 50.1376C84.9661 50.3091 84.8237 50.4583 84.6625 50.4583C84.5013 50.4583 84.4378 50.2593 84.3898 50.0707C84.3418 49.882 84.3075 49.6694 84.2766 49.4653C84.2458 49.2612 84.2183 49.0554 84.2012 48.8496C84.1527 48.4392 84.1683 48.0238 84.2475 47.6182V47.6182Z" fill="#263238"/>
<path d="M96.1073 53.6776L93.6479 50.5905C93.6479 50.5905 96.1451 48.1894 97.7195 47.2187C99.2939 46.248 99.9731 46.8225 98.9989 48.9234C98.0248 51.0244 96.1073 53.6776 96.1073 53.6776Z" fill="#FF6E06"/>
<path d="M94.2427 50.2886C94.6201 50.6659 94.9648 51.081 95.3061 51.4892C95.6474 51.8973 95.9732 52.3124 96.2802 52.7446C96.2802 52.7532 96.2802 52.7634 96.2665 52.7566C95.9081 52.3587 95.5633 51.9488 95.222 51.5372C94.8807 51.1256 94.536 50.7242 94.2273 50.2989C94.2204 50.292 94.2307 50.28 94.2427 50.2886Z" fill="#263238"/>
<path opacity="0.1" d="M94.8447 52.1029L96.107 53.6859C96.107 53.6859 98.0244 51.0344 98.9986 48.9318C99.3416 48.208 99.4719 47.6678 99.4462 47.3076L94.8447 52.1029Z" fill="black"/>
<path d="M98.4257 58.248L106.677 55.2484C106.677 55.2484 103.166 48.8032 100.588 47.0744C99.4153 46.2889 98.5303 46.656 97.9026 47.4826C97.7466 47.6901 96.1533 51.8612 96.4277 52.9416C96.7844 54.3411 97.7294 54.6258 97.7294 54.6258L98.4257 58.248Z" fill="#FF6E06"/>
<path d="M100.136 46.8209L97.8206 47.6441L97.8601 47.5567L100.042 46.7866L100.136 46.8209ZM100.783 47.212L97.5239 48.373C97.5136 48.4005 97.5033 48.4296 97.4913 48.4588L100.843 47.2583L100.783 47.212ZM101.36 47.7007L97.2444 49.1705L97.2135 49.2563L101.419 47.7539L101.36 47.7007ZM101.875 48.2153L96.9751 49.9595L96.9494 50.0435L101.923 48.2701L101.875 48.2153ZM102.347 48.7435L96.7487 50.7312C96.7487 50.7587 96.7333 50.7861 96.7264 50.8136L102.386 48.7915L102.347 48.7435ZM102.791 49.282L96.5583 51.5116C96.5583 51.539 96.5463 51.5665 96.5429 51.5922L102.835 49.3455L102.791 49.282ZM103.213 49.8274L96.4263 52.2491C96.4263 52.2748 96.4263 52.2988 96.4263 52.3245L103.266 49.884L103.213 49.8274ZM103.619 50.3762L96.4314 52.9488C96.4314 52.9711 96.4434 52.9934 96.4486 53.014L103.66 50.4414L103.619 50.3762ZM104.01 50.9319L96.6527 53.5577C96.6647 53.5782 96.675 53.6005 96.6852 53.6211L104.06 50.9919L104.01 50.9319ZM104.393 51.4927L97.018 54.1219L97.0677 54.1768L104.424 51.551L104.393 51.4927ZM104.763 52.0553L97.6491 54.5953C97.6763 54.608 97.7044 54.6189 97.7331 54.6279V54.6381L104.801 52.1153C104.785 52.1033 104.772 52.0741 104.76 52.0536L104.763 52.0553ZM105.122 52.6178L97.8429 55.2144L97.8566 55.283L105.159 52.6778L105.122 52.6178ZM105.475 53.1872L97.9681 55.8764L97.9818 55.945L105.513 53.2592L105.475 53.1872ZM105.818 53.7583L98.0899 56.5161L98.1036 56.5865L105.859 53.8184C105.845 53.8029 105.833 53.7823 105.821 53.7618L105.818 53.7583ZM106.161 54.3329L98.2185 57.1679L98.2322 57.2365L106.195 54.3946C106.183 54.3775 106.171 54.3569 106.161 54.3329ZM106.492 54.9108L98.3437 57.8264L98.3574 57.8968L106.526 54.9812C106.513 54.9597 106.502 54.9374 106.492 54.9143V54.9108Z" fill="white"/>
<path d="M100.47 53.5471C100.063 53.6239 99.6613 53.7306 99.2695 53.8661C99.0757 53.9364 98.887 54.0153 98.7001 54.0977C98.6058 54.1388 98.5114 54.1783 98.4171 54.2143C98.3184 54.2572 98.2147 54.2878 98.1084 54.3052C98.1084 54.3052 98.1084 54.3206 98.1084 54.3189C98.2097 54.3143 98.3105 54.3029 98.4102 54.2846C98.5062 54.2632 98.6007 54.2357 98.6932 54.2023C98.8888 54.132 99.0826 54.0548 99.2781 53.9828C99.6725 53.8387 100.067 53.6963 100.479 53.5814C100.497 53.5763 100.489 53.5437 100.47 53.5471Z" fill="#263238"/>
<path d="M101.518 53.8182C101.174 53.8153 100.831 53.8325 100.489 53.8696C100.318 53.8868 100.146 53.9159 99.9848 53.9485C99.9042 53.964 99.8253 53.9811 99.7464 54C99.6675 54.0188 99.5749 54.0514 99.4857 54.0703C99.4772 54.0703 99.4857 54.0857 99.4857 54.084C99.5698 54.0686 99.6572 54.0686 99.7396 54.0583L99.9917 54.0257C100.163 54.0051 100.335 53.9863 100.506 53.964C100.849 53.9194 101.18 53.8782 101.52 53.8456C101.539 53.8371 101.535 53.8182 101.518 53.8182Z" fill="#263238"/>
<path d="M101.748 47.5203C105.895 49.3348 110.905 54.6292 109.773 55.8023C108.744 56.8725 104.528 58.061 102.719 58.3612C102.187 58.4504 101.582 54.2982 102.151 54.2022C102.837 54.0873 104.53 53.6448 104.593 53.6122C104.727 53.5453 101.335 49.7962 100.191 48.3864C98.5942 46.4227 100.193 46.8377 101.748 47.5203Z" fill="#AD6359"/>
<path d="M96.8122 55.4407C96.7942 55.5706 96.8165 55.7028 96.876 55.8197C96.9355 55.9365 97.0293 56.0323 97.1449 56.0941C96.9967 56.2599 96.9111 56.4722 96.9031 56.6944C96.9031 57.0872 97.5257 57.2518 97.5257 57.2518C97.4075 57.4558 97.3537 57.6907 97.3713 57.9258C97.4125 58.3014 98.0127 58.557 98.0127 58.557C98.0057 58.8068 98.0898 59.0506 98.2494 59.243C98.6936 59.7352 99.6884 59.5586 100.321 59.4522C100.954 59.3459 102.652 58.4541 102.993 58.3169L102.35 54.2453C102.35 54.2453 99.3745 53.9109 98.6473 54.1407C98.035 54.3328 96.898 54.9468 96.8122 55.4407Z" fill="#AD6359"/>
<path d="M97.1634 56.0238C97.7637 55.6619 98.4411 55.4973 99.1066 55.2949C99.1203 55.2949 99.1272 55.3138 99.1066 55.3172C98.4411 55.511 97.8254 55.8317 97.1686 56.0547C97.1654 56.0539 97.1625 56.0521 97.1602 56.0497C97.158 56.0472 97.1565 56.0442 97.156 56.0409C97.1554 56.0377 97.1559 56.0343 97.1572 56.0313C97.1585 56.0282 97.1607 56.0257 97.1634 56.0238V56.0238Z" fill="#263238"/>
<path d="M97.529 57.1967C97.674 57.1273 97.8273 57.0772 97.9853 57.0475C98.1568 57.0063 98.3145 56.9686 98.4809 56.9326C98.8136 56.8605 99.1463 56.7971 99.4825 56.7422C99.4962 56.7422 99.5048 56.7628 99.4825 56.7662C99.1515 56.8382 98.8205 56.9154 98.4929 57.0012L98.0024 57.1332C97.8513 57.1862 97.6949 57.2224 97.5359 57.2413C97.5311 57.2403 97.5267 57.2379 97.5233 57.2343C97.5199 57.2308 97.5176 57.2262 97.5169 57.2214C97.5161 57.2165 97.5169 57.2115 97.5191 57.2071C97.5212 57.2027 97.5247 57.199 97.529 57.1967Z" fill="#263238"/>
<path d="M98.0261 58.5537C98.1574 58.4922 98.2985 58.4545 98.4429 58.4422L98.8974 58.3513C99.201 58.2878 99.5045 58.2261 99.8047 58.1523C99.8201 58.1523 99.827 58.1729 99.8047 58.1764C99.4994 58.2518 99.1958 58.3307 98.8888 58.4045L98.4378 58.5091C98.3035 58.5535 98.1624 58.5738 98.021 58.5691L98.0261 58.5537Z" fill="#263238"/>
<path d="M106.361 50.0056L103.32 52.525C103.32 52.525 100.865 50.0776 99.8664 48.5238C98.8682 46.9699 99.4256 46.2788 101.545 47.21C103.665 48.1413 106.361 50.0056 106.361 50.0056Z" fill="#FF6E06"/>
<path d="M102.978 51.8167C103.348 51.4325 103.756 51.0792 104.159 50.7294C104.562 50.3795 104.969 50.0433 105.394 49.7295C105.394 49.7295 105.413 49.7295 105.406 49.7432C105.017 50.1102 104.614 50.4635 104.206 50.8117C103.797 51.1598 103.408 51.5097 102.988 51.8321C102.978 51.839 102.978 51.8253 102.978 51.8167Z" fill="#263238"/>
<path d="M100.704 49.666C100.937 49.8924 101.16 50.1257 101.39 50.352C101.619 50.5784 101.832 50.8237 102.052 51.0604L102.702 51.779L103.343 52.5044H103.321C103.398 52.4478 103.475 52.3912 103.554 52.3329C103.485 52.3998 103.415 52.465 103.345 52.5302L103.333 52.5405L103.319 52.5284C103.076 52.3141 102.851 52.0825 102.623 51.8527C102.395 51.6229 102.175 51.3845 101.959 51.1444C101.518 50.6728 101.091 50.1805 100.704 49.666Z" fill="#263238"/>
<path d="M101.777 50.87C101.478 50.6988 101.208 50.4798 100.979 50.2217C101.131 50.3045 101.274 50.4015 101.407 50.5115C101.54 50.6198 101.664 50.7398 101.777 50.87Z" fill="#263238"/>
<path d="M98.6387 41.4696C98.8942 40.9105 99.8529 39.7288 101.083 40.2794C102.839 41.0666 102.305 44.6716 102.969 45.9837C104.17 48.3607 103.784 50.3553 102.352 50.3639C100.748 50.3759 99.6334 48.4053 100.487 44.8757C101.021 42.6719 100.618 41.5502 100.162 41.5159C99.7054 41.4816 99.3401 41.9859 99.3401 41.9859L98.6387 41.4696Z" fill="#263238"/>
<path d="M98.75 41.2674C98.9031 41.0178 99.0856 40.7874 99.2937 40.5814C99.5043 40.3654 99.7579 40.196 100.038 40.084C100.327 39.9709 100.645 39.9517 100.945 40.0291C101.243 40.106 101.518 40.2537 101.746 40.4596C101.969 40.6692 102.145 40.9242 102.261 41.2074C102.372 41.4833 102.452 41.771 102.499 42.0649C102.582 42.6495 102.598 43.2414 102.549 43.8297C102.536 43.2454 102.479 42.6629 102.377 42.0872C102.32 41.8056 102.234 41.5304 102.122 41.2657C102.012 41.006 101.849 40.7723 101.643 40.5797C101.435 40.3905 101.184 40.253 100.913 40.1783C100.643 40.1028 100.356 40.1117 100.091 40.2041C99.8206 40.2996 99.5713 40.447 99.3571 40.638C99.2461 40.7324 99.1408 40.8331 99.0416 40.9398C98.9387 41.0439 98.8415 41.1531 98.75 41.2674Z" fill="#263238"/>
<path d="M100.748 43.6636C100.688 44.0186 100.588 44.3667 100.503 44.7149C100.417 45.0631 100.329 45.4146 100.251 45.7577C100.172 46.1007 100.103 46.4591 100.06 46.8124C100.012 47.1636 99.9985 47.5185 100.019 47.8723C100.036 48.2218 100.118 48.565 100.261 48.8842C100.417 49.199 100.627 49.484 100.882 49.7263C101.136 49.9715 101.444 50.153 101.782 50.2562C101.949 50.3079 102.122 50.3373 102.297 50.3437C102.386 50.3477 102.475 50.3449 102.564 50.3351C102.653 50.3292 102.741 50.3101 102.825 50.2785C102.658 50.3518 102.478 50.3892 102.297 50.3883C102.114 50.3946 101.931 50.3767 101.753 50.3351C101.574 50.2903 101.401 50.2241 101.238 50.1379C101.076 50.0508 100.924 49.9449 100.786 49.8223C100.647 49.7007 100.522 49.5657 100.41 49.4193L100.328 49.3078L100.251 49.1946C100.198 49.1176 100.152 49.0367 100.112 48.9528C99.955 48.6165 99.8648 48.2531 99.8458 47.8826C99.8227 47.1548 99.9141 46.4279 100.117 45.7285C100.208 45.3855 100.314 45.0339 100.424 44.6909C100.534 44.3479 100.659 44.01 100.748 43.6636Z" fill="#263238"/>
<path d="M98.5308 41.47C98.5479 41.2985 98.7023 41.1013 98.8086 41.0858C98.9149 41.0704 99.6799 41.518 99.7227 41.7324C99.7656 41.9468 99.3797 42.084 99.3797 42.084L98.5308 41.47Z" fill="#FF6E06"/>
<path d="M99.4808 47.4723C99.467 47.6439 98.8359 48.8444 98.0693 48.9284C97.8189 48.9542 97.6182 47.5958 97.6182 47.5958L97.5805 47.4998L97.0522 46.1432L98.5409 44.8346L98.757 44.6631C98.757 44.6631 98.8771 45.0438 99.0211 45.5206L99.0417 45.5892C99.0518 45.6144 99.0604 45.6402 99.0674 45.6664L99.1343 45.8808C99.1498 45.9357 99.1652 45.9905 99.1806 46.0523C99.1961 46.114 99.2115 46.1672 99.2287 46.2238C99.3412 46.6337 99.4254 47.0509 99.4808 47.4723V47.4723Z" fill="#AD6359"/>
<path d="M99.0211 45.5206C98.9397 45.9364 98.7687 46.3295 98.5199 46.6725C98.2711 47.0155 97.9505 47.3002 97.5805 47.5066L97.0522 46.15L98.5409 44.8414L98.757 44.6699C98.757 44.6699 98.8771 45.0455 99.0211 45.5206Z" fill="#263238"/>
<path d="M94.917 43.8947C94.6152 46.4313 96.1004 46.8978 96.6475 46.9612C97.1449 47.0195 98.8428 47.155 99.4036 44.6648C99.9644 42.1745 98.8805 41.2346 97.752 41.0374C96.6235 40.8402 95.2086 41.3581 94.917 43.8947Z" fill="#AD6359"/>
<path d="M95.3322 43.7833C95.3922 43.7953 95.4488 43.797 95.5037 43.8038C95.5643 43.8212 95.6289 43.8176 95.6872 43.7935C95.7041 43.7827 95.7169 43.7665 95.7234 43.7475C95.7299 43.7285 95.7299 43.7079 95.7232 43.6889C95.705 43.6532 95.6776 43.6229 95.6439 43.6012C95.6101 43.5795 95.5712 43.5672 95.5311 43.5654C95.4502 43.55 95.3664 43.5653 95.2962 43.6083C95.2808 43.6193 95.269 43.6346 95.2621 43.6522C95.2552 43.6698 95.2536 43.689 95.2574 43.7075C95.2612 43.726 95.2703 43.743 95.2836 43.7564C95.2968 43.7699 95.3137 43.7792 95.3322 43.7833Z" fill="#263238"/>
<path d="M97.0197 43.6856C96.9616 43.6745 96.9044 43.6596 96.8482 43.6411C96.7838 43.6349 96.7233 43.6071 96.6767 43.5622C96.665 43.5463 96.6587 43.527 96.6587 43.5073C96.6587 43.4875 96.665 43.4683 96.6767 43.4524C96.707 43.4259 96.7437 43.408 96.7832 43.4005C96.8227 43.393 96.8635 43.3961 96.9014 43.4095C96.9819 43.4262 97.0537 43.4712 97.1038 43.5364C97.1136 43.5512 97.1191 43.5684 97.1198 43.5861C97.1205 43.6038 97.1162 43.6214 97.1075 43.6368C97.0988 43.6523 97.086 43.665 97.0705 43.6736C97.055 43.6822 97.0374 43.6864 97.0197 43.6856V43.6856Z" fill="#263238"/>
<path d="M96.6492 44.3135C96.6492 44.3135 96.6629 44.3135 96.6612 44.3289C96.6441 44.5004 96.6612 44.7045 96.8053 44.7731C96.8053 44.7731 96.8053 44.7834 96.8053 44.7817C96.6132 44.7422 96.6046 44.4747 96.6492 44.3135Z" fill="#263238"/>
<path d="M96.817 44.1436C97.0966 44.1436 97.0794 44.7027 96.817 44.7044C96.5546 44.7061 96.5821 44.1436 96.817 44.1436Z" fill="#263238"/>
<path d="M96.9271 44.1759C96.9734 44.2102 97.0198 44.2668 97.0798 44.2754C97.1398 44.284 97.2015 44.2274 97.2513 44.1725C97.2513 44.2788 97.205 44.3886 97.0884 44.4006C96.9717 44.4126 96.9169 44.3149 96.8877 44.2051C96.8894 44.1914 96.9066 44.1622 96.9271 44.1759Z" fill="#263238"/>
<path d="M95.6716 44.2139C95.6716 44.2139 95.6579 44.2224 95.6579 44.2293C95.6579 44.4008 95.6322 44.6032 95.4727 44.6564V44.6666C95.6665 44.6409 95.7008 44.3751 95.6716 44.2139Z" fill="#263238"/>
<path d="M95.5205 44.0254C95.2427 43.998 95.2066 44.5571 95.4639 44.5828C95.7212 44.6085 95.7555 44.0425 95.5205 44.0254Z" fill="#263238"/>
<path d="M95.4024 44.0546C95.3561 44.082 95.3081 44.1335 95.2549 44.1335C95.2018 44.1335 95.152 44.07 95.1177 44.0083C95.1177 44.0083 95.1177 44.0083 95.1074 44.0083C95.0989 44.1146 95.1263 44.2278 95.2275 44.2553C95.3287 44.2827 95.399 44.1935 95.4281 44.0838C95.4316 44.0752 95.4213 44.0426 95.4024 44.0546Z" fill="#263238"/>
<path d="M96.6318 45.6564C96.5906 45.6976 96.5511 45.7542 96.4877 45.7594C96.4231 45.7594 96.3593 45.7454 96.3007 45.7182C96.3007 45.7182 96.2887 45.7182 96.3007 45.7182C96.3261 45.7524 96.3602 45.779 96.3994 45.7953C96.4387 45.8116 96.4816 45.817 96.5237 45.8108C96.5588 45.8007 96.5902 45.7805 96.614 45.7528C96.6377 45.7251 96.6529 45.691 96.6575 45.6547C96.6489 45.653 96.6318 45.6496 96.6318 45.6564Z" fill="#263238"/>
<path d="M95.9304 44.9957C95.9304 44.9957 95.8841 45.253 95.8772 45.3765C95.8772 45.3868 95.9064 45.3936 95.9475 45.3988C96.0517 45.4223 96.1603 45.4168 96.2616 45.3829C96.3629 45.3491 96.453 45.2881 96.5221 45.2067C96.5233 45.2042 96.5237 45.2014 96.5233 45.1987C96.523 45.196 96.5218 45.1935 96.5199 45.1914C96.5181 45.1894 96.5156 45.188 96.513 45.1873C96.5103 45.1867 96.5075 45.1869 96.5049 45.1878C96.3443 45.2885 96.1552 45.3337 95.9664 45.3165C95.9664 45.2821 96.0625 44.8791 96.0436 44.8757C95.9479 44.8798 95.8533 44.8972 95.7623 44.9271C95.8464 44.3869 96.0144 43.8638 96.0899 43.3253C96.0888 43.3218 96.0866 43.3189 96.0837 43.3167C96.0807 43.3146 96.0772 43.3135 96.0736 43.3135C96.07 43.3135 96.0665 43.3146 96.0635 43.3167C96.0606 43.3189 96.0584 43.3218 96.0573 43.3253C95.8589 43.8814 95.7164 44.4559 95.632 45.0403C95.6251 45.0952 95.8807 45.0146 95.9304 44.9957Z" fill="#263238"/>
<path d="M95.9663 45.3526C96.0334 45.4552 96.1255 45.539 96.2339 45.5962C96.2944 45.624 96.3618 45.6335 96.4277 45.6236C96.5717 45.5979 96.5837 45.4693 96.5666 45.3561C96.5569 45.2971 96.5402 45.2395 96.5168 45.1846C96.3559 45.2978 96.163 45.3566 95.9663 45.3526V45.3526Z" fill="#263238"/>
<path d="M96.2339 45.5964C96.2945 45.6242 96.3618 45.6337 96.4277 45.6238C96.5718 45.5981 96.5838 45.4695 96.5666 45.3563C96.4922 45.353 96.4189 45.375 96.3586 45.4185C96.2982 45.4621 96.2543 45.5248 96.2339 45.5964Z" fill="#FF99BA"/>
<path d="M99.1601 44.7729C98.5324 44.73 98.4175 42.7954 98.4055 42.5587C98.4055 42.708 98.4055 43.502 98.3386 43.5312C98.2714 43.5285 98.2052 43.514 98.1431 43.4883V43.4883C98.1452 43.3932 98.1406 43.2981 98.1293 43.2036C98.1293 43.159 98.1088 43.2979 98.0796 43.4694L97.9647 43.4317C97.9782 43.229 97.9649 43.0255 97.9253 42.8263C97.9098 42.7525 97.8789 43.0887 97.7966 43.3803C97.2673 43.2061 96.7203 43.0911 96.1656 43.0372C96.0095 43.0252 95.8741 43.0235 95.754 43.0252C95.754 42.7903 95.7969 42.5416 95.778 42.5948C95.7262 42.7348 95.6883 42.8795 95.6648 43.027H95.4933C95.4933 42.6959 95.6648 42.1694 95.6082 42.2517C95.4444 42.4959 95.328 42.7688 95.2652 43.0561C95.0388 43.0921 94.9754 43.1333 94.9702 43.075C95.0611 42.4254 95.3796 41.8292 95.8689 41.3925C96.6767 40.6825 98.2477 40.5504 99.0898 41.7167C99.0898 41.7167 99.7998 42.2157 99.8873 42.9824C99.9747 43.749 99.522 44.7969 99.1601 44.7729Z" fill="#263238"/>
<path d="M98.8065 44.7457C98.8065 44.7457 99.3896 43.9671 99.7446 44.1763C100.1 44.3856 99.6452 45.5278 99.2147 45.6736C99.1609 45.6959 99.1031 45.707 99.0449 45.7064C98.9866 45.7058 98.9291 45.6935 98.8758 45.6701C98.8224 45.6467 98.7743 45.6128 98.7344 45.5703C98.6945 45.5279 98.6636 45.4779 98.6436 45.4232L98.8065 44.7457Z" fill="#AD6359"/>
<path d="M99.6061 44.5005C99.6061 44.5005 99.6061 44.5091 99.6061 44.5125C99.4675 44.576 99.3439 44.6679 99.2431 44.7822C99.1424 44.8965 99.0668 45.0308 99.0212 45.1762C99.0395 45.147 99.0639 45.1222 99.0928 45.1033C99.1216 45.0845 99.1542 45.0721 99.1882 45.0671C99.2223 45.062 99.257 45.0644 99.2901 45.0741C99.3231 45.0837 99.3537 45.1004 99.3797 45.1231C99.3797 45.1231 99.3797 45.1402 99.3797 45.1385C99.3279 45.1198 99.2716 45.1178 99.2186 45.1329C99.1657 45.148 99.1188 45.1793 99.0847 45.2225C99.0275 45.2943 98.978 45.3719 98.9372 45.4541C98.9218 45.4798 98.8755 45.4644 98.8858 45.4335C98.8858 45.0476 99.2048 44.5262 99.6061 44.5005Z" fill="#263238"/>
</svg>
