<svg width="19" height="19" viewBox="0 0 19 19" fill="none" xmlns="http://www.w3.org/2000/svg">
<path d="M15.9939 6.8705C15.9865 6.31913 15.8833 5.77324 15.6888 5.25725C15.5202 4.82202 15.2626 4.42675 14.9326 4.0967C14.6025 3.76665 14.2072 3.50907 13.772 3.34043C13.2627 3.14922 12.7246 3.04584 12.1806 3.03467C11.4803 3.00336 11.2582 2.99463 9.48045 2.99463C7.70268 2.99463 7.47481 2.99463 6.77957 3.03467C6.23587 3.04592 5.69802 3.14931 5.18889 3.34043C4.75359 3.50895 4.35826 3.76649 4.02819 4.09655C3.69813 4.42662 3.44059 4.82195 3.27207 5.25725C3.08048 5.76622 2.97732 6.3042 2.96704 6.84793C2.93573 7.549 2.92627 7.77104 2.92627 9.54881C2.92627 11.3266 2.92627 11.5537 2.96704 12.2497C2.97796 12.7942 3.08061 13.3315 3.27207 13.8418C3.44088 14.277 3.6986 14.6722 4.02878 15.0021C4.35896 15.332 4.75432 15.5895 5.18962 15.7579C5.69735 15.9568 6.2353 16.0676 6.7803 16.0855C7.48137 16.1168 7.70341 16.1263 9.48118 16.1263C11.259 16.1263 11.4868 16.1263 12.1821 16.0855C12.726 16.0748 13.2641 15.9717 13.7735 15.7805C14.2086 15.6117 14.6038 15.354 14.9338 15.024C15.2638 14.694 15.5215 14.2988 15.6903 13.8637C15.8818 13.3541 15.9844 12.8168 15.9953 12.2715C16.0266 11.5712 16.0361 11.3492 16.0361 9.57065C16.0346 7.79288 16.0346 7.5672 15.9939 6.8705ZM9.47609 12.9107C7.61677 12.9107 6.11054 11.4045 6.11054 9.54517C6.11054 7.68586 7.61677 6.17963 9.47609 6.17963C10.3687 6.17963 11.2247 6.53421 11.8559 7.16537C12.487 7.79654 12.8416 8.65258 12.8416 9.54517C12.8416 10.4378 12.487 11.2938 11.8559 11.925C11.2247 12.5561 10.3687 12.9107 9.47609 12.9107ZM12.9756 6.83992C12.8725 6.84002 12.7704 6.81979 12.6751 6.78038C12.5799 6.74098 12.4933 6.68317 12.4204 6.61028C12.3476 6.53739 12.2897 6.45084 12.2503 6.35558C12.2109 6.26032 12.1907 6.15823 12.1908 6.05514C12.1908 5.95213 12.2111 5.85013 12.2505 5.75496C12.2899 5.65979 12.3477 5.57331 12.4206 5.50047C12.4934 5.42763 12.5799 5.36985 12.675 5.33043C12.7702 5.29101 12.8722 5.27072 12.9752 5.27072C13.0782 5.27072 13.1802 5.29101 13.2754 5.33043C13.3706 5.36985 13.457 5.42763 13.5299 5.50047C13.6027 5.57331 13.6605 5.65979 13.6999 5.75496C13.7393 5.85013 13.7596 5.95213 13.7596 6.05514C13.7596 6.48903 13.4087 6.83992 12.9756 6.83992Z" fill="#009BFF"/>
<path d="M9.47573 11.7308C10.6831 11.7308 11.6619 10.752 11.6619 9.54458C11.6619 8.33719 10.6831 7.3584 9.47573 7.3584C8.26834 7.3584 7.28955 8.33719 7.28955 9.54458C7.28955 10.752 8.26834 11.7308 9.47573 11.7308Z" fill="#009BFF"/>
</svg>
