<svg width="19" height="19" viewBox="0 0 19 19" fill="none" xmlns="http://www.w3.org/2000/svg">
<path fill-rule="evenodd" clip-rule="evenodd" d="M7.56847 7.35322H10.2723V8.70002C10.6617 7.92543 11.6606 7.22946 13.161 7.22946C16.0373 7.22946 16.7202 8.77136 16.7202 11.6004V16.8398H13.8082V12.2446C13.8082 10.6336 13.4187 9.72504 12.4271 9.72504C11.0519 9.72504 10.4805 10.7042 10.4805 12.2439V16.8398H7.56847V7.35322ZM2.57512 16.716H5.48712V7.22946H2.57512V16.716ZM5.90426 4.13619C5.90437 4.38027 5.85596 4.62193 5.76185 4.84714C5.66775 5.07235 5.52981 5.27661 5.35608 5.44804C5.00402 5.79794 4.52747 5.99379 4.03112 5.99259C3.53563 5.99225 3.06019 5.7969 2.70761 5.44877C2.5345 5.27675 2.39704 5.07227 2.30309 4.84703C2.20915 4.62179 2.16058 4.38023 2.16016 4.13619C2.16016 3.64333 2.35672 3.17159 2.70834 2.8236C3.06061 2.475 3.53625 2.27957 4.03184 2.27979C4.52834 2.27979 5.00445 2.47562 5.35608 2.8236C5.70697 3.17159 5.90426 3.64333 5.90426 4.13619Z" fill="#009BFF"/>
</svg>
