<svg width="121" height="121" viewBox="0 0 121 121" fill="none" xmlns="http://www.w3.org/2000/svg">
<circle cx="60.8272" cy="60.1729" r="60.1729" fill="#FFC100"/>
<path opacity="0.7" d="M19.7428 41.4643C19.7428 41.4643 13.4517 57.7109 22.2926 74.0704C31.1335 90.43 49.3434 99.0723 63.918 106.462C78.4926 113.852 93.6269 110.253 100.818 98.1494C108.01 86.0456 98.1466 77.4055 98.1331 60.1457C98.1195 42.8858 100.717 38.3165 91.3636 23.7351C82.0105 9.15366 59.0824 5.92463 41.7435 16.74C24.4047 27.5553 19.7428 41.4643 19.7428 41.4643Z" fill="white"/>
<path d="M13.6839 69.9952C12.6292 65.1215 13.0849 60.0421 14.9904 55.4341C17.5966 48.9896 23.1972 44.4112 29.4703 41.7395C38.5887 37.8561 47.5379 37.7839 54.9505 30.175C57.2363 27.8283 59.1543 25.1408 61.4943 22.8437C68.3811 16.0742 78.4608 16.8866 85.9884 22.2615C101.689 33.474 107.337 55.6823 106.464 74.0411C106.067 82.2863 102.134 89.9583 95.9079 95.3603C81.8275 107.586 57.92 105.528 41.7523 99.1467C29.6869 94.3878 16.5158 83.2859 13.6839 69.9952Z" fill="#FFC100"/>
<path opacity="0.7" d="M13.6839 69.9952C12.6292 65.1215 13.0849 60.0421 14.9904 55.4341C17.5966 48.9896 23.1972 44.4112 29.4703 41.7395C38.5887 37.8561 47.5379 37.7839 54.9505 30.175C57.2363 27.8283 59.1543 25.1408 61.4943 22.8437C68.3811 16.0742 78.4608 16.8866 85.9884 22.2615C101.689 33.474 107.337 55.6823 106.464 74.0411C106.067 82.2863 102.134 89.9583 95.9079 95.3603C81.8275 107.586 57.92 105.528 41.7523 99.1467C29.6869 94.3878 16.5158 83.2859 13.6839 69.9952Z" fill="white"/>
<path d="M28.5176 47.1102C30.1029 45.5249 30.1029 42.9546 28.5176 41.3693C26.9323 39.784 24.362 39.784 22.7767 41.3693C21.1914 42.9546 21.1914 45.5249 22.7767 47.1102C24.362 48.6955 26.9323 48.6955 28.5176 47.1102Z" stroke="#263238" stroke-width="0.752161" stroke-linecap="round" stroke-linejoin="round"/>
<path d="M95.4296 32.6803C97.1829 32.4253 99.3401 33.2376 99.55 35.2166C99.7418 37.0014 98.5188 38.8269 97.4356 40.138C96.4112 41.3677 95.0032 42.7555 93.4462 43.297C91.6703 43.904 91.0994 42.065 92.1916 40.8781C94.3691 38.511 99.5184 37.3354 102.228 39.3414C105.279 41.5979 103.219 46.3817 100.367 47.8145C99.4394 48.2816 98.6226 47.6904 99.2905 46.7111C99.7959 45.9687 100.759 45.628 101.603 45.4745C103.289 45.1677 105.911 45.5422 106.547 47.4309" stroke="#263238" stroke-width="0.752161" stroke-linecap="round" stroke-linejoin="round"/>
<path d="M91.7407 34.2346C92.5768 33.6667 93.4882 33.2186 94.4485 32.9033" stroke="#263238" stroke-width="0.752161" stroke-linecap="round" stroke-linejoin="round"/>
<path d="M90.0278 35.5616C90.3121 35.2998 90.61 35.0561 90.9169 34.8237" stroke="#263238" stroke-width="0.752161" stroke-linecap="round" stroke-linejoin="round"/>
<path d="M61.9528 17.9045L62.6771 17.1509L53.8452 18.0016L58.8862 20.161" stroke="#263238" stroke-width="0.752161" stroke-linecap="round" stroke-linejoin="round"/>
<path d="M59.2905 20.3348L62.6775 21.7835L60.746 19.1592L61.6689 18.2002" stroke="#263238" stroke-width="0.752161" stroke-linecap="round" stroke-linejoin="round"/>
<path d="M78.4272 18.3016V15.3501" stroke="#263238" stroke-width="0.752161" stroke-linecap="round" stroke-linejoin="round"/>
<path d="M78.4272 20.4726V19.1909" stroke="#263238" stroke-width="0.752161" stroke-linecap="round" stroke-linejoin="round"/>
<path d="M81.5703 20.8807L83.6937 16.4219" stroke="#263238" stroke-width="0.752161" stroke-linecap="round" stroke-linejoin="round"/>
<path d="M87.5503 20.9961L88.5274 20.2334" stroke="#263238" stroke-width="0.752161" stroke-linecap="round" stroke-linejoin="round"/>
<path d="M84.1948 23.5794L86.7356 21.623" stroke="#263238" stroke-width="0.752161" stroke-linecap="round" stroke-linejoin="round"/>
<path d="M15.8733 65.4238L11.3535 64.2437L12.0666 70.4106L19.2083 66.2925L16.2727 65.5276" stroke="#263238" stroke-width="0.752161" stroke-linecap="round" stroke-linejoin="round"/>
<path d="M104.429 63.1606L109.427 64.8891" stroke="#263238" stroke-width="0.752161" stroke-linecap="round" stroke-linejoin="round"/>
<path d="M101.719 87.9501C101.921 88.1715 102.167 88.3488 102.44 88.4711C102.714 88.5933 103.01 88.6579 103.31 88.6607C103.61 88.6634 103.907 88.6044 104.183 88.4873C104.459 88.3701 104.707 88.1974 104.914 87.9798C105.12 87.7622 105.279 87.5045 105.381 87.2226C105.484 86.9408 105.527 86.6409 105.508 86.3417C105.489 86.0425 105.409 85.7504 105.272 85.4836C105.135 85.2168 104.945 84.981 104.713 84.791" stroke="#263238" stroke-width="0.752161" stroke-linecap="round" stroke-linejoin="round"/>
<path d="M104.334 84.5429C103.909 84.3187 103.422 84.2409 102.949 84.3215C102.475 84.4022 102.042 84.6369 101.715 84.9891C101.389 85.3414 101.187 85.7916 101.143 86.2698C101.098 86.7481 101.213 87.2277 101.468 87.6343" stroke="#263238" stroke-width="0.752161" stroke-linecap="round" stroke-linejoin="round"/>
<path d="M19.289 79.6646L17.3462 84.6762" stroke="#263238" stroke-width="0.752161" stroke-linecap="round" stroke-linejoin="round"/>
<path d="M19.923 78.0264L19.6387 78.7575" stroke="#263238" stroke-width="0.752161" stroke-linecap="round" stroke-linejoin="round"/>
<path d="M35.0239 49.3916L40.3853 52.4943" stroke="#263238" stroke-width="0.752161" stroke-linecap="round" stroke-linejoin="round"/>
<path d="M29.0868 30.8384L24.7363 33.65" stroke="#263238" stroke-width="0.752161" stroke-linecap="round" stroke-linejoin="round"/>
<path d="M30.6354 29.8325L29.9585 30.2613" stroke="#263238" stroke-width="0.752161" stroke-linecap="round" stroke-linejoin="round"/>
<path d="M105.5 32.6284V34.5216L106.929 34.1493L105.5 32.6284Z" stroke="#263238" stroke-width="0.752161" stroke-linecap="round" stroke-linejoin="round"/>
<path d="M44.8224 35.3331C44.5809 34.6155 47.2887 31.4316 47.2887 31.4316L48.7554 32.9909C48.7554 32.9909 45.312 36.7389 44.8224 35.3331Z" fill="#FFC100" stroke="#263238" stroke-width="0.752161" stroke-linecap="round" stroke-linejoin="round"/>
<path d="M41.1148 30.7189C41.9023 31.4184 42.4371 30.8791 42.4371 30.8791C42.4193 30.949 42.4157 31.0218 42.4265 31.0932C42.4373 31.1646 42.4622 31.2331 42.4998 31.2947C42.5375 31.3563 42.587 31.4097 42.6456 31.4519C42.7042 31.4941 42.7706 31.5241 42.841 31.5402C43.2065 31.6508 44.6304 30.9671 45.5894 30.9671C45.899 32.5307 46.0382 34.1233 46.0046 35.717C46.0046 35.717 49.299 36.0532 49.7458 33.6861C49.7458 33.6861 49.1208 32.1968 48.6898 30.8294C48.1076 28.9814 48.0286 28.4736 47.724 28.0833C47.2411 27.4695 43.2404 26.4112 42.1686 26.3661C41.0967 26.321 40.5168 30.4052 39.1787 32.2961C39.3334 32.367 39.5046 32.3942 39.6736 32.3747C39.8427 32.3552 40.0032 32.2898 40.1377 32.1856C40.5055 31.9509 41.1148 30.7189 41.1148 30.7189Z" fill="#BFBFBF" stroke="#263238" stroke-width="0.752161" stroke-linecap="round" stroke-linejoin="round"/>
<path d="M41.1143 30.7191C41.7664 29.0787 42.5923 28.404 42.5923 28.404C42.5923 28.404 42.8179 27.8218 42.5923 27.6436" stroke="#263238" stroke-width="0.752161" stroke-linecap="round" stroke-linejoin="round"/>
<path d="M42.4375 30.879C42.4804 30.3893 44.1998 29.8748 44.4006 29.586C44.6015 29.2972 44.4006 28.0674 44.4006 28.0674" stroke="#263238" stroke-width="0.752161" stroke-linecap="round" stroke-linejoin="round"/>
<path d="M45.5894 30.9669C45.8992 30.9402 46.1962 30.8306 46.4491 30.6495C46.702 30.4685 46.9015 30.2227 47.0267 29.938" stroke="#263238" stroke-width="0.752161" stroke-linecap="round" stroke-linejoin="round"/>
<path d="M42.5923 28.4038C42.5923 28.4038 43.1496 28.8055 43.619 28.8055C43.7902 28.8969 43.933 29.0337 44.0317 29.2009C44.1304 29.368 44.1812 29.5591 44.1786 29.7532" stroke="#263238" stroke-width="0.752161" stroke-linecap="round" stroke-linejoin="round"/>
<path d="M42.816 29.2749C42.6825 29.4261 42.5803 29.6023 42.5152 29.7932C42.4502 29.9841 42.4236 30.1861 42.437 30.3873" stroke="#263238" stroke-width="0.752161" stroke-linecap="round" stroke-linejoin="round"/>
<path d="M41.9019 29.613C41.9019 29.613 42.308 29.3445 42.484 29.613" stroke="#263238" stroke-width="0.752161" stroke-linecap="round" stroke-linejoin="round"/>
<path d="M71.4326 45.6364C71.4326 45.6364 68.6504 43.6055 66.2698 43.9711C66.2698 43.9711 53.5951 45.3994 53.2972 45.3994C53.2972 45.3994 49.9125 32.5217 49.2491 31.4318C49.2491 31.4318 49.1318 30.5292 48.773 30.4028C48.773 30.4028 47.277 34.5074 44.8174 35.3332C44.8174 35.3332 45.043 36.114 45.5846 36.114C45.5846 36.114 45.5011 50.1042 47.4642 51.7672C49.4274 53.4303 66.017 54.8022 66.017 54.8022L71.4326 45.6364Z" fill="#FFC100"/>
<path opacity="0.2" d="M62.3547 53.4779L61.5266 54.3805C56.4653 53.8502 48.7684 52.8777 47.4687 51.7765C45.5056 50.1089 45.5891 36.1233 45.5891 36.1233C45.2416 36.1233 45.0227 35.7961 44.9121 35.5637C46.7399 35.4892 48.9738 33.6592 48.9738 33.6592C49.3213 35.6156 46.7782 37.8608 46.7782 37.8608C46.7782 37.8608 46.6451 45.8893 47.7169 49.9329C48.7887 53.9766 62.3547 53.4779 62.3547 53.4779Z" fill="black"/>
<path d="M71.4326 45.6364C71.4326 45.6364 68.6504 43.6055 66.2698 43.9711C66.2698 43.9711 53.5951 45.3994 53.2973 45.3994C53.2973 45.3994 49.9125 32.5217 49.2491 31.4318C49.2491 31.4318 49.1318 30.5292 48.773 30.4028C48.773 30.4028 47.277 34.5074 44.8174 35.3332C44.8174 35.3332 45.043 36.114 45.5846 36.114C45.5846 36.114 45.5011 50.1042 47.4642 51.7672C49.4274 53.4303 66.017 54.8022 66.017 54.8022L71.4326 45.6364Z" stroke="#263238" stroke-width="0.752161" stroke-linecap="round" stroke-linejoin="round"/>
<path d="M67.2535 46.3516C67.2535 46.3516 67.7657 44.6254 70.0425 45.0226C72.3193 45.4197 77.9831 45.5776 80.8398 44.6841C80.8398 44.6841 73.5265 54.1478 69.2166 52.4509C64.9067 50.754 67.2535 46.3516 67.2535 46.3516Z" fill="#BFBFBF" stroke="#263238" stroke-width="0.752161" stroke-linecap="round" stroke-linejoin="round"/>
<path d="M79.4683 25.6285C79.4683 25.6285 78.8071 23.372 77.1644 23.8572C75.5217 24.3423 75.7451 24.2746 74.838 23.7895C73.9309 23.3043 73.3713 23.7195 73.0621 24.4122C72.753 25.105 72.1257 24.9335 71.1577 24.604C70.1896 24.2746 69.3525 24.6988 69.3863 25.6285C69.4202 26.5582 68.1836 25.5901 67.4909 26.6281C66.7981 27.6661 67.2133 27.5961 67.0757 28.4333C66.938 29.2705 65.4826 29.7488 65.7602 30.5115C66.0377 31.2742 67.1434 32.5875 66.1054 33.1426C65.0674 33.6977 64.7199 35.4284 65.7241 35.9474C66.7282 36.4664 64.8892 38.0234 65.5526 39.4427C66.1573 40.7334 67.8361 41.0335 67.0757 42.349C66.9395 42.5485 66.8666 42.7844 66.8666 43.026C66.8666 43.2675 66.9395 43.5035 67.0757 43.7029C67.1152 43.7614 67.1719 43.8061 67.2381 43.8307C67.3042 43.8554 67.3764 43.8587 67.4445 43.8403C67.5126 43.8219 67.5733 43.7827 67.618 43.7281C67.6627 43.6736 67.6893 43.6064 67.694 43.5359C67.7006 43.3581 67.7526 43.1848 67.8452 43.0328C68.1904 42.4799 68.6665 43.0328 69.2239 41.9948C69.2239 41.9948 68.8651 43.1727 70.0497 43.5878C70.668 43.8135 70.7786 44.17 70.7402 44.4724C70.7319 44.5249 70.7402 44.5787 70.764 44.6263C70.7878 44.6738 70.8258 44.7128 70.8728 44.7376C70.9198 44.7625 70.9734 44.772 71.0261 44.7649C71.0788 44.7578 71.128 44.7344 71.1667 44.698C71.2879 44.5712 71.3765 44.4169 71.4248 44.2482C71.4732 44.0796 71.4798 43.9018 71.4442 43.73C71.4442 43.73 73.3826 45.3231 74.768 44.9756C76.1535 44.6281 77.9519 44.1452 78.0219 43.1072C78.241 43.4067 78.3808 43.7568 78.4281 44.1249C78.4322 44.1903 78.4561 44.2529 78.4964 44.3045C78.5368 44.3561 78.5918 44.3943 78.6543 44.414C78.7168 44.4338 78.7838 44.4342 78.8465 44.4152C78.9092 44.3963 78.9647 44.3588 79.0057 44.3077C79.2769 43.9903 79.4411 43.5955 79.4751 43.1794C79.5977 43.5234 79.8373 43.8133 80.152 43.9985C80.2213 44.0323 80.2987 44.0456 80.3753 44.0368C80.4519 44.028 80.5243 43.9975 80.5841 43.9489C80.6439 43.9003 80.6885 43.8355 80.7127 43.7624C80.7369 43.6892 80.7397 43.6106 80.7206 43.5359C80.6721 43.3944 80.6734 43.2404 80.7243 43.0997C80.7751 42.9589 80.8726 42.8398 81.0005 42.762C81.6932 42.3468 82.1761 41.5863 81.7609 40.6161C81.7609 40.6161 82.8034 41.3088 82.4559 42.3468C82.3857 42.5049 82.3586 42.6787 82.3772 42.8507C82.3958 43.0227 82.4595 43.1867 82.5619 43.3261C82.5982 43.3581 82.6437 43.3776 82.6918 43.3817C82.7399 43.3859 82.7881 43.3745 82.8293 43.3493C82.8705 43.324 82.9024 43.2862 82.9205 43.2414C82.9386 43.1966 82.9418 43.1472 82.9297 43.1004C82.8762 42.9777 82.8553 42.8431 82.8691 42.7098C82.883 42.5766 82.9311 42.4492 83.0087 42.34C83.4916 41.5796 84.7417 40.6544 83.7714 39.5826C82.8011 38.5108 83.4826 37.8338 83.4826 37.8338C83.4826 37.8338 83.3449 38.5266 84.5228 38.9756C85.7007 39.4246 84.9741 40.0745 85.0915 40.5551C85.1356 40.7257 85.2244 40.8815 85.3487 41.0064C85.3912 41.0501 85.448 41.077 85.5087 41.0821C85.5694 41.0872 85.6299 41.0701 85.6791 41.0342C85.7283 40.9982 85.7628 40.9456 85.7763 40.8862C85.7898 40.8268 85.7814 40.7645 85.7526 40.7108C85.6809 40.6046 85.6381 40.4815 85.6286 40.3536C85.6191 40.2258 85.6432 40.0977 85.6985 39.982C86.2919 38.9124 84.7304 38.4228 84.5702 37.4886C84.41 36.5544 84.6379 35.5006 84.7304 34.5867C84.8139 33.7947 84.8771 33.19 84.3762 32.5085C84.0512 32.0572 83.6383 31.6556 83.4736 31.1253C83.3837 30.7137 83.3715 30.289 83.4375 29.8729C83.5043 29.4559 83.4796 29.0294 83.3652 28.6228C83.0787 27.8173 82.1219 27.9459 81.7 27.269C81.3028 26.6371 81.6435 25.791 80.8809 25.36C80.6474 25.2491 80.3847 25.2154 80.1308 25.2637C79.8768 25.3119 79.6448 25.4397 79.4683 25.6285Z" fill="#263238"/>
<path d="M71.706 46.5437C72.7936 45.8532 72.2792 43.5854 71.8369 42.2044C71.6293 41.5523 71.4375 41.0965 71.4375 41.0965H71.4556L77.1645 38.1631C76.4424 41.2003 77.1645 45.35 77.1645 45.35" fill="#BFBFBF"/>
<path d="M71.706 46.5437C72.7936 45.8532 72.2792 43.5854 71.8369 42.2044C71.6293 41.5523 71.4375 41.0965 71.4375 41.0965H71.4556L77.1645 38.1631C76.4424 41.2003 77.1645 45.35 77.1645 45.35" stroke="#263238" stroke-width="0.752161" stroke-linecap="round" stroke-linejoin="round"/>
<path d="M73.8452 41.0874C73.6154 41.413 73.3159 41.6833 72.9685 41.8784C72.6211 42.0736 72.2345 42.1888 71.8369 42.2156C71.6293 41.5635 71.4375 41.1077 71.4375 41.1077H71.4556L73.8452 41.0874Z" fill="#263238"/>
<path d="M76.4645 39.8782C78.229 38.768 79.7115 37.0824 80.0748 34.6589C80.7518 30.2272 80.7134 26.1791 73.1001 26.6687C69.765 26.8944 68.472 30.1685 68.4991 31.202C68.56 33.5961 66.651 37.809 69.0158 41.3065C69.3678 41.8255 71.6672 41.8458 74.0884 41.0042" fill="#BFBFBF"/>
<path d="M76.4645 39.8782C78.229 38.768 79.7115 37.0824 80.0748 34.6589C80.7518 30.2272 80.7134 26.1791 73.1001 26.6687C69.765 26.8944 68.472 30.1685 68.4991 31.202C68.56 33.5961 66.651 37.809 69.0158 41.3065C69.3678 41.8255 71.6672 41.8458 74.0884 41.0042" stroke="#263238" stroke-width="0.752161" stroke-linecap="round" stroke-linejoin="round"/>
<path d="M72.4102 31.872C72.4102 31.872 73.6106 31.4208 74.3011 33.1966" stroke="#263238" stroke-width="0.752161" stroke-linecap="round" stroke-linejoin="round"/>
<path d="M69.9254 31.6714C69.5259 31.3476 69.022 31.1807 68.5083 31.202" stroke="#263238" stroke-width="0.752161" stroke-linecap="round" stroke-linejoin="round"/>
<path d="M70.0787 34.2412C69.4559 35.2634 68.6977 34.7557 68.7248 35.2634C68.7542 35.6854 69.729 36.4255 69.729 36.4255" stroke="#263238" stroke-width="0.752161" stroke-linecap="round" stroke-linejoin="round"/>
<path d="M73.3368 34.257C73.2714 34.5346 73.0615 34.7241 72.872 34.6767C72.6824 34.6293 72.5809 34.3699 72.6463 34.0901C72.7118 33.8102 72.9216 33.6252 73.1134 33.6703C73.3052 33.7155 73.4045 33.9795 73.3368 34.257Z" fill="#263238"/>
<path d="M69.6683 33.5733C69.6232 33.8554 69.4291 34.0585 69.2351 34.0246C69.041 33.9908 68.9214 33.7403 68.9666 33.456C69.0117 33.1717 69.2057 32.9708 69.3975 33.0047C69.5893 33.0385 69.7134 33.2913 69.6683 33.5733Z" fill="#263238"/>
<path d="M71.7759 37.4227C71.7018 37.5899 71.6166 37.752 71.5209 37.9079C71.2298 38.3817 70.7131 39.0068 70.0835 38.8105C69.8917 38.7518 69.8037 38.4788 69.7676 38.1854C69.7371 37.9119 69.7325 37.6362 69.7541 37.3618C70.0847 37.4299 70.4208 37.4677 70.7582 37.4746C71.0981 37.5082 71.4412 37.4907 71.7759 37.4227Z" fill="white"/>
<path opacity="0.4" d="M71.7764 37.4229C71.7023 37.5901 71.6171 37.7522 71.5214 37.9081C70.9144 37.7998 70.2284 38.0028 69.7681 38.1879C69.7376 37.9144 69.733 37.6386 69.7546 37.3643L71.7764 37.4229Z" fill="black"/>
<path d="M71.7759 37.4227C71.7018 37.5899 71.6166 37.752 71.5209 37.9079C71.2298 38.3817 70.7131 39.0068 70.0835 38.8105C69.8917 38.7518 69.8037 38.4788 69.7676 38.1854C69.7371 37.9119 69.7325 37.6362 69.7541 37.3618C70.0847 37.4299 70.4208 37.4677 70.7582 37.4746C71.0981 37.5082 71.4412 37.4907 71.7759 37.4227V37.4227Z" stroke="#263238" stroke-width="0.752161" stroke-linecap="round" stroke-linejoin="round"/>
<path d="M73.0619 28.4964C73.0619 28.4964 73.2492 28.0812 73.6238 28.9116C73.9983 29.742 72.4188 30.5679 73.6238 31.1929C74.8287 31.818 74.8784 33.2982 74.3007 33.8736C73.723 34.449 75.2439 34.7266 75.4515 35.2817C75.6591 35.8368 75.0363 36.2858 75.1762 36.9605C75.3161 37.6352 76.1826 38.2986 76.1623 38.6596C76.142 39.0207 75.3861 39.5938 75.9028 40.2076C76.4195 40.8213 77.875 40.4332 78.0149 41.672C78.0149 41.672 82.3767 36.8228 82.4444 32.3121C82.512 27.8014 79.2605 25.9353 75.9457 25.6487C72.6309 25.3622 67.4997 26.9733 67.0845 32.7499C67.0845 32.7499 67.2402 32.3843 67.8472 32.2986C68.4542 32.2128 68.7498 31.396 68.6753 30.4934C68.6008 29.5908 69.2146 30.1459 70.0517 29.9383C70.8889 29.7307 70.6114 28.5551 71.1665 28.3588C71.7215 28.1625 72.1255 29.2591 73.0619 28.4964Z" fill="#263238"/>
<path d="M70.043 26.5513C70.0091 27.1041 68.3123 26.619 67.448 27.1041C66.5838 27.5893 66.7891 28.4196 66.8591 28.9093C66.929 29.399 66.1438 30.0172 65.5052 30.3963C64.8666 30.7754 64.8576 31.5539 65.688 32.2918C66.5184 33.0296 65.8121 33.235 65.0404 33.8939C64.2686 34.5528 64.2957 35.3561 65.0404 35.8322" stroke="#263238" stroke-width="0.752161" stroke-linecap="round" stroke-linejoin="round"/>
<path d="M72.4102 28.1147C72.4102 28.1147 73.825 28.3923 73.4098 29.1888C72.9946 29.9854 72.4102 30.9737 73.6241 31.8673C74.8381 32.7608 73.0984 33.7582 73.8611 34.5548C74.6238 35.3513 75.4 35.3152 74.8381 36.6307C74.2763 37.9462 75.2894 38.278 75.2894 38.278" stroke="#263238" stroke-width="0.752161" stroke-linecap="round" stroke-linejoin="round"/>
<path d="M69.4609 37.2759C69.4609 37.2759 70.8487 37.6347 71.9228 37.3932" stroke="#263238" stroke-width="0.752161" stroke-linecap="round" stroke-linejoin="round"/>
<path d="M79.1591 39.4424C79.0932 39.5411 79.0687 39.6618 79.0911 39.7783C79.1135 39.8949 79.1809 39.998 79.2787 40.0652" stroke="white" stroke-width="0.752161" stroke-linecap="round" stroke-linejoin="round"/>
<path d="M79.2852 37.3979C79.8944 37.7229 80.0727 38.2374 79.68 38.8376" stroke="white" stroke-width="0.752161" stroke-linecap="round" stroke-linejoin="round"/>
<path d="M75.4604 28.8574C75.4605 29.4359 75.6089 30.0047 75.8913 30.5096C76.1738 31.0144 76.5809 31.4385 77.0738 31.7412C77.5251 32.1925 77.2995 32.6438 77.0738 33.3207C77.0738 34.2233 78.4277 34.2233 78.6534 34.9003C78.6534 35.5772 77.5251 36.2542 78.6286 37.0575" stroke="white" stroke-width="0.752161" stroke-linecap="round" stroke-linejoin="round"/>
<path d="M74.9058 26.9756C75.1879 27.3062 75.3633 27.7145 75.409 28.1467" stroke="white" stroke-width="0.752161" stroke-linecap="round" stroke-linejoin="round"/>
<path d="M82.1892 37.8516C82.1458 38.0842 82.1693 38.3244 82.2568 38.5443" stroke="white" stroke-width="0.752161" stroke-linecap="round" stroke-linejoin="round"/>
<path d="M80.804 35.25C80.5625 35.9044 81.1627 35.8457 81.587 35.8954C82.291 35.9766 82.5031 36.4008 82.3451 37.1093" stroke="white" stroke-width="0.752161" stroke-linecap="round" stroke-linejoin="round"/>
<path d="M78.0962 29.1279C78.218 30.4344 80.285 30.2562 79.9239 31.7725C79.7547 32.4743 79.784 32.9008 80.3346 33.492C80.6189 33.8034 81.2192 34.011 80.998 34.5209" stroke="white" stroke-width="0.752161" stroke-linecap="round" stroke-linejoin="round"/>
<path d="M83.3919 34.936C83.3244 35.1698 83.3083 35.4153 83.3445 35.6559" stroke="white" stroke-width="0.752161" stroke-linecap="round" stroke-linejoin="round"/>
<path d="M79.8516 27.4312C80.3029 27.4627 80.1697 28.0404 80.3029 28.3337C80.4856 28.7444 80.8422 28.8482 81.2055 29.0671C81.9298 29.5184 81.8576 29.9291 81.7741 30.6963C81.6771 31.5853 81.9636 31.9531 82.7083 32.3886C83.4529 32.8241 83.8862 33.21 83.6109 34.1464" stroke="white" stroke-width="0.752161" stroke-linecap="round" stroke-linejoin="round"/>
<path d="M68.9505 28.4961C68.2894 28.8143 67.1611 28.8865 67.3507 29.85C67.5402 30.8135 68.3638 31.2558 67.3958 32.0929C66.5789 32.8015 66.6692 33.1738 67.2017 34.0087C67.653 34.7082 67.7771 35.34 67.2198 36.0395" stroke="white" stroke-width="0.752161" stroke-linecap="round" stroke-linejoin="round"/>
<path d="M71.4327 27.0793C70.3044 26.1 70.0788 27.4539 69.5981 28.0744" stroke="white" stroke-width="0.752161" stroke-linecap="round" stroke-linejoin="round"/>
<path d="M68.2982 44.8286C68.2982 44.8286 66.2358 47.1031 68.5645 48.8609C70.8932 50.6187 79.355 44.6909 79.355 44.6909C79.355 44.6909 82.4058 43.9147 84.0079 44.9369C85.61 45.9591 84.1094 58.284 80.8488 63.6138C79.8808 65.1933 78.7209 67.5581 78.7209 67.5581C78.7209 67.5581 79.0481 69.6206 77.173 70.2456C73.61 71.4325 64.4735 71.3738 61.8086 69.8913C58.6811 68.1493 61.8199 68.6886 62.0049 59.2024C62.0049 59.2024 60.6352 55.7003 61.1565 53.1934C61.3505 52.2614 61.9169 50.9075 62.7157 49.5446" fill="#FFC100"/>
<path opacity="0.2" d="M80.8405 63.6183C79.8725 65.1978 78.7126 67.5626 78.7126 67.5626C78.7126 67.5626 79.0398 69.6251 77.1647 70.2501C73.6017 71.437 64.4652 71.3784 61.8003 69.8958C58.6728 68.1538 61.8116 68.6931 61.9966 59.2069C61.6614 58.3032 61.4047 57.3724 61.2294 56.4246C63.2918 57.6138 65.6905 57.4987 65.6905 57.4987C67.7461 53.2385 70.6908 54.0328 70.6908 54.0328C70.6908 54.0328 71.4896 53.3197 72.4103 52.654C73.3309 51.9884 76.2215 52.4938 76.2215 52.4938L79.5882 51.8169C79.525 50.5668 80.748 50.6887 80.748 50.6887L81.2151 51.1264C80.942 50.0929 81.2151 49.4634 81.2151 49.4634L84.1711 53.1776C83.5618 56.9233 82.4042 61.0752 80.8405 63.6183Z" fill="black"/>
<path d="M68.2982 44.8286C68.2982 44.8286 66.2358 47.1031 68.5645 48.8609C70.8932 50.6187 79.355 44.6909 79.355 44.6909C79.355 44.6909 82.4058 43.9147 84.0079 44.9369C85.61 45.9591 84.1094 58.284 80.8488 63.6138C79.8808 65.1933 78.7209 67.5581 78.7209 67.5581C78.7209 67.5581 79.0481 69.6206 77.173 70.2456C73.61 71.4325 64.4735 71.3738 61.8086 69.8913C58.6811 68.1493 61.8199 68.6886 62.0049 59.2024C62.0049 59.2024 60.6352 55.7003 61.1565 53.1934C61.3505 52.2614 61.9169 50.9075 62.7157 49.5446" stroke="#263238" stroke-width="0.752161" stroke-linecap="round" stroke-linejoin="round"/>
<path d="M60.8794 51.2642C60.9522 51.6986 61.1052 52.1156 61.3307 52.4939" stroke="#263238" stroke-width="0.752161" stroke-linecap="round" stroke-linejoin="round"/>
<path d="M60.7553 49.4614C60.7384 49.8324 60.7475 50.2041 60.7824 50.5739" stroke="#263238" stroke-width="0.752161" stroke-linecap="round" stroke-linejoin="round"/>
<path d="M53.3018 45.3994C53.3018 45.3994 51.65 47.0512 51.9614 48.299" stroke="#263238" stroke-width="0.752161" stroke-linecap="round" stroke-linejoin="round"/>
<path d="M52.2139 45.7313C52.5683 45.5312 52.8997 45.2928 53.2022 45.0205" stroke="#263238" stroke-width="0.752161" stroke-linecap="round" stroke-linejoin="round"/>
<path d="M50.8989 46.3359C51.129 46.2579 51.3549 46.1683 51.5759 46.0674" stroke="#263238" stroke-width="0.752161" stroke-linecap="round" stroke-linejoin="round"/>
<path d="M45.5894 36.114C45.5894 36.114 47.9903 35.6243 48.9741 33.6499" stroke="#263238" stroke-width="0.752161" stroke-linecap="round" stroke-linejoin="round"/>
<path d="M71.6587 49.7209C71.9549 49.6526 72.2465 49.566 72.5319 49.4614" stroke="#263238" stroke-width="0.752161" stroke-linecap="round" stroke-linejoin="round"/>
<path d="M67.4956 44.6411C66.8841 45.6091 66.4802 46.9179 66.8751 48.0371C67.4708 49.734 69.3979 50.0815 70.9706 49.8536" stroke="#263238" stroke-width="0.752161" stroke-linecap="round" stroke-linejoin="round"/>
<path d="M67.4844 46.5435C67.4844 46.5435 69.2354 47.8973 70.2621 48.299" stroke="#263238" stroke-width="0.752161" stroke-linecap="round" stroke-linejoin="round"/>
<path d="M79.8898 54.6196C79.8898 54.6196 74.6548 54.8566 72.5924 54.6445C71.2678 54.5068 70.8459 55.1657 69.0362 55.5109C68.3592 55.6418 66.9331 57.7449 66.9331 57.7449L67.1588 60.5C67.1588 60.5 68.7383 61.6396 68.9414 61.3191C69.1445 60.9987 68.3885 60.2586 68.3885 60.2586L69.783 60.4842C69.8002 60.3013 69.7697 60.1171 69.6946 59.9495C69.6194 59.7818 69.5022 59.6364 69.3543 59.5275L70.1644 58.6249C70.1644 58.6249 71.2046 58.9385 72.3442 57.9321L80.1651 58.2323L79.8898 54.6196Z" fill="#BFBFBF"/>
<path opacity="0.2" d="M80.1695 58.2209L72.3486 57.9163C71.209 58.9227 70.1688 58.609 70.1688 58.609L69.3587 59.5116C69.5066 59.6206 69.6238 59.7659 69.699 59.9336C69.7741 60.1012 69.8046 60.2855 69.7874 60.4684L68.3929 60.2427C68.3929 60.2427 69.1489 60.9828 68.9458 61.3033C68.7427 61.6237 67.1631 60.4842 67.1631 60.4842L66.9375 57.729C67.2663 57.2489 67.6211 56.7872 68.0003 56.3458C69.4806 57.2484 73.3234 56.5714 73.3234 56.5714C73.3482 55.9058 73.7431 55.1995 74.0748 54.7143C76.4734 54.7685 79.8942 54.6128 79.8942 54.6128L80.1695 58.2209Z" fill="black"/>
<path d="M79.8898 54.6196C79.8898 54.6196 74.6548 54.8566 72.5924 54.6445C71.2678 54.5068 70.8459 55.1657 69.0362 55.5109C68.3592 55.6418 66.9331 57.7449 66.9331 57.7449L67.1588 60.5C67.1588 60.5 68.7383 61.6396 68.9414 61.3191C69.1445 60.9987 68.3885 60.2586 68.3885 60.2586L69.783 60.4842C69.8002 60.3013 69.7697 60.1171 69.6946 59.9494C69.6194 59.7818 69.5022 59.6364 69.3543 59.5275L70.1644 58.6249C70.1644 58.6249 71.2046 58.9385 72.3442 57.9321L80.1651 58.2323L79.8898 54.6196Z" stroke="#263238" stroke-width="0.752161" stroke-linecap="round" stroke-linejoin="round"/>
<path d="M70.1688 58.6137C70.1688 58.6137 69.3226 58.546 68.9458 57.499" stroke="#263238" stroke-width="0.752161" stroke-linecap="round" stroke-linejoin="round"/>
<path d="M69.8797 58.5366C69.8797 58.5366 68.492 59.6649 67.7271 58.8886" stroke="#263238" stroke-width="0.752161" stroke-linecap="round" stroke-linejoin="round"/>
<path d="M68.3052 59.1553C68.3052 59.1553 68.5308 59.9089 68.3932 60.2587" stroke="#263238" stroke-width="0.752161" stroke-linecap="round" stroke-linejoin="round"/>
<path d="M69.3591 59.5249C69.1425 59.6046 68.9129 59.6429 68.6821 59.6377" stroke="#263238" stroke-width="0.752161" stroke-linecap="round" stroke-linejoin="round"/>
<path d="M97.7389 58.4399V106.803C97.7389 106.88 97.7237 106.956 97.6942 107.027C97.6647 107.098 97.6214 107.163 97.5669 107.217C97.5124 107.271 97.4477 107.314 97.3766 107.344C97.3054 107.373 97.2292 107.388 97.1522 107.388H24.0466C23.9697 107.388 23.8935 107.373 23.8223 107.344C23.7511 107.314 23.6864 107.271 23.6319 107.217C23.5774 107.163 23.5342 107.098 23.5047 107.027C23.4752 106.956 23.46 106.88 23.46 106.803V58.4399C23.46 58.363 23.4752 58.2868 23.5047 58.2157C23.5342 58.1447 23.5774 58.0801 23.6319 58.0258C23.6864 57.9716 23.7511 57.9285 23.8223 57.8993C23.8935 57.8701 23.9697 57.8552 24.0466 57.8555H97.1567C97.3113 57.8561 97.4594 57.9179 97.5685 58.0274C97.6777 58.137 97.7389 58.2853 97.7389 58.4399Z" fill="white"/>
<path opacity="0.2" d="M97.7387 58.4394V60.6236C95.6943 61.3367 92.6932 61.885 90.2652 61.7677C87.0046 61.6097 74.8151 58.8613 70.4849 57.8662H97.1565C97.3092 57.8668 97.4556 57.9271 97.5644 58.0342C97.6732 58.1413 97.7357 58.2867 97.7387 58.4394Z" fill="black"/>
<path d="M97.7389 58.4399V106.803C97.7389 106.88 97.7237 106.956 97.6942 107.027C97.6647 107.098 97.6214 107.163 97.5669 107.217C97.5124 107.271 97.4477 107.314 97.3766 107.344C97.3054 107.373 97.2292 107.388 97.1522 107.388H24.0466C23.9697 107.388 23.8935 107.373 23.8223 107.344C23.7511 107.314 23.6864 107.271 23.6319 107.217C23.5774 107.163 23.5342 107.098 23.5047 107.027C23.4752 106.956 23.46 106.88 23.46 106.803V58.4399C23.46 58.363 23.4752 58.2868 23.5047 58.2157C23.5342 58.1447 23.5774 58.0801 23.6319 58.0258C23.6864 57.9716 23.7511 57.9285 23.8223 57.8993C23.8935 57.8701 23.9697 57.8552 24.0466 57.8555H97.1567C97.3113 57.8561 97.4594 57.9179 97.5685 58.0274C97.6776 58.137 97.7389 58.2853 97.7389 58.4399Z" stroke="#263238" stroke-width="0.752161" stroke-miterlimit="10"/>
<path d="M29.2659 57.8555V107.388H24.0466C23.9697 107.388 23.8935 107.373 23.8223 107.344C23.7511 107.314 23.6864 107.271 23.6319 107.217C23.5774 107.163 23.5342 107.098 23.5047 107.027C23.4752 106.956 23.46 106.88 23.46 106.803V58.4399C23.46 58.363 23.4752 58.2868 23.5047 58.2157C23.5342 58.1447 23.5774 58.0801 23.6319 58.0258C23.6864 57.9716 23.7511 57.9285 23.8223 57.8993C23.8935 57.8701 23.9697 57.8552 24.0466 57.8555H29.2659Z" fill="#263238"/>
<path d="M26.3665 60.1499L24.7373 61.0638L26.3665 61.9799L27.9934 61.0638L26.3665 60.1499Z" fill="#FFC100"/>
<path d="M26.3665 62.3484L25.2247 61.7075L24.7373 61.9806L26.3665 62.8944L27.9934 61.9806L27.506 61.7075L26.3665 62.3484Z" fill="#FFC100"/>
<path d="M26.3665 63.2642L25.2247 62.6211L24.7373 62.8941L26.3665 63.8103L27.9934 62.8941L27.506 62.6211L26.3665 63.2642Z" fill="#FFC100"/>
<path d="M44.1746 67.1251C44.1743 67.9223 44.017 68.7115 43.7116 69.4478C43.4063 70.1842 42.959 70.8531 42.3951 71.4166C41.8313 71.98 41.1619 72.4269 40.4254 72.7316C39.6888 73.0364 38.8995 73.1931 38.1024 73.1928C37.8603 73.1933 37.6184 73.179 37.378 73.15C36.2168 73.01 35.1208 72.5375 34.2218 71.7893C33.3228 71.0412 32.6591 70.0492 32.3105 68.9328C31.9619 67.8164 31.9433 66.623 32.2569 65.4962C32.5705 64.3695 33.2029 63.3573 34.0781 62.5814C34.9534 61.8056 36.0341 61.2991 37.1903 61.123C38.3466 60.9468 39.5291 61.1084 40.5956 61.5884C41.6622 62.0684 42.5674 62.8463 43.2023 63.8285C43.8372 64.8108 44.1748 65.9556 44.1746 67.1251Z" fill="#FFC100"/>
<path opacity="0.6" d="M44.1746 67.1251C44.1743 67.9223 44.017 68.7115 43.7116 69.4478C43.4063 70.1842 42.959 70.8531 42.3951 71.4166C41.8313 71.98 41.1619 72.4269 40.4254 72.7316C39.6888 73.0364 38.8995 73.1931 38.1024 73.1928C37.8603 73.1933 37.6184 73.179 37.378 73.15C36.2168 73.01 35.1208 72.5375 34.2218 71.7893C33.3228 71.0412 32.6591 70.0492 32.3105 68.9328C31.9619 67.8164 31.9433 66.623 32.2569 65.4962C32.5705 64.3695 33.2029 63.3573 34.0781 62.5814C34.9534 61.8056 36.0341 61.2991 37.1903 61.123C38.3466 60.9468 39.5291 61.1084 40.5956 61.5884C41.6622 62.0684 42.5674 62.8463 43.2023 63.8285C43.8372 64.8108 44.1748 65.9556 44.1746 67.1251Z" fill="white"/>
<path d="M44.1746 67.1251C44.1743 67.9223 44.017 68.7115 43.7116 69.4478C43.4063 70.1842 42.959 70.8531 42.3951 71.4166C41.8313 71.98 41.1619 72.4269 40.4254 72.7316C39.6888 73.0364 38.8995 73.1931 38.1024 73.1928C37.8603 73.1933 37.6184 73.179 37.378 73.15C36.2168 73.01 35.1208 72.5375 34.2218 71.7893C33.3228 71.0412 32.6591 70.0492 32.3105 68.9328C31.9619 67.8164 31.9433 66.623 32.2569 65.4962C32.5705 64.3695 33.2029 63.3573 34.0781 62.5814C34.9534 61.8056 36.0341 61.2991 37.1903 61.123C38.3466 60.9468 39.5291 61.1084 40.5956 61.5884C41.6622 62.0684 42.5674 62.8463 43.2023 63.8285C43.8372 64.8108 44.1748 65.9556 44.1746 67.1251V67.1251Z" stroke="#263238" stroke-width="0.752161" stroke-linecap="round" stroke-linejoin="round"/>
<path d="M40.6205 72.6467C39.8301 73.0075 38.9712 73.1937 38.1023 73.1928C37.8602 73.1933 37.6183 73.179 37.378 73.1499C36.0421 72.1887 34.8281 70.6182 34.8281 70.6182C35.1092 70.701 35.3968 70.7599 35.6878 70.7942C35.8932 70.8212 36.1121 70.8393 36.3355 70.8551C36.9923 70.8946 37.6508 70.8946 38.3076 70.8551C38.6799 70.8303 39.0094 70.7964 39.2441 70.7558C39.399 70.7144 39.5615 70.7102 39.7183 70.7435C39.8752 70.7769 40.022 70.8468 40.1467 70.9476C40.2577 71.0403 40.3419 71.1611 40.3904 71.2974C40.5987 71.7145 40.6788 72.1841 40.6205 72.6467Z" fill="#BFBFBF" stroke="#263238" stroke-width="0.752161" stroke-linecap="round" stroke-linejoin="round"/>
<path d="M35.3903 62.8218C35.3903 62.8218 35.6611 61.8989 36.3312 62.0975C37.0014 62.2961 36.9112 62.269 37.2835 62.0704C37.3445 62.0257 37.4155 61.9964 37.4904 61.9852C37.5652 61.9739 37.6417 61.981 37.7132 62.0059C37.7847 62.0308 37.849 62.0726 37.9008 62.1279C37.9525 62.1832 37.99 62.2502 38.0101 62.3231C38.1364 62.6075 38.3937 62.5488 38.7886 62.4021C39.1834 62.2554 39.5309 62.4405 39.5129 62.8218C39.4948 63.2032 40.0048 62.806 40.2891 63.2302C40.5734 63.6545 40.4019 63.6274 40.4584 63.9659C40.5148 64.3043 41.1105 64.5052 40.9977 64.8166C40.8848 65.1279 40.4313 65.665 40.8555 65.8929C41.2797 66.1208 41.4219 66.8271 41.0112 67.0392C40.6005 67.2513 41.3542 67.8899 41.0811 68.4698C40.8352 68.9978 40.147 69.1219 40.4584 69.659C40.5153 69.7407 40.5459 69.838 40.5459 69.9376C40.5459 70.0373 40.5153 70.1346 40.4584 70.2163C40.4425 70.2406 40.4194 70.2593 40.3923 70.2697C40.3652 70.28 40.3355 70.2816 40.3075 70.2741C40.2794 70.2666 40.2545 70.2504 40.2362 70.2279C40.2179 70.2053 40.2072 70.1776 40.2056 70.1486C40.2032 70.0761 40.1822 70.0054 40.1447 69.9433C40.0025 69.7176 39.8085 69.9433 39.5806 69.5168C39.6217 69.6482 39.6092 69.7905 39.5458 69.9126C39.4824 70.0348 39.3732 70.127 39.2421 70.1689C38.9894 70.2569 38.9443 70.4081 38.9601 70.5322C38.9631 70.5535 38.9594 70.5752 38.9495 70.5943C38.9397 70.6134 38.9242 70.629 38.9051 70.6389C38.8861 70.6488 38.8644 70.6525 38.8431 70.6496C38.8218 70.6466 38.802 70.6372 38.7863 70.6225C38.7373 70.57 38.7014 70.5067 38.6818 70.4376C38.6622 70.3685 38.6593 70.2957 38.6735 70.2253C38.6735 70.2253 37.8792 70.8775 37.3196 70.7353C36.76 70.5932 36.0176 70.3946 35.9883 69.9704C35.8983 70.0932 35.8408 70.2368 35.8213 70.3878C35.8176 70.4122 35.8073 70.435 35.7914 70.4538C35.7755 70.4727 35.7547 70.4867 35.7314 70.4944C35.708 70.5021 35.6829 70.5032 35.6589 70.4975C35.635 70.4919 35.6131 70.4797 35.5956 70.4623C35.4854 70.3317 35.4184 70.17 35.4038 69.9997C35.3463 70.1413 35.2398 70.2574 35.1037 70.3269C35.0756 70.339 35.0447 70.3431 35.0145 70.3387C34.9842 70.3343 34.9557 70.3215 34.9323 70.3019C34.9089 70.2822 34.8914 70.2564 34.8818 70.2273C34.8722 70.1982 34.8709 70.1671 34.8781 70.1373C34.8984 70.0797 34.8982 70.0169 34.8777 69.9594C34.8571 69.9019 34.8174 69.8532 34.7652 69.8214C34.6109 69.7428 34.4925 69.6079 34.4346 69.4446C34.3767 69.2813 34.3836 69.102 34.4539 68.9437C34.4539 68.9437 34.0274 69.228 34.1695 69.6522C34.1981 69.7167 34.2091 69.7875 34.2016 69.8576C34.1941 69.9278 34.1682 69.9946 34.1267 70.0516C34.1138 70.069 34.0949 70.081 34.0737 70.0854C34.0525 70.0898 34.0304 70.0862 34.0117 70.0753C33.993 70.0644 33.9789 70.047 33.9722 70.0263C33.9656 70.0057 33.9667 69.9834 33.9755 69.9636C33.9971 69.9133 34.0055 69.8583 34 69.8038C33.9944 69.7493 33.9751 69.6972 33.9439 69.6522C33.7453 69.3408 33.2331 68.9617 33.6302 68.524C34.0274 68.0862 33.7453 67.8109 33.7453 67.8109C33.7453 67.8109 33.8017 68.0952 33.3211 68.278C32.8405 68.4608 33.1383 68.7293 33.0955 68.9211C33.0782 68.9917 33.0424 69.0564 32.9917 69.1084C32.9745 69.1278 32.9508 69.1401 32.9251 69.1429C32.8994 69.1457 32.8735 69.1388 32.8526 69.1236C32.8317 69.1083 32.8173 69.0858 32.8121 69.0605C32.8069 69.0351 32.8114 69.0088 32.8247 68.9865C32.8541 68.9432 32.8717 68.8929 32.8756 68.8406C32.8796 68.7884 32.8698 68.736 32.8472 68.6887C32.6058 68.2532 33.2444 68.0501 33.3098 67.6688C33.3378 67.2718 33.3151 66.873 33.2421 66.4818C33.2083 66.1592 33.1835 65.911 33.3865 65.6334C33.5406 65.4675 33.6644 65.2758 33.7521 65.067C33.7899 64.8988 33.7953 64.725 33.7679 64.5548C33.7402 64.384 33.7502 64.2091 33.7972 64.0426C33.9146 63.7131 34.3072 63.7695 34.4742 63.492C34.6411 63.2145 34.4967 62.885 34.8104 62.7113C34.9061 62.6652 35.0142 62.6511 35.1186 62.671C35.2229 62.6909 35.3182 62.7437 35.3903 62.8218Z" fill="#263238"/>
<path d="M38.565 71.3786C38.1137 71.0943 38.3394 70.1669 38.5109 69.6027C38.5966 69.3365 38.6734 69.1514 38.6734 69.1514L36.3379 67.9487C36.6335 69.1898 36.3379 70.8822 36.3379 70.8822" fill="#BFBFBF"/>
<path d="M38.565 71.3786C38.1137 71.0943 38.3394 70.1669 38.5109 69.6027C38.5966 69.3365 38.6734 69.1514 38.6734 69.1514L36.3379 67.9487C36.6335 69.1898 36.3379 70.8822 36.3379 70.8822" stroke="#263238" stroke-width="0.752161" stroke-linecap="round" stroke-linejoin="round"/>
<path d="M37.6895 69.1445C37.7842 69.2761 37.9071 69.3849 38.0491 69.463C38.1912 69.541 38.349 69.5864 38.5108 69.5958C38.5966 69.3296 38.6733 69.1445 38.6733 69.1445H37.6895Z" fill="#263238"/>
<path d="M36.6174 68.6505C36.2286 68.4258 35.8943 68.1179 35.6384 67.7488C35.3824 67.3798 35.2113 66.9587 35.1372 66.5158C34.8574 64.7106 34.8754 63.0476 37.9894 63.2484C39.3545 63.3342 39.8826 64.6791 39.8713 65.101C39.8464 66.0803 40.6294 67.8088 39.6614 69.2349C39.517 69.447 38.576 69.4605 37.5855 69.1108" fill="#BFBFBF"/>
<path d="M36.6174 68.6505C36.2286 68.4258 35.8943 68.1179 35.6384 67.7488C35.3824 67.3798 35.2113 66.9587 35.1372 66.5158C34.8574 64.7106 34.8754 63.0476 37.9894 63.2484C39.3545 63.3342 39.8826 64.6791 39.8713 65.101C39.8464 66.0803 40.6294 67.8088 39.6614 69.2349C39.517 69.447 38.576 69.4605 37.5855 69.1108" stroke="#263238" stroke-width="0.752161" stroke-linecap="round" stroke-linejoin="round"/>
<path d="M38.2759 65.376C38.2759 65.376 37.7863 65.1955 37.502 65.9176" stroke="#263238" stroke-width="0.752161" stroke-linecap="round" stroke-linejoin="round"/>
<path d="M39.2935 65.2926C39.4563 65.1605 39.6616 65.0924 39.8711 65.1008" stroke="#263238" stroke-width="0.752161" stroke-linecap="round" stroke-linejoin="round"/>
<path d="M39.228 66.3467C39.483 66.7641 39.7921 66.5565 39.7786 66.7641C39.7673 66.9356 39.3679 67.238 39.3679 67.238" stroke="#263238" stroke-width="0.752161" stroke-linecap="round" stroke-linejoin="round"/>
<path d="M37.8973 66.3508C37.9244 66.4658 38.0101 66.5426 38.0868 66.5245C38.1636 66.5065 38.2064 66.3981 38.1794 66.2831C38.1523 66.168 38.0665 66.0935 37.9898 66.1116C37.9131 66.1296 37.8702 66.2379 37.8973 66.3508Z" fill="#263238"/>
<path d="M39.3906 66.0713C39.4087 66.1887 39.4899 66.2699 39.5689 66.2586C39.6479 66.2473 39.6975 66.1413 39.6772 66.033C39.6569 65.9247 39.5802 65.8344 39.5012 65.8457C39.4222 65.857 39.3906 65.9562 39.3906 66.0713Z" fill="#263238"/>
<path d="M38.5356 67.6464C38.5356 67.6464 38.8267 68.3391 39.2284 68.215C39.4112 68.1586 39.3638 67.6216 39.3638 67.6216" fill="white"/>
<path d="M38.5356 67.6464C38.5356 67.6464 38.8267 68.3391 39.2284 68.215C39.4112 68.1586 39.3638 67.6216 39.3638 67.6216" stroke="#263238" stroke-width="0.752161" stroke-linecap="round" stroke-linejoin="round"/>
<path d="M38.0099 63.9954C38.0099 63.9954 37.9332 63.8261 37.7843 64.1646C37.6353 64.5031 38.2762 64.8415 37.7843 65.0988C37.2923 65.356 37.2698 65.9585 37.5067 66.1954C37.7436 66.4324 37.1208 66.5429 37.0374 66.7708C36.9539 66.9987 37.2066 67.1815 37.1502 67.4478C37.0938 67.714 36.7372 67.9961 36.7463 68.1428C36.7553 68.2894 37.0644 68.5264 36.8523 68.7768C36.6402 69.0273 36.0445 68.8739 35.9881 69.3748C35.9881 69.3748 34.2055 67.3914 34.1829 65.5388C34.1603 63.6862 35.4849 62.9303 36.8456 62.8152C38.2062 62.7001 40.3002 63.359 40.4695 65.7216C40.4375 65.667 40.3921 65.6216 40.3376 65.5896C40.2831 65.5576 40.2213 65.5401 40.1581 65.5388C39.9099 65.5049 39.7903 65.1665 39.8196 64.7987C39.8489 64.4309 39.5939 64.6565 39.2555 64.573C38.917 64.4895 39.0298 64.0066 38.8042 63.9209C38.5785 63.8351 38.3935 64.3067 38.0099 63.9954Z" fill="#263238"/>
<path d="M39.2441 63.2012C39.2577 63.4268 39.9527 63.2305 40.3069 63.4268C40.6612 63.6231 40.5755 63.9661 40.5461 64.1647C40.5168 64.3633 40.8395 64.616 41.1035 64.7739C41.3675 64.9319 41.3675 65.2455 41.029 65.5479C40.6905 65.8503 40.9771 65.9338 41.293 66.2023C41.6089 66.4708 41.5977 66.8003 41.293 66.9966" stroke="#263238" stroke-width="0.752161" stroke-linecap="round" stroke-linejoin="round"/>
<path d="M38.2759 63.8398C38.2759 63.8398 37.6983 63.9527 37.8675 64.2776C38.0367 64.6025 38.2759 65.0087 37.7795 65.3743C37.2831 65.7398 37.9938 66.1482 37.6825 66.4732C37.3711 66.7981 37.0529 66.7846 37.2831 67.3239C37.5132 67.8632 37.1025 68.0008 37.1025 68.0008" stroke="#263238" stroke-width="0.752161" stroke-linecap="round" stroke-linejoin="round"/>
<path d="M39.483 67.5854C39.1542 67.669 38.812 67.6859 38.4766 67.6351" stroke="#263238" stroke-width="0.752161" stroke-linecap="round" stroke-linejoin="round"/>
<path d="M42.3039 71.5025C41.1747 72.5882 39.6687 73.194 38.1023 73.1926C37.8602 73.1931 37.6183 73.1788 37.378 73.1497C35.8109 72.9615 34.379 72.1698 33.3862 70.9429C33.4086 70.8534 33.4602 70.774 33.5329 70.7173C34.1895 70.2998 35.4351 70.618 35.4351 70.618L35.6878 70.7895C36.5024 71.3265 39.0523 72.9241 39.8488 72.3216C39.9595 72.2511 40.055 72.1593 40.1298 72.0514C40.2046 71.9435 40.257 71.8218 40.2841 71.6934C40.3112 71.565 40.3125 71.4325 40.2877 71.3036C40.2629 71.1747 40.2127 71.0521 40.1399 70.9429C40.0895 70.8472 40.029 70.7572 39.9594 70.6744C39.9594 70.6744 41.038 70.2411 42.3039 71.5025Z" fill="#FFC100" stroke="#263238" stroke-width="0.752161" stroke-linecap="round" stroke-linejoin="round"/>
<path d="M44.8536 72.5752C45.6767 71.7522 45.6767 70.4177 44.8536 69.5947C44.0306 68.7716 42.6961 68.7716 41.8731 69.5947C41.05 70.4177 41.05 71.7522 41.8731 72.5752C42.6961 73.3983 44.0306 73.3983 44.8536 72.5752Z" fill="#263238"/>
<path d="M43.6827 69.9771H43.0442C42.608 69.9771 42.2544 70.3306 42.2544 70.7668V71.4054C42.2544 71.8416 42.608 72.1952 43.0442 72.1952H43.6827C44.1189 72.1952 44.4725 71.8416 44.4725 71.4054V70.7668C44.4725 70.3306 44.1189 69.9771 43.6827 69.9771Z" stroke="white" stroke-width="0.752161" stroke-miterlimit="10"/>
<path d="M43.7705 71.0849C43.7709 71.1659 43.7473 71.2451 43.7026 71.3126C43.6579 71.3801 43.5941 71.4328 43.5194 71.464C43.4447 71.4952 43.3623 71.5035 43.2829 71.4878C43.2035 71.4721 43.1305 71.4332 43.0732 71.3759C43.016 71.3187 42.977 71.2457 42.9614 71.1663C42.9457 71.0868 42.9539 71.0045 42.9851 70.9298C43.0163 70.8551 43.069 70.7913 43.1365 70.7466C43.204 70.7019 43.2833 70.6783 43.3643 70.6787C43.472 70.6787 43.5753 70.7215 43.6515 70.7977C43.7277 70.8739 43.7705 70.9772 43.7705 71.0849Z" stroke="white" stroke-width="0.752161" stroke-miterlimit="10"/>
<path d="M44.1046 70.5525C44.1071 70.5716 44.1055 70.591 44.0999 70.6094C44.0942 70.6278 44.0848 70.6449 44.0721 70.6593C44.0594 70.6738 44.0437 70.6854 44.0262 70.6933C44.0086 70.7012 43.9896 70.7054 43.9704 70.7054C43.9511 70.7054 43.9321 70.7012 43.9145 70.6933C43.897 70.6854 43.8813 70.6738 43.8686 70.6593C43.8559 70.6449 43.8465 70.6278 43.8408 70.6094C43.8352 70.591 43.8336 70.5716 43.8361 70.5525C43.8403 70.5199 43.8563 70.4899 43.881 70.4682C43.9057 70.4465 43.9375 70.4346 43.9704 70.4346C44.0032 70.4346 44.035 70.4465 44.0597 70.4682C44.0844 70.4899 44.1004 70.5199 44.1046 70.5525Z" fill="white"/>
<path d="M54.2292 66.3125H46.5571C46.3423 66.3125 46.1363 66.3978 45.9843 66.5498C45.8324 66.7017 45.7471 66.9077 45.7471 67.1226C45.7471 67.3374 45.8324 67.5435 45.9843 67.6954C46.1363 67.8473 46.3423 67.9327 46.5571 67.9327H54.2292C54.444 67.9327 54.6501 67.8473 54.802 67.6954C54.9539 67.5435 55.0393 67.3374 55.0393 67.1226C55.0393 66.9077 54.9539 66.7017 54.802 66.5498C54.6501 66.3978 54.444 66.3125 54.2292 66.3125Z" fill="#263238"/>
<path opacity="0.6" d="M65.3698 60.5879H59.8369C59.6819 60.5879 59.5332 60.6495 59.4236 60.7591C59.314 60.8687 59.2524 61.0173 59.2524 61.1723C59.2524 61.3273 59.314 61.476 59.4236 61.5856C59.5332 61.6952 59.6819 61.7567 59.8369 61.7567H65.3698C65.5248 61.7567 65.6734 61.6952 65.783 61.5856C65.8926 61.476 65.9542 61.3273 65.9542 61.1723C65.9542 61.0173 65.8926 60.8687 65.783 60.7591C65.6734 60.6495 65.5248 60.5879 65.3698 60.5879Z" fill="#263238"/>
<path d="M57.1333 59.1553V106.117" stroke="#263238" stroke-width="0.752161" stroke-miterlimit="10"/>
<path d="M35.5684 83.7979C37.105 83.7979 38.3506 82.5522 38.3506 81.0156C38.3506 79.479 37.105 78.2334 35.5684 78.2334C34.0318 78.2334 32.7861 79.479 32.7861 81.0156C32.7861 82.5522 34.0318 83.7979 35.5684 83.7979Z" fill="#BFBFBF" stroke="#263238" stroke-width="0.752161" stroke-miterlimit="10"/>
<path d="M39.3323 82.8165C39.3323 83.0107 39.2747 83.2004 39.1669 83.3619C39.059 83.5233 38.9057 83.6491 38.7263 83.7234C38.547 83.7977 38.3496 83.8171 38.1592 83.7792C37.9688 83.7414 37.7939 83.6479 37.6566 83.5106C37.5194 83.3733 37.4259 83.1984 37.388 83.008C37.3501 82.8176 37.3696 82.6203 37.4439 82.4409C37.5182 82.2615 37.644 82.1082 37.8054 82.0004C37.9668 81.8925 38.1566 81.835 38.3507 81.835C38.611 81.835 38.8607 81.9384 39.0448 82.1225C39.2289 82.3065 39.3323 82.5562 39.3323 82.8165Z" fill="#FFC100" stroke="#263238" stroke-width="0.752161" stroke-linecap="round" stroke-linejoin="round"/>
<path d="M35.5684 92.9346C37.105 92.9346 38.3506 91.689 38.3506 90.1524C38.3506 88.6158 37.105 87.3701 35.5684 87.3701C34.0318 87.3701 32.7861 88.6158 32.7861 90.1524C32.7861 91.689 34.0318 92.9346 35.5684 92.9346Z" fill="#BFBFBF" stroke="#263238" stroke-width="0.752161" stroke-miterlimit="10"/>
<path d="M39.3323 91.9508C39.3323 92.1449 39.2747 92.3347 39.1669 92.4961C39.059 92.6576 38.9057 92.7834 38.7263 92.8577C38.547 92.932 38.3496 92.9514 38.1592 92.9135C37.9688 92.8756 37.7939 92.7822 37.6566 92.6449C37.5194 92.5076 37.4259 92.3327 37.388 92.1423C37.3501 91.9519 37.3696 91.7545 37.4439 91.5752C37.5182 91.3958 37.644 91.2425 37.8054 91.1347C37.9668 91.0268 38.1566 90.9692 38.3507 90.9692C38.6109 90.9698 38.8602 91.0734 39.0441 91.2574C39.2281 91.4413 39.3317 91.6907 39.3323 91.9508Z" fill="#FFC100" stroke="#263238" stroke-width="0.752161" stroke-linecap="round" stroke-linejoin="round"/>
<path d="M37.5358 101.253C38.6224 100.166 38.6224 98.4043 37.5358 97.3178C36.4493 96.2313 34.6877 96.2313 33.6011 97.3178C32.5146 98.4043 32.5146 100.166 33.6011 101.252C34.6877 102.339 36.4493 102.339 37.5358 101.253Z" fill="#BFBFBF" stroke="#263238" stroke-width="0.752161" stroke-miterlimit="10"/>
<path d="M39.3323 101.087C39.3318 101.281 39.2739 101.471 39.1658 101.632C39.0576 101.793 38.9042 101.919 38.7248 101.993C38.5454 102.067 38.3481 102.086 38.1578 102.048C37.9676 102.009 37.7929 101.916 37.6558 101.778C37.5188 101.641 37.4255 101.466 37.3878 101.276C37.3501 101.085 37.3697 100.888 37.4441 100.709C37.5184 100.53 37.6442 100.377 37.8056 100.269C37.967 100.161 38.1567 100.104 38.3507 100.104C38.4798 100.104 38.6076 100.129 38.7269 100.178C38.8461 100.228 38.9544 100.3 39.0456 100.392C39.1368 100.483 39.209 100.592 39.2582 100.711C39.3074 100.83 39.3326 100.958 39.3323 101.087Z" fill="#FFC100" stroke="#263238" stroke-width="0.752161" stroke-linecap="round" stroke-linejoin="round"/>
<g opacity="0.3">
<path opacity="0.4" d="M95.9987 63.6113H59.9355V74.3612H95.9987V63.6113Z" fill="black"/>
<path opacity="0.4" d="M95.9987 92.043H59.9355V102.793H95.9987V92.043Z" fill="black"/>
<path opacity="0.4" d="M95.9987 75.3452H59.9355V86.0951H95.9987V75.3452Z" fill="black"/>
</g>
<path d="M95.3219 63.1602H59.2588V73.9101H95.3219V63.1602Z" fill="#FFC100"/>
<path opacity="0.6" d="M95.3219 63.1602H59.2588V73.9101H95.3219V63.1602Z" fill="white"/>
<path d="M95.3219 63.1602H59.2588V73.9101H95.3219V63.1602Z" stroke="#263238" stroke-width="0.752161" stroke-miterlimit="10"/>
<path d="M69.9843 64.2432H60.5093V71.4729H69.9843V64.2432Z" fill="#263238"/>
<path opacity="0.3" d="M69.9843 69.7223V71.4733H60.5093V69.8441L63.5036 67.626L66.5837 69.8441L68.3235 68.7339L69.9843 69.7223Z" fill="white"/>
<path opacity="0.3" d="M67.5965 66.2921C67.5969 66.4811 67.5413 66.6659 67.4366 66.8232C67.3319 66.9805 67.1828 67.1032 67.0083 67.1757C66.8338 67.2483 66.6417 67.2674 66.4563 67.2306C66.271 67.1938 66.1007 67.1029 65.9671 66.9693C65.8334 66.8356 65.7425 66.6654 65.7057 66.48C65.669 66.2946 65.6881 66.1025 65.7606 65.928C65.8331 65.7535 65.9558 65.6045 66.1131 65.4998C66.2704 65.3951 66.4553 65.3394 66.6442 65.3398C66.8968 65.3398 67.139 65.4402 67.3176 65.6188C67.4962 65.7973 67.5965 66.0395 67.5965 66.2921Z" fill="white"/>
<path opacity="0.4" d="M64.544 72.1544H60.8095C60.7553 72.1503 60.7008 72.1575 60.6495 72.1754C60.5981 72.1933 60.551 72.2217 60.5112 72.2586C60.4713 72.2956 60.4395 72.3404 60.4177 72.3902C60.396 72.44 60.3848 72.4938 60.3848 72.5482C60.3848 72.6026 60.396 72.6564 60.4177 72.7062C60.4395 72.756 60.4713 72.8008 60.5112 72.8378C60.551 72.8747 60.5981 72.9031 60.6495 72.921C60.7008 72.9389 60.7553 72.9461 60.8095 72.942H64.544C64.5982 72.9461 64.6527 72.9389 64.704 72.921C64.7553 72.9031 64.8024 72.8747 64.8423 72.8378C64.8821 72.8008 64.9139 72.756 64.9357 72.7062C64.9574 72.6564 64.9687 72.6026 64.9687 72.5482C64.9687 72.4938 64.9574 72.44 64.9357 72.3902C64.9139 72.3404 64.8821 72.2956 64.8423 72.2586C64.8024 72.2217 64.7553 72.1933 64.704 72.1754C64.6527 72.1575 64.5982 72.1503 64.544 72.1544Z" fill="#263238"/>
<path opacity="0.4" d="M93.6121 64.4937H71.828C71.7233 64.4937 71.6228 64.5353 71.5488 64.6093C71.4747 64.6834 71.4331 64.7838 71.4331 64.8885C71.4331 64.9933 71.4747 65.0937 71.5488 65.1678C71.6228 65.2418 71.7233 65.2834 71.828 65.2834H93.6121C93.7168 65.2834 93.8173 65.2418 93.8913 65.1678C93.9654 65.0937 94.007 64.9933 94.007 64.8885C94.007 64.7838 93.9654 64.6834 93.8913 64.6093C93.8173 64.5353 93.7168 64.4937 93.6121 64.4937Z" fill="#263238"/>
<path opacity="0.4" d="M93.6121 66.7505H71.828C71.7233 66.7505 71.6228 66.7921 71.5488 66.8661C71.4747 66.9402 71.4331 67.0406 71.4331 67.1454C71.4331 67.2501 71.4747 67.3505 71.5488 67.4246C71.6228 67.4987 71.7233 67.5403 71.828 67.5403H93.6121C93.7168 67.5403 93.8173 67.4987 93.8913 67.4246C93.9654 67.3505 94.007 67.2501 94.007 67.1454C94.007 67.0406 93.9654 66.9402 93.8913 66.8661C93.8173 66.7921 93.7168 66.7505 93.6121 66.7505Z" fill="#263238"/>
<path opacity="0.4" d="M89.0991 69.0068H71.828C71.7233 69.0068 71.6228 69.0484 71.5488 69.1225C71.4747 69.1966 71.4331 69.297 71.4331 69.4017C71.4331 69.5065 71.4747 69.6069 71.5488 69.681C71.6228 69.755 71.7233 69.7966 71.828 69.7966H89.0991C89.2039 69.7966 89.3043 69.755 89.3783 69.681C89.4524 69.6069 89.494 69.5065 89.494 69.4017C89.494 69.297 89.4524 69.1966 89.3783 69.1225C89.3043 69.0484 89.2039 69.0068 89.0991 69.0068Z" fill="#263238"/>
<path opacity="0.6" d="M65.3698 89.0195H59.8369C59.6819 89.0195 59.5332 89.0811 59.4236 89.1907C59.314 89.3003 59.2524 89.449 59.2524 89.604C59.2524 89.759 59.314 89.9076 59.4236 90.0172C59.5332 90.1268 59.6819 90.1884 59.8369 90.1884H65.3698C65.5248 90.1884 65.6734 90.1268 65.783 90.0172C65.8926 89.9076 65.9542 89.759 65.9542 89.604C65.9542 89.449 65.8926 89.3003 65.783 89.1907C65.6734 89.0811 65.5248 89.0195 65.3698 89.0195Z" fill="#263238"/>
<path d="M95.3219 91.5923H59.2588V102.342H95.3219V91.5923Z" fill="#FFC100"/>
<path opacity="0.6" d="M95.3219 91.5923H59.2588V102.342H95.3219V91.5923Z" fill="white"/>
<path d="M95.3219 91.5923H59.2588V102.342H95.3219V91.5923Z" stroke="#263238" stroke-width="0.752161" stroke-miterlimit="10"/>
<path d="M69.9843 92.6753H60.5093V99.9051H69.9843V92.6753Z" fill="#263238"/>
<path opacity="0.3" d="M69.9843 98.1539V99.9049H60.5093V98.2757L63.5036 96.0576L66.5837 98.2757L68.3235 97.1656L69.9843 98.1539Z" fill="white"/>
<path opacity="0.3" d="M67.5965 94.7242C67.5969 94.9132 67.5413 95.098 67.4366 95.2553C67.3319 95.4127 67.1828 95.5353 67.0083 95.6079C66.8338 95.6804 66.6417 95.6995 66.4563 95.6627C66.271 95.626 66.1007 95.535 65.9671 95.4014C65.8334 95.2678 65.7425 95.0975 65.7057 94.9121C65.669 94.7268 65.6881 94.5347 65.7606 94.3602C65.8331 94.1857 65.9558 94.0366 66.1131 93.9319C66.2704 93.8272 66.4553 93.7715 66.6442 93.772C66.7693 93.772 66.8931 93.7966 67.0087 93.8445C67.1242 93.8923 67.2292 93.9625 67.3176 94.0509C67.406 94.1393 67.4761 94.2443 67.524 94.3598C67.5719 94.4753 67.5965 94.5992 67.5965 94.7242Z" fill="white"/>
<path opacity="0.4" d="M64.544 100.587H60.8095C60.7553 100.582 60.7008 100.59 60.6495 100.608C60.5981 100.625 60.551 100.654 60.5112 100.691C60.4713 100.728 60.4395 100.773 60.4177 100.822C60.396 100.872 60.3848 100.926 60.3848 100.98C60.3848 101.035 60.396 101.088 60.4177 101.138C60.4395 101.188 60.4713 101.233 60.5112 101.27C60.551 101.307 60.5981 101.335 60.6495 101.353C60.7008 101.371 60.7553 101.378 60.8095 101.374H64.544C64.5982 101.378 64.6527 101.371 64.704 101.353C64.7553 101.335 64.8024 101.307 64.8423 101.27C64.8821 101.233 64.9139 101.188 64.9357 101.138C64.9574 101.088 64.9687 101.035 64.9687 100.98C64.9687 100.926 64.9574 100.872 64.9357 100.822C64.9139 100.773 64.8821 100.728 64.8423 100.691C64.8024 100.654 64.7553 100.625 64.704 100.608C64.6527 100.59 64.5982 100.582 64.544 100.587Z" fill="#263238"/>
<path opacity="0.4" d="M93.6121 92.9258H71.828C71.7233 92.9258 71.6228 92.9674 71.5488 93.0414C71.4747 93.1155 71.4331 93.2159 71.4331 93.3207C71.4331 93.4254 71.4747 93.5258 71.5488 93.5999C71.6228 93.674 71.7233 93.7156 71.828 93.7156H93.6121C93.7168 93.7156 93.8173 93.674 93.8913 93.5999C93.9654 93.5258 94.007 93.4254 94.007 93.3207C94.007 93.2159 93.9654 93.1155 93.8913 93.0414C93.8173 92.9674 93.7168 92.9258 93.6121 92.9258Z" fill="#263238"/>
<path opacity="0.4" d="M93.6121 95.1821H71.828C71.7233 95.1821 71.6228 95.2237 71.5488 95.2978C71.4747 95.3718 71.4331 95.4723 71.4331 95.577C71.4331 95.6817 71.4747 95.7822 71.5488 95.8562C71.6228 95.9303 71.7233 95.9719 71.828 95.9719H93.6121C93.7168 95.9719 93.8173 95.9303 93.8913 95.8562C93.9654 95.7822 94.007 95.6817 94.007 95.577C94.007 95.4723 93.9654 95.3718 93.8913 95.2978C93.8173 95.2237 93.7168 95.1821 93.6121 95.1821Z" fill="#263238"/>
<path opacity="0.4" d="M89.0991 97.4385H71.828C71.7233 97.4385 71.6228 97.4801 71.5488 97.5541C71.4747 97.6282 71.4331 97.7286 71.4331 97.8334C71.4331 97.9381 71.4747 98.0385 71.5488 98.1126C71.6228 98.1866 71.7233 98.2282 71.828 98.2282H89.0991C89.2039 98.2282 89.3043 98.1866 89.3783 98.1126C89.4524 98.0385 89.494 97.9381 89.494 97.8334C89.494 97.7286 89.4524 97.6282 89.3783 97.5541C89.3043 97.4801 89.2039 97.4385 89.0991 97.4385Z" fill="#263238"/>
<path d="M95.3219 74.894H59.2588V85.6439H95.3219V74.894Z" fill="#FFC100"/>
<path opacity="0.6" d="M95.3219 74.894H59.2588V85.6439H95.3219V74.894Z" fill="white"/>
<path d="M95.3219 74.894H59.2588V85.6439H95.3219V74.894Z" stroke="#263238" stroke-width="0.752161" stroke-miterlimit="10"/>
<path d="M69.9843 75.9771H60.5093V83.2068H69.9843V75.9771Z" fill="#263238"/>
<path opacity="0.3" d="M69.9843 81.4561V83.2072H60.5093V81.578L63.5036 79.3599L66.5837 81.578L68.3235 80.4678L69.9843 81.4561Z" fill="white"/>
<path opacity="0.3" d="M67.5965 78.026C67.5969 78.2149 67.5413 78.3998 67.4366 78.5571C67.3319 78.7144 67.1828 78.8371 67.0083 78.9096C66.8338 78.9821 66.6417 79.0012 66.4563 78.9645C66.271 78.9277 66.1007 78.8368 65.9671 78.7032C65.8334 78.5695 65.7425 78.3992 65.7057 78.2139C65.669 78.0285 65.6881 77.8364 65.7606 77.6619C65.8331 77.4874 65.9558 77.3384 66.1131 77.2337C66.2704 77.1289 66.4553 77.0733 66.6442 77.0737C66.8968 77.0737 67.139 77.1741 67.3176 77.3526C67.4962 77.5312 67.5965 77.7734 67.5965 78.026Z" fill="white"/>
<path opacity="0.4" d="M64.544 83.8883H60.8095C60.7553 83.8842 60.7008 83.8914 60.6495 83.9093C60.5981 83.9272 60.551 83.9555 60.5112 83.9925C60.4713 84.0295 60.4395 84.0743 60.4177 84.1241C60.396 84.1739 60.3848 84.2277 60.3848 84.2821C60.3848 84.3365 60.396 84.3902 60.4177 84.4401C60.4395 84.4899 60.4713 84.5347 60.5112 84.5717C60.551 84.6086 60.5981 84.637 60.6495 84.6549C60.7008 84.6728 60.7553 84.68 60.8095 84.6758H64.544C64.5982 84.68 64.6527 84.6728 64.704 84.6549C64.7553 84.637 64.8024 84.6086 64.8423 84.5717C64.8821 84.5347 64.9139 84.4899 64.9357 84.4401C64.9574 84.3902 64.9687 84.3365 64.9687 84.2821C64.9687 84.2277 64.9574 84.1739 64.9357 84.1241C64.9139 84.0743 64.8821 84.0295 64.8423 83.9925C64.8024 83.9555 64.7553 83.9272 64.704 83.9093C64.6527 83.8914 64.5982 83.8842 64.544 83.8883Z" fill="#263238"/>
<path opacity="0.4" d="M93.6121 76.2275H71.828C71.7233 76.2275 71.6228 76.2691 71.5488 76.3432C71.4747 76.4173 71.4331 76.5177 71.4331 76.6224C71.4331 76.7272 71.4747 76.8276 71.5488 76.9017C71.6228 76.9757 71.7233 77.0173 71.828 77.0173H93.6121C93.7168 77.0173 93.8173 76.9757 93.8913 76.9017C93.9654 76.8276 94.007 76.7272 94.007 76.6224C94.007 76.5177 93.9654 76.4173 93.8913 76.3432C93.8173 76.2691 93.7168 76.2275 93.6121 76.2275Z" fill="#263238"/>
<path opacity="0.4" d="M93.6121 78.4839H71.828C71.7233 78.4839 71.6228 78.5255 71.5488 78.5995C71.4747 78.6736 71.4331 78.774 71.4331 78.8788C71.4331 78.9835 71.4747 79.0839 71.5488 79.158C71.6228 79.2321 71.7233 79.2737 71.828 79.2737H93.6121C93.7168 79.2737 93.8173 79.2321 93.8913 79.158C93.9654 79.0839 94.007 78.9835 94.007 78.8788C94.007 78.774 93.9654 78.6736 93.8913 78.5995C93.8173 78.5255 93.7168 78.4839 93.6121 78.4839Z" fill="#263238"/>
<path opacity="0.4" d="M89.0991 80.7407H71.828C71.7233 80.7407 71.6228 80.7823 71.5488 80.8564C71.4747 80.9304 71.4331 81.0309 71.4331 81.1356C71.4331 81.2403 71.4747 81.3408 71.5488 81.4148C71.6228 81.4889 71.7233 81.5305 71.828 81.5305H89.0991C89.2039 81.5305 89.3043 81.4889 89.3783 81.4148C89.4524 81.3408 89.494 81.2403 89.494 81.1356C89.494 81.0309 89.4524 80.9304 89.3783 80.8564C89.3043 80.7823 89.2039 80.7407 89.0991 80.7407Z" fill="#263238"/>
<path opacity="0.4" d="M51.8193 80.6211H41.0897C40.985 80.6211 40.8845 80.6627 40.8105 80.7368C40.7364 80.8108 40.6948 80.9112 40.6948 81.016C40.6948 81.1207 40.7364 81.2211 40.8105 81.2952C40.8845 81.3693 40.985 81.4109 41.0897 81.4109H51.8193C51.924 81.4109 52.0245 81.3693 52.0985 81.2952C52.1726 81.2211 52.2142 81.1207 52.2142 81.016C52.2142 80.9112 52.1726 80.8108 52.0985 80.7368C52.0245 80.6627 51.924 80.6211 51.8193 80.6211Z" fill="#263238"/>
<path opacity="0.4" d="M51.8193 98.8916H41.0897C40.985 98.8916 40.8845 98.9332 40.8105 99.0073C40.7364 99.0813 40.6948 99.1818 40.6948 99.2865C40.6948 99.3912 40.7364 99.4917 40.8105 99.5657C40.8845 99.6398 40.985 99.6814 41.0897 99.6814H51.8193C51.924 99.6814 52.0245 99.6398 52.0985 99.5657C52.1726 99.4917 52.2142 99.3912 52.2142 99.2865C52.2142 99.1818 52.1726 99.0813 52.0985 99.0073C52.0245 98.9332 51.924 98.8916 51.8193 98.8916Z" fill="#263238"/>
<path opacity="0.4" d="M51.8193 89.7575H41.0898C41.0355 89.7534 40.9811 89.7605 40.9297 89.7784C40.8784 89.7964 40.8313 89.8247 40.7914 89.8617C40.7516 89.8986 40.7198 89.9434 40.698 89.9933C40.6763 90.0431 40.665 90.0969 40.665 90.1512C40.665 90.2056 40.6763 90.2594 40.698 90.3092C40.7198 90.3591 40.7516 90.4039 40.7914 90.4408C40.8313 90.4778 40.8784 90.5061 40.9297 90.524C40.9811 90.542 41.0355 90.5491 41.0898 90.545H51.8193C51.8735 90.5491 51.928 90.542 51.9794 90.524C52.0307 90.5061 52.0778 90.4778 52.1176 90.4408C52.1575 90.4039 52.1893 90.3591 52.2111 90.3092C52.2328 90.2594 52.244 90.2056 52.244 90.1512C52.244 90.0969 52.2328 90.0431 52.2111 89.9933C52.1893 89.9434 52.1575 89.8986 52.1176 89.8617C52.0778 89.8247 52.0307 89.7964 51.9794 89.7784C51.928 89.7605 51.8735 89.7534 51.8193 89.7575Z" fill="#263238"/>
<path d="M83.3584 44.6411C86.5693 45.6971 94.3745 49.8626 95.7081 51.6475C97.0417 53.4324 96.0894 57.1465 93.1154 58.0875C90.1413 59.0285 76.2143 58.0875 76.2143 58.0875C76.2143 58.0875 75.0861 58.8141 74.7611 58.505C74.4362 58.1958 74.3098 53.0894 75.4787 53.121C76.4287 53.1526 76.8055 53.6106 76.8055 53.6106L82.88 52.4598C82.88 52.4598 80.8491 50.0702 80.8491 47.6264" fill="#FFC100"/>
<path opacity="0.2" d="M93.1154 58.0874C90.1391 59.0261 76.2144 58.0874 76.2144 58.0874C76.2144 58.0874 75.0861 58.814 74.7612 58.5049C74.5717 58.3289 74.4498 56.6139 74.5942 55.1653C74.7702 55.9167 74.9936 56.7606 75.1493 57.0088C75.4472 57.4849 76.5754 57.0088 76.5754 57.0088C76.4701 56.0082 76.5466 54.9969 76.8011 54.0235L77.9767 56.5327C77.9767 56.5327 89.1418 57.1871 93.2486 55.4609C94.9567 54.7433 95.6878 53.3826 95.9564 52.04C96.9018 53.9287 95.8864 57.2119 93.1154 58.0874Z" fill="black"/>
<path opacity="0.2" d="M86.2057 51.7759L82.8729 52.4528C82.6236 52.1445 82.3923 51.822 82.1802 51.487C82.2185 50.6002 82.3426 49.4291 82.7195 48.9756C83.3626 48.2039 83.243 50.2234 83.8477 51.3562C83.8477 51.3562 86.138 49.5058 87.0452 49.9256C87.9523 50.3453 86.7766 50.431 86.2057 51.7759Z" fill="black"/>
<path d="M83.3584 44.6411C86.5693 45.6971 94.3745 49.8626 95.7081 51.6475C97.0417 53.4324 96.0894 57.1465 93.1154 58.0875C90.1413 59.0285 76.2143 58.0875 76.2143 58.0875C76.2143 58.0875 75.0861 58.8141 74.7611 58.505C74.4362 58.1958 74.3098 53.0894 75.4787 53.121C76.4287 53.1526 76.8055 53.6106 76.8055 53.6106L82.88 52.4598C82.88 52.4598 80.8491 50.0702 80.8491 47.6264" stroke="#263238" stroke-width="0.752161" stroke-linecap="round" stroke-linejoin="round"/>
<path d="M90.5 52.5527C90.8177 52.786 91.0595 53.1078 91.195 53.4779" stroke="#263238" stroke-width="0.752161" stroke-linecap="round" stroke-linejoin="round"/>
<path d="M82.8799 52.46C85.2402 52.0764 87.5237 50.9459 89.8186 52.1193" stroke="#263238" stroke-width="0.752161" stroke-linecap="round" stroke-linejoin="round"/>
<path d="M90.3984 51.0586C90.624 51.1099 90.8352 51.2109 91.0167 51.3542" stroke="#263238" stroke-width="0.752161" stroke-linecap="round" stroke-linejoin="round"/>
<path d="M86.1001 51.7535C86.8921 50.7607 88.5033 50.8103 89.636 50.9232" stroke="#263238" stroke-width="0.752161" stroke-linecap="round" stroke-linejoin="round"/>
<path d="M77.0336 53.5679C76.632 54.2212 76.491 55.0018 76.6387 55.7544" stroke="#263238" stroke-width="0.752161" stroke-linecap="round" stroke-linejoin="round"/>
<path d="M81.291 51.1851C81.5722 51.4058 81.9042 51.5525 82.2568 51.6115" stroke="#263238" stroke-width="0.752161" stroke-linecap="round" stroke-linejoin="round"/>
<path d="M80.1724 49.9238C80.3375 50.1925 80.5279 50.4449 80.741 50.6775" stroke="#263238" stroke-width="0.752161" stroke-linecap="round" stroke-linejoin="round"/>
</svg>
