<svg width="11" height="380" viewBox="0 0 11 346" fill="none" xmlns="http://www.w3.org/2000/svg"><path opacity="0.2" d="M5.5 0.666667C2.55448 0.666666 0.166667 3.05448 0.166667 6C0.166666 8.94552 2.55448 11.3333 5.5 11.3333C8.44552 11.3333 10.8333 8.94552 10.8333 6C10.8333 3.05448 8.44552 0.666667 5.5 0.666667ZM5.49999 334.667C2.55447 334.667 0.166652 337.054 0.166652 340C0.166652 342.946 2.55447 345.333 5.49999 345.333C8.4455 345.333 10.8333 342.946 10.8333 340C10.8333 337.054 8.4455 334.667 5.49999 334.667ZM4.5 6L4.49999 340L6.49999 340L6.5 6L4.5 6Z" fill="#1B1C1E"></path></svg>