<svg width="162" height="130" viewBox="0 0 162 130" fill="none" xmlns="http://www.w3.org/2000/svg">
<path d="M161.047 114.336H0V114.423H161.047V114.336Z" fill="#EBEBEB"/>
<path d="M144.91 119.913H134.243V119.999H144.91V119.913Z" fill="#EBEBEB"/>
<path d="M106.684 120.854H103.885V120.941H106.684V120.854Z" fill="#EBEBEB"/>
<path d="M133.921 116.696H127.74V116.782H133.921V116.696Z" fill="#EBEBEB"/>
<path d="M30.8082 117.278H16.897V117.365H30.8082V117.278Z" fill="#EBEBEB"/>
<path d="M35.7171 117.278H33.6782V117.365H35.7171V117.278Z" fill="#EBEBEB"/>
<path d="M72.5195 118.741H42.3457V118.828H72.5195V118.741Z" fill="#EBEBEB"/>
<path d="M76.3363 98.8806H14.1431C13.6559 98.8796 13.1889 98.6708 12.8447 98.2998C12.5005 97.9288 12.3071 97.426 12.3071 96.9018V2.83937C12.3114 2.31818 12.5066 1.81983 12.8503 1.45258C13.1941 1.08532 13.6586 0.878823 14.1431 0.87793H76.3363C76.8241 0.87793 77.2919 1.08641 77.6368 1.4575C77.9817 1.82859 78.1755 2.33189 78.1755 2.8567V96.9018C78.1755 97.4266 77.9817 97.9299 77.6368 98.301C77.2919 98.6721 76.8241 98.8806 76.3363 98.8806ZM14.1431 0.947239C13.6772 0.948157 13.2307 1.14791 12.9016 1.50265C12.5725 1.8574 12.3877 2.33814 12.3877 2.83937V96.9018C12.3877 97.403 12.5725 97.8838 12.9016 98.2385C13.2307 98.5933 13.6772 98.793 14.1431 98.7939H76.3363C76.8025 98.793 77.2493 98.5934 77.5789 98.2387C77.9085 97.8841 78.0941 97.4034 78.095 96.9018V2.83937C78.0941 2.33783 77.9085 1.85709 77.5789 1.50244C77.2493 1.1478 76.8025 0.948155 76.3363 0.947239H14.1431Z" fill="#EBEBEB"/>
<path d="M146.009 98.8806H83.8123C83.3248 98.8797 82.8575 98.6709 82.5128 98.3C82.168 97.9291 81.974 97.4263 81.9731 96.9018V2.83937C81.9782 2.31786 82.1741 1.81952 82.5184 1.45236C82.8627 1.0852 83.3276 0.878813 83.8123 0.87793H146.009C146.493 0.879733 146.956 1.08664 147.299 1.45379C147.643 1.82095 147.837 2.31877 147.841 2.83937V96.9018C147.841 97.4254 147.649 97.9277 147.305 98.2986C146.962 98.6694 146.495 98.8787 146.009 98.8806ZM83.8123 0.947239C83.3461 0.948155 82.8993 1.1478 82.5697 1.50244C82.2401 1.85709 82.0545 2.33783 82.0537 2.83937V96.9018C82.0545 97.4034 82.2401 97.8841 82.5697 98.2387C82.8993 98.5934 83.3461 98.793 83.8123 98.7939H146.009C146.475 98.793 146.922 98.5934 147.251 98.2387C147.581 97.8841 147.767 97.4034 147.767 96.9018V2.83937C147.767 2.33783 147.581 1.85709 147.251 1.50244C146.922 1.1478 146.475 0.948155 146.009 0.947239H83.8123Z" fill="#EBEBEB"/>
<path d="M132.536 102.35C132.536 102.35 130.062 97.1517 132.89 92.0021C135.718 86.8524 136.536 85.6534 134.732 84.5999C132.929 83.5464 132.104 88.7099 132.104 88.7099C132.104 88.7099 130.584 85.1578 131.84 81.4325C133.096 77.7071 133.882 71.66 132.162 71.0119C130.442 70.3639 131.84 78.5631 130.345 81.3597C130.345 81.3597 129.099 78.2408 128.893 75.2605C128.687 72.2803 129.009 67.5084 127.656 66.2851C126.303 65.0618 125.433 65.9108 126.764 72.4986C127.562 76.4238 128.005 80.4232 128.084 84.4405C128.084 84.4405 125.147 75.7977 123.176 75.5482C121.204 75.2987 121.208 78.0953 122.895 80.5211C124.583 82.9469 127.836 87.2995 128.371 89.5312C128.371 89.5312 125.15 83.0301 122.251 85.0262C119.352 87.0222 124.776 90.9486 127.195 92.366C129.614 93.7833 131.289 102.686 131.289 102.686L132.536 102.35Z" fill="#E0E0E0"/>
<path d="M130.58 104.495C130.58 104.495 132.993 99.2485 130.1 94.1509C127.208 89.0532 126.374 87.8576 128.168 86.7799C129.962 85.7021 130.847 90.8518 130.847 90.8518C130.847 90.8518 132.323 87.2754 131.021 83.5744C129.72 79.8733 128.86 73.833 130.564 73.1607C132.268 72.4884 130.986 80.7084 132.497 83.4808C132.497 83.4808 133.708 80.3619 133.875 77.3643C134.043 74.3667 133.663 69.6121 135.002 68.3715C136.342 67.1308 137.215 67.9626 135.969 74.5677C135.22 78.5052 134.827 82.5114 134.796 86.5304C134.796 86.5304 137.628 77.846 139.596 77.5653C141.563 77.2846 141.596 80.0847 139.937 82.5347C138.278 84.9848 135.08 89.3824 134.574 91.628C134.574 91.628 137.718 85.0784 140.642 87.0294C143.567 88.9804 138.191 92.9865 135.792 94.442C133.392 95.8975 131.823 104.817 131.823 104.817L130.58 104.495Z" fill="#E6E6E6"/>
<path d="M141.699 100.749H121.787L123.398 114.499H140.089L141.699 100.749Z" fill="#F0F0F0"/>
<path d="M106.182 13.7207H69.9077V56.907H106.182V13.7207Z" fill="#E9E9E9"/>
<path d="M104.681 15.4331H71.5054V55.2857H104.681V15.4331Z" fill="#F4F4F4"/>
<path d="M80.8815 15.4331L71.5054 53.2133V32.7603L75.7957 15.4331H80.8815Z" fill="white"/>
<path d="M85.0711 15.4331L75.1828 55.2857H73.3179L83.2062 15.4331H85.0711Z" fill="white"/>
<path d="M104.681 26.2998V46.7563L102.581 55.2847H97.4951L104.681 26.2998Z" fill="white"/>
<path d="M88.6888 13.7207H87.4004V56.907H88.6888V13.7207Z" fill="#E9E9E9"/>
<path d="M105.486 22.4849H70.5386V23.871H105.486V22.4849Z" fill="#E9E9E9"/>
<path d="M56.5795 13.7207H20.3052V56.907H56.5795V13.7207Z" fill="#E9E9E9"/>
<path d="M55.0781 15.4331H21.9023V55.2857H55.0781V15.4331Z" fill="#F4F4F4"/>
<path d="M31.2785 15.4331L21.9023 53.2133V32.7603L26.1926 15.4331H31.2785Z" fill="white"/>
<path d="M35.4686 15.4331L25.5803 55.2857H23.7153L33.6036 15.4331H35.4686Z" fill="white"/>
<path d="M55.078 26.2998V46.7563L52.978 55.2847H47.8921L55.078 26.2998Z" fill="white"/>
<path d="M39.0857 13.7207H37.7974V56.907H39.0857V13.7207Z" fill="#E9E9E9"/>
<path d="M55.8833 22.4849H20.936V23.871H55.8833V22.4849Z" fill="#E9E9E9"/>
<path d="M80.5237 129.987C115.014 129.987 142.975 128.231 142.975 126.064C142.975 123.897 115.014 122.141 80.5237 122.141C46.033 122.141 18.0728 123.897 18.0728 126.064C18.0728 128.231 46.033 129.987 80.5237 129.987Z" fill="#F5F5F5"/>
<path d="M122.93 114.5H73.4921C73.1962 114.505 72.9027 114.442 72.6308 114.317C72.3588 114.191 72.1147 114.005 71.9142 113.771C71.7138 113.536 71.5617 113.259 71.4678 112.957C71.3739 112.655 71.3405 112.335 71.3695 112.018L77.6021 25.9923C77.6584 25.3219 77.9432 24.6976 78.4017 24.2395C78.8601 23.7814 79.4599 23.522 80.0854 23.511H129.521C129.817 23.5061 130.11 23.5685 130.382 23.6941C130.654 23.8197 130.899 24.0057 131.099 24.2399C131.3 24.4741 131.452 24.7513 131.547 25.0533C131.641 25.3552 131.675 25.6752 131.646 25.9923L125.414 112.018C125.357 112.688 125.072 113.312 124.613 113.77C124.155 114.228 123.556 114.488 122.93 114.5Z" fill="#2E353A"/>
<path opacity="0.2" d="M122.93 114.5H73.4921C73.1962 114.505 72.9027 114.442 72.6308 114.317C72.3588 114.191 72.1147 114.005 71.9142 113.771C71.7138 113.536 71.5617 113.259 71.4678 112.957C71.3739 112.655 71.3405 112.335 71.3695 112.018L77.6021 25.9923C77.6584 25.3219 77.9432 24.6976 78.4017 24.2395C78.8601 23.7814 79.4599 23.522 80.0854 23.511H129.521C129.817 23.5061 130.11 23.5685 130.382 23.6941C130.654 23.8197 130.899 24.0057 131.099 24.2399C131.3 24.4741 131.452 24.7513 131.547 25.0533C131.641 25.3552 131.675 25.6752 131.646 25.9923L125.414 112.018C125.357 112.688 125.072 113.312 124.613 113.77C124.155 114.228 123.556 114.488 122.93 114.5Z" fill="white"/>
<path d="M116.234 29.1352H92.5605C92.457 29.1372 92.3542 29.1156 92.259 29.0719C92.1638 29.0281 92.0783 28.9632 92.008 28.8814C91.9377 28.7996 91.8843 28.7028 91.8513 28.5972C91.8183 28.4916 91.8064 28.3797 91.8164 28.2689L92.1804 23.2405C92.2002 23.0057 92.2999 22.787 92.4605 22.6265C92.621 22.4659 92.8309 22.3748 93.0501 22.3707H116.724C116.828 22.3691 116.93 22.3912 117.025 22.4353C117.12 22.4795 117.206 22.5448 117.276 22.6269C117.346 22.7091 117.399 22.8062 117.431 22.9119C117.464 23.0177 117.475 23.1297 117.465 23.2405L117.101 28.255C117.084 28.4914 116.986 28.7125 116.826 28.8753C116.666 29.0381 116.455 29.1307 116.234 29.1352Z" fill="#407BFF"/>
<path opacity="0.2" d="M116.234 29.1352H92.5605C92.457 29.1372 92.3542 29.1156 92.259 29.0719C92.1638 29.0281 92.0783 28.9632 92.008 28.8814C91.9377 28.7996 91.8843 28.7028 91.8513 28.5972C91.8183 28.4916 91.8064 28.3797 91.8164 28.2689L92.1804 23.2405C92.2002 23.0057 92.2999 22.787 92.4605 22.6265C92.621 22.4659 92.8309 22.3748 93.0501 22.3707H116.724C116.828 22.3691 116.93 22.3912 117.025 22.4353C117.12 22.4795 117.206 22.5448 117.276 22.6269C117.346 22.7091 117.399 22.8062 117.431 22.9119C117.464 23.0177 117.475 23.1297 117.465 23.2405L117.101 28.255C117.084 28.4914 116.986 28.7125 116.826 28.8753C116.666 29.0381 116.455 29.1307 116.234 29.1352Z" fill="black"/>
<path d="M106.613 23.9333H102.909L103.054 21.9372C103.099 21.3989 103.328 20.8976 103.696 20.5298C104.064 20.1619 104.546 19.9535 105.048 19.9446C105.286 19.9405 105.522 19.9904 105.741 20.0912C105.959 20.192 106.156 20.3413 106.317 20.5294C106.479 20.7174 106.601 20.9401 106.677 21.1826C106.753 21.4252 106.781 21.6824 106.758 21.9372L106.613 23.9333Z" fill="#407BFF"/>
<path opacity="0.4" d="M106.613 23.9333H102.909L103.054 21.9372C103.099 21.3989 103.328 20.8976 103.696 20.5298C104.064 20.1619 104.546 19.9535 105.048 19.9446C105.286 19.9405 105.522 19.9904 105.741 20.0912C105.959 20.192 106.156 20.3413 106.317 20.5294C106.479 20.7174 106.601 20.9401 106.677 21.1826C106.753 21.4252 106.781 21.6824 106.758 21.9372L106.613 23.9333Z" fill="white"/>
<path d="M122.264 110.906H74.6777L80.7524 27.1011H128.335L122.264 110.906Z" fill="white"/>
<path d="M111.832 31.4886H96.6287C96.385 31.4923 96.1433 31.4406 95.9194 31.3369C95.6955 31.2333 95.4945 31.0799 95.3294 30.887C95.1643 30.694 95.039 30.4658 94.9615 30.2171C94.884 29.9685 94.8561 29.705 94.8797 29.444L95.073 26.7826C95.1197 26.2305 95.3544 25.7164 95.7319 25.3391C96.1093 24.9617 96.6031 24.7476 97.1183 24.738H112.324C112.568 24.7344 112.81 24.7861 113.034 24.8897C113.258 24.9933 113.459 25.1466 113.625 25.3395C113.79 25.5324 113.916 25.7606 113.993 26.0092C114.071 26.2579 114.1 26.5214 114.077 26.7826L113.883 29.444C113.835 29.9967 113.599 30.5109 113.22 30.8881C112.842 31.2653 112.347 31.4791 111.832 31.4886ZM97.0603 25.4345C96.7204 25.4407 96.3947 25.5817 96.1456 25.8305C95.8965 26.0794 95.7416 26.4184 95.7107 26.7826L95.5175 29.444C95.5016 29.6164 95.5197 29.7904 95.5706 29.9546C95.6215 30.1189 95.7041 30.2698 95.813 30.3974C95.9218 30.5249 96.0545 30.6264 96.2022 30.695C96.35 30.7636 96.5096 30.7979 96.6706 30.7956H111.88C112.221 30.7894 112.547 30.648 112.797 30.3985C113.047 30.1491 113.202 29.8091 113.233 29.444L113.426 26.7826C113.441 26.6103 113.422 26.4366 113.37 26.2728C113.319 26.1089 113.236 25.9585 113.127 25.8314C113.018 25.7043 112.885 25.6033 112.737 25.5349C112.59 25.4665 112.43 25.4323 112.27 25.4345H97.0603Z" fill="#407BFF"/>
<g opacity="0.4">
<path d="M111.832 31.4886H96.6287C96.385 31.4923 96.1433 31.4406 95.9194 31.3369C95.6955 31.2333 95.4945 31.0799 95.3294 30.887C95.1643 30.694 95.039 30.4658 94.9615 30.2171C94.884 29.9685 94.8561 29.705 94.8797 29.444L95.073 26.7826C95.1197 26.2305 95.3544 25.7164 95.7319 25.3391C96.1093 24.9617 96.6031 24.7476 97.1183 24.738H112.324C112.568 24.7344 112.81 24.7861 113.034 24.8897C113.258 24.9933 113.459 25.1466 113.625 25.3395C113.79 25.5324 113.916 25.7606 113.993 26.0092C114.071 26.2579 114.1 26.5214 114.077 26.7826L113.883 29.444C113.835 29.9967 113.599 30.5109 113.22 30.8881C112.842 31.2653 112.347 31.4791 111.832 31.4886ZM97.0603 25.4345C96.7204 25.4407 96.3947 25.5817 96.1456 25.8305C95.8965 26.0794 95.7416 26.4184 95.7107 26.7826L95.5175 29.444C95.5016 29.6164 95.5197 29.7904 95.5706 29.9546C95.6215 30.1189 95.7041 30.2698 95.813 30.3974C95.9218 30.5249 96.0545 30.6264 96.2022 30.695C96.35 30.7636 96.5096 30.7979 96.6706 30.7956H111.88C112.221 30.7894 112.547 30.648 112.797 30.3985C113.047 30.1491 113.202 29.8091 113.233 29.444L113.426 26.7826C113.441 26.6103 113.422 26.4366 113.37 26.2728C113.319 26.1089 113.236 25.9585 113.127 25.8314C113.018 25.7043 112.885 25.6033 112.737 25.5349C112.59 25.4665 112.43 25.4323 112.27 25.4345H97.0603Z" fill="white"/>
</g>
<path d="M111.045 26.2728H98.1614C98.1046 26.2741 98.0482 26.2624 97.9958 26.2385C97.9435 26.2146 97.8965 26.1791 97.8578 26.1342C97.8192 26.0894 97.7898 26.0362 97.7716 25.9783C97.7535 25.9203 97.7469 25.8589 97.7524 25.7981L97.8522 24.4119C97.8641 24.2831 97.9195 24.1636 98.008 24.076C98.0965 23.9885 98.2119 23.939 98.3321 23.9371H111.216C111.273 23.9358 111.329 23.9475 111.381 23.9714C111.433 23.9953 111.48 24.0309 111.519 24.0758C111.557 24.1207 111.586 24.174 111.604 24.2319C111.622 24.2898 111.628 24.3512 111.622 24.4119L111.522 25.7981C111.511 25.9265 111.456 26.046 111.368 26.1336C111.28 26.2212 111.165 26.2708 111.045 26.2728Z" fill="#407BFF"/>
<path d="M121.955 39.3441H85.8804L86.1864 35.1094H122.261L121.955 39.3441Z" fill="#407BFF"/>
<path d="M107.354 45.2396H83.3389L83.4194 44.1479H107.435L107.354 45.2396Z" fill="#407BFF"/>
<path d="M107.129 48.3924H83.1133L83.1906 47.2974H107.206L107.129 48.3924Z" fill="#407BFF"/>
<path d="M106.9 51.5463H82.8843L82.9616 50.4512H106.977L106.9 51.5463Z" fill="#407BFF"/>
<path d="M106.671 54.6966H82.6558L82.7331 53.605H106.748L106.671 54.6966Z" fill="#407BFF"/>
<path d="M122.428 54.6967H112.63L113.396 44.1479H123.195L122.428 54.6967Z" fill="#407BFF"/>
<path d="M119.716 48.0642C119.761 47.4474 119.317 47.0246 118.511 47.0246C118.199 47.0086 117.887 47.0689 117.599 47.2009C117.311 47.3329 117.055 47.5333 116.849 47.787L116.231 47.2845C116.531 46.924 116.902 46.6398 117.317 46.4528C117.733 46.2658 118.181 46.1806 118.631 46.2033C119.919 46.2033 120.711 46.8513 120.631 47.936C120.515 49.5475 118.92 49.6687 118.83 50.9198H117.932C118.044 49.395 119.635 49.1732 119.716 48.0642ZM117.693 52.4758C117.705 52.3029 117.779 52.1418 117.899 52.0266C118.019 51.9114 118.177 51.8512 118.337 51.8589C118.412 51.8558 118.485 51.8701 118.554 51.9007C118.622 51.9313 118.684 51.9775 118.734 52.0361C118.784 52.0948 118.822 52.1645 118.845 52.2404C118.867 52.3163 118.875 52.3966 118.866 52.4758C118.854 52.6434 118.783 52.7999 118.669 52.9143C118.554 53.0286 118.404 53.0922 118.247 53.0926C118.171 53.0987 118.095 53.0867 118.024 53.0576C117.953 53.0284 117.889 52.9828 117.836 52.9239C117.783 52.865 117.743 52.7944 117.718 52.7169C117.694 52.6395 117.685 52.5571 117.693 52.4758Z" fill="white"/>
<path d="M106.198 61.2045H82.1826L82.2631 60.1094H106.279L106.198 61.2045Z" fill="#407BFF"/>
<path d="M105.969 64.3553H81.9536L82.0341 63.2637H106.05L105.969 64.3553Z" fill="#407BFF"/>
<path d="M105.743 67.5081H81.728L81.8053 66.4165H105.821L105.743 67.5081Z" fill="#407BFF"/>
<path d="M105.514 70.661H81.499L81.5763 69.5659H105.592L105.514 70.661Z" fill="#407BFF"/>
<path d="M121.271 70.6616H111.473L112.237 60.1094H122.035L121.271 70.6616Z" fill="#407BFF"/>
<path d="M118.56 64.0287C118.605 63.4084 118.16 62.9891 117.355 62.9891C117.043 62.9731 116.731 63.0333 116.443 63.1654C116.155 63.2974 115.899 63.4978 115.693 63.7515L115.075 63.2559C115.375 62.8948 115.746 62.6103 116.161 62.4232C116.576 62.2361 117.025 62.1512 117.474 62.1747C118.763 62.1747 119.555 62.8228 119.475 63.9074C119.359 65.5189 117.764 65.6402 117.674 66.8912H116.775C116.885 65.3352 118.479 65.1377 118.56 64.0287ZM116.537 68.4541C116.548 68.2837 116.619 68.1243 116.736 68.0089C116.853 67.8934 117.006 67.8307 117.165 67.8338C117.239 67.8306 117.314 67.8449 117.382 67.8757C117.451 67.9065 117.513 67.9531 117.563 68.0121C117.613 68.0712 117.651 68.1413 117.673 68.2176C117.696 68.294 117.703 68.3747 117.693 68.4541C117.68 68.6214 117.61 68.7775 117.495 68.8917C117.381 69.0058 117.231 69.0698 117.075 69.0709C117 69.0744 116.926 69.0605 116.857 69.0302C116.788 68.9998 116.726 68.9538 116.674 68.8953C116.623 68.8367 116.585 68.767 116.561 68.6908C116.537 68.6147 116.529 68.5339 116.537 68.4541Z" fill="white"/>
<path d="M105.041 77.1658H81.0254L81.1059 76.0742H105.121L105.041 77.1658Z" fill="#407BFF"/>
<path d="M104.813 80.3197H80.7974L80.8779 79.2246H104.893L104.813 80.3197Z" fill="#407BFF"/>
<path d="M104.584 83.473H80.5723L80.6496 82.3779H104.665L104.584 83.473Z" fill="#407BFF"/>
<path d="M104.359 86.6238H80.3433L80.4206 85.5322H104.436L104.359 86.6238Z" fill="#407BFF"/>
<path d="M120.116 86.623H110.317L111.081 76.0742H120.879L120.116 86.623Z" fill="#407BFF"/>
<path d="M117.404 79.9904C117.449 79.3736 117.004 78.9508 116.196 78.9508C115.884 78.9351 115.572 78.9955 115.285 79.1275C114.998 79.2595 114.742 79.4598 114.537 79.7132L113.918 79.1969C114.218 78.8357 114.589 78.5512 115.005 78.3641C115.42 78.1771 115.868 78.0922 116.318 78.1156C117.606 78.1156 118.396 78.7602 118.318 79.831C118.202 81.4459 116.608 81.5637 116.518 82.8148H115.632C115.729 81.3142 117.323 81.0994 117.404 79.9904ZM115.381 84.395C115.392 84.2253 115.464 84.0667 115.581 83.952C115.697 83.8373 115.851 83.7751 116.009 83.7782C116.083 83.7751 116.157 83.7893 116.225 83.8199C116.294 83.8505 116.355 83.8968 116.405 83.9554C116.456 84.0141 116.493 84.0837 116.516 84.1596C116.539 84.2355 116.546 84.3158 116.537 84.395C116.525 84.5626 116.455 84.7192 116.34 84.8335C116.225 84.9478 116.075 85.0115 115.919 85.0119C115.844 85.0159 115.769 85.0024 115.7 84.9723C115.631 84.9422 115.568 84.8962 115.517 84.8375C115.466 84.7788 115.427 84.7088 115.404 84.6324C115.38 84.556 115.372 84.475 115.381 84.395Z" fill="white"/>
<path d="M103.885 93.1317H79.8696L79.9502 92.0366H103.966L103.885 93.1317Z" fill="#407BFF"/>
<path d="M103.656 96.285H79.6401L79.7207 95.1899H103.736L103.656 96.285Z" fill="#407BFF"/>
<path d="M103.427 99.4349H79.4121L79.4926 98.3433H103.508L103.427 99.4349Z" fill="#407BFF"/>
<path d="M103.198 102.589H79.1831L79.2636 101.494H103.279L103.198 102.589Z" fill="#407BFF"/>
<path d="M118.959 102.589H109.161L109.924 92.0366H119.723L118.959 102.589Z" fill="#407BFF"/>
<path d="M116.247 95.9561C116.292 95.3358 115.848 94.9164 115.039 94.9164C114.727 94.9004 114.416 94.9607 114.129 95.0928C113.841 95.2248 113.586 95.4252 113.381 95.6788L112.762 95.1763C113.062 94.8152 113.433 94.5307 113.848 94.3436C114.263 94.1566 114.712 94.0717 115.162 94.0951C116.45 94.0951 117.239 94.7432 117.162 95.8278C117.046 97.4393 115.452 97.5606 115.362 98.8116H114.463C114.572 97.2764 116.167 97.065 116.247 95.9561ZM114.225 100.368C114.235 100.197 114.306 100.038 114.423 99.9224C114.54 99.8069 114.694 99.7442 114.853 99.7473C114.927 99.7441 115.001 99.7584 115.07 99.7892C115.139 99.82 115.2 99.8666 115.25 99.9256C115.301 99.9847 115.338 100.055 115.361 100.131C115.383 100.207 115.39 100.288 115.381 100.368C115.368 100.535 115.297 100.691 115.183 100.805C115.068 100.919 114.918 100.983 114.762 100.984C114.688 100.988 114.613 100.974 114.544 100.944C114.475 100.913 114.413 100.867 114.362 100.809C114.311 100.75 114.272 100.68 114.248 100.604C114.225 100.528 114.217 100.447 114.225 100.368Z" fill="white"/>
<path opacity="0.7" d="M121.955 39.3441H85.8804L86.1864 35.1094H122.261L121.955 39.3441Z" fill="white"/>
<path opacity="0.7" d="M107.354 45.2396H83.3389L83.4194 44.1479H107.435L107.354 45.2396Z" fill="white"/>
<path opacity="0.7" d="M107.129 48.3924H83.1133L83.1906 47.2974H107.206L107.129 48.3924Z" fill="white"/>
<path opacity="0.7" d="M106.9 51.5463H82.8843L82.9616 50.4512H106.977L106.9 51.5463Z" fill="white"/>
<path opacity="0.7" d="M106.671 54.6966H82.6558L82.7331 53.605H106.748L106.671 54.6966Z" fill="white"/>
<path opacity="0.7" d="M122.428 54.6967H112.63L113.396 44.1479H123.195L122.428 54.6967Z" fill="white"/>
<path opacity="0.7" d="M106.198 61.2045H82.1826L82.2631 60.1094H106.279L106.198 61.2045Z" fill="white"/>
<path opacity="0.7" d="M105.969 64.3553H81.9536L82.0341 63.2637H106.05L105.969 64.3553Z" fill="white"/>
<path opacity="0.7" d="M105.743 67.5081H81.728L81.8053 66.4165H105.821L105.743 67.5081Z" fill="white"/>
<path opacity="0.7" d="M105.514 70.661H81.499L81.5763 69.5659H105.592L105.514 70.661Z" fill="white"/>
<path opacity="0.7" d="M121.271 70.6616H111.473L112.237 60.1094H122.035L121.271 70.6616Z" fill="white"/>
<path opacity="0.7" d="M105.041 77.1658H81.0254L81.1059 76.0742H105.121L105.041 77.1658Z" fill="white"/>
<path opacity="0.7" d="M104.813 80.3197H80.7974L80.8779 79.2246H104.893L104.813 80.3197Z" fill="white"/>
<path opacity="0.7" d="M104.584 83.473H80.5723L80.6496 82.3779H104.665L104.584 83.473Z" fill="white"/>
<path opacity="0.7" d="M104.359 86.6238H80.3433L80.4206 85.5322H104.436L104.359 86.6238Z" fill="white"/>
<path opacity="0.7" d="M120.116 86.623H110.317L111.081 76.0742H120.879L120.116 86.623Z" fill="white"/>
<path opacity="0.7" d="M103.885 93.1317H79.8696L79.9502 92.0366H103.966L103.885 93.1317Z" fill="white"/>
<path opacity="0.7" d="M103.656 96.285H79.6401L79.7207 95.1899H103.736L103.656 96.285Z" fill="white"/>
<path opacity="0.7" d="M103.427 99.4349H79.4121L79.4926 98.3433H103.508L103.427 99.4349Z" fill="white"/>
<path opacity="0.7" d="M103.198 102.589H79.1831L79.2636 101.494H103.279L103.198 102.589Z" fill="white"/>
<path opacity="0.7" d="M118.959 102.589H109.161L109.924 92.0366H119.723L118.959 102.589Z" fill="white"/>
<path d="M64.4184 70.8804V80.4242C64.4207 82.3061 63.7454 84.1157 62.5342 85.4733L54.2563 94.7919H58.9428L67.5427 85.6847C68.1842 85.0061 68.6939 84.1971 69.0422 83.3048C69.3906 82.4124 69.5706 81.4544 69.5719 80.4866V70.8804H64.4184Z" fill="#407BFF"/>
<path opacity="0.4" d="M69.5719 70.8804V80.4762C69.5732 81.0138 69.517 81.5499 69.4045 82.0737C69.1225 83.4462 68.4757 84.7008 67.5427 85.6847L58.9428 94.7919H54.2563L62.5342 85.4733C63.7454 84.1157 64.4207 82.3061 64.4184 80.4242V70.8804H69.5719Z" fill="white"/>
<path opacity="0.2" d="M69.5725 70.8804V80.4762C69.5737 81.0138 69.5175 81.5499 69.405 82.0737L64.4189 79.9078V70.8804H69.5725Z" fill="black"/>
<path d="M51.0009 95.8306L44.063 124.268C44.0008 124.527 43.8605 124.756 43.664 124.92C43.4675 125.084 43.226 125.172 42.9775 125.172H30.5801C30.478 125.172 30.3773 125.147 30.2857 125.098C30.1942 125.049 30.1142 124.979 30.0518 124.892C29.9893 124.805 29.9463 124.704 29.9261 124.596C29.906 124.489 29.9094 124.377 29.9359 124.271L36.877 95.8306H35.5436L28.6894 123.918C28.6143 124.229 28.6063 124.555 28.666 124.87C28.7258 125.185 28.8517 125.481 29.0341 125.736C29.2165 125.991 29.4506 126.197 29.7186 126.34C29.9865 126.483 30.2812 126.557 30.5801 126.559H42.9775C43.5105 126.558 44.0284 126.368 44.4502 126.017C44.8721 125.667 45.1743 125.176 45.3095 124.621L52.3311 95.8306H51.0009Z" fill="#407BFF"/>
<g opacity="0.4">
<path d="M51.0004 95.8311L44.0625 124.268C44.0003 124.527 43.86 124.757 43.6635 124.92C43.467 125.084 43.2255 125.173 42.977 125.173H30.5796C30.4775 125.173 30.3768 125.147 30.2853 125.098C30.1937 125.05 30.1137 124.979 30.0514 124.892C29.9888 124.806 29.9458 124.704 29.9256 124.597C29.9055 124.489 29.9089 124.378 29.9354 124.272L36.8765 95.8311H35.5431L28.6889 123.918C28.6138 124.23 28.6058 124.555 28.6656 124.87C28.7253 125.186 28.8512 125.482 29.0336 125.737C29.216 125.991 29.4501 126.198 29.7181 126.34C29.986 126.483 30.2807 126.558 30.5796 126.559H42.977C43.51 126.559 44.0279 126.368 44.4498 126.018C44.8716 125.668 45.1738 125.177 45.309 124.622L52.3306 95.8311H51.0004Z" fill="white"/>
</g>
<path d="M53.8387 126.56L46.2533 95.4399L45.0068 95.79L52.5052 126.56H53.8387Z" fill="#407BFF"/>
<path d="M69.2991 126.56L61.7138 95.4399L60.4673 95.79L67.9656 126.56H69.2991Z" fill="#407BFF"/>
<g opacity="0.5">
<path d="M53.8382 126.559L46.2529 95.4395L45.0063 95.7895L52.5047 126.559H53.8382Z" fill="white"/>
</g>
<g opacity="0.5">
<path d="M69.2986 126.559L61.7133 95.4395L60.4668 95.7895L67.9652 126.559H69.2986Z" fill="white"/>
</g>
<path opacity="0.2" d="M35.5431 95.8306H36.8766L35.8298 100.117L34.5962 99.7119L35.5431 95.8306Z" fill="black"/>
<path opacity="0.2" d="M46.2533 95.4399L47.9765 102.513L46.5303 102.042L45.0068 95.79L46.2533 95.4399Z" fill="black"/>
<path opacity="0.2" d="M51.0005 95.8306H52.3308L50.147 104.806L48.9102 104.401L51.0005 95.8306Z" fill="black"/>
<path opacity="0.2" d="M64.7576 108.012L63.3049 107.534L60.4673 95.8763L61.7138 95.4951L64.7576 108.012Z" fill="black"/>
<path d="M34.3676 96.306L28.3445 61.2253L28.264 60.6951C28.2044 60.3674 28.2125 60.0297 28.2877 59.7057C28.3628 59.3818 28.5031 59.0795 28.6988 58.8203C28.8877 58.5769 29.125 58.382 29.3931 58.2501C29.6611 58.1182 29.9533 58.0525 30.2481 58.0579H43.2864C43.9053 58.0907 44.4963 58.3442 44.9664 58.7784C45.4365 59.2126 45.7588 59.8029 45.8825 60.456L45.9792 61.0486L51.9991 96.0495L50.73 96.2991L44.6908 61.1942L44.6135 60.7021C44.5464 60.3672 44.3814 60.0644 44.1425 59.838C43.9037 59.6115 43.6036 59.4735 43.2864 59.4441H30.2352C30.1293 59.4397 30.024 59.4611 29.9269 59.5067C29.8298 59.5523 29.7436 59.6209 29.6747 59.7075C29.5995 59.8131 29.5467 59.9351 29.52 60.065C29.4933 60.195 29.4933 60.3296 29.5201 60.4595L29.6103 61.0417L35.6367 96.0426L34.3676 96.306Z" fill="#407BFF"/>
<g opacity="0.5">
<path d="M34.3676 96.306L28.3445 61.2253L28.264 60.6951C28.2044 60.3674 28.2125 60.0297 28.2877 59.7057C28.3628 59.3818 28.5031 59.0795 28.6988 58.8203C28.8877 58.5769 29.125 58.382 29.3931 58.2501C29.6611 58.1182 29.9533 58.0525 30.2481 58.0579H43.2864C43.9053 58.0907 44.4963 58.3442 44.9664 58.7784C45.4365 59.2126 45.7588 59.8029 45.8825 60.456L45.9792 61.0486L51.9991 96.0495L50.73 96.2991L44.6908 61.1942L44.6135 60.7021C44.5464 60.3672 44.3814 60.0644 44.1425 59.838C43.9037 59.6115 43.6036 59.4735 43.2864 59.4441H30.2352C30.1293 59.4397 30.024 59.4611 29.9269 59.5067C29.8298 59.5523 29.7436 59.6209 29.6747 59.7075C29.5995 59.8131 29.5467 59.9351 29.52 60.065C29.4933 60.195 29.4933 60.3296 29.5201 60.4595L29.6103 61.0417L35.6367 96.0426L34.3676 96.306Z" fill="white"/>
</g>
<path d="M37.0021 92.8267H61.7808C62.2079 92.8267 62.6176 93.0092 62.9196 93.3342C63.2216 93.6591 63.3913 94.0998 63.3913 94.5594V96.8708H35.3916V94.5525C35.3933 94.0941 35.5637 93.6552 35.8656 93.3317C36.1674 93.0083 36.5761 92.8267 37.0021 92.8267Z" fill="#407BFF"/>
<path d="M63.778 94.8535H35.0053C34.6478 94.8535 34.3579 95.1654 34.3579 95.5501V96.1808C34.3579 96.5655 34.6478 96.8773 35.0053 96.8773H63.778C64.1356 96.8773 64.4254 96.5655 64.4254 96.1808V95.5501C64.4254 95.1654 64.1356 94.8535 63.778 94.8535Z" fill="#407BFF"/>
<path opacity="0.6" d="M63.778 94.8535H35.0053C34.6478 94.8535 34.3579 95.1654 34.3579 95.5501V96.1808C34.3579 96.5655 34.6478 96.8773 35.0053 96.8773H63.778C64.1356 96.8773 64.4254 96.5655 64.4254 96.1808V95.5501C64.4254 95.1654 64.1356 94.8535 63.778 94.8535Z" fill="white"/>
<path d="M47.7764 75.3851H31.4044L28.9629 61.1768H45.3317L47.7539 75.2534L47.7764 75.3851Z" fill="#407BFF"/>
<path d="M63.8822 45.1064C63.8822 45.1064 61.824 39.9637 61.6468 39.4127C61.4697 38.8617 61.679 36.079 61.5212 35.6007C61.3634 35.1225 58.9734 34.7794 58.4677 34.8418C57.9621 34.9042 58.4065 39.2083 58.6159 39.5479C58.8889 39.8973 59.1968 40.2133 59.5339 40.4905L61.3537 46.3817L63.8822 45.1064Z" fill="#B97964"/>
<path d="M53.4691 54.8124C54.8735 55.0515 60.6228 55.9456 61.908 55.0238C62.9451 54.2787 60.0238 42.2017 60.0238 42.2017L62.6231 41.0615C62.6231 41.0615 68.7976 55.6926 65.4994 59.0333C63.8245 60.7314 59.1154 61.1611 52.3418 61.1611L53.4691 54.8124Z" fill="#407BFF"/>
<path opacity="0.8" d="M53.4691 54.8124C54.8735 55.0515 60.6228 55.9456 61.908 55.0238C62.9451 54.2787 60.0238 42.2017 60.0238 42.2017L62.6231 41.0615C62.6231 41.0615 68.7976 55.6926 65.4994 59.0333C63.8245 60.7314 59.1154 61.1611 52.3418 61.1611L53.4691 54.8124Z" fill="white"/>
<path opacity="0.1" d="M55.8486 61.1267C54.8501 61.1579 53.784 61.1717 52.6631 61.1717L53.6294 57.1899C54.6763 58.2708 55.4415 59.6282 55.8486 61.1267Z" fill="black"/>
<path d="M61.5762 63.2515L68.3917 71.0071" stroke="#2E353A" stroke-width="2" stroke-miterlimit="10"/>
<path d="M56.6895 67.8187C56.6895 67.8187 61.8913 67.6454 62.4324 67.5865C62.9735 67.5276 65.225 66.1414 65.7081 66.086C66.1912 66.0305 67.4796 68.2207 67.6407 68.7405C67.8017 69.2603 63.9913 70.6465 63.6145 70.5911C63.205 70.4708 62.8087 70.3035 62.4324 70.092L56.6895 70.8198V67.8187Z" fill="#B97964"/>
<path d="M53.6294 123.841L56.1965 123.463L56.5508 116.899L53.9901 117.281L53.6294 123.841Z" fill="#B97964"/>
<path d="M56.3901 123.13L53.4913 122.932C53.4429 122.928 53.3949 122.944 53.3571 122.977C53.3194 123.01 53.2948 123.057 53.2883 123.109L53.0049 125.569C52.9969 125.699 53.0369 125.826 53.116 125.923C53.1951 126.021 53.3069 126.08 53.4268 126.089C54.4382 126.141 54.9246 126.11 56.2001 126.186C56.986 126.235 58.5288 126.415 59.6078 126.301C60.6869 126.186 60.5548 125.043 60.091 124.987C58.983 124.852 57.5142 123.979 56.8249 123.313C56.7029 123.202 56.55 123.137 56.3901 123.13Z" fill="#2E353A"/>
<path d="M57.2788 123.664C57.0471 123.642 56.8182 123.593 56.596 123.519C56.5846 123.516 56.5743 123.509 56.5664 123.5C56.5584 123.491 56.553 123.479 56.5509 123.467C56.5502 123.454 56.5525 123.441 56.5576 123.43C56.5627 123.418 56.5703 123.408 56.5799 123.401C56.6668 123.345 57.4302 122.857 57.7394 123.009C57.774 123.027 57.8037 123.055 57.8257 123.089C57.8477 123.123 57.8612 123.162 57.865 123.203C57.8805 123.265 57.88 123.33 57.8636 123.391C57.8471 123.452 57.8153 123.507 57.7716 123.55C57.6264 123.653 57.4506 123.694 57.2788 123.664ZM57.6879 123.141C57.5236 123.058 57.0791 123.262 56.7667 123.446C57.2241 123.574 57.5623 123.581 57.6943 123.463C57.7208 123.433 57.7397 123.397 57.7493 123.357C57.7589 123.317 57.7588 123.275 57.7491 123.235C57.7477 123.214 57.7413 123.195 57.7306 123.179C57.7198 123.162 57.705 123.149 57.6879 123.141Z" fill="#407BFF"/>
<path d="M56.6088 123.519C56.6004 123.522 56.5913 123.522 56.583 123.519C56.5666 123.506 56.5551 123.488 56.5508 123.467C56.5508 123.443 56.5508 122.628 56.8149 122.375C56.8513 122.343 56.8938 122.32 56.9394 122.307C56.9851 122.295 57.0327 122.293 57.079 122.302C57.1301 122.307 57.1781 122.33 57.2155 122.368C57.2529 122.406 57.2774 122.456 57.2852 122.51C57.327 122.819 56.9083 123.373 56.641 123.519C56.6359 123.521 56.6304 123.523 56.6249 123.523C56.6193 123.523 56.6138 123.521 56.6088 123.519ZM57.0275 122.438C57.0033 122.436 56.979 122.439 56.9562 122.448C56.9335 122.457 56.9127 122.471 56.8954 122.49C56.7279 122.639 56.6861 123.096 56.6764 123.356C56.9263 123.159 57.1005 122.871 57.166 122.545C57.166 122.507 57.1434 122.458 57.0565 122.441L57.0275 122.438Z" fill="#407BFF"/>
<path opacity="0.2" d="M53.9902 117.28L56.5509 116.902L56.348 120.652L53.7905 120.895L53.9902 117.28Z" fill="black"/>
<path d="M53.7329 85.2634L53.108 81.0425L38.7233 80.1172C38.7233 80.1172 37.1934 88.8986 38.369 91.2378C40.4658 95.4136 51.7746 93.317 55.0825 93.7156C53.1048 102.417 53.2981 119.422 53.2981 119.422L58.0232 119.81C58.0232 119.81 61.6597 101.489 62.394 92.7799C62.8901 86.906 58.3646 87.0515 53.7329 85.2634Z" fill="#2E353A"/>
<path d="M52.744 119.661L58.4225 120.063L58.9089 117.447L52.6699 117.135L52.744 119.661Z" fill="#407BFF"/>
<path d="M59.5498 121.391L62.133 121.595L63.7499 115.257L61.1699 115.056L59.5498 121.391Z" fill="#B97964"/>
<path d="M62.3876 121.312L59.5886 120.473C59.5425 120.456 59.4921 120.46 59.4487 120.484C59.4052 120.507 59.3721 120.548 59.3567 120.598L58.603 122.94C58.5869 123.003 58.5825 123.068 58.59 123.133C58.5975 123.197 58.6167 123.259 58.6467 123.316C58.6766 123.372 58.7166 123.422 58.7644 123.461C58.8122 123.501 58.8668 123.53 58.9251 123.547C59.8914 123.821 60.3842 123.893 61.6178 124.261C62.3747 124.486 63.8499 125.006 64.9289 125.137C66.0079 125.269 66.0981 124.119 65.6536 123.963C64.5972 123.581 63.3346 122.396 62.7838 121.592C62.6851 121.453 62.5454 121.354 62.3876 121.312Z" fill="#2E353A"/>
<path d="M63.1539 122.036C62.9293 121.963 62.7131 121.863 62.5097 121.738C62.499 121.733 62.49 121.725 62.4842 121.714C62.4783 121.704 62.476 121.691 62.4775 121.679C62.4783 121.666 62.4823 121.654 62.4891 121.643C62.496 121.633 62.5053 121.625 62.5162 121.62C62.6096 121.585 63.4534 121.273 63.724 121.499C63.7553 121.523 63.78 121.557 63.7958 121.595C63.8116 121.633 63.8179 121.675 63.8142 121.717C63.8183 121.782 63.805 121.848 63.7759 121.905C63.7469 121.963 63.7032 122.011 63.6499 122.043C63.4896 122.107 63.3127 122.104 63.1539 122.036ZM63.6531 121.613C63.5082 121.495 63.0347 121.613 62.6869 121.706C63.1088 121.935 63.4406 122.018 63.5887 121.932C63.621 121.909 63.6472 121.877 63.6647 121.84C63.6822 121.803 63.6905 121.762 63.6886 121.72C63.6919 121.7 63.6898 121.679 63.6823 121.66C63.6749 121.641 63.6625 121.625 63.6467 121.613H63.6531Z" fill="#407BFF"/>
<path d="M62.5265 121.744H62.4878C62.4803 121.737 62.4746 121.727 62.4713 121.717C62.4679 121.707 62.4669 121.696 62.4685 121.685C62.4685 121.661 62.6199 120.864 62.9355 120.677C62.9779 120.655 63.0241 120.645 63.0708 120.645C63.1175 120.645 63.1637 120.655 63.2061 120.677C63.2556 120.693 63.2985 120.727 63.3282 120.773C63.358 120.819 63.3728 120.874 63.3704 120.93C63.3478 121.238 62.8325 121.688 62.5426 121.772C62.5344 121.765 62.5287 121.755 62.5265 121.744ZM63.132 120.781C63.1089 120.774 63.0846 120.772 63.0607 120.775C63.0369 120.779 63.014 120.788 62.9935 120.801C62.8003 120.912 62.6714 121.349 62.6102 121.602C62.8743 121.47 63.2222 121.12 63.2544 120.909C63.2544 120.871 63.2544 120.822 63.1675 120.787L63.132 120.781Z" fill="#407BFF"/>
<path opacity="0.2" d="M61.1703 115.056L63.7503 115.261L62.8259 118.882L60.2749 118.546L61.1703 115.056Z" fill="black"/>
<path d="M64.6256 118.435L60.0776 116.997C60.0776 116.997 62.809 100.508 65.5468 94.7903C65.3406 94.7175 65.0668 94.624 64.7286 94.5165C64.1199 94.319 63.3114 94.0729 62.3612 93.7888C55.7519 91.8169 42.356 88.1193 42.356 88.1193L48.4758 81.9751C48.4758 81.9751 72.8519 85.9742 73.3576 92.8843C73.5991 96.2077 64.6256 118.435 64.6256 118.435Z" fill="#2E353A"/>
<path d="M59.4922 117.103L64.9678 118.77L65.9502 116.32L59.9077 114.615L59.4922 117.103Z" fill="#407BFF"/>
<path opacity="0.2" d="M64.7418 94.5163C64.133 94.3188 63.3246 94.0728 62.3744 93.7886C62.5644 92.1113 62.5676 90.188 61.8172 89.2073C60.3259 87.2528 56.4897 86.1057 54.3059 85.6899C52.4797 85.3433 46.3438 84.6502 46.3438 84.6502C46.3438 84.6502 54.3059 83.8289 62.4485 86.383C66.4553 87.6513 65.6726 91.8826 64.7418 94.5163Z" fill="black"/>
<path d="M53.469 54.8131C53.469 54.8131 55.5562 63.1302 53.118 81.043C48.5732 80.9391 40.9363 80.7485 38.7235 80.6965C38.6688 78.2014 40.3791 65.9753 38.3789 54.1824C39.8193 53.9151 41.2757 53.7599 42.7368 53.718C44.8754 53.6359 47.0165 53.6857 49.1497 53.867C50.61 54.0624 52.054 54.3787 53.469 54.8131Z" fill="#407BFF"/>
<path opacity="0.7" d="M53.469 54.8131C53.469 54.8131 55.5562 63.1302 53.118 81.043C48.5732 80.9391 40.9363 80.7485 38.7235 80.6965C38.6688 78.2014 40.3791 65.9753 38.3789 54.1824C39.8193 53.9151 41.2757 53.7599 42.7368 53.718C44.8754 53.6359 47.0165 53.6857 49.1497 53.867C50.61 54.0624 52.054 54.3787 53.469 54.8131Z" fill="white"/>
<path opacity="0.1" d="M43.4286 69.3773C42.1402 69.0724 40.6038 67.7382 39.338 66.4213C39.338 64.0787 39.2317 61.587 38.9966 59.0469C40.7874 61.8989 45.6382 69.9006 43.4286 69.3773Z" fill="black"/>
<path d="M38.3687 54.1821C33.4439 56.0916 42.0889 70.4385 44.772 71.9182C47.455 73.398 61.0925 70.2999 61.0925 70.2999L60.5546 67.3335C60.5546 67.3335 48.4889 67.6627 47.3777 67.3612C46.2665 67.0597 43.6253 60.9432 42.105 58.0565C41.2599 56.3821 39.9551 55.0291 38.3687 54.1821Z" fill="#407BFF"/>
<path opacity="0.8" d="M38.3687 54.1821C33.4439 56.0916 42.0889 70.4385 44.772 71.9182C47.455 73.398 61.0925 70.2999 61.0925 70.2999L60.5546 67.3335C60.5546 67.3335 48.4889 67.6627 47.3777 67.3612C46.2665 67.0597 43.6253 60.9432 42.105 58.0565C41.2599 56.3821 39.9551 55.0291 38.3687 54.1821Z" fill="white"/>
<path d="M59.5884 67.0669L60.2873 71.0071L61.5757 70.5323L61.0926 67.0669H59.5884Z" fill="#407BFF"/>
<path opacity="0.7" d="M59.5884 67.0669L60.2873 71.0071L61.5757 70.5323L61.0926 67.0669H59.5884Z" fill="white"/>
<path d="M59.9363 43.0782L63.402 41.6019L62.7288 40.3301L59.6528 41.4875L59.9363 43.0782Z" fill="#407BFF"/>
<path opacity="0.7" d="M59.9363 43.0782L63.402 41.6019L62.7288 40.3301L59.6528 41.4875L59.9363 43.0782Z" fill="white"/>
<path opacity="0.1" d="M41.9507 53.7518C41.9507 53.7518 42.0441 55.3701 44.9977 56.9296L47.0398 55.3389C47.0398 55.3389 47.6228 59.4004 48.0061 62.4327C48.0061 62.4327 47.9803 57.5811 47.5938 55.7167L49.1559 56.3127C49.1559 56.3127 47.8257 53.8557 45.5614 53.2909C43.297 52.726 41.9507 53.7518 41.9507 53.7518Z" fill="black"/>
<path d="M43.5157 45.9824C43.8764 48.2107 44.1985 52.2861 42.7266 53.7346L47.0265 55.0238L49.1266 53.8836C46.8365 53.2391 46.9331 51.4024 47.3679 49.687L43.5157 45.9824Z" fill="#B97964"/>
<path opacity="0.2" d="M45.0944 47.4941L47.3813 49.6878C47.2754 50.0869 47.201 50.495 47.159 50.9076C46.2829 50.7517 45.0976 49.6843 45.0235 48.6932C44.9778 48.2922 45.0018 47.8856 45.0944 47.4941Z" fill="black"/>
<path d="M46.5661 39.7899C45.6288 40.885 46.4373 42.136 49.4296 43.6574C50.1414 41.9697 49.7066 39.1523 48.7403 38.6602C47.774 38.1681 47.3843 38.8404 46.5661 39.7899Z" fill="#2E353A"/>
<path d="M42.2596 43.2345C43.0198 46.135 43.329 47.8712 45.0103 49.0599C47.542 50.8446 50.6437 48.7133 50.7049 45.6256C50.7565 42.8533 49.5068 38.5735 46.5982 38.0294C45.9581 37.9064 45.2994 37.9612 44.6844 38.1886C44.0695 38.4161 43.5187 38.8087 43.0842 39.3293C42.6498 39.8498 42.346 40.4811 42.2017 41.1633C42.0574 41.8454 42.0773 42.556 42.2596 43.2275V43.2345Z" fill="#B97964"/>
<path d="M46.5023 43.0887C46.5506 43.3278 46.7084 43.4941 46.8534 43.4595C46.9983 43.4248 47.0756 43.2065 47.0273 42.9674C46.979 42.7283 46.8244 42.5619 46.6794 42.5931C46.5345 42.6243 46.4701 42.8496 46.5023 43.0887Z" fill="#2E353A"/>
<path d="M49.0302 42.5036C49.0785 42.7427 49.2363 42.9091 49.3812 42.8744C49.5262 42.8398 49.6067 42.6214 49.5584 42.3789C49.5101 42.1363 49.3523 41.9734 49.2073 42.0081C49.0624 42.0427 48.9818 42.2645 49.0302 42.5036Z" fill="#2E353A"/>
<path d="M48.2285 42.8086C48.64 43.4791 49.1365 44.0845 49.7037 44.6072C49.5749 44.7593 49.4169 44.8794 49.2405 44.959C49.0642 45.0386 48.8738 45.0758 48.6827 45.0681L48.2285 42.8086Z" fill="#A24E3F"/>
<path d="M45.6388 42.3924C45.6149 42.4021 45.5888 42.4036 45.564 42.3968C45.5393 42.3901 45.517 42.3754 45.5002 42.3547C45.4834 42.334 45.4729 42.3083 45.47 42.281C45.4672 42.2536 45.4721 42.226 45.4842 42.2018C45.5685 41.992 45.6986 41.8072 45.8634 41.663C46.0283 41.5188 46.223 41.4195 46.4312 41.3736C46.4648 41.3674 46.4994 41.3755 46.5276 41.3962C46.5559 41.4169 46.5755 41.4485 46.5826 41.4845C46.5864 41.5219 46.5769 41.5596 46.556 41.5898C46.5351 41.62 46.5043 41.6406 46.4698 41.6474C46.3063 41.6864 46.1538 41.7668 46.025 41.8819C45.8962 41.997 45.7947 42.1435 45.729 42.3093C45.7213 42.3299 45.7091 42.3482 45.6934 42.3627C45.6777 42.3772 45.659 42.3874 45.6388 42.3924Z" fill="#2E353A"/>
<path d="M49.9967 41.3185C49.9719 41.3253 49.9458 41.3239 49.9217 41.3147C49.8976 41.3054 49.8766 41.2887 49.8614 41.2665C49.7614 41.1217 49.6312 41.0043 49.4813 40.9236C49.3313 40.843 49.1658 40.8013 48.9982 40.8022C48.9628 40.8051 48.9278 40.7929 48.9007 40.7682C48.8736 40.7436 48.8565 40.7085 48.8532 40.6705C48.8513 40.6331 48.8625 40.5964 48.8845 40.5675C48.9066 40.5386 48.938 40.5197 48.9724 40.5145C49.1849 40.5093 49.3954 40.5588 49.5864 40.6589C49.7775 40.7589 49.9435 40.9067 50.0708 41.0898C50.0817 41.1045 50.0898 41.1214 50.0945 41.1396C50.0993 41.1577 50.1007 41.1767 50.0986 41.1954C50.0965 41.2141 50.091 41.2321 50.0823 41.2485C50.0737 41.2649 50.0621 41.2793 50.0482 41.2908C50.0336 41.3047 50.0158 41.3142 49.9967 41.3185Z" fill="#2E353A"/>
<path d="M42.8397 40.3829C44.2118 40.5561 44.3535 42.074 43.0007 45.3211C41.4386 44.5379 40.0632 42.0913 40.5045 41.0448C40.9457 39.9982 41.6254 40.2269 42.8397 40.3829Z" fill="#2E353A"/>
<path d="M41.4317 45.8892C41.5967 46.2202 41.8207 46.513 42.091 46.7509C42.3613 46.9887 42.6724 47.167 43.0067 47.2754C43.9022 47.5561 44.3595 46.6966 44.1212 45.7817C43.9054 44.957 43.1774 43.8168 42.2756 43.9381C41.3737 44.0594 41.0259 45.0679 41.4317 45.8892Z" fill="#B97964"/>
<path d="M40.6109 40.7955C40.6109 40.7955 39.9313 39.8529 41.2551 37.9677C42.5789 36.0825 45.8128 35.5038 48.2929 36.0236C50.773 36.5434 49.2978 39.489 48.4121 39.9777L48.5216 39.5168C47.5735 40.0489 46.5297 40.3539 45.4617 40.4109L45.9513 39.9222C45.9513 39.9222 42.0604 41.0069 40.6109 40.7955Z" fill="#2E353A"/>
<path d="M48.5175 45.865C48.4612 46.2212 48.43 46.5815 48.424 46.9428L48.2501 46.9705C47.4513 47.0848 47.0487 46.8527 46.8426 46.565C46.7446 46.4203 46.6796 46.253 46.6525 46.0764C46.6393 45.9764 46.6393 45.8749 46.6525 45.7749C47.1747 45.9409 47.7241 45.9834 48.263 45.8997C48.4112 45.8858 48.5175 45.865 48.5175 45.865Z" fill="#2E353A"/>
<path d="M48.2437 45.8997L48.2082 46.2185C47.461 46.3224 46.9199 46.2878 46.6525 46.0764C46.6393 45.9764 46.6393 45.8749 46.6525 45.7749C47.1686 45.9379 47.7111 45.9804 48.2437 45.8997Z" fill="white"/>
<path d="M48.2508 46.9666C47.452 47.0809 47.0494 46.8488 46.8433 46.5611C47.146 46.5242 47.4525 46.5453 47.7484 46.6235C47.9452 46.6781 48.121 46.7982 48.2508 46.9666Z" fill="#A24E3F"/>
<path d="M43.4836 52.3662C43.4836 52.3662 45.8091 54.2445 47.0266 54.6777C47.0266 54.6777 47.5999 53.5202 47.3648 52.5637L49.1267 53.8841C49.3247 54.6786 49.3247 55.5153 49.1267 56.3099L47.0266 55.0242L45.0425 56.5837C45.0425 56.5837 42.1082 55.6688 41.9375 53.7524L43.4836 52.3662Z" fill="#407BFF"/>
<path opacity="0.8" d="M43.4836 52.3662C43.4836 52.3662 45.8091 54.2445 47.0266 54.6777C47.0266 54.6777 47.5999 53.5202 47.3648 52.5637L49.1267 53.8841C49.3247 54.6786 49.3247 55.5153 49.1267 56.3099L47.0266 55.0242L45.0425 56.5837C45.0425 56.5837 42.1082 55.6688 41.9375 53.7524L43.4836 52.3662Z" fill="white"/>
<path d="M81.8672 70.1411H49.7641C49.5559 70.1411 49.3872 70.3226 49.3872 70.5466V71.5619C49.3872 71.7859 49.5559 71.9674 49.7641 71.9674H81.8672C82.0753 71.9674 82.2441 71.7859 82.2441 71.5619V70.5466C82.2441 70.3226 82.0753 70.1411 81.8672 70.1411Z" fill="#407BFF"/>
<path opacity="0.5" d="M82.1344 70.4979V71.5133C82.1344 71.7385 82.0764 71.9188 81.8703 71.9188H49.7639C49.5545 71.9188 49.2808 71.7385 49.2808 71.5133V70.4979C49.2808 70.2761 49.5545 70.186 49.7639 70.186H81.8703C82.0764 70.186 82.1344 70.2761 82.1344 70.4979Z" fill="white"/>
<path opacity="0.2" d="M62.8087 70.4979V71.5133C62.8087 71.7385 62.7379 71.9188 62.5317 71.9188H49.7639C49.5545 71.9188 49.2808 71.7385 49.2808 71.5133V70.4979C49.2808 70.2761 49.5545 70.186 49.7639 70.186H62.5317C62.7379 70.186 62.8087 70.2761 62.8087 70.4979Z" fill="black"/>
<path d="M55.5164 19.6356C55.2389 18.5535 54.7106 17.565 53.9809 16.7627C53.2513 15.9603 52.3443 15.3705 51.3449 15.0484C50.3455 14.7262 49.2864 14.6824 48.2669 14.921C47.2475 15.1596 46.301 15.6728 45.5163 16.4125C44.7316 17.1522 44.1343 18.0942 43.7804 19.1501C43.4265 20.2061 43.3276 21.3414 43.4929 22.4497C43.6583 23.558 44.0825 24.603 44.7258 25.4867C45.3691 26.3704 46.2105 27.0639 47.1709 27.5021C47.5837 27.6843 47.9166 28.0288 48.1018 28.4655L48.3112 28.9749L54.2409 27.2422L54.1797 26.6877C54.1371 26.2071 54.2622 25.7265 54.5308 25.3397C55.0835 24.53 55.4591 23.5965 55.6298 22.6089C55.8005 21.6212 55.7617 20.6049 55.5164 19.6356Z" fill="#407BFF"/>
<path d="M50.2465 28.9893C50.2465 28.9893 49.3543 25.9779 47.7793 24.6437L48.6522 24.3872L48.7198 22.9421L50.1467 25.1635L50.0307 22.4604L51.4383 24.9244L51.58 23.5382L52.8265 23.1917C52.1446 24.8396 52.0226 26.693 52.4819 28.4279" stroke="white" stroke-linecap="round" stroke-linejoin="round"/>
<path d="M51.3678 28.4835C50.3177 28.7919 49.7315 30.0914 50.06 31.384C50.3886 32.6766 51.503 33.4633 52.5531 33.1653C53.6031 32.8672 54.1861 31.5608 53.8608 30.2682C53.5354 28.9755 52.4178 28.1785 51.3678 28.4835Z" fill="#2E353A"/>
<path d="M53.3902 31.9767L51.2772 32.597C50.7725 32.7448 50.2345 32.6819 49.771 32.421C49.3075 32.1601 48.9528 31.7204 48.7778 31.1901L48.0853 29.0865C48.0714 29.045 48.0657 29.0008 48.0686 28.9567C48.0714 28.9127 48.0828 28.8697 48.1018 28.8306C48.1209 28.7915 48.1473 28.7571 48.1794 28.7296C48.2115 28.7021 48.2485 28.682 48.2882 28.6707L54.1117 26.9622C54.1513 26.9504 54.1927 26.9476 54.2334 26.954C54.2741 26.9604 54.3131 26.9758 54.3479 26.9993C54.3828 27.0227 54.4127 27.0537 54.4358 27.0903C54.4589 27.1269 54.4746 27.1682 54.4821 27.2117L54.8783 29.3984C54.9781 29.9509 54.8802 30.5235 54.6043 31.0016C54.3283 31.4797 53.8947 31.828 53.3902 31.9767Z" fill="#407BFF"/>
<path opacity="0.4" d="M53.3902 31.9767L51.2772 32.597C50.7725 32.7448 50.2345 32.6819 49.771 32.421C49.3075 32.1601 48.9528 31.7204 48.7778 31.1901L48.0853 29.0865C48.0714 29.045 48.0657 29.0008 48.0686 28.9567C48.0714 28.9127 48.0828 28.8697 48.1018 28.8306C48.1209 28.7915 48.1473 28.7571 48.1794 28.7296C48.2115 28.7021 48.2485 28.682 48.2882 28.6707L54.1117 26.9622C54.1513 26.9504 54.1927 26.9476 54.2334 26.954C54.2741 26.9604 54.3131 26.9758 54.3479 26.9993C54.3828 27.0227 54.4127 27.0537 54.4358 27.0903C54.4589 27.1269 54.4746 27.1682 54.4821 27.2117L54.8783 29.3984C54.9781 29.9509 54.8802 30.5235 54.6043 31.0016C54.3283 31.4797 53.8947 31.828 53.3902 31.9767Z" fill="white"/>
<path d="M41.3508 26.2623C40.7738 26.1482 40.1885 26.0891 39.6018 26.0855C39.3102 26.0837 39.0187 26.101 38.729 26.1375C38.584 26.1618 38.4391 26.1791 38.3006 26.2172C38.2297 26.238 38.1589 26.2484 38.0912 26.2761L37.8883 26.3455L37.6564 26.4252L37.7949 26.2068C38.1855 25.5846 38.4965 24.9085 38.7193 24.1969C38.8301 23.8439 38.9109 23.4809 38.9609 23.1122C38.9855 22.9296 39.0005 22.7456 39.006 22.5612C39.0156 22.3777 39.0156 22.1937 39.006 22.0102C38.9937 21.8285 38.97 21.6479 38.9351 21.4696L38.8739 21.2062L38.7934 20.9463C38.7362 20.7764 38.6662 20.6118 38.584 20.4542C38.5048 20.2953 38.4155 20.1424 38.3167 19.9968C38.2171 19.8514 38.1095 19.7125 37.9946 19.5809L37.8174 19.3868L37.6242 19.2066C37.4986 19.0819 37.3504 18.9849 37.2184 18.8601C37.0863 18.7353 36.9285 18.666 36.7835 18.5655L36.4614 18.3368L36.819 18.1531C36.9897 18.063 37.17 17.9556 37.3407 17.8447C37.5115 17.7338 37.6822 17.6195 37.8497 17.4982C38.1816 17.2547 38.497 16.986 38.7934 16.6942C38.9383 16.5487 39.0801 16.3996 39.2186 16.2437C39.3571 16.0877 39.4827 15.9214 39.6018 15.7551C39.721 15.5887 39.837 15.4085 39.9239 15.2318C40.028 15.0546 40.1216 14.8706 40.2042 14.6808C40.2893 14.4922 40.3625 14.2977 40.4232 14.0986L40.5069 13.8006L40.5681 13.4921C40.6041 13.2886 40.6256 13.0824 40.6326 12.8753C40.6496 12.4575 40.615 12.0391 40.5295 11.6312L40.4651 11.3228L40.3749 11.0213C40.3201 10.8168 40.2332 10.6262 40.1623 10.4287C40.0914 10.2312 39.9884 10.0475 39.9014 9.85342L39.4408 8.81379L40.3233 9.42371C40.4779 9.5346 40.6454 9.64203 40.829 9.74253C41.0126 9.84303 41.1833 9.94006 41.3637 10.0267C41.7229 10.2072 42.0931 10.3612 42.4717 10.4876C42.6617 10.5465 42.8518 10.602 43.0418 10.647C43.232 10.6937 43.4245 10.7284 43.6184 10.751C43.8096 10.7774 44.0022 10.7901 44.1949 10.7891C44.3856 10.7875 44.5759 10.7737 44.765 10.7475L45.042 10.6955L45.3158 10.6158C45.4926 10.5534 45.6649 10.4769 45.8312 10.3871C45.9141 10.3442 45.9938 10.2944 46.0695 10.2381C46.1503 10.1876 46.2268 10.1296 46.2982 10.0648C46.446 9.94104 46.5859 9.80674 46.7169 9.66282C46.8457 9.51326 46.9652 9.35466 47.0744 9.18806C47.188 9.02059 47.2903 8.84455 47.3804 8.66131C47.4803 8.48457 47.5479 8.28358 47.6349 8.09644C47.7219 7.90931 47.7734 7.70138 47.8442 7.50385L48.2469 6.36719L48.4466 7.55237C48.4803 7.74621 48.5266 7.93728 48.5851 8.12417C48.7549 8.70372 49.014 9.24845 49.3517 9.7356C49.5743 10.0537 49.8378 10.3361 50.1343 10.5742C50.2805 10.6941 50.4356 10.8007 50.5982 10.8931C50.7606 10.988 50.9297 11.0691 51.1038 11.1356C51.2786 11.2013 51.4572 11.2546 51.6385 11.295C51.8225 11.3349 52.0086 11.3627 52.1957 11.3782C52.3835 11.3886 52.5716 11.3886 52.7594 11.3782C52.9494 11.3782 53.1395 11.3505 53.3295 11.3332C53.5196 11.3158 53.7096 11.2673 53.8964 11.2361L54.4601 11.0906L55.0173 10.9104L55.5681 10.699L56.3314 10.4044L55.8934 11.1356C55.8129 11.2639 55.7323 11.4198 55.6583 11.5688C55.5842 11.7178 55.5165 11.8703 55.4521 12.0297C55.3254 12.3405 55.2252 12.6629 55.1526 12.9931C55.0805 13.3189 55.0449 13.6528 55.0463 13.9877C55.0497 14.3159 55.1031 14.6414 55.2041 14.9511L55.2911 15.1798L55.4006 15.4328C55.4794 15.5733 55.5688 15.7066 55.6679 15.8313C55.7673 15.9551 55.875 16.0709 55.99 16.1778C56.1093 16.2894 56.2352 16.3924 56.3669 16.4863C56.4975 16.5821 56.633 16.6701 56.7727 16.7496C56.9112 16.8328 57.0594 16.8952 57.2043 16.9714L57.6553 17.1551L58.1191 17.311L58.4412 17.4219L58.1706 17.6472C57.9884 17.7994 57.8172 17.9662 57.6585 18.1462C57.4981 18.3267 57.3496 18.5189 57.214 18.7215C57.1399 18.822 57.0819 18.9294 57.0175 19.0334C56.9554 19.1381 56.8995 19.2469 56.85 19.3591C56.7934 19.4699 56.746 19.5859 56.7083 19.7057C56.6636 19.8177 56.628 19.9336 56.602 20.0522C56.5795 20.1735 56.5408 20.2913 56.5279 20.3988L56.4957 20.7696C56.4957 20.8943 56.4957 21.0191 56.515 21.1438C56.5215 21.2682 56.541 21.3914 56.573 21.5112C56.5941 21.6292 56.6243 21.7451 56.6632 21.8577L56.7953 22.2042C56.8396 22.3251 56.8946 22.4412 56.9595 22.5508L57.1399 22.8973L57.2075 23.0186H57.0819C56.6056 23.02 56.1314 23.0875 55.6711 23.2196C55.4406 23.2853 55.218 23.3795 55.0076 23.5003C54.9553 23.5305 54.9048 23.5641 54.8562 23.6008C54.8039 23.6326 54.7552 23.671 54.7113 23.7152C54.6633 23.753 54.6181 23.7947 54.576 23.8399L54.4504 23.982L54.5696 23.833C54.6085 23.7837 54.6517 23.7385 54.6984 23.6979C54.7421 23.6517 54.7895 23.61 54.8401 23.5731C54.8885 23.5384 54.9368 23.4969 54.9883 23.4657C55.1966 23.3313 55.4181 23.2221 55.6486 23.1399C56.1123 22.9778 56.5947 22.8857 57.0819 22.8661L57.0272 22.9874L56.8275 22.6409C56.755 22.5321 56.6924 22.4161 56.6407 22.2944L56.4893 21.9478C56.4412 21.8249 56.4045 21.6972 56.3798 21.5666C56.3395 21.4399 56.3136 21.3084 56.3025 21.175C56.3025 21.0433 56.2735 20.9082 56.2702 20.7765V20.371C56.2702 20.2393 56.3153 20.1077 56.3347 19.976C56.3592 19.8438 56.3937 19.714 56.4377 19.5878C56.473 19.4587 56.5193 19.3334 56.5762 19.2136C56.6247 19.0941 56.6806 18.9783 56.7437 18.867C56.8023 18.7479 56.8668 18.6322 56.937 18.5205C57.0759 18.2994 57.2298 18.0898 57.3976 17.8932C57.5655 17.6926 57.7475 17.506 57.9419 17.3353L58.0031 17.6818L57.5168 17.5328L57.0368 17.3492C56.879 17.2764 56.7147 17.2105 56.5666 17.1239C56.4121 17.0428 56.2626 16.9514 56.1189 16.8501C55.9716 16.7506 55.8306 16.6406 55.6969 16.5209C55.5645 16.4005 55.4417 16.2683 55.3297 16.1259C55.2096 15.983 55.1018 15.8288 55.0076 15.665L54.8756 15.4155L54.7693 15.1486C54.6453 14.7958 54.5757 14.4236 54.5631 14.0466C54.5504 13.6685 54.5818 13.2901 54.6566 12.9203C54.7281 12.5568 54.8294 12.2008 54.9593 11.8564C55.0237 11.6832 55.0946 11.5099 55.1719 11.3505C55.2492 11.1911 55.3297 11.0247 55.4296 10.8549L55.7517 11.2916L55.1783 11.5168L54.5954 11.7109C54.3957 11.7698 54.196 11.8183 53.9963 11.8703C53.7966 11.9223 53.5936 11.9535 53.3875 11.9777C53.1814 12.0084 52.9739 12.0269 52.7659 12.0332C52.5513 12.0459 52.3362 12.0459 52.1217 12.0332C51.9119 12.0168 51.7032 11.9867 51.4968 11.9431C51.2885 11.898 51.083 11.839 50.8816 11.7663C50.6807 11.6894 50.4848 11.5979 50.2954 11.4926C50.105 11.3862 49.9229 11.2634 49.7511 11.1252C49.4076 10.8531 49.1018 10.5299 48.8427 10.1653C48.5856 9.80625 48.3693 9.41533 48.1986 9.00092C48.1115 8.79542 48.0352 8.58485 47.9699 8.37021C47.9003 8.1515 47.8444 7.92807 47.8024 7.70138L48.4047 7.7499C48.3306 7.96476 48.263 8.18308 48.1824 8.39447C48.0999 8.6084 48.0075 8.81775 47.9054 9.02172C47.8115 9.22956 47.7039 9.42991 47.5834 9.62124C47.4571 9.81535 47.3194 10.0006 47.1711 10.1757C47.0173 10.3485 46.8515 10.5084 46.675 10.6539C46.5881 10.7292 46.4955 10.7964 46.398 10.8549C46.3051 10.9216 46.2083 10.9818 46.1082 11.0351C45.9078 11.1424 45.6999 11.2328 45.4865 11.3054L45.1644 11.3921L44.8423 11.4545C44.6287 11.4837 44.4134 11.4964 44.1981 11.4926C43.9827 11.493 43.7675 11.478 43.5539 11.4475C43.3373 11.4199 43.1223 11.3794 42.9098 11.3262C42.7004 11.2777 42.4943 11.2153 42.2913 11.146C41.8878 11.0101 41.4939 10.8434 41.1125 10.647C40.9192 10.5534 40.7324 10.4495 40.5488 10.342C40.3652 10.2346 40.1848 10.1203 39.9948 9.9955L40.4167 9.58312C40.5102 9.79104 40.61 9.99204 40.6937 10.2069C40.78 10.4187 40.8563 10.635 40.9224 10.8549L41.0191 11.2015L41.0899 11.548C41.1333 11.7771 41.1655 12.0084 41.1866 12.2411C41.1991 12.4719 41.1991 12.7034 41.1866 12.9342C41.1768 13.167 41.1509 13.3986 41.1093 13.6273L41.0384 13.9738L40.9418 14.3204C40.8714 14.5432 40.7875 14.7609 40.6905 14.9719C40.5965 15.1819 40.4889 15.3846 40.3684 15.5783C40.2506 15.7677 40.1237 15.9505 39.9884 16.1259C39.8499 16.3061 39.7081 16.4724 39.56 16.6422C39.4118 16.812 39.254 16.961 39.0962 17.1135C38.775 17.4108 38.4361 17.6852 38.0816 17.9348C37.9033 18.0596 37.723 18.1751 37.5404 18.2814C37.3536 18.3923 37.17 18.4962 36.9671 18.5933L36.9897 18.1809C37.141 18.2918 37.3118 18.3923 37.447 18.5066C37.5823 18.621 37.7434 18.7388 37.8754 18.8774L38.0816 19.0784L38.2716 19.2933C38.3955 19.441 38.5116 19.596 38.6195 19.7576C38.726 19.9224 38.8218 20.0949 38.9061 20.274C38.9917 20.4504 39.0649 20.6334 39.1251 20.8215L39.2057 21.1092L39.2637 21.4003C39.2978 21.596 39.3193 21.794 39.3281 21.9929C39.3509 22.7782 39.2238 23.5601 38.9544 24.2904C38.6978 25.0137 38.3522 25.6967 37.927 26.3212L37.8335 26.1826L38.0494 26.1167C38.1234 26.0925 38.1975 26.0821 38.2716 26.0647C38.4165 26.0301 38.5647 26.0197 38.7129 25.9989C39.0089 25.9799 39.3058 25.9799 39.6018 25.9989C40.1908 26.0325 40.7759 26.1206 41.3508 26.2623Z" fill="#407BFF"/>
<path opacity="0.7" d="M41.3508 26.2623C40.7738 26.1482 40.1885 26.0891 39.6018 26.0855C39.3102 26.0837 39.0187 26.101 38.729 26.1375C38.584 26.1618 38.4391 26.1791 38.3006 26.2172C38.2297 26.238 38.1589 26.2484 38.0912 26.2761L37.8883 26.3455L37.6564 26.4252L37.7949 26.2068C38.1855 25.5846 38.4965 24.9085 38.7193 24.1969C38.8301 23.8439 38.9109 23.4809 38.9609 23.1122C38.9855 22.9296 39.0005 22.7456 39.006 22.5612C39.0156 22.3777 39.0156 22.1937 39.006 22.0102C38.9937 21.8285 38.97 21.6479 38.9351 21.4696L38.8739 21.2062L38.7934 20.9463C38.7362 20.7764 38.6662 20.6118 38.584 20.4542C38.5048 20.2953 38.4155 20.1424 38.3167 19.9968C38.2171 19.8514 38.1095 19.7125 37.9946 19.5809L37.8174 19.3868L37.6242 19.2066C37.4986 19.0819 37.3504 18.9849 37.2184 18.8601C37.0863 18.7353 36.9285 18.666 36.7835 18.5655L36.4614 18.3368L36.819 18.1531C36.9897 18.063 37.17 17.9556 37.3407 17.8447C37.5115 17.7338 37.6822 17.6195 37.8497 17.4982C38.1816 17.2547 38.497 16.986 38.7934 16.6942C38.9383 16.5487 39.0801 16.3996 39.2186 16.2437C39.3571 16.0877 39.4827 15.9214 39.6018 15.7551C39.721 15.5887 39.837 15.4085 39.9239 15.2318C40.028 15.0546 40.1216 14.8706 40.2042 14.6808C40.2893 14.4922 40.3625 14.2977 40.4232 14.0986L40.5069 13.8006L40.5681 13.4921C40.6041 13.2886 40.6256 13.0824 40.6326 12.8753C40.6496 12.4575 40.615 12.0391 40.5295 11.6312L40.4651 11.3228L40.3749 11.0213C40.3201 10.8168 40.2332 10.6262 40.1623 10.4287C40.0914 10.2312 39.9884 10.0475 39.9014 9.85342L39.4408 8.81379L40.3233 9.42371C40.4779 9.5346 40.6454 9.64203 40.829 9.74253C41.0126 9.84303 41.1833 9.94006 41.3637 10.0267C41.7229 10.2072 42.0931 10.3612 42.4717 10.4876C42.6617 10.5465 42.8518 10.602 43.0418 10.647C43.232 10.6937 43.4245 10.7284 43.6184 10.751C43.8096 10.7774 44.0022 10.7901 44.1949 10.7891C44.3856 10.7875 44.5759 10.7737 44.765 10.7475L45.042 10.6955L45.3158 10.6158C45.4926 10.5534 45.6649 10.4769 45.8312 10.3871C45.9141 10.3442 45.9938 10.2944 46.0695 10.2381C46.1503 10.1876 46.2268 10.1296 46.2982 10.0648C46.446 9.94104 46.5859 9.80674 46.7169 9.66282C46.8457 9.51326 46.9652 9.35466 47.0744 9.18806C47.188 9.02059 47.2903 8.84455 47.3804 8.66131C47.4803 8.48457 47.5479 8.28358 47.6349 8.09644C47.7219 7.90931 47.7734 7.70138 47.8442 7.50385L48.2469 6.36719L48.4466 7.55237C48.4803 7.74621 48.5266 7.93728 48.5851 8.12417C48.7549 8.70372 49.014 9.24845 49.3517 9.7356C49.5743 10.0537 49.8378 10.3361 50.1343 10.5742C50.2805 10.6941 50.4356 10.8007 50.5982 10.8931C50.7606 10.988 50.9297 11.0691 51.1038 11.1356C51.2786 11.2013 51.4572 11.2546 51.6385 11.295C51.8225 11.3349 52.0086 11.3627 52.1957 11.3782C52.3835 11.3886 52.5716 11.3886 52.7594 11.3782C52.9494 11.3782 53.1395 11.3505 53.3295 11.3332C53.5196 11.3158 53.7096 11.2673 53.8964 11.2361L54.4601 11.0906L55.0173 10.9104L55.5681 10.699L56.3314 10.4044L55.8934 11.1356C55.8129 11.2639 55.7323 11.4198 55.6583 11.5688C55.5842 11.7178 55.5165 11.8703 55.4521 12.0297C55.3254 12.3405 55.2252 12.6629 55.1526 12.9931C55.0805 13.3189 55.0449 13.6528 55.0463 13.9877C55.0497 14.3159 55.1031 14.6414 55.2041 14.9511L55.2911 15.1798L55.4006 15.4328C55.4794 15.5733 55.5688 15.7066 55.6679 15.8313C55.7673 15.9551 55.875 16.0709 55.99 16.1778C56.1093 16.2894 56.2352 16.3924 56.3669 16.4863C56.4975 16.5821 56.633 16.6701 56.7727 16.7496C56.9112 16.8328 57.0594 16.8952 57.2043 16.9714L57.6553 17.1551L58.1191 17.311L58.4412 17.4219L58.1706 17.6472C57.9884 17.7994 57.8172 17.9662 57.6585 18.1462C57.4981 18.3267 57.3496 18.5189 57.214 18.7215C57.1399 18.822 57.0819 18.9294 57.0175 19.0334C56.9554 19.1381 56.8995 19.2469 56.85 19.3591C56.7934 19.4699 56.746 19.5859 56.7083 19.7057C56.6636 19.8177 56.628 19.9336 56.602 20.0522C56.5795 20.1735 56.5408 20.2913 56.5279 20.3988L56.4957 20.7696C56.4957 20.8943 56.4957 21.0191 56.515 21.1438C56.5215 21.2682 56.541 21.3914 56.573 21.5112C56.5941 21.6292 56.6243 21.7451 56.6632 21.8577L56.7953 22.2042C56.8396 22.3251 56.8946 22.4412 56.9595 22.5508L57.1399 22.8973L57.2075 23.0186H57.0819C56.6056 23.02 56.1314 23.0875 55.6711 23.2196C55.4406 23.2853 55.218 23.3795 55.0076 23.5003C54.9553 23.5305 54.9048 23.5641 54.8562 23.6008C54.8039 23.6326 54.7552 23.671 54.7113 23.7152C54.6633 23.753 54.6181 23.7947 54.576 23.8399L54.4504 23.982L54.5696 23.833C54.6085 23.7837 54.6517 23.7385 54.6984 23.6979C54.7421 23.6517 54.7895 23.61 54.8401 23.5731C54.8885 23.5384 54.9368 23.4969 54.9883 23.4657C55.1966 23.3313 55.4181 23.2221 55.6486 23.1399C56.1123 22.9778 56.5947 22.8857 57.0819 22.8661L57.0272 22.9874L56.8275 22.6409C56.755 22.5321 56.6924 22.4161 56.6407 22.2944L56.4893 21.9478C56.4412 21.8249 56.4045 21.6972 56.3798 21.5666C56.3395 21.4399 56.3136 21.3084 56.3025 21.175C56.3025 21.0433 56.2735 20.9082 56.2702 20.7765V20.371C56.2702 20.2393 56.3153 20.1077 56.3347 19.976C56.3592 19.8438 56.3937 19.714 56.4377 19.5878C56.473 19.4587 56.5193 19.3334 56.5762 19.2136C56.6247 19.0941 56.6806 18.9783 56.7437 18.867C56.8023 18.7479 56.8668 18.6322 56.937 18.5205C57.0759 18.2994 57.2298 18.0898 57.3976 17.8932C57.5655 17.6926 57.7475 17.506 57.9419 17.3353L58.0031 17.6818L57.5168 17.5328L57.0368 17.3492C56.879 17.2764 56.7147 17.2105 56.5666 17.1239C56.4121 17.0428 56.2626 16.9514 56.1189 16.8501C55.9716 16.7506 55.8306 16.6406 55.6969 16.5209C55.5645 16.4005 55.4417 16.2683 55.3297 16.1259C55.2096 15.983 55.1018 15.8288 55.0076 15.665L54.8756 15.4155L54.7693 15.1486C54.6453 14.7958 54.5757 14.4236 54.5631 14.0466C54.5504 13.6685 54.5818 13.2901 54.6566 12.9203C54.7281 12.5568 54.8294 12.2008 54.9593 11.8564C55.0237 11.6832 55.0946 11.5099 55.1719 11.3505C55.2492 11.1911 55.3297 11.0247 55.4296 10.8549L55.7517 11.2916L55.1783 11.5168L54.5954 11.7109C54.3957 11.7698 54.196 11.8183 53.9963 11.8703C53.7966 11.9223 53.5936 11.9535 53.3875 11.9777C53.1814 12.0084 52.9739 12.0269 52.7659 12.0332C52.5513 12.0459 52.3362 12.0459 52.1217 12.0332C51.9119 12.0168 51.7032 11.9867 51.4968 11.9431C51.2885 11.898 51.083 11.839 50.8816 11.7663C50.6807 11.6894 50.4848 11.5979 50.2954 11.4926C50.105 11.3862 49.9229 11.2634 49.7511 11.1252C49.4076 10.8531 49.1018 10.5299 48.8427 10.1653C48.5856 9.80625 48.3693 9.41533 48.1986 9.00092C48.1115 8.79542 48.0352 8.58485 47.9699 8.37021C47.9003 8.1515 47.8444 7.92807 47.8024 7.70138L48.4047 7.7499C48.3306 7.96476 48.263 8.18308 48.1824 8.39447C48.0999 8.6084 48.0075 8.81775 47.9054 9.02172C47.8115 9.22956 47.7039 9.42991 47.5834 9.62124C47.4571 9.81535 47.3194 10.0006 47.1711 10.1757C47.0173 10.3485 46.8515 10.5084 46.675 10.6539C46.5881 10.7292 46.4955 10.7964 46.398 10.8549C46.3051 10.9216 46.2083 10.9818 46.1082 11.0351C45.9078 11.1424 45.6999 11.2328 45.4865 11.3054L45.1644 11.3921L44.8423 11.4545C44.6287 11.4837 44.4134 11.4964 44.1981 11.4926C43.9827 11.493 43.7675 11.478 43.5539 11.4475C43.3373 11.4199 43.1223 11.3794 42.9098 11.3262C42.7004 11.2777 42.4943 11.2153 42.2913 11.146C41.8878 11.0101 41.4939 10.8434 41.1125 10.647C40.9192 10.5534 40.7324 10.4495 40.5488 10.342C40.3652 10.2346 40.1848 10.1203 39.9948 9.9955L40.4167 9.58312C40.5102 9.79104 40.61 9.99204 40.6937 10.2069C40.78 10.4187 40.8563 10.635 40.9224 10.8549L41.0191 11.2015L41.0899 11.548C41.1333 11.7771 41.1655 12.0084 41.1866 12.2411C41.1991 12.4719 41.1991 12.7034 41.1866 12.9342C41.1768 13.167 41.1509 13.3986 41.1093 13.6273L41.0384 13.9738L40.9418 14.3204C40.8714 14.5432 40.7875 14.7609 40.6905 14.9719C40.5965 15.1819 40.4889 15.3846 40.3684 15.5783C40.2506 15.7677 40.1237 15.9505 39.9884 16.1259C39.8499 16.3061 39.7081 16.4724 39.56 16.6422C39.4118 16.812 39.254 16.961 39.0962 17.1135C38.775 17.4108 38.4361 17.6852 38.0816 17.9348C37.9033 18.0596 37.723 18.1751 37.5404 18.2814C37.3536 18.3923 37.17 18.4962 36.9671 18.5933L36.9897 18.1809C37.141 18.2918 37.3118 18.3923 37.447 18.5066C37.5823 18.621 37.7434 18.7388 37.8754 18.8774L38.0816 19.0784L38.2716 19.2933C38.3955 19.441 38.5116 19.596 38.6195 19.7576C38.726 19.9224 38.8218 20.0949 38.9061 20.274C38.9917 20.4504 39.0649 20.6334 39.1251 20.8215L39.2057 21.1092L39.2637 21.4003C39.2978 21.596 39.3193 21.794 39.3281 21.9929C39.3509 22.7782 39.2238 23.5601 38.9544 24.2904C38.6978 25.0137 38.3522 25.6967 37.927 26.3212L37.8335 26.1826L38.0494 26.1167C38.1234 26.0925 38.1975 26.0821 38.2716 26.0647C38.4165 26.0301 38.5647 26.0197 38.7129 25.9989C39.0089 25.9799 39.3058 25.9799 39.6018 25.9989C40.1908 26.0325 40.7759 26.1206 41.3508 26.2623Z" fill="white"/>
</svg>
