<svg width="121" height="121" viewBox="0 0 121 121" fill="none" xmlns="http://www.w3.org/2000/svg">
<circle cx="60.1729" cy="60.1729" r="60.1729" fill="#73B686"/>
<path d="M35.671 37.2495H42.8037V36.6719C40.5247 36.8975 38.2908 36.8569 35.6123 37.0848C35.6402 37.1364 35.66 37.1919 35.671 37.2495Z" fill="#92E3A9"/>
<path d="M94.9984 51.8241C93.9062 45.691 90.9006 40.8712 87.0375 36.4169C86.5952 35.9069 86.1582 35.4225 85.7265 34.9637H74.2387C74.2012 35.0635 74.1376 35.1515 74.0547 35.2185C73.9717 35.2855 73.8724 35.329 73.7669 35.3447C73.6614 35.3604 73.5536 35.3476 73.4548 35.3076C73.3559 35.2676 73.2696 35.2019 73.2047 35.1173C73.1397 35.0327 73.0986 34.9323 73.0855 34.8265C73.0725 34.7206 73.088 34.6132 73.1304 34.5154C73.1728 34.4176 73.2406 34.3328 73.3268 34.27C73.4129 34.2072 73.5143 34.1686 73.6204 34.1581V31.5158H66.9593V34.9682H59.0977V41.2187H58.8721V34.7426H66.7337V31.2901H79.1782C79.2062 31.1434 79.288 31.0125 79.4075 30.9228C79.527 30.8332 79.6756 30.7913 79.8244 30.8054C79.9731 30.8195 80.1112 30.8886 80.2117 30.9991C80.3122 31.1096 80.3679 31.2536 80.3679 31.403C80.3679 31.5523 80.3122 31.6964 80.2117 31.8069C80.1112 31.9174 79.9731 31.9864 79.8244 32.0005C79.6756 32.0146 79.527 31.9728 79.4075 31.8831C79.288 31.7935 79.2062 31.6625 79.1782 31.5158H73.8506V34.1762C73.9724 34.2119 74.0797 34.2853 74.1571 34.3859C74.2346 34.4864 74.2781 34.6089 74.2816 34.7358H85.5031C77.0119 25.8182 70.1229 25.8926 64.696 27.2488C59.3956 28.5756 56.8841 31.5835 51.1143 34.3003V35.4285H55.995V35.6542H50.8886V34.4109C50.4712 34.6027 50.0402 34.7922 49.5889 34.9818C47.4988 35.8643 45.2873 36.4257 43.0293 36.647V37.4729H35.6709C35.6422 37.619 35.5602 37.7492 35.4409 37.8382C35.3216 37.9272 35.1734 37.9687 35.0252 37.9547C34.8771 37.9406 34.7394 37.872 34.6389 37.7621C34.5385 37.6522 34.4825 37.5089 34.4817 37.3601C34.4821 37.3017 34.492 37.2438 34.5111 37.1886C33.1225 37.344 31.7428 37.57 30.3772 37.8655C22.0034 39.6707 17.2422 50.9847 17.2422 57.4541C17.2422 63.9234 17.7454 73.2743 24.9594 78.1212C32.1733 82.9681 49.2617 73.8 55.9928 74.1633C62.7239 74.5266 70.4343 82.061 80.1372 82.061C93.7032 82.061 97.2368 64.4356 94.9984 51.8241ZM86.0356 58.8531H89.646V52.8418C89.4993 52.8137 89.3683 52.732 89.2787 52.6125C89.189 52.493 89.1472 52.3443 89.1613 52.1956C89.1754 52.0469 89.2444 51.9088 89.3549 51.8083C89.4654 51.7078 89.6094 51.6521 89.7588 51.6521C89.9082 51.6521 90.0522 51.7078 90.1627 51.8083C90.2732 51.9088 90.3423 52.0469 90.3564 52.1956C90.3705 52.3443 90.3286 52.493 90.239 52.6125C90.1493 52.732 90.0184 52.8137 89.8716 52.8418V59.0833H86.2613V63.1066H86.0356V58.8531ZM73.0044 46.3477H80.5569C80.585 46.2009 80.6667 46.07 80.7862 45.9803C80.9057 45.8907 81.0544 45.8488 81.2031 45.8629C81.3518 45.877 81.4899 45.9461 81.5904 46.0566C81.6909 46.1671 81.7466 46.3111 81.7466 46.4605C81.7466 46.6099 81.6909 46.7539 81.5904 46.8644C81.4899 46.9749 81.3518 47.0439 81.2031 47.058C81.0544 47.0721 80.9057 47.0303 80.7862 46.9406C80.6667 46.851 80.585 46.72 80.5569 46.5733H72.9977L73.0044 46.3477ZM32.5795 45.8603C32.7287 45.8614 32.872 45.9183 32.9814 46.0198C33.0908 46.1212 33.1583 46.2599 33.1707 46.4086H44.3335V46.6342H33.1459C33.116 46.7421 33.0566 46.8395 32.9742 46.9154C32.8919 46.9912 32.79 47.0426 32.6801 47.0636C32.5701 47.0846 32.4565 47.0744 32.352 47.0342C32.2475 46.9941 32.1563 46.9255 32.0888 46.8362C32.0213 46.7469 31.98 46.6405 31.9697 46.5291C31.9595 46.4176 31.9806 46.3055 32.0307 46.2054C32.0808 46.1053 32.1579 46.0212 32.2533 45.9626C32.3487 45.904 32.4585 45.8732 32.5705 45.8738L32.5795 45.8603ZM43.9003 71.4375H40.0891V73.0171C40.1963 73.0374 40.2959 73.0866 40.3772 73.1594C40.4586 73.2322 40.5185 73.3257 40.5506 73.43C40.5827 73.5343 40.5858 73.6454 40.5595 73.7513C40.5332 73.8572 40.4786 73.954 40.4014 74.0311C40.3242 74.1083 40.2275 74.163 40.1216 74.1893C40.0157 74.2155 39.9046 74.2125 39.8003 74.1803C39.696 74.1482 39.6025 74.0883 39.5297 74.007C39.4569 73.9256 39.4077 73.826 39.3873 73.7188H32.1124V69.9347H29.0098C28.9798 70.0393 28.9221 70.1339 28.8426 70.2082C28.7631 70.2825 28.6649 70.3338 28.5585 70.3567V76.1355H24.9481C24.8955 76.2752 24.7927 76.3902 24.6599 76.4582C24.527 76.5262 24.3736 76.5423 24.2296 76.5033C24.0855 76.4643 23.9612 76.3731 23.8807 76.2474C23.8003 76.1216 23.7696 75.9705 23.7946 75.8233C23.8197 75.6762 23.8986 75.5437 24.016 75.4516C24.1335 75.3595 24.281 75.3145 24.4298 75.3253C24.5787 75.3361 24.7182 75.402 24.8211 75.51C24.924 75.6181 24.9829 75.7607 24.9864 75.9099H28.3283V70.3567C28.2219 70.3338 28.1237 70.2825 28.0442 70.2082C27.9647 70.1339 27.9069 70.0393 27.877 69.9347H23.2196C23.1783 70.0788 23.0848 70.2024 22.9573 70.2813C22.8297 70.3601 22.6774 70.3886 22.53 70.3611C22.3826 70.3336 22.2507 70.2522 22.1602 70.1326C22.0696 70.0131 22.0269 69.8642 22.0404 69.7148C22.0538 69.5655 22.1224 69.4265 22.2329 69.3251C22.3433 69.2237 22.4876 69.1671 22.6375 69.1664C22.7874 69.1656 22.9323 69.2208 23.0437 69.3212C23.1551 69.4216 23.225 69.5598 23.2399 69.709H27.8409C27.8566 69.5623 27.926 69.4265 28.0357 69.3279C28.1455 69.2292 28.2879 69.1746 28.4355 69.1746C28.5831 69.1746 28.7254 69.2292 28.8352 69.3279C28.945 69.4265 29.0144 69.5623 29.0301 69.709H32.3381V73.4977H39.3873C39.41 73.3798 39.4675 73.2714 39.5523 73.1866C39.6372 73.1017 39.7456 73.0442 39.8634 73.0216V71.2164H43.8913L43.9003 71.4375ZM29.4453 63.3841C29.4184 63.5206 29.345 63.6435 29.2376 63.7319C29.1302 63.8202 28.9954 63.8685 28.8563 63.8685C28.7172 63.8685 28.5825 63.8202 28.475 63.7319C28.3676 63.6435 28.2942 63.5206 28.2674 63.3841H26.2771C26.2491 63.5308 26.1673 63.6618 26.0478 63.7514C25.9283 63.8411 25.7797 63.8829 25.631 63.8688C25.4822 63.8547 25.3441 63.7857 25.2436 63.6752C25.1431 63.5647 25.0874 63.4207 25.0874 63.2713C25.0874 63.1219 25.1431 62.9779 25.2436 62.8674C25.3441 62.7569 25.4822 62.6879 25.631 62.6737C25.7797 62.6596 25.9283 62.7015 26.0478 62.7911C26.1673 62.8808 26.2491 63.0118 26.2771 63.1585H28.2674C28.2934 63.0226 28.3655 62.8998 28.4716 62.811C28.5777 62.7222 28.7112 62.6728 28.8495 62.6711V60.9719H23.6596C23.6505 61.1216 23.586 61.2624 23.4786 61.367C23.3712 61.4716 23.2287 61.5324 23.0789 61.5375C22.9291 61.5426 22.7828 61.4918 22.6685 61.3948C22.5542 61.2978 22.4801 61.1617 22.4608 61.0131C22.4415 60.8644 22.4783 60.7139 22.564 60.5909C22.6497 60.4679 22.7781 60.3813 22.9243 60.348C23.0704 60.3147 23.2237 60.337 23.3543 60.4106C23.4848 60.4843 23.5832 60.604 23.6303 60.7463H29.0774V62.7139C29.172 62.7522 29.2554 62.8135 29.32 62.8924C29.3847 62.9712 29.4285 63.0651 29.4475 63.1652H90.5463C90.5744 63.0185 90.6562 62.8875 90.7757 62.7979C90.8952 62.7083 91.0438 62.6664 91.1925 62.6805C91.3412 62.6946 91.4793 62.7637 91.5799 62.8742C91.6804 62.9847 91.7361 63.1287 91.7361 63.2781C91.7361 63.4274 91.6804 63.5715 91.5799 63.682C91.4793 63.7925 91.3412 63.8615 91.1925 63.8756C91.0438 63.8897 90.8952 63.8479 90.7757 63.7582C90.6562 63.6686 90.5744 63.5376 90.5463 63.3909L29.4453 63.3841ZM90.7111 74.0144C90.7318 73.8671 90.8068 73.7328 90.9212 73.6378C91.0357 73.5428 91.1815 73.4939 91.3301 73.5006C91.4787 73.5073 91.6195 73.5691 91.725 73.6741C91.8304 73.779 91.893 73.9195 91.9004 74.0681C91.9078 74.2166 91.8596 74.3627 91.7651 74.4776C91.6707 74.5925 91.5368 74.6681 91.3896 74.6896C91.2423 74.7111 91.0924 74.677 90.969 74.5938C90.8457 74.5107 90.7577 74.3846 90.7223 74.2401H82.0642V71.9475C81.9564 71.9187 81.8589 71.86 81.783 71.7781C81.7071 71.6963 81.656 71.5946 81.6355 71.4849H72.0161V71.2592H81.6355C81.6623 71.1228 81.7357 70.9999 81.8431 70.9115C81.9506 70.8232 82.0853 70.7749 82.2244 70.7749C82.3635 70.7749 82.4983 70.8232 82.6057 70.9115C82.7131 70.9999 82.7865 71.1228 82.8134 71.2592H90.7111C90.7391 71.1125 90.8209 70.9816 90.9404 70.8919C91.0599 70.8023 91.2085 70.7604 91.3572 70.7745C91.506 70.7886 91.6441 70.8577 91.7446 70.9682C91.8451 71.0787 91.9008 71.2227 91.9008 71.3721C91.9008 71.5215 91.8451 71.6655 91.7446 71.776C91.6441 71.8865 91.506 71.9555 91.3572 71.9696C91.2085 71.9837 91.0599 71.9419 90.9404 71.8522C90.8209 71.7626 90.7391 71.6316 90.7111 71.4849H82.8134C82.7887 71.6103 82.7245 71.7246 82.6304 71.811C82.5362 71.8975 82.4169 71.9516 82.2899 71.9655V74.0144H90.7111Z" fill="#92E3A9"/>
<g opacity="0.7">
<path opacity="0.7" d="M35.6715 37.2495H42.8042V36.6719C40.5252 36.8975 38.2912 36.8569 35.6128 37.0848C35.6407 37.1364 35.6604 37.1919 35.6715 37.2495Z" fill="white"/>
<path opacity="0.7" d="M94.9989 51.8241C93.9067 45.691 90.9011 40.8712 87.038 36.4169C86.5957 35.9069 86.1587 35.4225 85.727 34.9637H74.2392C74.2017 35.0635 74.1381 35.1515 74.0552 35.2185C73.9722 35.2855 73.8728 35.329 73.7674 35.3447C73.6619 35.3604 73.5541 35.3476 73.4553 35.3076C73.3564 35.2676 73.2701 35.2019 73.2052 35.1173C73.1402 35.0327 73.0991 34.9323 73.086 34.8265C73.073 34.7206 73.0885 34.6132 73.1309 34.5154C73.1733 34.4176 73.2411 34.3328 73.3273 34.27C73.4134 34.2072 73.5148 34.1686 73.6209 34.1581V31.5158H66.9598V34.9682H59.0982V41.2187H58.8726V34.7426H66.7341V31.2901H79.1787C79.2067 31.1434 79.2885 31.0125 79.408 30.9228C79.5275 30.8332 79.6761 30.7913 79.8248 30.8054C79.9736 30.8195 80.1117 30.8886 80.2122 30.9991C80.3127 31.1096 80.3684 31.2536 80.3684 31.403C80.3684 31.5523 80.3127 31.6964 80.2122 31.8069C80.1117 31.9174 79.9736 31.9864 79.8248 32.0005C79.6761 32.0146 79.5275 31.9728 79.408 31.8831C79.2885 31.7935 79.2067 31.6625 79.1787 31.5158H73.8511V34.1762C73.9729 34.2119 74.0802 34.2853 74.1576 34.3859C74.2351 34.4864 74.2786 34.6089 74.2821 34.7358H85.5036C77.0124 25.8182 70.1234 25.8926 64.6965 27.2488C59.3961 28.5756 56.8846 31.5835 51.1148 34.3003V35.4285H55.9955V35.6542H50.8891V34.4109C50.4717 34.6027 50.0407 34.7922 49.5894 34.9818C47.4993 35.8643 45.2877 36.4257 43.0298 36.647V37.4729H35.6714C35.6427 37.619 35.5607 37.7492 35.4414 37.8382C35.3221 37.9272 35.1739 37.9687 35.0257 37.9547C34.8775 37.9406 34.7399 37.872 34.6394 37.7621C34.539 37.6522 34.483 37.5089 34.4822 37.3601C34.4826 37.3017 34.4925 37.2438 34.5115 37.1886C33.123 37.344 31.7433 37.57 30.3777 37.8655C22.0039 39.6707 17.2427 50.9847 17.2427 57.4541C17.2427 63.9234 17.7459 73.2743 24.9599 78.1212C32.1738 82.9681 49.2622 73.8 55.9933 74.1633C62.7244 74.5266 70.4348 82.061 80.1377 82.061C93.7036 82.061 97.2373 64.4356 94.9989 51.8241ZM86.0361 58.8531H89.6465V52.8418C89.4998 52.8137 89.3688 52.732 89.2792 52.6125C89.1895 52.493 89.1477 52.3443 89.1618 52.1956C89.1759 52.0469 89.2449 51.9088 89.3554 51.8083C89.4659 51.7078 89.6099 51.6521 89.7593 51.6521C89.9087 51.6521 90.0527 51.7078 90.1632 51.8083C90.2737 51.9088 90.3428 52.0469 90.3569 52.1956C90.371 52.3443 90.3291 52.493 90.2395 52.6125C90.1498 52.732 90.0188 52.8137 89.8721 52.8418V59.0833H86.2618V63.1066H86.0361V58.8531ZM73.0049 46.3477H80.5574C80.5854 46.2009 80.6672 46.07 80.7867 45.9803C80.9062 45.8907 81.0548 45.8488 81.2036 45.8629C81.3523 45.877 81.4904 45.9461 81.5909 46.0566C81.6914 46.1671 81.7471 46.3111 81.7471 46.4605C81.7471 46.6099 81.6914 46.7539 81.5909 46.8644C81.4904 46.9749 81.3523 47.0439 81.2036 47.058C81.0548 47.0721 80.9062 47.0303 80.7867 46.9406C80.6672 46.851 80.5854 46.72 80.5574 46.5733H72.9981L73.0049 46.3477ZM32.58 45.8603C32.7292 45.8614 32.8725 45.9183 32.9819 46.0198C33.0913 46.1212 33.1588 46.2599 33.1712 46.4086H44.334V46.6342H33.1464C33.1165 46.7421 33.057 46.8395 32.9747 46.9154C32.8924 46.9912 32.7905 47.0426 32.6806 47.0636C32.5706 47.0846 32.457 47.0744 32.3525 47.0342C32.248 46.9941 32.1568 46.9255 32.0893 46.8362C32.0217 46.7469 31.9805 46.6405 31.9702 46.5291C31.96 46.4176 31.9811 46.3055 32.0312 46.2054C32.0813 46.1053 32.1584 46.0212 32.2538 45.9626C32.3492 45.904 32.459 45.8732 32.571 45.8738L32.58 45.8603ZM43.9008 71.4375H40.0896V73.0171C40.1968 73.0374 40.2964 73.0866 40.3777 73.1594C40.459 73.2322 40.519 73.3257 40.5511 73.43C40.5832 73.5343 40.5863 73.6454 40.56 73.7513C40.5337 73.8572 40.4791 73.954 40.4019 74.0311C40.3247 74.1083 40.228 74.163 40.1221 74.1893C40.0162 74.2155 39.9051 74.2125 39.8008 74.1803C39.6965 74.1482 39.603 74.0883 39.5302 74.007C39.4574 73.9256 39.4082 73.826 39.3878 73.7188H32.1129V69.9347H29.0102C28.9803 70.0393 28.9225 70.1339 28.8431 70.2082C28.7636 70.2825 28.6654 70.3338 28.5589 70.3567V76.1355H24.9486C24.896 76.2752 24.7932 76.3902 24.6604 76.4582C24.5275 76.5262 24.3741 76.5423 24.2301 76.5033C24.086 76.4643 23.9616 76.3731 23.8812 76.2474C23.8008 76.1216 23.7701 75.9705 23.7951 75.8233C23.8201 75.6762 23.8991 75.5437 24.0165 75.4516C24.134 75.3595 24.2815 75.3145 24.4303 75.3253C24.5792 75.3361 24.7187 75.402 24.8216 75.51C24.9245 75.6181 24.9834 75.7607 24.9869 75.9099H28.3288V70.3567C28.2224 70.3338 28.1242 70.2825 28.0447 70.2082C27.9652 70.1339 27.9074 70.0393 27.8775 69.9347H23.2201C23.1788 70.0788 23.0853 70.2024 22.9577 70.2813C22.8302 70.3601 22.6779 70.3886 22.5305 70.3611C22.3831 70.3336 22.2512 70.2522 22.1607 70.1326C22.0701 70.0131 22.0274 69.8642 22.0408 69.7148C22.0543 69.5655 22.1229 69.4265 22.2334 69.3251C22.3438 69.2237 22.4881 69.1671 22.638 69.1664C22.7879 69.1656 22.9328 69.2208 23.0442 69.3212C23.1556 69.4216 23.2255 69.5598 23.2404 69.709H27.8414C27.8571 69.5623 27.9265 69.4265 28.0362 69.3279C28.146 69.2292 28.2884 69.1746 28.436 69.1746C28.5836 69.1746 28.7259 69.2292 28.8357 69.3279C28.9455 69.4265 29.0149 69.5623 29.0305 69.709H32.3386V73.4977H39.3878C39.4105 73.3798 39.4679 73.2714 39.5528 73.1866C39.6377 73.1017 39.7461 73.0442 39.8639 73.0216V71.2164H43.8918L43.9008 71.4375ZM29.4457 63.3841C29.4189 63.5206 29.3455 63.6435 29.2381 63.7319C29.1307 63.8202 28.9959 63.8685 28.8568 63.8685C28.7177 63.8685 28.5829 63.8202 28.4755 63.7319C28.3681 63.6435 28.2947 63.5206 28.2679 63.3841H26.2776C26.2496 63.5308 26.1678 63.6618 26.0483 63.7514C25.9288 63.8411 25.7802 63.8829 25.6314 63.8688C25.4827 63.8547 25.3446 63.7857 25.2441 63.6752C25.1436 63.5647 25.0879 63.4207 25.0879 63.2713C25.0879 63.1219 25.1436 62.9779 25.2441 62.8674C25.3446 62.7569 25.4827 62.6879 25.6314 62.6737C25.7802 62.6596 25.9288 62.7015 26.0483 62.7911C26.1678 62.8808 26.2496 63.0118 26.2776 63.1585H28.2679C28.2939 63.0226 28.366 62.8998 28.4721 62.811C28.5782 62.7222 28.7117 62.6728 28.85 62.6711V60.9719H23.6601C23.651 61.1216 23.5865 61.2624 23.4791 61.367C23.3717 61.4716 23.2292 61.5324 23.0794 61.5375C22.9296 61.5426 22.7832 61.4918 22.669 61.3948C22.5547 61.2978 22.4806 61.1617 22.4613 61.0131C22.442 60.8644 22.4787 60.7139 22.5644 60.5909C22.6502 60.4679 22.7786 60.3813 22.9248 60.348C23.0709 60.3147 23.2242 60.337 23.3548 60.4106C23.4853 60.4843 23.5837 60.604 23.6308 60.7463H29.0779V62.7139C29.1725 62.7522 29.2559 62.8135 29.3205 62.8924C29.3852 62.9712 29.429 63.0651 29.448 63.1652H90.5468C90.5749 63.0185 90.6567 62.8875 90.7762 62.7979C90.8957 62.7083 91.0443 62.6664 91.193 62.6805C91.3417 62.6946 91.4798 62.7637 91.5804 62.8742C91.6809 62.9847 91.7366 63.1287 91.7366 63.2781C91.7366 63.4274 91.6809 63.5715 91.5804 63.682C91.4798 63.7925 91.3417 63.8615 91.193 63.8756C91.0443 63.8897 90.8957 63.8479 90.7762 63.7582C90.6567 63.6686 90.5749 63.5376 90.5468 63.3909L29.4457 63.3841ZM90.7115 74.0144C90.7323 73.8671 90.8073 73.7328 90.9217 73.6378C91.0362 73.5428 91.182 73.4939 91.3306 73.5006C91.4792 73.5073 91.62 73.5691 91.7254 73.6741C91.8309 73.779 91.8934 73.9195 91.9009 74.0681C91.9083 74.2166 91.8601 74.3627 91.7656 74.4776C91.6712 74.5925 91.5373 74.6681 91.39 74.6896C91.2428 74.7111 91.0929 74.677 90.9695 74.5938C90.8462 74.5107 90.7582 74.3846 90.7228 74.2401H82.0647V71.9475C81.9569 71.9187 81.8594 71.86 81.7835 71.7781C81.7076 71.6963 81.6565 71.5946 81.636 71.4849H72.0166V71.2592H81.636C81.6628 71.1228 81.7362 70.9999 81.8436 70.9115C81.951 70.8232 82.0858 70.7749 82.2249 70.7749C82.364 70.7749 82.4988 70.8232 82.6062 70.9115C82.7136 70.9999 82.787 71.1228 82.8139 71.2592H90.7115C90.7396 71.1125 90.8214 70.9816 90.9409 70.8919C91.0604 70.8023 91.209 70.7604 91.3577 70.7745C91.5064 70.7886 91.6446 70.8577 91.7451 70.9682C91.8456 71.0787 91.9013 71.2227 91.9013 71.3721C91.9013 71.5215 91.8456 71.6655 91.7451 71.776C91.6446 71.8865 91.5064 71.9555 91.3577 71.9696C91.209 71.9837 91.0604 71.9419 90.9409 71.8522C90.8214 71.7626 90.7396 71.6316 90.7115 71.4849H82.8139C82.7891 71.6103 82.725 71.7246 82.6309 71.811C82.5367 71.8975 82.4174 71.9516 82.2903 71.9655V74.0144H90.7115Z" fill="white"/>
</g>
<path d="M61.5527 31.4636H55.8326C55.7067 31.4636 55.5859 31.4138 55.4967 31.325C55.4075 31.2362 55.357 31.1157 55.3564 30.9898V28.2955C55.3564 27.411 55.7078 26.5627 56.3333 25.9373C56.9587 25.3118 57.807 24.9604 58.6915 24.9604C59.576 24.9604 60.4243 25.3118 61.0498 25.9373C61.6752 26.5627 62.0266 27.411 62.0266 28.2955V30.9898C62.0266 31.1155 61.9767 31.236 61.8878 31.3248C61.799 31.4137 61.6784 31.4636 61.5527 31.4636ZM56.3087 30.5137H61.0766V28.2955C61.0865 27.9763 61.0321 27.6583 60.9167 27.3605C60.8013 27.0627 60.6273 26.7911 60.4049 26.5618C60.1826 26.3325 59.9164 26.1502 59.6223 26.0257C59.3282 25.9012 59.012 25.8371 58.6927 25.8371C58.3733 25.8371 58.0571 25.9012 57.763 26.0257C57.4689 26.1502 57.2027 26.3325 56.9804 26.5618C56.7581 26.7911 56.584 27.0627 56.4686 27.3605C56.3533 27.6583 56.2989 27.9763 56.3087 28.2955V30.5137Z" fill="#92E3A9" stroke="#263238" stroke-width="0.752161" stroke-linecap="round" stroke-linejoin="round"/>
<path d="M62.2866 30.166H55.0049V36.3194H62.2866V30.166Z" fill="#263238" stroke="#263238" stroke-width="0.752161" stroke-linecap="round" stroke-linejoin="round"/>
<path d="M59.402 32.7208C59.4026 32.5801 59.3658 32.4418 59.2954 32.3201C59.225 32.1983 59.1235 32.0974 59.0014 32.0277C58.8792 31.958 58.7407 31.922 58.6 31.9234C58.4594 31.9247 58.3216 31.9634 58.2008 32.0355C58.0801 32.1075 57.9806 32.2104 57.9125 32.3335C57.8445 32.4566 57.8104 32.5956 57.8137 32.7362C57.817 32.8768 57.8575 33.014 57.9312 33.1338C58.005 33.2536 58.1091 33.3517 58.2332 33.418L58.1 34.8171H59.12L58.9868 33.418C59.1127 33.3502 59.2177 33.2496 59.2908 33.1268C59.364 33.004 59.4024 32.8637 59.402 32.7208Z" fill="#92E3A9" stroke="#263238" stroke-width="0.752161" stroke-miterlimit="10"/>
<path d="M88.1771 61.838H82.4569C82.3945 61.838 82.3327 61.8256 82.2751 61.8017C82.2174 61.7777 82.1651 61.7426 82.121 61.6984C82.077 61.6541 82.0422 61.6016 82.0185 61.5439C81.9948 61.4861 81.9828 61.4243 81.9831 61.3619V58.6699C81.9715 58.2248 82.0492 57.7818 82.2115 57.3672C82.3738 56.9526 82.6175 56.5747 82.9283 56.2557C83.239 55.9368 83.6105 55.6834 84.0207 55.5103C84.431 55.3372 84.8717 55.248 85.317 55.248C85.7623 55.248 86.2031 55.3372 86.6133 55.5103C87.0236 55.6834 87.395 55.9368 87.7057 56.2557C88.0165 56.5747 88.2602 56.9526 88.4225 57.3672C88.5849 57.7818 88.6626 58.2248 88.651 58.6699V61.3619C88.6513 61.4243 88.6392 61.4861 88.6155 61.5439C88.5919 61.6016 88.557 61.6541 88.513 61.6984C88.469 61.7426 88.4166 61.7777 88.359 61.8017C88.3013 61.8256 88.2395 61.838 88.1771 61.838ZM82.933 60.888H87.701V58.6699C87.7108 58.3506 87.6564 58.0327 87.541 57.7349C87.4256 57.437 87.2516 57.1654 87.0293 56.9361C86.8069 56.7068 86.5408 56.5245 86.2467 56.4001C85.9525 56.2756 85.6364 56.2114 85.317 56.2114C84.9976 56.2114 84.6815 56.2756 84.3874 56.4001C84.0932 56.5245 83.8271 56.7068 83.6048 56.9361C83.3824 57.1654 83.2084 57.437 83.093 57.7349C82.9776 58.0327 82.9232 58.3506 82.933 58.6699V60.888Z" fill="#92E3A9" stroke="#263238" stroke-width="0.752161" stroke-linecap="round" stroke-linejoin="round"/>
<path d="M88.9101 60.541H81.6284V66.6944H88.9101V60.541Z" fill="#263238" stroke="#263238" stroke-width="0.752161" stroke-linecap="round" stroke-linejoin="round"/>
<path d="M86.0265 63.1065C86.0271 62.9659 85.9903 62.8276 85.9199 62.7058C85.8495 62.5841 85.748 62.4832 85.6259 62.4135C85.5037 62.3438 85.3652 62.3078 85.2246 62.3091C85.0839 62.3105 84.9462 62.3492 84.8254 62.4212C84.7046 62.4933 84.6051 62.5961 84.5371 62.7192C84.469 62.8423 84.4349 62.9813 84.4382 63.1219C84.4415 63.2625 84.4821 63.3998 84.5558 63.5196C84.6295 63.6394 84.7337 63.7374 84.8577 63.8038L84.7246 65.2005H85.7467L85.6114 63.7835C85.734 63.7172 85.837 63.6197 85.9099 63.5008C85.9828 63.3819 86.0231 63.2459 86.0265 63.1065Z" fill="#92E3A9" stroke="#263238" stroke-width="0.752161" stroke-miterlimit="10"/>
<path d="M34.608 61.8386H28.8834C28.8207 61.8389 28.7587 61.8268 28.7008 61.803C28.6429 61.7792 28.5903 61.7441 28.546 61.6999C28.5017 61.6556 28.4667 61.603 28.4429 61.5451C28.419 61.4872 28.4069 61.4251 28.4072 61.3625V58.6705C28.4072 57.786 28.7586 56.9377 29.3841 56.3123C30.0095 55.6868 30.8578 55.3354 31.7423 55.3354C32.6268 55.3354 33.4751 55.6868 34.1006 56.3123C34.726 56.9377 35.0774 57.786 35.0774 58.6705V61.3625C35.078 61.4878 35.029 61.6082 34.941 61.6975C34.853 61.7867 34.7333 61.8374 34.608 61.8386ZM29.364 60.8887H34.1342V58.6705C34.1342 58.038 33.8829 57.4313 33.4356 56.984C32.9883 56.5367 32.3817 56.2854 31.7491 56.2854C31.1165 56.2854 30.5099 56.5367 30.0626 56.984C29.6153 57.4313 29.364 58.038 29.364 58.6705V60.8887Z" fill="#92E3A9" stroke="#263238" stroke-width="0.752161" stroke-linecap="round" stroke-linejoin="round"/>
<path d="M35.3437 60.541H28.062V66.6944H35.3437V60.541Z" fill="#263238" stroke="#263238" stroke-width="0.752161" stroke-linecap="round" stroke-linejoin="round"/>
<path d="M32.4601 63.1068C32.4605 62.9663 32.4236 62.8282 32.3531 62.7066C32.2827 62.5851 32.1813 62.4844 32.0592 62.4148C31.9372 62.3452 31.7988 62.3093 31.6584 62.3106C31.5179 62.3119 31.3803 62.3505 31.2595 62.4224C31.1388 62.4942 31.0393 62.5968 30.9712 62.7197C30.9031 62.8426 30.8688 62.9813 30.8718 63.1218C30.8748 63.2622 30.915 63.3994 30.9883 63.5193C31.0616 63.6391 31.1654 63.7374 31.289 63.804L31.1559 65.2008H32.1758L32.0427 63.7837C32.1659 63.7179 32.2695 63.6206 32.3429 63.5016C32.4162 63.3827 32.4567 63.2465 32.4601 63.1068Z" fill="#92E3A9" stroke="#263238" stroke-width="0.752161" stroke-miterlimit="10"/>
<path d="M92.5753 57.4653C91.6727 58.4085 91.1356 59.8526 91.1446 61.3216C91.1537 62.7906 91.72 64.255 92.6565 65.1892C92.728 65.2607 92.825 65.3009 92.9261 65.3009C93.0273 65.3009 93.1243 65.2607 93.1958 65.1892C93.2315 65.1539 93.2598 65.1117 93.2788 65.0651C93.2978 65.0186 93.3072 64.9687 93.3064 64.9184C93.3056 64.818 93.266 64.7217 93.1958 64.6499C92.397 63.8579 91.9164 62.6191 91.9073 61.3193C91.8983 60.0196 92.3586 58.7988 93.1258 57.9955C93.1605 57.9594 93.1877 57.9168 93.2059 57.8701C93.2241 57.8234 93.2329 57.7736 93.2319 57.7235C93.2308 57.6735 93.2199 57.6241 93.1998 57.5782C93.1797 57.5324 93.1507 57.4909 93.1145 57.4562C93.0784 57.4216 93.0358 57.3944 92.9891 57.3762C92.9424 57.358 92.8926 57.3491 92.8426 57.3502C92.7925 57.3512 92.7431 57.3621 92.6972 57.3823C92.6514 57.4024 92.6099 57.4314 92.5753 57.4675V57.4653Z" fill="#92E3A9"/>
<path d="M93.6879 58.492C93.0533 59.2957 92.7124 60.2921 92.7219 61.3161C92.7313 62.3401 93.0905 63.33 93.7398 64.1219C93.8061 64.1985 93.9 64.2458 94.001 64.2534C94.1021 64.261 94.202 64.2283 94.279 64.1625C94.321 64.1262 94.3545 64.0811 94.3771 64.0304C94.3997 63.9797 94.4109 63.9247 94.4099 63.8692C94.4103 63.7797 94.3782 63.6931 94.3197 63.6255C93.787 62.9701 93.4927 62.1533 93.4849 61.3088C93.4771 60.4643 93.7563 59.6422 94.2768 58.9771C94.3411 58.899 94.3718 58.7986 94.3621 58.6978C94.3523 58.5971 94.303 58.5044 94.2249 58.4401C94.1468 58.3757 94.0463 58.3451 93.9456 58.3548C93.8449 58.3645 93.7522 58.4139 93.6879 58.492Z" fill="#92E3A9"/>
<path d="M94.7859 59.5323C94.3756 60.0408 94.1577 60.6777 94.1705 61.331C94.1832 61.9844 94.426 62.6122 94.8559 63.1043C94.906 63.1658 94.9741 63.2102 95.0506 63.2312C95.1272 63.2522 95.2083 63.2488 95.2828 63.2215C95.3574 63.1942 95.4215 63.1443 95.4663 63.0788C95.5111 63.0133 95.5344 62.9354 95.5328 62.8561C95.5331 62.7673 95.501 62.6815 95.4426 62.6147C95.1278 62.2549 94.9499 61.7956 94.9404 61.3176C94.931 60.8396 95.0904 60.3736 95.3907 60.0016C95.4477 59.9217 95.4717 59.8228 95.4576 59.7256C95.4435 59.6284 95.3924 59.5404 95.3151 59.4799C95.2377 59.4194 95.14 59.3911 95.0422 59.4008C94.9445 59.4106 94.8543 59.4577 94.7905 59.5323H94.7859Z" fill="#92E3A9"/>
<path d="M24.7516 57.465C25.6542 58.4083 26.1935 59.8524 26.1822 61.3214C26.1709 62.7903 25.6068 64.2548 24.6704 65.189C24.6348 65.2243 24.5927 65.2522 24.5463 65.2711C24.5 65.2901 24.4503 65.2998 24.4003 65.2996C24.3502 65.2993 24.3006 65.2893 24.2544 65.2699C24.2083 65.2506 24.1663 65.2223 24.1311 65.1867C24.0958 65.1512 24.0679 65.109 24.0489 65.0627C24.03 65.0163 24.0203 64.9667 24.0205 64.9166C24.0207 64.8665 24.0308 64.817 24.0501 64.7708C24.0695 64.7246 24.0978 64.6827 24.1333 64.6474C24.9299 63.8554 25.4105 62.6166 25.4195 61.3169C25.4286 60.0171 24.9682 58.7964 24.201 57.9931C24.1301 57.9213 24.0903 57.8244 24.0903 57.7234C24.0903 57.6225 24.1301 57.5256 24.201 57.4538C24.2372 57.4171 24.2805 57.3881 24.3283 57.3687C24.376 57.3493 24.4272 57.3398 24.4787 57.3409C24.5303 57.342 24.5811 57.3535 24.628 57.3749C24.6749 57.3962 24.717 57.4269 24.7516 57.465Z" fill="#92E3A9"/>
<path d="M23.6418 58.492C24.2765 59.2957 24.6172 60.2924 24.6073 61.3165C24.5975 62.3406 24.2377 63.3305 23.5877 64.1219C23.5218 64.1984 23.4282 64.2456 23.3275 64.2532C23.2269 64.2608 23.1273 64.2282 23.0506 64.1625C23.0087 64.126 22.9751 64.0809 22.9522 64.0303C22.9292 63.9797 22.9174 63.9247 22.9175 63.8692C22.9181 63.7795 22.951 63.693 23.01 63.6255C23.5426 62.9701 23.8369 62.1533 23.8447 61.3088C23.8525 60.4643 23.5733 59.6422 23.0529 58.9771C22.9885 58.899 22.9579 58.7986 22.9676 58.6978C22.9773 58.5971 23.0267 58.5044 23.1048 58.4401C23.1829 58.3757 23.2833 58.3451 23.384 58.3548C23.4848 58.3645 23.5775 58.4139 23.6418 58.492Z" fill="#92E3A9"/>
<path d="M22.5425 59.5325C22.9523 60.0419 23.1696 60.6792 23.1564 61.3328C23.1432 61.9864 22.9003 62.6144 22.4703 63.1068C22.4383 63.1454 22.399 63.1773 22.3546 63.2006C22.3102 63.2239 22.2616 63.2382 22.2117 63.2426C22.1617 63.247 22.1114 63.2415 22.0636 63.2263C22.0158 63.2111 21.9715 63.1866 21.9333 63.1542C21.8904 63.1178 21.8561 63.0725 21.8327 63.0214C21.8093 62.9704 21.7974 62.9148 21.7979 62.8586C21.7986 62.77 21.8306 62.6845 21.8881 62.6171C22.2058 62.2589 22.3857 61.7993 22.3956 61.3206C22.4055 60.8419 22.2448 60.3752 21.9423 60.0041C21.9112 59.9648 21.8883 59.9197 21.8747 59.8715C21.8612 59.8233 21.8574 59.7728 21.8635 59.7231C21.8695 59.6734 21.8854 59.6253 21.9102 59.5818C21.9349 59.5382 21.9681 59.5 22.0077 59.4693C22.0873 59.4075 22.188 59.3795 22.2881 59.3913C22.3881 59.4031 22.4795 59.4539 22.5425 59.5325Z" fill="#92E3A9"/>
<path d="M62.5231 22.5597C61.5777 23.4623 60.1358 23.9993 58.6645 23.9903C57.1933 23.9813 55.7356 23.4149 54.7992 22.4897C54.7277 22.4182 54.6875 22.3212 54.6875 22.2201C54.6875 22.1189 54.7277 22.0219 54.7992 21.9504C54.8721 21.8791 54.9702 21.8394 55.0722 21.8398C55.1219 21.8398 55.1711 21.8498 55.2168 21.8692C55.2626 21.8886 55.304 21.917 55.3385 21.9527C56.1305 22.7492 57.3693 23.2298 58.6691 23.2389C59.892 23.2682 61.0806 22.8328 61.9951 22.0204C62.0681 21.9503 62.166 21.9122 62.2671 21.9143C62.3682 21.9164 62.4644 21.9586 62.5344 22.0316C62.6044 22.1047 62.6426 22.2025 62.6405 22.3036C62.6384 22.4048 62.5961 22.5009 62.5231 22.5709V22.5597Z" fill="#92E3A9"/>
<path d="M61.4895 21.4474C60.6863 22.0831 59.6897 22.4247 58.6654 22.4153C57.6411 22.4058 56.6509 22.0459 55.8596 21.3955C55.8186 21.3638 55.7846 21.3242 55.7594 21.279C55.7343 21.2337 55.7186 21.1839 55.7134 21.1324C55.7081 21.0809 55.7134 21.0289 55.7289 20.9795C55.7444 20.9301 55.7698 20.8844 55.8036 20.8452C55.8373 20.806 55.8786 20.774 55.9251 20.7512C55.9716 20.7285 56.0222 20.7154 56.0739 20.7129C56.1256 20.7103 56.1772 20.7183 56.2257 20.7363C56.2742 20.7544 56.3186 20.7821 56.356 20.8178C57.0114 21.3505 57.8282 21.6448 58.6727 21.6526C59.5172 21.6604 60.3393 21.3812 61.0044 20.8607C61.0828 20.8034 61.1802 20.7783 61.2766 20.7904C61.373 20.8025 61.4611 20.8509 61.523 20.9257C61.5849 21.0006 61.6159 21.0963 61.6097 21.1932C61.6035 21.2901 61.5605 21.3811 61.4895 21.4474Z" fill="#92E3A9"/>
<path d="M60.4469 20.3508C59.9377 20.76 59.3008 20.977 58.6478 20.9638C57.9947 20.9506 57.3671 20.708 56.8749 20.2786C56.8133 20.2285 56.769 20.1604 56.748 20.0839C56.727 20.0073 56.7304 19.9261 56.7577 19.8516C56.785 19.7771 56.8349 19.713 56.9004 19.6682C56.9659 19.6234 57.0437 19.6001 57.1231 19.6016C57.2126 19.6013 57.2991 19.6333 57.3668 19.6919C57.7252 20.0086 58.1844 20.1877 58.6626 20.1973C59.1408 20.2068 59.6069 20.046 59.9775 19.7438C60.0574 19.6816 60.1588 19.6536 60.2593 19.6661C60.3598 19.6786 60.4512 19.7305 60.5135 19.8104C60.5757 19.8903 60.6037 19.9916 60.5912 20.0921C60.5787 20.1926 60.5268 20.284 60.4469 20.3463V20.3508Z" fill="#92E3A9"/>
<path d="M58.077 99.8801C78.1673 99.8801 94.4538 94.7884 94.4538 88.5074C94.4538 82.2265 78.1673 77.1348 58.077 77.1348C37.9866 77.1348 21.7002 82.2265 21.7002 88.5074C21.7002 94.7884 37.9866 99.8801 58.077 99.8801Z" fill="#92E3A9"/>
<path opacity="0.5" d="M58.077 99.8801C78.1673 99.8801 94.4538 94.7884 94.4538 88.5074C94.4538 82.2265 78.1673 77.1348 58.077 77.1348C37.9866 77.1348 21.7002 82.2265 21.7002 88.5074C21.7002 94.7884 37.9866 99.8801 58.077 99.8801Z" fill="white"/>
<path d="M58.4426 97.3662C76.7471 97.3662 91.5858 92.8595 91.5858 87.3001C91.5858 81.7407 76.7471 77.2339 58.4426 77.2339C40.1381 77.2339 25.2993 81.7407 25.2993 87.3001C25.2993 92.8595 40.1381 97.3662 58.4426 97.3662Z" fill="#263238" stroke="#263238" stroke-width="0.752161" stroke-miterlimit="10"/>
<path d="M58.4425 93.3768C74.763 93.3768 87.9934 89.5549 87.9934 84.8405C87.9934 80.126 74.763 76.3042 58.4425 76.3042C42.122 76.3042 28.8916 80.126 28.8916 84.8405C28.8916 89.5549 42.122 93.3768 58.4425 93.3768Z" fill="white" stroke="#263238" stroke-width="0.752161" stroke-miterlimit="10"/>
<path d="M58.4422 92.0638C73.327 92.0638 85.3936 88.7037 85.3936 84.5588C85.3936 80.4138 73.327 77.0537 58.4422 77.0537C43.5573 77.0537 31.4907 80.4138 31.4907 84.5588C31.4907 88.7037 43.5573 92.0638 58.4422 92.0638Z" fill="white" stroke="#263238" stroke-width="0.752161" stroke-miterlimit="10"/>
<path d="M58.4426 92.0618C73.1305 92.0618 85.0375 89.2482 85.0375 85.7775C85.0375 82.3067 73.1305 79.4932 58.4426 79.4932C43.7546 79.4932 31.8477 82.3067 31.8477 85.7775C31.8477 89.2482 43.7546 92.0618 58.4426 92.0618Z" fill="white" stroke="#263238" stroke-width="0.752161" stroke-miterlimit="10"/>
<path d="M33.0661 90.967C33.0909 91.153 33.0583 91.3422 32.9726 91.5092C32.8868 91.6762 32.7521 91.813 32.5864 91.9013C32.4208 91.9896 32.2321 92.0251 32.0457 92.0031C31.8592 91.9811 31.684 91.9026 31.5434 91.7782C31.4028 91.6538 31.3037 91.4894 31.2592 91.307C31.2147 91.1247 31.227 90.933 31.2944 90.7579C31.3619 90.5827 31.4813 90.4323 31.6366 90.3269C31.792 90.2215 31.9758 90.1661 32.1635 90.1682C32.3887 90.1564 32.6094 90.2335 32.7782 90.3829C32.9471 90.5323 33.0504 90.7421 33.0661 90.967Z" fill="white" stroke="#263238" stroke-width="0.752161" stroke-miterlimit="10"/>
<path d="M45.2847 95.2519C45.7881 95.2519 46.1963 94.8943 46.1963 94.4531C46.1963 94.0119 45.7881 93.6543 45.2847 93.6543C44.7812 93.6543 44.373 94.0119 44.373 94.4531C44.373 94.8943 44.7812 95.2519 45.2847 95.2519Z" fill="white" stroke="#263238" stroke-width="0.752161" stroke-miterlimit="10"/>
<path d="M61.8278 95.0246C61.8527 95.2106 61.82 95.3999 61.7343 95.5669C61.6486 95.7338 61.5138 95.8706 61.3482 95.9589C61.1825 96.0472 60.9938 96.0827 60.8074 96.0607C60.6209 96.0387 60.4457 95.9602 60.3051 95.8358C60.1646 95.7114 60.0654 95.547 60.0209 95.3646C59.9764 95.1823 59.9887 94.9907 60.0562 94.8155C60.1236 94.6403 60.243 94.4899 60.3984 94.3845C60.5537 94.2792 60.7375 94.2238 60.9252 94.2258C61.1504 94.214 61.3711 94.2911 61.54 94.4405C61.7088 94.5899 61.8122 94.7997 61.8278 95.0246Z" fill="white" stroke="#263238" stroke-width="0.752161" stroke-miterlimit="10"/>
<path d="M76.4155 94.4531C76.919 94.4531 77.3271 94.0954 77.3271 93.6543C77.3271 93.2131 76.919 92.8555 76.4155 92.8555C75.9121 92.8555 75.5039 93.2131 75.5039 93.6543C75.5039 94.0954 75.9121 94.4531 76.4155 94.4531Z" fill="white" stroke="#263238" stroke-width="0.752161" stroke-miterlimit="10"/>
<path d="M86.4502 90.8046C86.9537 90.8046 87.3618 90.447 87.3618 90.0058C87.3618 89.5647 86.9537 89.207 86.4502 89.207C85.9467 89.207 85.5386 89.5647 85.5386 90.0058C85.5386 90.447 85.9467 90.8046 86.4502 90.8046Z" fill="white" stroke="#263238" stroke-width="0.752161" stroke-miterlimit="10"/>
<path d="M90.5341 85.6103C90.3829 85.8991 89.8571 85.9217 89.3562 85.6622C88.8553 85.4027 88.5732 84.9559 88.7244 84.6671C88.8756 84.3783 89.4013 84.3557 89.9023 84.6152C90.4032 84.8747 90.6853 85.3215 90.5341 85.6103Z" fill="white" stroke="#263238" stroke-width="0.752161" stroke-miterlimit="10"/>
<path d="M26.3508 85.6103C26.502 85.8991 27.0278 85.9217 27.5287 85.6622C28.0297 85.4027 28.3117 84.9559 28.1605 84.6671C28.0094 84.3783 27.4836 84.3557 26.9827 84.6152C26.4817 84.8747 26.1997 85.3215 26.3508 85.6103Z" fill="white" stroke="#263238" stroke-width="0.752161" stroke-miterlimit="10"/>
<path d="M31.4482 82.9228V75.2236" stroke="#263238" stroke-width="0.752161" stroke-miterlimit="10"/>
<path d="M36.4219 88.5366V84.687" stroke="#263238" stroke-width="0.752161" stroke-miterlimit="10"/>
<path d="M36.4219 83.7235V76.0244" stroke="#263238" stroke-width="0.752161" stroke-miterlimit="10"/>
<path d="M80.8535 88.8573V81.1582" stroke="#263238" stroke-width="0.752161" stroke-miterlimit="10"/>
<path d="M76.1782 90.1931V73.2627" stroke="#263238" stroke-width="0.752161" stroke-miterlimit="10"/>
<path d="M56.7935 91.9061V88.377" stroke="#263238" stroke-width="0.752161" stroke-miterlimit="10"/>
<path d="M41.9927 90.6262V81.9951" stroke="#263238" stroke-width="0.752161" stroke-miterlimit="10"/>
<path d="M68.3013 91.6779V89.9336" stroke="#263238" stroke-width="0.752161" stroke-miterlimit="10"/>
<path d="M68.3013 89.3898V85.8291" stroke="#263238" stroke-width="0.752161" stroke-miterlimit="10"/>
<path d="M56.7935 86.7719V84.8472" stroke="#263238" stroke-width="0.752161" stroke-miterlimit="10"/>
<path d="M80.8535 79.3934V75.8643" stroke="#263238" stroke-width="0.752161" stroke-miterlimit="10"/>
<path d="M85.3467 85.4885V68.3257" stroke="#263238" stroke-width="0.752161" stroke-miterlimit="10"/>
<path d="M31.4482 74.1V69.9346" stroke="#263238" stroke-width="0.752161" stroke-miterlimit="10"/>
<path d="M73.2564 61.4453H72.1846V64.2795H73.2564V61.4453Z" fill="#263238" stroke="#263238" stroke-width="0.752161" stroke-miterlimit="10"/>
<path d="M72.539 40.4014H44.3262V46.5119H72.539V40.4014Z" fill="#263238" stroke="#263238" stroke-width="0.752161" stroke-miterlimit="10"/>
<path d="M73.2564 78.166H72.1846V81.0002H73.2564V78.166Z" fill="#263238" stroke="#263238" stroke-width="0.752161" stroke-miterlimit="10"/>
<path d="M44.5835 78.166H43.5117V81.0002H44.5835V78.166Z" fill="#263238" stroke="#263238" stroke-width="0.752161" stroke-miterlimit="10"/>
<path d="M44.4278 45.0474H43.356V47.8815H44.4278V45.0474Z" fill="#263238" stroke="#263238" stroke-width="0.752161" stroke-miterlimit="10"/>
<path d="M44.4278 69.9116H43.356V72.7458H44.4278V69.9116Z" fill="#263238" stroke="#263238" stroke-width="0.752161" stroke-miterlimit="10"/>
<path d="M44.4278 61.4277H43.356V64.2619H44.4278V61.4277Z" fill="#263238" stroke="#263238" stroke-width="0.752161" stroke-miterlimit="10"/>
<path d="M73.5318 45.0474H72.46V47.8815H73.5318V45.0474Z" fill="#263238" stroke="#263238" stroke-width="0.752161" stroke-miterlimit="10"/>
<path d="M73.5318 69.9116H72.46V72.7458H73.5318V69.9116Z" fill="#263238" stroke="#263238" stroke-width="0.752161" stroke-miterlimit="10"/>
<path d="M44.4278 53.2227H43.356V56.0568H44.4278V53.2227Z" fill="#263238" stroke="#263238" stroke-width="0.752161" stroke-miterlimit="10"/>
<path d="M73.5318 53.2227H72.46V56.0568H73.5318V53.2227Z" fill="#263238" stroke="#263238" stroke-width="0.752161" stroke-miterlimit="10"/>
<path d="M72.539 43.479H44.3262V49.5896H72.539V43.479Z" fill="white" stroke="#263238" stroke-width="0.752161" stroke-miterlimit="10"/>
<path d="M51.9051 45.0386H50.2939V48.0307H51.9051V45.0386Z" fill="#92E3A9" stroke="#263238" stroke-width="0.752161" stroke-miterlimit="10"/>
<path d="M49.4349 45.0386H47.8237V48.0307H49.4349V45.0386Z" fill="#92E3A9" stroke="#263238" stroke-width="0.752161" stroke-miterlimit="10"/>
<path d="M46.9661 45.0386H45.6821V48.0307H46.9661V45.0386Z" fill="#92E3A9" stroke="#263238" stroke-width="0.752161" stroke-miterlimit="10"/>
<path d="M54.3763 45.0386H52.7651V48.0307H54.3763V45.0386Z" fill="#92E3A9" stroke="#263238" stroke-width="0.752161" stroke-miterlimit="10"/>
<path d="M65.1241 45.0386H55.2339V48.0307H65.1241V45.0386Z" fill="#92E3A9" stroke="#263238" stroke-width="0.752161" stroke-miterlimit="10"/>
<path d="M67.76 47.1572C68.1763 47.1572 68.5137 46.8198 68.5137 46.4036C68.5137 45.9873 68.1763 45.6499 67.76 45.6499C67.3438 45.6499 67.0063 45.9873 67.0063 46.4036C67.0063 46.8198 67.3438 47.1572 67.76 47.1572Z" fill="white" stroke="#263238" stroke-width="0.752161" stroke-miterlimit="10"/>
<path d="M71.4674 46.4083C71.4674 46.2587 71.423 46.1124 71.3399 45.9881C71.2567 45.8637 71.1385 45.7668 71.0002 45.7097C70.862 45.6525 70.7099 45.6377 70.5632 45.667C70.4165 45.6964 70.2818 45.7686 70.1762 45.8745C70.0705 45.9805 69.9987 46.1154 69.9698 46.2622C69.9409 46.409 69.9562 46.561 70.0138 46.6991C70.0713 46.8372 70.1686 46.9551 70.2932 47.0379C70.4178 47.1207 70.5641 47.1646 70.7137 47.1642C70.9138 47.1636 71.1055 47.0837 71.2468 46.942C71.3881 46.8003 71.4674 46.6084 71.4674 46.4083Z" fill="#92E3A9" stroke="#263238" stroke-width="0.752161" stroke-miterlimit="10"/>
<path d="M63.3591 47.1572C63.7754 47.1572 64.1128 46.8198 64.1128 46.4036C64.1128 45.9873 63.7754 45.6499 63.3591 45.6499C62.9429 45.6499 62.6055 45.9873 62.6055 46.4036C62.6055 46.8198 62.9429 47.1572 63.3591 47.1572Z" fill="white" stroke="#263238" stroke-width="0.752161" stroke-miterlimit="10"/>
<path d="M71.4669 49.5898H45.3955V51.6816H71.4669V49.5898Z" fill="#263238" stroke="#263238" stroke-width="0.752161" stroke-miterlimit="10"/>
<path d="M72.539 51.6841H44.3262V57.7946H72.539V51.6841Z" fill="white" stroke="#263238" stroke-width="0.752161" stroke-miterlimit="10"/>
<path d="M49.4349 53.2432H47.8237V56.2353H49.4349V53.2432Z" fill="#92E3A9" stroke="#263238" stroke-width="0.752161" stroke-miterlimit="10"/>
<path d="M54.3763 53.2432H52.7651V56.2353H54.3763V53.2432Z" fill="#92E3A9" stroke="#263238" stroke-width="0.752161" stroke-miterlimit="10"/>
<path d="M51.9051 53.2432H50.2939V56.2353H51.9051V53.2432Z" fill="#92E3A9" stroke="#263238" stroke-width="0.752161" stroke-miterlimit="10"/>
<path d="M46.9661 53.2432H45.6821V56.2353H46.9661V53.2432Z" fill="#92E3A9" stroke="#263238" stroke-width="0.752161" stroke-miterlimit="10"/>
<path d="M65.1241 53.2432H55.2339V56.2353H65.1241V53.2432Z" fill="#92E3A9" stroke="#263238" stroke-width="0.752161" stroke-miterlimit="10"/>
<path d="M67.76 55.3623C68.1763 55.3623 68.5137 55.0249 68.5137 54.6086C68.5137 54.1924 68.1763 53.855 67.76 53.855C67.3438 53.855 67.0063 54.1924 67.0063 54.6086C67.0063 55.0249 67.3438 55.3623 67.76 55.3623Z" fill="#92E3A9" stroke="#263238" stroke-width="0.752161" stroke-miterlimit="10"/>
<path d="M71.4674 54.6083C71.4679 54.4586 71.4238 54.3121 71.341 54.1875C71.2581 54.0628 71.14 53.9656 71.0018 53.9081C70.8636 53.8506 70.7114 53.8354 70.5646 53.8645C70.4177 53.8936 70.2828 53.9656 70.177 54.0715C70.0711 54.1774 69.9991 54.3123 69.97 54.4591C69.9409 54.6059 69.956 54.7581 70.0135 54.8963C70.071 55.0346 70.1683 55.1526 70.2929 55.2355C70.4176 55.3184 70.564 55.3624 70.7137 55.3619C70.9136 55.3619 71.1053 55.2825 71.2467 55.1412C71.388 54.9999 71.4674 54.8082 71.4674 54.6083Z" fill="white" stroke="#263238" stroke-width="0.752161" stroke-miterlimit="10"/>
<path d="M63.3591 55.3623C63.7754 55.3623 64.1128 55.0249 64.1128 54.6086C64.1128 54.1924 63.7754 53.855 63.3591 53.855C62.9429 53.855 62.6055 54.1924 62.6055 54.6086C62.6055 55.0249 62.9429 55.3623 63.3591 55.3623Z" fill="white" stroke="#263238" stroke-width="0.752161" stroke-miterlimit="10"/>
<path d="M71.4669 57.7944H45.3955V59.8862H71.4669V57.7944Z" fill="#263238" stroke="#263238" stroke-width="0.752161" stroke-miterlimit="10"/>
<path d="M72.539 59.8862H44.3262V65.9968H72.539V59.8862Z" fill="white" stroke="#263238" stroke-width="0.752161" stroke-miterlimit="10"/>
<path d="M51.9051 61.4453H50.2939V64.4374H51.9051V61.4453Z" fill="#92E3A9" stroke="#263238" stroke-width="0.752161" stroke-miterlimit="10"/>
<path d="M54.3763 61.4453H52.7651V64.4374H54.3763V61.4453Z" fill="#92E3A9" stroke="#263238" stroke-width="0.752161" stroke-miterlimit="10"/>
<path d="M49.4349 61.4453H47.8237V64.4374H49.4349V61.4453Z" fill="#92E3A9" stroke="#263238" stroke-width="0.752161" stroke-miterlimit="10"/>
<path d="M65.1241 61.4453H55.2339V64.4374H65.1241V61.4453Z" fill="#92E3A9" stroke="#263238" stroke-width="0.752161" stroke-miterlimit="10"/>
<path d="M46.9661 61.4453H45.6821V64.4374H46.9661V61.4453Z" fill="#92E3A9" stroke="#263238" stroke-width="0.752161" stroke-miterlimit="10"/>
<path d="M67.76 63.5645C68.1763 63.5645 68.5137 63.227 68.5137 62.8108C68.5137 62.3946 68.1763 62.0571 67.76 62.0571C67.3438 62.0571 67.0063 62.3946 67.0063 62.8108C67.0063 63.227 67.3438 63.5645 67.76 63.5645Z" fill="white" stroke="#263238" stroke-width="0.752161" stroke-miterlimit="10"/>
<path d="M71.4674 62.8106C71.4674 62.661 71.423 62.5148 71.3399 62.3904C71.2567 62.266 71.1385 62.1692 71.0002 62.112C70.862 62.0549 70.7099 62.04 70.5632 62.0694C70.4165 62.0987 70.2818 62.1709 70.1762 62.2769C70.0705 62.3828 69.9987 62.5177 69.9698 62.6645C69.9409 62.8113 69.9562 62.9634 70.0138 63.1015C70.0713 63.2395 70.1686 63.3574 70.2932 63.4402C70.4178 63.523 70.5641 63.567 70.7137 63.5665C70.9138 63.5659 71.1055 63.486 71.2468 63.3443C71.3881 63.2026 71.4674 63.0107 71.4674 62.8106Z" fill="#92E3A9" stroke="#263238" stroke-width="0.752161" stroke-miterlimit="10"/>
<path d="M63.3591 63.5645C63.7754 63.5645 64.1128 63.227 64.1128 62.8108C64.1128 62.3946 63.7754 62.0571 63.3591 62.0571C62.9429 62.0571 62.6055 62.3946 62.6055 62.8108C62.6055 63.227 62.9429 63.5645 63.3591 63.5645Z" fill="white" stroke="#263238" stroke-width="0.752161" stroke-miterlimit="10"/>
<path d="M71.4669 65.9966H45.3955V68.0883H71.4669V65.9966Z" fill="#263238" stroke="#263238" stroke-width="0.752161" stroke-miterlimit="10"/>
<path d="M72.539 68.0908H44.3262V74.2014H72.539V68.0908Z" fill="white" stroke="#263238" stroke-width="0.752161" stroke-miterlimit="10"/>
<path d="M54.3763 69.6504H52.7651V72.6425H54.3763V69.6504Z" fill="#92E3A9" stroke="#263238" stroke-width="0.752161" stroke-miterlimit="10"/>
<path d="M49.4349 69.6504H47.8237V72.6425H49.4349V69.6504Z" fill="#92E3A9" stroke="#263238" stroke-width="0.752161" stroke-miterlimit="10"/>
<path d="M51.9051 69.6504H50.2939V72.6425H51.9051V69.6504Z" fill="#92E3A9" stroke="#263238" stroke-width="0.752161" stroke-miterlimit="10"/>
<path d="M46.9661 69.6504H45.6821V72.6425H46.9661V69.6504Z" fill="#92E3A9" stroke="#263238" stroke-width="0.752161" stroke-miterlimit="10"/>
<path d="M65.1241 69.6504H55.2339V72.6425H65.1241V69.6504Z" fill="#92E3A9" stroke="#263238" stroke-width="0.752161" stroke-miterlimit="10"/>
<path d="M67.76 71.7691C68.1763 71.7691 68.5137 71.4316 68.5137 71.0154C68.5137 70.5991 68.1763 70.2617 67.76 70.2617C67.3438 70.2617 67.0063 70.5991 67.0063 71.0154C67.0063 71.4316 67.3438 71.7691 67.76 71.7691Z" fill="#92E3A9" stroke="#263238" stroke-width="0.752161" stroke-miterlimit="10"/>
<path d="M71.4674 71.015C71.4679 70.8653 71.4238 70.7189 71.341 70.5942C71.2581 70.4695 71.14 70.3723 71.0018 70.3148C70.8636 70.2573 70.7114 70.2422 70.5646 70.2713C70.4177 70.3003 70.2828 70.3724 70.177 70.4782C70.0711 70.5841 69.9991 70.719 69.97 70.8658C69.9409 71.0127 69.956 71.1649 70.0135 71.3031C70.071 71.4413 70.1683 71.5593 70.2929 71.6422C70.4176 71.7251 70.564 71.7691 70.7137 71.7687C70.9136 71.7687 71.1053 71.6893 71.2467 71.5479C71.388 71.4066 71.4674 71.2149 71.4674 71.015Z" fill="white" stroke="#263238" stroke-width="0.752161" stroke-miterlimit="10"/>
<path d="M63.3591 71.7691C63.7754 71.7691 64.1128 71.4316 64.1128 71.0154C64.1128 70.5991 63.7754 70.2617 63.3591 70.2617C62.9429 70.2617 62.6055 70.5991 62.6055 71.0154C62.6055 71.4316 62.9429 71.7691 63.3591 71.7691Z" fill="white" stroke="#263238" stroke-width="0.752161" stroke-miterlimit="10"/>
<path d="M71.4669 74.2012H45.3955V76.2929H71.4669V74.2012Z" fill="#263238" stroke="#263238" stroke-width="0.752161" stroke-miterlimit="10"/>
<path d="M72.539 76.293H44.3262V82.4035H72.539V76.293Z" fill="white" stroke="#263238" stroke-width="0.752161" stroke-miterlimit="10"/>
<path d="M49.4349 77.8525H47.8237V80.8446H49.4349V77.8525Z" fill="#92E3A9" stroke="#263238" stroke-width="0.752161" stroke-miterlimit="10"/>
<path d="M51.9051 77.8525H50.2939V80.8446H51.9051V77.8525Z" fill="#92E3A9" stroke="#263238" stroke-width="0.752161" stroke-miterlimit="10"/>
<path d="M54.3763 77.8525H52.7651V80.8446H54.3763V77.8525Z" fill="#92E3A9" stroke="#263238" stroke-width="0.752161" stroke-miterlimit="10"/>
<path d="M46.9661 77.8525H45.6821V80.8446H46.9661V77.8525Z" fill="#92E3A9" stroke="#263238" stroke-width="0.752161" stroke-miterlimit="10"/>
<path d="M65.1241 77.8525H55.2339V80.8446H65.1241V77.8525Z" fill="#92E3A9" stroke="#263238" stroke-width="0.752161" stroke-miterlimit="10"/>
<path d="M67.76 79.9712C68.1763 79.9712 68.5137 79.6338 68.5137 79.2175C68.5137 78.8013 68.1763 78.4639 67.76 78.4639C67.3438 78.4639 67.0063 78.8013 67.0063 79.2175C67.0063 79.6338 67.3438 79.9712 67.76 79.9712Z" fill="white" stroke="#263238" stroke-width="0.752161" stroke-miterlimit="10"/>
<path d="M71.4674 79.2178C71.4674 79.0682 71.423 78.922 71.3399 78.7976C71.2567 78.6733 71.1385 78.5764 71.0002 78.5192C70.862 78.4621 70.7099 78.4473 70.5632 78.4766C70.4165 78.506 70.2818 78.5782 70.1762 78.6841C70.0705 78.7901 69.9987 78.925 69.9698 79.0717C69.9409 79.2185 69.9562 79.3706 70.0138 79.5087C70.0713 79.6468 70.1686 79.7647 70.2932 79.8475C70.4178 79.9302 70.5641 79.9742 70.7137 79.9738C70.9138 79.9732 71.1055 79.8933 71.2468 79.7516C71.3881 79.6099 71.4674 79.4179 71.4674 79.2178Z" fill="#92E3A9" stroke="#263238" stroke-width="0.752161" stroke-miterlimit="10"/>
<path d="M63.3591 79.9712C63.7754 79.9712 64.1128 79.6338 64.1128 79.2175C64.1128 78.8013 63.7754 78.4639 63.3591 78.4639C62.9429 78.4639 62.6055 78.8013 62.6055 79.2175C62.6055 79.6338 62.9429 79.9712 63.3591 79.9712Z" fill="white" stroke="#263238" stroke-width="0.752161" stroke-miterlimit="10"/>
</svg>
