<svg width="19" height="19" viewBox="0 0 19 19" fill="none" xmlns="http://www.w3.org/2000/svg">
<path d="M17.9963 4.4177C17.3884 4.68706 16.7354 4.86906 16.0489 4.95132C16.7572 4.52748 17.2872 3.86039 17.5398 3.07454C16.8743 3.46984 16.146 3.74808 15.3864 3.89718C14.8756 3.35181 14.1991 2.99033 13.4618 2.86886C12.7245 2.74739 11.9678 2.87273 11.309 3.22542C10.6503 3.57811 10.1264 4.13841 9.81876 4.81934C9.5111 5.50027 9.43684 6.26373 9.60753 6.99118C8.25905 6.92347 6.93987 6.57298 5.73561 5.96245C4.53135 5.35191 3.46892 4.49499 2.61728 3.44728C2.32608 3.9496 2.15864 4.532 2.15864 5.15225C2.15831 5.71062 2.29582 6.26044 2.55895 6.75293C2.82208 7.24541 3.20271 7.66534 3.66705 7.97544C3.12853 7.9583 2.6019 7.81279 2.13097 7.55101V7.59469C2.13092 8.37783 2.40181 9.13687 2.89769 9.74302C3.39357 10.3492 4.08388 10.7651 4.85151 10.9202C4.35194 11.0554 3.82819 11.0753 3.3198 10.9784C3.53637 11.6523 3.95825 12.2415 4.52636 12.6637C5.09447 13.0859 5.78038 13.3198 6.48805 13.3328C5.28673 14.2758 3.80311 14.7874 2.27584 14.7851C2.00531 14.7852 1.735 14.7694 1.46631 14.7378C3.01657 15.7346 4.82118 16.2636 6.66423 16.2615C12.9032 16.2615 16.3139 11.0942 16.3139 6.61262C16.3139 6.46702 16.3102 6.31996 16.3037 6.17436C16.9671 5.69459 17.5398 5.10049 17.9948 4.41988L17.9963 4.4177Z" fill="#009BFF"/>
</svg>
