<svg width="500" height="364" viewBox="0 0 500 364" fill="none" xmlns="http://www.w3.org/2000/svg">
<g clip-path="url(#clip0_22_4)">
<path d="M291.249 64.1077C300.62 64.1077 308.217 56.511 308.217 47.1401C308.217 37.7693 300.62 30.1726 291.249 30.1726C281.878 30.1726 274.282 37.7693 274.282 47.1401C274.282 56.511 281.878 64.1077 291.249 64.1077Z" fill="#F2F2F2"/>
<path d="M422.871 315.925C448.092 296.715 460.138 264.436 452.596 233.643C452.409 232.878 452.211 232.114 452.003 231.353C447.004 213.074 434.635 195.702 416.607 189.862C401.471 184.958 384.949 188.729 369.157 186.779C338.158 182.951 314.125 157.869 297.215 131.608C280.305 105.347 267.309 75.9515 244.839 54.2561C207.801 18.4948 147.382 10.7954 101.46 34.0733C55.5378 57.3513 26.286 108.995 27.5335 160.465C28.7811 211.935 59.3364 261.144 103.71 287.252C120.012 296.843 138.865 303.638 157.629 301.26C173.91 299.197 188.703 290.449 204.907 287.852C230.384 283.769 255.698 295.288 277.733 308.711C299.769 322.134 321.053 338.044 346.094 344.267C370.408 350.309 400.53 332.941 422.871 315.925Z" fill="#F2F2F2"/>
<path d="M386.636 35.1541C386.083 34.7855 385.524 34.436 384.971 34.0802C368.99 23.8591 351.86 15.5557 333.937 9.34135L329.781 66.6734H303.434V0.972221C301.776 0.629068 300.104 0.30498 298.433 -4.57764e-05V66.6734H267.124C249.887 66.6734 233.357 59.8263 221.169 47.6385C208.981 35.4506 202.134 18.9203 202.134 1.68402V1.68396C200.456 2.04618 198.792 2.43382 197.127 2.84687V66.6734H171.625L167.666 12.004C149.247 19.068 131.76 28.3576 115.596 39.666C115.316 39.8566 115.037 40.0536 114.763 40.2442C113.359 41.2292 111.974 42.2333 110.595 43.25V261.972H185.752L184.424 243.575L177.116 142.568H324.284L316.976 243.575L315.648 261.972H389.973V37.3656C388.867 36.6157 387.755 35.8786 386.636 35.1541ZM197.127 125.886H175.908L171.987 71.6809H197.127V125.886ZM298.433 125.886H262.796V124.812C262.796 124.296 262.694 123.785 262.497 123.308C262.299 122.831 262.009 122.398 261.644 122.033C261.278 121.668 260.845 121.379 260.367 121.182C259.89 120.985 259.379 120.884 258.862 120.885H243.37C242.854 120.885 242.343 120.987 241.867 121.184C241.39 121.381 240.957 121.67 240.592 122.035C240.228 122.4 239.938 122.833 239.741 123.309C239.544 123.786 239.442 124.297 239.443 124.812V125.886H202.134V71.6809H298.433V125.886ZM303.434 125.886V71.6809H329.419L325.498 125.886H303.434Z" fill="#3F3D56"/>
<path d="M0 275.979C5.52048 282.52 11.4915 288.667 17.8694 294.375L482.131 295.011C488.509 289.302 494.48 283.155 500 276.614L0 275.979Z" fill="#3F3D56"/>
<path d="M314.831 217.071V271.533C314.831 272.227 315.107 272.893 315.598 273.383C316.089 273.874 316.754 274.15 317.448 274.151H398.156C398.85 274.15 399.515 273.874 400.006 273.383C400.497 272.893 400.773 272.227 400.773 271.533V217.071C400.771 216.377 400.495 215.713 400.004 215.223C399.514 214.733 398.849 214.457 398.156 214.456H317.448C316.755 214.457 316.09 214.733 315.599 215.223C315.109 215.713 314.832 216.377 314.831 217.071Z" fill="#3F3D56"/>
<path d="M316.724 217.748V270.861C316.725 271.232 316.872 271.588 317.135 271.85C317.397 272.112 317.752 272.26 318.123 272.26H397.484C397.855 272.26 398.21 272.112 398.472 271.85C398.735 271.588 398.882 271.232 398.883 270.861V217.748C398.883 217.377 398.736 217.021 398.473 216.758C398.211 216.495 397.855 216.347 397.484 216.347H318.123C317.752 216.347 317.396 216.495 317.134 216.758C316.871 217.021 316.724 217.377 316.724 217.748Z" fill="#009BFF"/>
<path d="M313.143 282.155C313.291 282.34 313.478 282.49 313.692 282.592C313.906 282.694 314.141 282.747 314.378 282.746H400.797C401.033 282.745 401.266 282.692 401.479 282.59C401.693 282.489 401.881 282.341 402.03 282.157C402.178 281.974 402.284 281.759 402.34 281.529C402.396 281.3 402.399 281.06 402.351 280.829L401.009 274.457C400.954 274.197 400.834 273.956 400.661 273.754C400.488 273.552 400.268 273.397 400.019 273.302C399.84 273.231 399.648 273.195 399.455 273.196H315.714C315.521 273.195 315.329 273.231 315.15 273.302C314.901 273.397 314.681 273.552 314.508 273.754C314.335 273.956 314.215 274.197 314.159 274.457L312.818 280.829C312.77 281.06 312.775 281.299 312.831 281.529C312.887 281.758 312.994 281.972 313.143 282.155Z" fill="#2F2E41"/>
<path d="M396.49 275.94H398.531C398.702 275.94 398.841 275.801 398.841 275.63V274.653C398.841 274.482 398.702 274.343 398.531 274.343H396.49C396.319 274.343 396.18 274.482 396.18 274.653V275.63C396.18 275.801 396.319 275.94 396.49 275.94Z" fill="#3F3D56"/>
<path d="M391.166 275.94H393.207C393.379 275.94 393.518 275.801 393.518 275.63V274.653C393.518 274.482 393.379 274.343 393.207 274.343H391.166C390.995 274.343 390.856 274.482 390.856 274.653V275.63C390.856 275.801 390.995 275.94 391.166 275.94Z" fill="#3F3D56"/>
<path d="M385.843 275.94H387.884C388.055 275.94 388.194 275.801 388.194 275.63V274.653C388.194 274.482 388.055 274.343 387.884 274.343H385.843C385.672 274.343 385.533 274.482 385.533 274.653V275.63C385.533 275.801 385.672 275.94 385.843 275.94Z" fill="#3F3D56"/>
<path d="M380.52 275.94H382.561C382.732 275.94 382.871 275.801 382.871 275.63V274.653C382.871 274.482 382.732 274.343 382.561 274.343H380.52C380.348 274.343 380.209 274.482 380.209 274.653V275.63C380.209 275.801 380.348 275.94 380.52 275.94Z" fill="#3F3D56"/>
<path d="M375.196 275.94H377.238C377.409 275.94 377.548 275.801 377.548 275.63V274.653C377.548 274.482 377.409 274.343 377.238 274.343H375.196C375.025 274.343 374.886 274.482 374.886 274.653V275.63C374.886 275.801 375.025 275.94 375.196 275.94Z" fill="#3F3D56"/>
<path d="M369.873 275.94H371.914C372.086 275.94 372.225 275.801 372.225 275.63V274.653C372.225 274.482 372.086 274.343 371.914 274.343H369.873C369.702 274.343 369.563 274.482 369.563 274.653V275.63C369.563 275.801 369.702 275.94 369.873 275.94Z" fill="#3F3D56"/>
<path d="M364.55 275.94H366.591C366.762 275.94 366.901 275.801 366.901 275.63V274.653C366.901 274.482 366.762 274.343 366.591 274.343H364.55C364.379 274.343 364.24 274.482 364.24 274.653V275.63C364.24 275.801 364.379 275.94 364.55 275.94Z" fill="#3F3D56"/>
<path d="M359.227 275.94H361.268C361.439 275.94 361.578 275.801 361.578 275.63V274.653C361.578 274.482 361.439 274.343 361.268 274.343H359.227C359.055 274.343 358.916 274.482 358.916 274.653V275.63C358.916 275.801 359.055 275.94 359.227 275.94Z" fill="#3F3D56"/>
<path d="M353.903 275.94H355.944C356.116 275.94 356.254 275.801 356.254 275.63V274.653C356.254 274.482 356.116 274.343 355.944 274.343H353.903C353.732 274.343 353.593 274.482 353.593 274.653V275.63C353.593 275.801 353.732 275.94 353.903 275.94Z" fill="#3F3D56"/>
<path d="M348.58 275.94H350.621C350.792 275.94 350.931 275.801 350.931 275.63V274.653C350.931 274.482 350.792 274.343 350.621 274.343H348.58C348.408 274.343 348.269 274.482 348.269 274.653V275.63C348.269 275.801 348.408 275.94 348.58 275.94Z" fill="#3F3D56"/>
<path d="M343.257 275.94H345.298C345.469 275.94 345.608 275.801 345.608 275.63V274.653C345.608 274.482 345.469 274.343 345.298 274.343H343.257C343.085 274.343 342.946 274.482 342.946 274.653V275.63C342.946 275.801 343.085 275.94 343.257 275.94Z" fill="#3F3D56"/>
<path d="M337.933 275.94H339.974C340.146 275.94 340.285 275.801 340.285 275.63V274.653C340.285 274.482 340.146 274.343 339.974 274.343H337.933C337.762 274.343 337.623 274.482 337.623 274.653V275.63C337.623 275.801 337.762 275.94 337.933 275.94Z" fill="#3F3D56"/>
<path d="M332.61 275.94H334.651C334.823 275.94 334.961 275.801 334.961 275.63V274.653C334.961 274.482 334.823 274.343 334.651 274.343H332.61C332.439 274.343 332.3 274.482 332.3 274.653V275.63C332.3 275.801 332.439 275.94 332.61 275.94Z" fill="#3F3D56"/>
<path d="M327.287 275.94H329.328C329.499 275.94 329.638 275.801 329.638 275.63V274.653C329.638 274.482 329.499 274.343 329.328 274.343H327.287C327.115 274.343 326.977 274.482 326.977 274.653V275.63C326.977 275.801 327.115 275.94 327.287 275.94Z" fill="#3F3D56"/>
<path d="M321.963 275.94H324.004C324.176 275.94 324.314 275.801 324.314 275.63V274.653C324.314 274.482 324.176 274.343 324.004 274.343H321.963C321.792 274.343 321.653 274.482 321.653 274.653V275.63C321.653 275.801 321.792 275.94 321.963 275.94Z" fill="#3F3D56"/>
<path d="M316.64 275.94H318.681C318.852 275.94 318.991 275.801 318.991 275.63V274.653C318.991 274.482 318.852 274.343 318.681 274.343H316.64C316.469 274.343 316.33 274.482 316.33 274.653V275.63C316.33 275.801 316.469 275.94 316.64 275.94Z" fill="#3F3D56"/>
<path d="M396.553 278.602H398.594C398.765 278.602 398.904 278.463 398.904 278.292V277.315C398.904 277.144 398.765 277.005 398.594 277.005H396.553C396.381 277.005 396.243 277.144 396.243 277.315V278.292C396.243 278.463 396.381 278.602 396.553 278.602Z" fill="#3F3D56"/>
<path d="M391.229 278.602H393.27C393.442 278.602 393.581 278.463 393.581 278.292V277.315C393.581 277.144 393.442 277.005 393.27 277.005H391.229C391.058 277.005 390.919 277.144 390.919 277.315V278.292C390.919 278.463 391.058 278.602 391.229 278.602Z" fill="#3F3D56"/>
<path d="M385.906 278.602H387.947C388.118 278.602 388.257 278.463 388.257 278.292V277.315C388.257 277.144 388.118 277.005 387.947 277.005H385.906C385.735 277.005 385.596 277.144 385.596 277.315V278.292C385.596 278.463 385.735 278.602 385.906 278.602Z" fill="#3F3D56"/>
<path d="M380.583 278.602H382.624C382.795 278.602 382.934 278.463 382.934 278.292V277.315C382.934 277.144 382.795 277.005 382.624 277.005H380.583C380.411 277.005 380.272 277.144 380.272 277.315V278.292C380.272 278.463 380.411 278.602 380.583 278.602Z" fill="#3F3D56"/>
<path d="M375.259 278.602H377.301C377.472 278.602 377.611 278.463 377.611 278.292V277.315C377.611 277.144 377.472 277.005 377.301 277.005H375.259C375.088 277.005 374.949 277.144 374.949 277.315V278.292C374.949 278.463 375.088 278.602 375.259 278.602Z" fill="#3F3D56"/>
<path d="M369.936 278.602H371.977C372.149 278.602 372.288 278.463 372.288 278.292V277.315C372.288 277.144 372.149 277.005 371.977 277.005H369.936C369.765 277.005 369.626 277.144 369.626 277.315V278.292C369.626 278.463 369.765 278.602 369.936 278.602Z" fill="#3F3D56"/>
<path d="M364.612 278.602H366.654C366.825 278.602 366.964 278.463 366.964 278.292V277.315C366.964 277.144 366.825 277.005 366.654 277.005H364.612C364.441 277.005 364.302 277.144 364.302 277.315V278.292C364.302 278.463 364.441 278.602 364.612 278.602Z" fill="#3F3D56"/>
<path d="M359.289 278.602H361.33C361.502 278.602 361.641 278.463 361.641 278.292V277.315C361.641 277.144 361.502 277.005 361.33 277.005H359.289C359.118 277.005 358.979 277.144 358.979 277.315V278.292C358.979 278.463 359.118 278.602 359.289 278.602Z" fill="#3F3D56"/>
<path d="M353.966 278.602H356.007C356.179 278.602 356.317 278.463 356.317 278.292V277.315C356.317 277.144 356.179 277.005 356.007 277.005H353.966C353.795 277.005 353.656 277.144 353.656 277.315V278.292C353.656 278.463 353.795 278.602 353.966 278.602Z" fill="#3F3D56"/>
<path d="M348.643 278.602H350.684C350.855 278.602 350.994 278.463 350.994 278.292V277.315C350.994 277.144 350.855 277.005 350.684 277.005H348.643C348.471 277.005 348.333 277.144 348.333 277.315V278.292C348.333 278.463 348.471 278.602 348.643 278.602Z" fill="#3F3D56"/>
<path d="M343.319 278.602H345.361C345.532 278.602 345.671 278.463 345.671 278.292V277.315C345.671 277.144 345.532 277.005 345.361 277.005H343.319C343.148 277.005 343.009 277.144 343.009 277.315V278.292C343.009 278.463 343.148 278.602 343.319 278.602Z" fill="#3F3D56"/>
<path d="M337.996 278.602H340.037C340.209 278.602 340.348 278.463 340.348 278.292V277.315C340.348 277.144 340.209 277.005 340.037 277.005H337.996C337.825 277.005 337.686 277.144 337.686 277.315V278.292C337.686 278.463 337.825 278.602 337.996 278.602Z" fill="#3F3D56"/>
<path d="M332.673 278.602H334.714C334.886 278.602 335.024 278.463 335.024 278.292V277.315C335.024 277.144 334.886 277.005 334.714 277.005H332.673C332.502 277.005 332.363 277.144 332.363 277.315V278.292C332.363 278.463 332.502 278.602 332.673 278.602Z" fill="#3F3D56"/>
<path d="M327.35 278.602H329.391C329.562 278.602 329.701 278.463 329.701 278.292V277.315C329.701 277.144 329.562 277.005 329.391 277.005H327.35C327.178 277.005 327.04 277.144 327.04 277.315V278.292C327.04 278.463 327.178 278.602 327.35 278.602Z" fill="#3F3D56"/>
<path d="M322.026 278.602H324.067C324.239 278.602 324.377 278.463 324.377 278.292V277.315C324.377 277.144 324.239 277.005 324.067 277.005H322.026C321.855 277.005 321.716 277.144 321.716 277.315V278.292C321.716 278.463 321.855 278.602 322.026 278.602Z" fill="#3F3D56"/>
<path d="M316.703 278.602H318.744C318.915 278.602 319.054 278.463 319.054 278.292V277.315C319.054 277.144 318.915 277.005 318.744 277.005H316.703C316.531 277.005 316.392 277.144 316.392 277.315V278.292C316.392 278.463 316.531 278.602 316.703 278.602Z" fill="#3F3D56"/>
<path d="M352.369 281.796H373.042C373.213 281.796 373.352 281.657 373.352 281.486V280.509C373.352 280.338 373.213 280.199 373.042 280.199H352.369C352.198 280.199 352.059 280.338 352.059 280.509V281.486C352.059 281.657 352.198 281.796 352.369 281.796Z" fill="#3F3D56"/>
<path d="M330.467 227.966H328.66C328.112 227.966 327.668 228.411 327.668 228.958C327.668 229.506 328.112 229.95 328.66 229.95H330.467C331.015 229.95 331.459 229.506 331.459 228.958C331.459 228.411 331.015 227.966 330.467 227.966Z" fill="white"/>
<path d="M351.134 227.966H349.327C348.779 227.966 348.335 228.411 348.335 228.958C348.335 229.506 348.779 229.95 349.327 229.95H351.134C351.682 229.95 352.126 229.506 352.126 228.958C352.126 228.411 351.682 227.966 351.134 227.966Z" fill="white"/>
<path d="M356.99 227.966H355.183C354.635 227.966 354.191 228.411 354.191 228.958C354.191 229.506 354.635 229.95 355.183 229.95H356.99C357.538 229.95 357.982 229.506 357.982 228.958C357.982 228.411 357.538 227.966 356.99 227.966Z" fill="white"/>
<path d="M345.513 227.801H334.282C333.734 227.801 333.29 228.245 333.29 228.793C333.29 229.341 333.734 229.785 334.282 229.785H345.513C346.061 229.785 346.505 229.341 346.505 228.793C346.505 228.245 346.061 227.801 345.513 227.801Z" fill="white"/>
<path d="M373.069 227.801H361.838C361.29 227.801 360.846 228.245 360.846 228.793C360.846 229.341 361.29 229.785 361.838 229.785H373.069C373.617 229.785 374.061 229.341 374.061 228.793C374.061 228.245 373.617 227.801 373.069 227.801Z" fill="white"/>
<path d="M335.978 232.444H334.171C333.623 232.444 333.179 232.888 333.179 233.436C333.179 233.984 333.623 234.428 334.171 234.428H335.978C336.526 234.428 336.97 233.984 336.97 233.436C336.97 232.888 336.526 232.444 335.978 232.444Z" fill="white"/>
<path d="M356.645 232.444H354.838C354.29 232.444 353.846 232.888 353.846 233.436C353.846 233.984 354.29 234.428 354.838 234.428H356.645C357.193 234.428 357.637 233.984 357.637 233.436C357.637 232.888 357.193 232.444 356.645 232.444Z" fill="white"/>
<path d="M362.501 232.444H360.694C360.146 232.444 359.702 232.888 359.702 233.436C359.702 233.984 360.146 234.428 360.694 234.428H362.501C363.049 234.428 363.493 233.984 363.493 233.436C363.493 232.888 363.049 232.444 362.501 232.444Z" fill="white"/>
<path d="M351.024 232.279H339.793C339.245 232.279 338.801 232.723 338.801 233.271C338.801 233.819 339.245 234.263 339.793 234.263H351.024C351.572 234.263 352.016 233.819 352.016 233.271C352.016 232.723 351.572 232.279 351.024 232.279Z" fill="white"/>
<path d="M378.58 232.279H367.349C366.801 232.279 366.357 232.723 366.357 233.271C366.357 233.819 366.801 234.263 367.349 234.263H378.58C379.128 234.263 379.572 233.819 379.572 233.271C379.572 232.723 379.128 232.279 378.58 232.279Z" fill="white"/>
<path d="M341.489 236.922H339.682C339.135 236.922 338.69 237.366 338.69 237.914C338.69 238.462 339.135 238.906 339.682 238.906H341.489C342.037 238.906 342.481 238.462 342.481 237.914C342.481 237.366 342.037 236.922 341.489 236.922Z" fill="white"/>
<path d="M362.157 236.922H360.35C359.802 236.922 359.358 237.366 359.358 237.914C359.358 238.462 359.802 238.906 360.35 238.906H362.157C362.705 238.906 363.149 238.462 363.149 237.914C363.149 237.366 362.705 236.922 362.157 236.922Z" fill="white"/>
<path d="M368.012 236.922H366.205C365.658 236.922 365.213 237.366 365.213 237.914C365.213 238.462 365.658 238.906 366.205 238.906H368.012C368.56 238.906 369.004 238.462 369.004 237.914C369.004 237.366 368.56 236.922 368.012 236.922Z" fill="white"/>
<path d="M356.535 236.757H345.304C344.756 236.757 344.312 237.201 344.312 237.749C344.312 238.297 344.756 238.741 345.304 238.741H356.535C357.083 238.741 357.527 238.297 357.527 237.749C357.527 237.201 357.083 236.757 356.535 236.757Z" fill="white"/>
<path d="M384.092 236.757H372.861C372.313 236.757 371.869 237.201 371.869 237.749C371.869 238.297 372.313 238.741 372.861 238.741H384.092C384.64 238.741 385.084 238.297 385.084 237.749C385.084 237.201 384.64 236.757 384.092 236.757Z" fill="white"/>
<path d="M347.001 241.4H345.194C344.646 241.4 344.202 241.844 344.202 242.392C344.202 242.94 344.646 243.384 345.194 243.384H347.001C347.549 243.384 347.993 242.94 347.993 242.392C347.993 241.844 347.549 241.4 347.001 241.4Z" fill="white"/>
<path d="M367.668 241.4H365.861C365.313 241.4 364.869 241.844 364.869 242.392C364.869 242.94 365.313 243.384 365.861 243.384H367.668C368.216 243.384 368.66 242.94 368.66 242.392C368.66 241.844 368.216 241.4 367.668 241.4Z" fill="white"/>
<path d="M373.524 241.4H371.717C371.169 241.4 370.725 241.844 370.725 242.392C370.725 242.94 371.169 243.384 371.717 243.384H373.524C374.072 243.384 374.516 242.94 374.516 242.392C374.516 241.844 374.072 241.4 373.524 241.4Z" fill="white"/>
<path d="M362.046 241.235H350.815C350.267 241.235 349.823 241.679 349.823 242.227C349.823 242.775 350.267 243.219 350.815 243.219H362.046C362.594 243.219 363.038 242.775 363.038 242.227C363.038 241.679 362.594 241.235 362.046 241.235Z" fill="white"/>
<path d="M351.134 259.206H349.327C348.779 259.206 348.335 259.651 348.335 260.198C348.335 260.746 348.779 261.19 349.327 261.19H351.134C351.682 261.19 352.126 260.746 352.126 260.198C352.126 259.651 351.682 259.206 351.134 259.206Z" fill="white"/>
<path d="M356.99 259.206H355.183C354.635 259.206 354.191 259.651 354.191 260.198C354.191 260.746 354.635 261.19 355.183 261.19H356.99C357.538 261.19 357.982 260.746 357.982 260.198C357.982 259.651 357.538 259.206 356.99 259.206Z" fill="white"/>
<path d="M373.069 259.372H361.838C361.29 259.372 360.846 259.816 360.846 260.364C360.846 260.912 361.29 261.356 361.838 261.356H373.069C373.617 261.356 374.061 260.912 374.061 260.364C374.061 259.816 373.617 259.372 373.069 259.372Z" fill="white"/>
<path d="M330.467 259.206H328.66C328.112 259.206 327.668 259.651 327.668 260.198C327.668 260.746 328.112 261.19 328.66 261.19H330.467C331.015 261.19 331.459 260.746 331.459 260.198C331.459 259.651 331.015 259.206 330.467 259.206Z" fill="white"/>
<path d="M345.513 259.372H334.282C333.734 259.372 333.29 259.816 333.29 260.364C333.29 260.912 333.734 261.356 334.282 261.356H345.513C346.061 261.356 346.505 260.912 346.505 260.364C346.505 259.816 346.061 259.372 345.513 259.372Z" fill="white"/>
<path d="M335.978 254.728H334.171C333.623 254.728 333.179 255.173 333.179 255.72C333.179 256.268 333.623 256.712 334.171 256.712H335.978C336.526 256.712 336.97 256.268 336.97 255.72C336.97 255.173 336.526 254.728 335.978 254.728Z" fill="white"/>
<path d="M356.645 254.728H354.838C354.29 254.728 353.846 255.173 353.846 255.72C353.846 256.268 354.29 256.712 354.838 256.712H356.645C357.193 256.712 357.637 256.268 357.637 255.72C357.637 255.173 357.193 254.728 356.645 254.728Z" fill="white"/>
<path d="M362.501 254.728H360.694C360.146 254.728 359.702 255.173 359.702 255.72C359.702 256.268 360.146 256.712 360.694 256.712H362.501C363.049 256.712 363.493 256.268 363.493 255.72C363.493 255.173 363.049 254.728 362.501 254.728Z" fill="white"/>
<path d="M351.024 254.894H339.793C339.245 254.894 338.801 255.338 338.801 255.886C338.801 256.434 339.245 256.878 339.793 256.878H351.024C351.572 256.878 352.016 256.434 352.016 255.886C352.016 255.338 351.572 254.894 351.024 254.894Z" fill="white"/>
<path d="M341.489 250.251H339.682C339.135 250.251 338.69 250.695 338.69 251.243C338.69 251.79 339.135 252.235 339.682 252.235H341.489C342.037 252.235 342.481 251.79 342.481 251.243C342.481 250.695 342.037 250.251 341.489 250.251Z" fill="white"/>
<path d="M362.157 250.251H360.35C359.802 250.251 359.358 250.695 359.358 251.243C359.358 251.79 359.802 252.235 360.35 252.235H362.157C362.705 252.235 363.149 251.79 363.149 251.243C363.149 250.695 362.705 250.251 362.157 250.251Z" fill="white"/>
<path d="M368.012 250.251H366.205C365.658 250.251 365.213 250.695 365.213 251.243C365.213 251.79 365.658 252.235 366.205 252.235H368.012C368.56 252.235 369.004 251.79 369.004 251.243C369.004 250.695 368.56 250.251 368.012 250.251Z" fill="white"/>
<path d="M356.535 250.416H345.304C344.756 250.416 344.312 250.86 344.312 251.408C344.312 251.956 344.756 252.4 345.304 252.4H356.535C357.083 252.4 357.527 251.956 357.527 251.408C357.527 250.86 357.083 250.416 356.535 250.416Z" fill="white"/>
<path d="M347.001 245.773H345.194C344.646 245.773 344.202 246.217 344.202 246.765C344.202 247.312 344.646 247.757 345.194 247.757H347.001C347.549 247.757 347.993 247.312 347.993 246.765C347.993 246.217 347.549 245.773 347.001 245.773Z" fill="white"/>
<path d="M367.668 245.773H365.861C365.313 245.773 364.869 246.217 364.869 246.765C364.869 247.312 365.313 247.757 365.861 247.757H367.668C368.216 247.757 368.66 247.312 368.66 246.765C368.66 246.217 368.216 245.773 367.668 245.773Z" fill="white"/>
<path d="M373.524 245.773H371.717C371.169 245.773 370.725 246.217 370.725 246.765C370.725 247.312 371.169 247.757 371.717 247.757H373.524C374.072 247.757 374.516 247.312 374.516 246.765C374.516 246.217 374.072 245.773 373.524 245.773Z" fill="white"/>
<path d="M362.046 245.938H350.815C350.267 245.938 349.823 246.382 349.823 246.93C349.823 247.478 350.267 247.922 350.815 247.922H362.046C362.594 247.922 363.038 247.478 363.038 246.93C363.038 246.382 362.594 245.938 362.046 245.938Z" fill="white"/>
<path d="M320.859 311.686L312.376 298.277L339.003 277.05L349.994 264.874C351.422 263.292 353.24 262.112 355.267 261.453C357.293 260.794 359.457 260.678 361.542 261.118C363.628 261.557 365.561 262.536 367.15 263.956C368.738 265.377 369.926 267.189 370.595 269.213C371.585 272.211 371.372 275.477 370.001 278.322C368.629 281.166 366.206 283.367 363.242 284.458L345.863 290.861L320.859 311.686Z" fill="#FFB6B6"/>
<path d="M121.813 214.459V279.632H167.471V214.459C167.472 213.99 167.323 213.533 167.045 213.156C166.767 212.778 166.375 212.5 165.927 212.362C165.716 212.292 165.495 212.258 165.273 212.26H124.018C123.729 212.259 123.442 212.316 123.175 212.426C122.908 212.536 122.665 212.698 122.46 212.902C122.255 213.107 122.093 213.349 121.982 213.616C121.871 213.883 121.813 214.17 121.813 214.459ZM139.632 236.853C139.643 235.568 140.162 234.34 141.075 233.435C141.988 232.531 143.221 232.024 144.506 232.024C145.791 232.024 147.023 232.531 147.936 233.435C148.849 234.34 149.368 235.568 149.38 236.853V244.415C149.373 245.703 148.857 246.936 147.943 247.845C147.03 248.754 145.794 249.264 144.506 249.264C143.217 249.264 141.981 248.754 141.068 247.845C140.155 246.936 139.638 245.703 139.632 244.415V236.853Z" fill="#2F2E41"/>
<path d="M121.673 277.548V283.833C121.674 284.158 121.804 284.471 122.033 284.701C122.263 284.932 122.574 285.063 122.9 285.066H166.385C166.711 285.064 167.023 284.934 167.253 284.702C167.482 284.471 167.611 284.159 167.611 283.833V277.548H121.673Z" fill="#3F3D56"/>
<path d="M49.9858 116.266V235.264C49.987 236.78 50.59 238.234 51.6623 239.307C52.7346 240.379 54.1886 240.982 55.7051 240.983H232.048C233.564 240.982 235.018 240.379 236.091 239.307C237.163 238.234 237.766 236.78 237.767 235.264V116.266C237.763 114.751 237.16 113.299 236.088 112.228C235.016 111.157 233.563 110.555 232.048 110.553H55.7051C54.1899 110.555 52.7373 111.157 51.6653 112.228C50.5934 113.299 49.9895 114.751 49.9858 116.266Z" fill="#3F3D56"/>
<path d="M54.123 117.747V233.796C54.1244 234.606 54.4469 235.383 55.0198 235.956C55.5928 236.529 56.3694 236.851 57.1797 236.853H230.58C231.39 236.851 232.167 236.529 232.74 235.956C233.313 235.383 233.635 234.606 233.637 233.796V117.747C233.637 116.935 233.315 116.157 232.742 115.583C232.169 115.009 231.391 114.685 230.58 114.684H57.1797C56.3684 114.685 55.591 115.009 55.018 115.583C54.445 116.157 54.1231 116.935 54.123 117.747Z" fill="white"/>
<path d="M86.3033 284.64C86.4798 284.861 86.7041 285.04 86.9595 285.162C87.2148 285.284 87.4945 285.347 87.7776 285.345H190.94C191.222 285.345 191.5 285.282 191.755 285.16C192.01 285.039 192.234 284.862 192.412 284.643C192.589 284.424 192.716 284.168 192.782 283.894C192.849 283.619 192.853 283.334 192.795 283.058L191.194 275.451C191.127 275.141 190.985 274.852 190.778 274.611C190.572 274.371 190.308 274.185 190.012 274.072C189.797 273.988 189.569 273.945 189.338 273.945H89.3726C89.1421 273.945 88.9136 273.988 88.699 274.072C88.4026 274.185 88.1392 274.37 87.9327 274.611C87.7263 274.852 87.5834 275.141 87.517 275.451L85.9156 283.058C85.8587 283.334 85.8639 283.619 85.9309 283.892C85.998 284.166 86.1252 284.422 86.3033 284.64Z" fill="#2F2E41"/>
<path d="M224.953 130.67H62.7023C62.5337 130.666 62.3732 130.597 62.2553 130.476C62.1373 130.355 62.0713 130.193 62.0713 130.025C62.0713 129.856 62.1373 129.694 62.2553 129.574C62.3732 129.453 62.5337 129.383 62.7023 129.38H224.953C225.121 129.383 225.282 129.453 225.4 129.574C225.518 129.694 225.584 129.856 225.584 130.025C225.584 130.193 225.518 130.355 225.4 130.476C225.282 130.597 225.121 130.666 224.953 130.67Z" fill="#3F3D56"/>
<path d="M73.7471 126.085C75.8355 126.085 77.5285 124.354 77.5285 122.22C77.5285 120.085 75.8355 118.354 73.7471 118.354C71.6588 118.354 69.9658 120.085 69.9658 122.22C69.9658 124.354 71.6588 126.085 73.7471 126.085Z" fill="#3F3D56"/>
<path d="M86.8096 126.085C88.898 126.085 90.591 124.354 90.591 122.22C90.591 120.085 88.898 118.354 86.8096 118.354C84.7213 118.354 83.0283 120.085 83.0283 122.22C83.0283 124.354 84.7213 126.085 86.8096 126.085Z" fill="#3F3D56"/>
<path d="M99.8726 126.085C101.961 126.085 103.654 124.354 103.654 122.22C103.654 120.085 101.961 118.354 99.8726 118.354C97.7843 118.354 96.0913 120.085 96.0913 122.22C96.0913 124.354 97.7843 126.085 99.8726 126.085Z" fill="#3F3D56"/>
<path d="M217.087 119.31H207.809C207.626 119.314 207.451 119.39 207.323 119.521C207.195 119.653 207.123 119.829 207.123 120.012C207.123 120.196 207.195 120.372 207.323 120.503C207.451 120.634 207.626 120.71 207.809 120.714H217.087C217.271 120.712 217.448 120.637 217.577 120.505C217.707 120.374 217.779 120.197 217.779 120.012C217.779 119.828 217.707 119.65 217.577 119.519C217.448 119.388 217.271 119.313 217.087 119.31Z" fill="#3F3D56"/>
<path d="M217.087 121.947H207.809C207.625 121.951 207.451 122.027 207.322 122.158C207.194 122.289 207.122 122.466 207.122 122.649C207.122 122.833 207.194 123.009 207.322 123.14C207.451 123.272 207.625 123.347 207.809 123.352H217.087C217.272 123.349 217.448 123.274 217.578 123.143C217.708 123.011 217.781 122.834 217.781 122.649C217.781 122.465 217.708 122.287 217.578 122.156C217.448 122.024 217.272 121.949 217.087 121.947Z" fill="#3F3D56"/>
<path d="M217.087 124.584H207.809C207.626 124.589 207.451 124.664 207.323 124.796C207.195 124.927 207.123 125.103 207.123 125.286C207.123 125.47 207.195 125.646 207.323 125.777C207.451 125.909 207.626 125.984 207.809 125.989H217.087C217.271 125.986 217.448 125.911 217.577 125.78C217.707 125.648 217.779 125.471 217.779 125.286C217.779 125.102 217.707 124.925 217.577 124.793C217.448 124.662 217.271 124.587 217.087 124.584Z" fill="#3F3D56"/>
<path d="M440.759 280.306C441.039 281.122 441.57 281.827 442.276 282.321C442.982 282.816 443.826 283.074 444.688 283.059L461.523 282.625C462.391 282.608 463.23 282.311 463.915 281.778C464.6 281.244 465.094 280.503 465.323 279.666L467.706 254.192C468.551 254.575 469.471 254.764 470.399 254.745C471.205 254.725 471.999 254.546 472.736 254.219C473.473 253.892 474.138 253.423 474.694 252.839C475.249 252.254 475.684 251.566 475.974 250.814C476.264 250.062 476.402 249.259 476.382 248.453C476.362 247.648 476.183 246.853 475.856 246.116C475.529 245.38 475.06 244.714 474.476 244.159C473.891 243.603 473.203 243.168 472.451 242.878C471.699 242.589 470.897 242.45 470.091 242.47C469.72 242.469 469.35 242.507 468.987 242.585C468.593 242.158 468.114 241.819 467.58 241.589C467.047 241.358 466.471 241.243 465.89 241.248L439.994 241.917C439.78 241.925 439.566 241.952 439.356 241.996C438.788 242.102 438.249 242.329 437.776 242.66C437.303 242.992 436.906 243.42 436.613 243.918C436.319 244.416 436.136 244.97 436.075 245.545C436.014 246.119 436.077 246.7 436.259 247.248L440.759 280.306ZM468.194 252.462L469.889 246.392C470.082 245.69 470.087 244.951 469.902 244.247C469.985 244.247 470.057 244.208 470.139 244.208C471.302 244.184 472.426 244.622 473.266 245.425C474.106 246.229 474.593 247.333 474.62 248.495C474.648 249.658 474.213 250.783 473.411 251.626C472.61 252.468 471.507 252.958 470.345 252.988C469.594 253.012 468.85 252.83 468.194 252.462Z" fill="#2F2E41"/>
<path d="M439.355 241.996C439.907 245.151 446.11 247.369 453.568 246.983C460.427 246.667 466.034 244.259 467.062 241.405C466.682 241.292 466.286 241.239 465.89 241.248L439.994 241.917C439.779 241.925 439.566 241.952 439.355 241.996Z" fill="#3F3D56"/>
<path d="M454.935 266.308C454.969 266.299 455.002 266.285 455.031 266.266L458.687 263.873C458.731 263.844 458.768 263.805 458.793 263.758C458.818 263.712 458.831 263.66 458.831 263.607C458.831 263.555 458.818 263.503 458.793 263.456C458.768 263.41 458.731 263.37 458.687 263.342L454.887 260.853C454.852 260.83 454.813 260.814 454.772 260.806C454.731 260.798 454.689 260.798 454.648 260.806C454.607 260.815 454.568 260.831 454.534 260.855C454.499 260.878 454.469 260.908 454.447 260.943C454.424 260.978 454.408 261.017 454.4 261.059C454.392 261.1 454.393 261.142 454.401 261.183C454.41 261.224 454.427 261.263 454.45 261.297C454.474 261.332 454.504 261.361 454.539 261.384L457.933 263.607L454.683 265.734C454.62 265.775 454.574 265.838 454.553 265.91C454.531 265.982 454.536 266.059 454.566 266.128C454.597 266.197 454.65 266.253 454.718 266.286C454.785 266.319 454.862 266.327 454.935 266.308H454.935Z" fill="#009BFF"/>
<path d="M449.161 266.574C449.222 266.559 449.278 266.525 449.32 266.478C449.362 266.431 449.389 266.372 449.398 266.31C449.406 266.247 449.396 266.183 449.368 266.126C449.34 266.069 449.296 266.022 449.241 265.991L445.871 264.059L449.128 261.639C449.162 261.614 449.19 261.583 449.212 261.547C449.233 261.512 449.247 261.472 449.253 261.431C449.259 261.39 449.257 261.347 449.247 261.307C449.237 261.267 449.219 261.229 449.194 261.195C449.169 261.162 449.138 261.133 449.102 261.112C449.066 261.091 449.027 261.076 448.985 261.07C448.944 261.064 448.902 261.066 448.862 261.077C448.821 261.087 448.783 261.105 448.75 261.13L445.103 263.838C445.061 263.87 445.027 263.911 445.004 263.959C444.982 264.007 444.972 264.059 444.975 264.112C444.978 264.165 444.994 264.216 445.022 264.261C445.05 264.305 445.089 264.343 445.134 264.369L448.925 266.542C448.996 266.583 449.081 266.595 449.161 266.574Z" fill="#009BFF"/>
<path d="M454.572 268.405C454.603 268.397 454.632 268.385 454.659 268.368C454.695 268.347 454.726 268.318 454.75 268.284C454.775 268.251 454.793 268.213 454.803 268.172C454.813 268.131 454.814 268.089 454.808 268.048C454.802 268.007 454.787 267.967 454.765 267.932L449.583 259.411C449.539 259.339 449.468 259.288 449.386 259.268C449.304 259.248 449.218 259.262 449.146 259.306C449.074 259.349 449.023 259.42 449.003 259.502C448.983 259.584 448.996 259.67 449.04 259.742L454.222 268.262C454.258 268.32 454.311 268.366 454.374 268.391C454.437 268.417 454.506 268.422 454.572 268.405Z" fill="#009BFF"/>
<path d="M163.214 165.748H135.132C133.986 165.748 133.058 166.676 133.058 167.822V170.565C133.058 171.711 133.986 172.64 135.132 172.64H163.214C164.359 172.64 165.288 171.711 165.288 170.565V167.822C165.288 166.676 164.359 165.748 163.214 165.748Z" fill="#009BFF"/>
<path d="M179.582 179.532H118.763C117.617 179.532 116.688 180.461 116.688 181.606V184.35C116.688 185.495 117.617 186.424 118.763 186.424H179.582C180.728 186.424 181.656 185.495 181.656 184.35V181.606C181.656 180.461 180.728 179.532 179.582 179.532Z" fill="#E6E6E6"/>
<path d="M179.582 193.316H118.763C117.617 193.316 116.688 194.245 116.688 195.39V198.134C116.688 199.28 117.617 200.208 118.763 200.208H179.582C180.728 200.208 181.656 199.28 181.656 198.134V195.39C181.656 194.245 180.728 193.316 179.582 193.316Z" fill="#E6E6E6"/>
<path d="M184.738 239.474L184.876 239.909L184.883 239.923L189.03 252.53L193.8 267.057L202.774 294.358L202.861 298.599V298.613L203.528 332.728L201.68 337.353L203.76 344.936C203.76 344.936 202.803 333.474 197.671 340.056C194.764 343.797 191.364 347.624 188.573 351.213C192.64 352.858 196.772 354.347 200.969 355.678C201.875 355.968 202.789 356.244 203.702 356.519C203.898 356.577 204.094 356.635 204.289 356.693C218.203 360.808 232.587 363.12 247.089 363.573C247.843 363.594 248.582 363.609 249.3 363.623C249.554 363.631 249.8 363.638 250.047 363.638C250.858 363.645 251.663 363.652 252.475 363.652C254.113 363.652 255.744 363.628 257.368 363.58C269.387 363.241 281.336 361.625 293.013 358.759C292.933 353.938 292.715 348.306 292.404 342.289C292.259 339.338 289.004 336.142 288.808 333.053C288.67 330.734 291.592 328.552 291.44 326.196C290.454 311.69 289.221 317.258 288.308 306.986C288.214 305.978 288.127 305.014 288.047 304.094C287.46 297.497 287.054 293.372 287.054 293.372L290.954 268.79L297.08 230.195L296.608 229.419L296.079 229.158L263.769 213.167L262.015 208.672C261.504 207.377 260.617 206.265 259.469 205.478C258.32 204.691 256.963 204.266 255.57 204.257L234.287 204.17C233.182 204.165 232.092 204.424 231.108 204.924C230.123 205.425 229.272 206.153 228.625 207.048L222.862 215.03L184.738 239.474Z" fill="#3F3D56"/>
<path d="M207.682 288.283L202.861 298.599L199.57 305.645L193.908 335.287L191.074 338.295L188.645 327.645L163.228 333.289C162.394 328.657 163.005 333.446 162.49 328.364C162.635 328.219 162.787 328.074 162.94 327.929C163.346 327.552 163.686 327.197 163.679 326.856C163.389 309.328 164.259 279.497 171.523 261.425C172.66 258.474 174.16 255.676 175.988 253.095C176.133 252.9 176.271 252.704 176.409 252.508C179.758 247.818 181.875 243.2 184.876 239.916V239.909C184.895 239.894 184.912 239.877 184.927 239.858C184.938 239.853 184.947 239.845 184.956 239.836L205.572 228.905L206.457 253.755L207.087 271.617L207.682 288.283Z" fill="#3F3D56"/>
<path d="M282.022 291.213L288.044 304.097L290.145 308.584L295.805 338.223L298.631 341.224L301.065 330.577L302.208 330.342L322.835 326.071L328.847 345.164C330.202 342.906 330.736 340.25 330.358 337.644C329.98 335.038 328.714 332.643 326.774 330.862C326.364 330.491 326.022 330.129 326.031 329.787C326.374 309.171 325.112 271.525 313.724 256.031C310.107 251.114 307.937 246.216 304.779 242.795C304.77 242.785 304.77 242.775 304.76 242.775L297.076 230.194L296.607 229.422L296.079 229.158L282.022 291.213Z" fill="#3F3D56"/>
<path d="M245.543 198.113C261.181 198.113 273.858 185.436 273.858 169.798C273.858 154.16 261.181 141.482 245.543 141.482C229.905 141.482 217.228 154.16 217.228 169.798C217.228 185.436 229.905 198.113 245.543 198.113Z" fill="#FFB6B6"/>
<path d="M283.815 150.02C283.595 149.785 283.331 149.597 283.037 149.467C282.743 149.337 282.426 149.268 282.105 149.263L282.531 148.081C282.67 147.709 282.707 147.307 282.64 146.915C282.572 146.523 282.401 146.157 282.145 145.853C281.889 145.549 281.557 145.319 281.182 145.185C280.808 145.052 280.405 145.021 280.015 145.095L278.464 145.393L278.61 144.358C278.666 143.972 278.621 143.578 278.479 143.215C278.336 142.852 278.102 142.532 277.799 142.288C277.495 142.043 277.134 141.881 276.749 141.818C276.364 141.755 275.97 141.794 275.604 141.93C275.272 142.061 274.915 142.116 274.558 142.09C274.202 142.065 273.856 141.96 273.545 141.784C273.234 141.613 272.963 141.376 272.752 141.089C272.542 140.803 272.396 140.474 272.325 140.125L271.785 137.52L271.728 137.38C269.097 132.995 264.039 129.805 257.849 128.636C252.34 127.587 246.691 128.121 241.245 128.623C239.084 128.827 236.644 129.055 234.61 130.301C232.882 131.368 231.42 133.504 231.719 135.658C226.349 134.012 220.592 137.297 217.739 141.441C214.358 146.372 213.805 152.549 213.716 157.378C213.475 168.804 215.832 178.152 220.706 185.167C221.062 185.676 221.151 186.737 221.856 187.093L221.71 186.858C222.498 187.252 223.299 187.887 223 188.567C222.142 190.524 227.843 194.852 231.859 196.282C239.186 198.894 248.927 198.671 255.778 197.731L256.019 196.11C258.491 195.773 260.232 195.132 260.722 194.127C261.586 193.39 262.323 192.729 262.965 192.119L262.971 192.113C262.984 192.1 263.009 192.081 263.022 192.069C266.117 189.101 266.835 187.411 267.159 184.837C267.47 182.314 266.918 179.753 266.352 177.446C278.261 179.289 261.662 164.762 272.757 161.954C272.885 161.914 273.014 161.883 273.145 161.858C273.469 161.782 273.793 161.706 274.105 161.617C275.606 161.209 277.043 160.596 278.375 159.793C281.476 157.906 282.499 155.402 284.101 152.581C284.332 152.179 284.429 151.714 284.377 151.253C284.326 150.793 284.129 150.36 283.815 150.02Z" fill="#2F2E41"/>
<path d="M345.69 293.229C345.684 294.341 345.671 295.898 345.62 297.823C345.614 298.09 345.608 298.364 345.601 298.643C345.519 302.183 345.436 305.15 345.303 308.448C345.296 308.677 345.29 308.9 345.277 309.128C345.099 313.729 344.82 319.086 344.337 327.57C343.441 343.24 341.877 329.724 340.308 335.221C340.232 335.494 340.149 335.818 340.073 336.199C339.835 337.583 339.434 338.933 338.878 340.222C338.046 340.718 337.188 341.194 336.343 341.671C333.934 343.012 331.488 344.302 329.022 345.528C327.637 346.214 326.245 346.888 324.847 347.536C324.625 347.638 324.408 347.74 324.192 347.835C317.033 351.146 309.655 353.962 302.11 356.261C300.636 356.706 299.168 357.138 297.681 357.538C296.13 357.971 294.58 358.377 293.01 358.759C281.333 361.625 269.385 363.242 257.366 363.582C255.746 363.633 254.113 363.652 252.473 363.652C251.66 363.652 250.859 363.645 250.046 363.639C249.798 363.639 249.55 363.633 249.302 363.626C248.584 363.607 247.841 363.595 247.091 363.575C232.589 363.123 218.205 360.81 204.292 356.693L203.701 356.522C202.786 356.242 201.877 355.969 200.969 355.677C196.774 354.348 192.642 352.861 188.571 351.216C185.463 349.964 182.392 348.621 179.356 347.187C179.329 347.179 179.303 347.166 179.28 347.149C178.645 346.856 178.003 346.551 177.367 346.24C177.285 346.195 177.196 346.151 177.107 346.106C174.736 344.95 172.391 343.738 170.072 342.472C168.121 337.991 165.376 337.134 163.673 333.194C163.177 332.023 162.819 330.799 162.605 329.546C162.605 329.533 162.599 329.521 162.599 329.502C162.777 331.866 161.843 325.307 162.593 329.476C162.586 329.4 162.58 329.317 162.574 329.222C162.554 328.993 162.529 328.714 162.491 328.364C160.311 307.082 160.451 282.744 159.504 262.688C159.441 261.392 159.375 260.151 159.307 258.964C159.288 258.57 159.263 258.183 159.237 257.802C159.282 257.687 159.333 257.566 159.39 257.452C159.402 257.419 159.417 257.387 159.434 257.357C159.453 257.317 159.474 257.279 159.498 257.242C159.511 257.223 159.53 257.198 159.542 257.179C159.552 257.157 159.562 257.136 159.574 257.115C159.631 257.026 159.695 256.931 159.765 256.842C159.797 256.804 159.822 256.772 159.854 256.74C159.876 256.708 159.901 256.678 159.93 256.651C159.949 256.621 159.973 256.593 160 256.569C160.025 256.543 160.051 256.512 160.082 256.48C160.096 256.46 160.113 256.443 160.133 256.429C160.184 256.371 160.239 256.318 160.299 256.27C160.525 256.061 160.767 255.87 161.023 255.698C161.112 255.641 161.207 255.584 161.296 255.52C161.937 255.137 162.611 254.814 163.311 254.554C163.552 254.465 163.794 254.383 164.054 254.294C164.149 254.268 164.238 254.237 164.334 254.205C164.474 254.16 164.613 254.116 164.76 254.084C165.484 253.868 166.266 253.684 167.111 253.512C167.212 253.493 167.32 253.474 167.428 253.449C167.581 253.417 167.74 253.391 167.899 253.366C168.115 253.328 168.337 253.29 168.56 253.252C170.447 252.953 172.589 252.731 174.952 252.584C175.175 252.572 175.397 252.559 175.62 252.546C175.88 252.534 176.141 252.521 176.408 252.508C176.63 252.495 176.859 252.489 177.088 252.483C177.31 252.47 177.539 252.464 177.774 252.457C178.416 252.438 179.077 252.419 179.75 252.406C181.669 252.368 183.69 252.381 185.813 252.426C186.798 252.451 187.802 252.476 188.831 252.521C188.901 252.521 188.965 252.527 189.028 252.527C189.924 252.559 190.826 252.597 191.754 252.648C192.402 252.68 193.057 252.711 193.711 252.75C194.328 252.788 194.951 252.826 195.58 252.87C196.069 252.896 196.558 252.934 197.054 252.966C197.473 252.997 197.893 253.029 198.312 253.055L198.884 253.093C199.196 253.118 199.507 253.137 199.825 253.169C200.524 253.226 201.223 253.283 201.934 253.341C202.64 253.404 203.358 253.468 204.076 253.531C204.794 253.595 205.518 253.665 206.243 253.735C206.319 253.741 206.389 253.747 206.459 253.754C207.12 253.824 207.781 253.887 208.448 253.957C208.601 253.97 208.759 253.982 208.912 254.001C209.548 254.065 210.197 254.14 210.839 254.208C211.036 254.23 211.232 254.25 211.429 254.272C211.932 254.327 212.428 254.374 212.934 254.434C213.602 254.51 214.282 254.58 214.942 254.669C215.457 254.726 215.972 254.783 216.487 254.847C217.294 254.942 218.113 255.044 218.933 255.152C219.245 255.19 219.556 255.228 219.867 255.272C222.206 255.565 224.57 255.889 226.972 256.226C230.613 256.74 234.312 257.3 238.035 257.903C241.766 258.507 245.517 259.145 249.29 259.816C250.243 259.988 251.196 260.159 252.156 260.337C252.588 260.42 253.02 260.502 253.452 260.585C254.189 260.718 254.926 260.858 255.663 260.998C256.4 261.138 257.138 261.278 257.875 261.424C258.752 261.595 259.635 261.767 260.512 261.938C266.288 263.082 272.033 264.302 277.638 265.58C278.559 265.789 279.481 266.005 280.396 266.215C282.226 266.641 284.039 267.073 285.835 267.512C286.331 267.626 286.82 267.747 287.31 267.867C288.53 268.172 289.75 268.477 290.951 268.789L291.161 268.846C292.044 269.062 292.908 269.284 293.772 269.513C295.812 270.047 297.818 270.587 299.79 271.134C301.099 271.496 302.394 271.862 303.673 272.233C305.586 272.786 307.46 273.345 309.284 273.911C309.735 274.05 310.187 274.19 310.631 274.324C311.966 274.737 313.281 275.156 314.559 275.576C315.575 275.906 316.567 276.243 317.545 276.58C318.524 276.916 319.484 277.253 320.424 277.59C321.028 277.806 321.625 278.035 322.222 278.251C323.08 278.569 323.925 278.886 324.752 279.204C325.006 279.299 325.254 279.401 325.501 279.496C325.66 279.566 325.813 279.624 325.965 279.687C326.264 279.808 326.569 279.922 326.861 280.043C327.16 280.157 327.452 280.278 327.745 280.405C328.031 280.52 328.323 280.64 328.603 280.761C328.888 280.875 329.168 280.996 329.448 281.123C329.683 281.219 329.912 281.32 330.134 281.422C330.585 281.619 331.036 281.816 331.475 282.019C331.691 282.121 331.907 282.216 332.123 282.318L332.619 282.547C332.689 282.585 332.758 282.617 332.828 282.648C332.987 282.725 333.152 282.807 333.311 282.884C333.68 283.055 334.042 283.239 334.398 283.411C334.875 283.652 335.338 283.894 335.783 284.129C336.234 284.37 336.673 284.612 337.092 284.847C337.162 284.885 337.226 284.923 337.296 284.962C337.391 285.012 337.486 285.07 337.582 285.12C337.906 285.305 338.217 285.495 338.529 285.68C339.139 286.054 339.717 286.423 340.257 286.792C340.378 286.874 340.492 286.957 340.613 287.033C341.013 287.319 341.395 287.599 341.75 287.885C341.75 287.891 341.75 287.891 341.757 287.891C341.877 287.98 341.992 288.075 342.106 288.164C342.202 288.253 342.303 288.329 342.399 288.418C342.729 288.704 343.034 288.978 343.314 289.257C343.407 289.344 343.496 289.435 343.581 289.531C343.618 289.561 343.652 289.595 343.682 289.632C343.809 289.759 343.924 289.886 344.032 290.013C344.048 290.031 344.063 290.05 344.076 290.071C344.229 290.249 344.369 290.427 344.502 290.604C344.566 290.693 344.635 290.782 344.693 290.871C344.769 290.979 344.845 291.094 344.909 291.202C344.966 291.291 345.017 291.386 345.067 291.475C345.202 291.704 345.317 291.944 345.411 292.193C345.482 292.362 345.539 292.536 345.582 292.714C345.63 292.883 345.667 293.055 345.69 293.229Z" fill="#2F2E41"/>
<path opacity="0.2" d="M345.69 293.229C345.684 294.341 345.671 295.898 345.62 297.823C345.614 298.09 345.601 298.364 345.595 298.643C345.532 301.344 345.436 304.68 345.303 308.448C345.296 308.677 345.29 308.9 345.277 309.128C345.099 313.729 344.82 319.086 344.337 327.57C343.441 343.24 341.878 329.724 340.308 335.221C335.949 332.539 331.17 329.73 326.061 326.845C325.139 326.324 324.209 325.801 323.271 325.276C313.053 319.576 301.64 313.602 289.725 307.686C289.254 307.451 288.778 307.216 288.308 306.987C261.014 293.496 231.223 280.373 207.088 271.617C202.43 269.926 197.982 268.401 193.8 267.06C184.993 264.245 177.38 262.275 171.521 261.424C165.42 260.534 161.207 260.852 159.504 262.688C159.441 261.392 159.375 260.151 159.307 258.964C159.282 258.57 159.256 258.183 159.231 257.802C159.27 257.697 159.321 257.597 159.37 257.496C159.378 257.482 159.383 257.467 159.39 257.452C159.402 257.419 159.417 257.387 159.434 257.357C159.453 257.317 159.474 257.279 159.498 257.242C159.519 257.197 159.544 257.155 159.574 257.115C159.631 257.026 159.695 256.931 159.765 256.842C159.816 256.775 159.871 256.712 159.93 256.651C159.949 256.621 159.973 256.593 160 256.569C160.025 256.543 160.051 256.511 160.082 256.48C160.096 256.46 160.113 256.443 160.133 256.429C160.184 256.371 160.239 256.318 160.299 256.27C160.525 256.061 160.767 255.87 161.023 255.698C161.112 255.641 161.207 255.584 161.296 255.52C161.937 255.137 162.611 254.814 163.311 254.554C163.552 254.465 163.794 254.383 164.054 254.294C164.149 254.268 164.238 254.237 164.334 254.205C164.474 254.16 164.613 254.116 164.76 254.084C165.484 253.868 166.266 253.684 167.111 253.512C167.365 253.461 167.632 253.41 167.899 253.366C168.115 253.328 168.337 253.29 168.56 253.252C170.447 252.953 172.589 252.73 174.952 252.584C175.175 252.572 175.397 252.559 175.62 252.546C175.88 252.533 176.141 252.521 176.408 252.508C176.63 252.495 176.859 252.489 177.088 252.483C177.31 252.47 177.539 252.464 177.774 252.457C178.416 252.438 179.077 252.419 179.75 252.406C181.669 252.375 183.69 252.387 185.813 252.432C186.798 252.451 187.802 252.483 188.831 252.527C188.895 252.527 188.965 252.533 189.028 252.533C189.924 252.559 190.833 252.603 191.754 252.648C192.402 252.68 193.057 252.711 193.711 252.75C194.328 252.788 194.951 252.826 195.58 252.87C196.069 252.896 196.558 252.934 197.054 252.966C197.473 252.997 197.893 253.029 198.312 253.055C198.814 253.093 199.316 253.131 199.825 253.169C200.524 253.226 201.223 253.283 201.934 253.341C202.64 253.404 203.358 253.468 204.076 253.531C204.794 253.595 205.519 253.665 206.243 253.734C206.319 253.741 206.389 253.747 206.459 253.754C207.12 253.824 207.781 253.887 208.448 253.957C212.146 254.332 215.953 254.77 219.867 255.272C222.206 255.571 224.574 255.891 226.972 256.232C230.613 256.747 234.312 257.306 238.035 257.903C241.766 258.507 245.517 259.144 249.29 259.816C250.243 259.988 251.196 260.159 252.156 260.337C253.325 260.553 254.494 260.773 255.663 260.998C256.401 261.138 257.138 261.278 257.875 261.424C258.752 261.595 259.635 261.767 260.512 261.938C266.288 263.082 272.033 264.302 277.638 265.58C278.559 265.789 279.481 266.005 280.396 266.215C282.226 266.641 284.039 267.073 285.835 267.511C286.331 267.632 286.82 267.753 287.31 267.874C288.536 268.179 289.75 268.484 290.951 268.789V268.795C291.021 268.808 291.091 268.827 291.161 268.846C292.038 269.068 292.908 269.291 293.772 269.52C295.812 270.053 297.818 270.591 299.79 271.134C301.099 271.502 302.396 271.864 303.673 272.233C305.586 272.792 307.461 273.351 309.284 273.911C309.736 274.05 310.187 274.19 310.632 274.324C311.966 274.743 313.275 275.16 314.559 275.576C315.575 275.906 316.567 276.243 317.545 276.58C318.524 276.916 319.484 277.253 320.424 277.59C321.034 277.806 321.631 278.028 322.222 278.245C323.087 278.562 323.926 278.88 324.752 279.204C325.006 279.299 325.254 279.401 325.501 279.496C325.965 279.674 326.417 279.859 326.861 280.043C327.16 280.157 327.452 280.278 327.745 280.405C328.031 280.52 328.323 280.64 328.603 280.761C328.889 280.875 329.168 280.996 329.448 281.123C329.683 281.219 329.912 281.32 330.134 281.422C330.585 281.619 331.036 281.816 331.475 282.019C331.691 282.121 331.907 282.216 332.123 282.318L332.619 282.547C332.689 282.585 332.759 282.617 332.828 282.648C333.369 282.903 333.89 283.157 334.398 283.411C334.875 283.652 335.339 283.894 335.783 284.129C336.311 284.409 336.813 284.682 337.296 284.961C337.391 285.012 337.486 285.07 337.582 285.12C337.906 285.305 338.217 285.495 338.529 285.68C339.139 286.054 339.717 286.423 340.257 286.792C340.791 287.16 341.287 287.522 341.75 287.885C341.75 287.891 341.75 287.891 341.757 287.891C341.979 288.069 342.195 288.247 342.399 288.418C342.729 288.704 343.034 288.978 343.314 289.257C343.407 289.344 343.497 289.435 343.581 289.53C343.618 289.561 343.652 289.595 343.682 289.632C343.816 289.778 343.949 289.924 344.076 290.071C344.229 290.249 344.369 290.426 344.502 290.604C344.566 290.693 344.636 290.782 344.693 290.871C344.769 290.979 344.845 291.094 344.909 291.202C344.966 291.291 345.017 291.386 345.068 291.475C345.202 291.704 345.317 291.944 345.411 292.193C345.48 292.362 345.538 292.537 345.582 292.714C345.63 292.883 345.667 293.055 345.69 293.229Z" fill="#1B1C1E"/>
</g>
<defs>
<clipPath id="clip0_22_4">
<rect width="500" height="363.652" fill="white"/>
</clipPath>
</defs>
</svg>
